<?xml version="1.0" encoding="utf-8"?>
<!-- Generator: Adobe Illustrator 18.0.0, SVG Export Plug-In . SVG Version: 6.00 Build 0)  -->
<!DOCTYPE svg PUBLIC "-//W3C//DTD SVG 1.1//EN" "http://www.w3.org/Graphics/SVG/1.1/DTD/svg11.dtd">
<svg version="1.1" id="Layer_1" xmlns="http://www.w3.org/2000/svg" xmlns:xlink="http://www.w3.org/1999/xlink" x="0px" y="0px"
	 viewBox="0 0 2000 946" enable-background="new 0 0 2000 946" xml:space="preserve">
<g>
	<g>
		<path fill="#FFFFFF" d="M601.7,345.9c0,0-2.1-25.6-24.5-25.6c-22.4,0-24.5,25.6-24.5,25.6H601.7z"/>
		<path fill="#FFFFFF" d="M567.1,345.9c0,0-2.8-42-41.3-42s-39.6,42-39.6,42H567.1z"/>
		<path fill="#FFFFFF" d="M498.4,345.9c0,0-2.5-27.3-24.5-27.3c-22.1,0-24.5,27.3-24.5,27.3"/>
		<path fill="#FFFFFF" d="M463.3,345.9c0,0-3.5-12.8-18.2-12.8s-16.5,12.8-16.5,12.8H463.3z"/>
	</g>
	<rect x="415.6" y="186.1" fill="#826055" width="33.8" height="761"/>
	<rect x="366.4" y="152.3" fill="#353535" width="2512" height="33.8"/>
	<polygon fill="#353535" points="289.8,152.3 2910.2,152.3 2910.2,0 421.5,0 	"/>
	<polygon fill="#9F7664" points="449.3,947 535.2,862.5 535.2,186.1 449.3,186.1 	"/>
	<path fill="#B5856D" d="M535.2,186.1v676.3h1364V186.1H535.2z M1203.7,756.5c0,5.5-4.5,10-10,10h-546c-5.5,0-10-4.5-10-10V244.6
		c0-5.5,4.5-10,10-10h546c5.5,0,10,4.5,10,10V756.5z M1811.3,756.5c0,5.5-4.5,10-10,10h-546c-5.5,0-10-4.5-10-10V244.6
		c0-5.5,4.5-10,10-10h546c5.5,0,10,4.5,10,10V756.5z"/>
	<g>
		<path fill="none" stroke="#8F9BA2" stroke-width="8" stroke-miterlimit="10" d="M1196.4,766.6H648.3c-5,0-9-4-9-9v-514
			c0-5,4-9,9-9h548.1c4.9,0,9,4,9,9v514C1205.4,762.5,1201.3,766.6,1196.4,766.6z"/>
		
			<line fill="none" stroke="#8F9BA2" stroke-width="8" stroke-linecap="round" stroke-linejoin="round" stroke-miterlimit="10" x1="920.2" y1="239.2" x2="920.2" y2="762.4"/>
		
			<line fill="none" stroke="#8F9BA2" stroke-width="8" stroke-linecap="round" stroke-linejoin="round" stroke-miterlimit="10" x1="773" y1="239.2" x2="773" y2="762.4"/>
		
			<line fill="none" stroke="#8F9BA2" stroke-width="8" stroke-linecap="round" stroke-linejoin="round" stroke-miterlimit="10" x1="1063.8" y1="239.2" x2="1063.8" y2="762.4"/>
		
			<line fill="none" stroke="#8F9BA2" stroke-width="8" stroke-linecap="round" stroke-linejoin="round" stroke-miterlimit="10" x1="639.3" y1="508.4" x2="1205.4" y2="508.4"/>
	</g>
	<g>
		<path fill="none" stroke="#8F9BA2" stroke-width="8" stroke-miterlimit="10" d="M1802.3,766.6h-548.1c-4.9,0-9-4-9-9v-514
			c0-5,4.1-9,9-9h548.1c4.9,0,9,4,9,9v514C1811.3,762.5,1807.3,766.6,1802.3,766.6z"/>
		
			<line fill="none" stroke="#8F9BA2" stroke-width="8" stroke-linecap="round" stroke-linejoin="round" stroke-miterlimit="10" x1="1526.2" y1="239.2" x2="1526.2" y2="762.4"/>
		
			<line fill="none" stroke="#8F9BA2" stroke-width="8" stroke-linecap="round" stroke-linejoin="round" stroke-miterlimit="10" x1="1378.9" y1="239.2" x2="1378.9" y2="762.4"/>
		
			<line fill="none" stroke="#8F9BA2" stroke-width="8" stroke-linecap="round" stroke-linejoin="round" stroke-miterlimit="10" x1="1669.8" y1="239.2" x2="1669.8" y2="762.4"/>
		
			<line fill="none" stroke="#8F9BA2" stroke-width="8" stroke-linecap="round" stroke-linejoin="round" stroke-miterlimit="10" x1="1245.2" y1="508.4" x2="1811.3" y2="508.4"/>
	</g>
	<rect x="1984.6" y="186.1" fill="#826055" width="33.8" height="761"/>
	<polygon fill="#9F7664" points="1984.9,947 1899.1,862.5 1899.1,186.1 1984.9,186.1 	"/>
	<g>
		<polygon fill="#B59F85" points="838,863.1 838,897.5 828.1,899.2 823,895.8 823,862.3 		"/>
		<polygon fill="#B59F85" points="665.9,882.4 665.9,916.9 670.4,920 678.9,918.3 679.7,880.1 		"/>
		<polygon fill="#B59F85" points="604.5,851.1 604.5,876.4 607.9,880.1 615.2,880.1 615.2,854.3 613.5,849.1 		"/>
		<path fill="#59595B" d="M815.7,760.1l-57.5-14.6l-18-2.8l-38,15.2l-23.4,24.8l12.5,86.8l61.5-10.4l71.3-8.7c0,0,4.2-61.1,3.9-62
			c-0.3-0.8-3.4-27-3.4-27L815.7,760.1z"/>
		<path fill="#959597" d="M841.6,850.2c0,0,1.5,15.4-4.8,16.9c-6.5,1.5-17.1,2.3-17.1,2.3l2.5-95.5c0,0-0.4-8.2-8-10.4
			c-7.6-2.3-74.1-20.8-74.1-20.8s14.1-1.4,17.5,0c3.4,1.4,72.4,18,72.4,18s11.7,1.1,11.7,10.1S841.6,850.2,841.6,850.2z"/>
		<path fill="#888789" d="M740.3,715.9c0,0-0.6,6,0,7.9c0.6,1.9,5.8,12.4,5.8,15.4c0,3,0.4,12.8,1.5,12.6s3.4,17.8,2.3,20.1
			c-1.1,2.3,0.2,7.9,0.3,9.8c0.1,1.9,8.2,15,4.5,16.5c-3.7,1.5-25.9,0-25.9,0l-35,2.3l-9.7-24.8l-51.4-17.5c0,0-4.5-20.1-4.9-22
			c-0.4-1.9-2.6-13.1,3-13.9s22.5-0.4,24.8,0.8c2.3,1.1,9.4-0.8,12-1.5s8.6-0.4,10.9,0c2.3,0.4,18.8,0.4,21.4,0s15-2.6,16.9-3.4
			C718.7,717.4,735.2,714,740.3,715.9z"/>
		<path fill="#888789" d="M673.8,778.9L609,753.3c0,0-8.2-2.6-9.3-1.2c-1.1,1.4,0.1,88.8,0.1,88.8s-1.4,7,4.5,10.4
			c5.9,3.4,70.3,35.4,70.3,35.4l1.4-2.3l5.4-105.8L673.8,778.9z"/>
		<polygon fill="#888789" points="685.2,885.7 819.8,869.4 820.5,843.5 691.3,857 		"/>
		<path fill="#959597" d="M621.1,750.8l56.6,19.4c0,0,13.9,2.8,15.4,11.3c1.5,8.4,0,90.4,0,90.4s2.1,13.2-6.1,13.8
			c-8.2,0.6-12.3,1.1-12.3,1.1s-5.4,0.3-5.1-10.7c0.3-11,0.8-91,0.8-91s0-7.3-6.8-9.6c-6.8-2.3-59.7-20.8-59.7-20.8s-9.6-3.4,0-3.9
			S621.1,750.8,621.1,750.8z"/>
		<path fill="#6E6D70" d="M738.2,796.2c0,0,37.2,4.1,43.6,5.3c6.4,1.1,33.8,3.8,34.9,12c1.1,8.3,0,17.3,0,17.3s3.5,10.2-7.9,12.8
			c-11.3,2.6-95.4,11.4-95.4,11.4s-19.3,2.1-19.6-5c-0.2-7.1,0-49.6,0-49.6S731.8,795.5,738.2,796.2z"/>
	</g>
	<g>
		<path fill="#F16D6E" d="M1550.1,682.1h-2.5c-0.4,0-0.7,0.3-0.7,0.7v0.6c0,0.4,0.3,0.7,0.7,0.7h2.5c0.4,0,0.7-0.3,0.7-0.7v-0.6
			C1550.7,682.4,1550.4,682.1,1550.1,682.1z"/>
		<polygon fill="#33373C" points="1611.5,532.3 1624.2,537.8 1619.2,545 1607.8,536.5 		"/>
		<polygon fill="#515459" points="1690.4,582.7 1633.6,542.8 1633.3,547.4 1689.3,586.5 		"/>
		<polygon fill="#515459" points="1686.4,588.9 1629.5,549 1627.7,552.6 1685.2,592.7 		"/>
		<polygon fill="#515459" points="1683.1,595.5 1642.1,678.7 1647.3,678.7 1686.2,598.5 		"/>
		<polygon fill="#515459" points="1689.6,597.4 1648.6,680.5 1653.8,680.5 1693.8,598.3 		"/>
		<rect x="1278.4" y="690.2" fill="#33373C" width="429.3" height="14.1"/>
		<rect x="1294.9" y="704.3" fill="#33373C" width="15.6" height="171.8"/>
		<rect x="1670.6" y="704.3" fill="#33373C" width="15.6" height="171.8"/>
		<path fill="#33373C" d="M1614.1,690.2c0,0,8.5-11.6,19.3-11.6s32.8,0,32.8,0s13.9,0.5,13.9,11.6H1614.1z"/>
		<circle fill="#33373C" cx="1690.4" cy="591.2" r="8.5"/>
		<circle fill="#33373C" cx="1625.4" cy="545" r="8.5"/>
		<path fill="#33373C" d="M1598.4,555.5l-3.8-1.5c-2.5-1-3.8-3.9-2.8-6.4l7.8-19.8c1-2.5,3.9-3.8,6.4-2.8l3.8,1.5
			c2.5,1,3.8,3.9,2.8,6.4l-7.8,19.8C1603.8,555.3,1600.9,556.5,1598.4,555.5z"/>
		<g>
			<path fill="#33373C" d="M1548.7,659.9h-140.2c-7,0-12.7-5.7-12.7-12.7V561c0-7,5.7-12.7,12.7-12.7h140.2c7,0,12.7,5.7,12.7,12.7
				v86.2C1561.3,654.2,1555.6,659.9,1548.7,659.9z"/>
			<path fill="#515459" d="M1540.6,651.4h-124.3c-7,0-12.7-5.7-12.7-12.7v-71.5c0-7,5.7-12.7,12.7-12.7h124.3
				c7,0,12.7,5.7,12.7,12.7v71.5C1553.3,645.7,1547.6,651.4,1540.6,651.4z"/>
			<rect x="1462.2" y="659.9" fill="#515459" width="36.4" height="26.4"/>
			<path fill="#33373C" d="M1510.5,690.3h-60.3c-1.8,0-3.2-1.4-3.2-3.2v-0.7c0-1.8,1.4-3.2,3.2-3.2h60.3c1.8,0,3.2,1.4,3.2,3.2v0.7
				C1513.8,688.8,1512.3,690.3,1510.5,690.3z"/>
		</g>
		<rect x="1376.9" y="685.3" fill="#2D2B2B" width="106.6" height="4.9"/>
		<path fill="#2D2B2B" d="M1539.8,690.2c0,0-2.4-1.9-2.4-3.5c0-1.7,9.4-3.6,9.4-3.6s9.7-0.3,10.6,2.3c0.8,2.3,3.5,4.9,0,4.9H1539.8z
			"/>
		<path fill="#33373C" d="M1596.8,540.5c0,0,15.5,5.9,15.5,14.5c0,8.6-0.2,25.4-0.2,25.4l-23.3-10.5L1596.8,540.5z"/>
		<path fill="#33373C" d="M1605.3,545c0,0-14.1-7.9-20.4-2s-18.4,17.4-18.4,17.4l23.5,9.9L1605.3,545z"/>
		<path fill="#F05D5E" d="M1350.6,690.2h-16.1c-1.1,0-2-0.9-2-2v-20.6c0-1.1,0.9-2,2-2h16.1c1.1,0,2,0.9,2,2v20.6
			C1352.6,689.3,1351.7,690.2,1350.6,690.2z"/>
		<path fill="#F05D5E" d="M1352.6,672.3c0,0,3.8-0.4,3.7,3.5c-0.1,3.8-1,6.4-3.7,6.6v3.2c0,0,6.3-0.6,6.3-9.1c0-7.6-6.3-6.8-6.3-6.8
			V672.3z"/>
		<g>
			<path fill="#505356" d="M1562.6,834.7v13.3l-1.1,0.6l-1.2,21.9c0,0,2.1,1,2.1,4c0,3,0.2,8.9,0.2,8.9s1.5,3.4,1.3,5.3
				c-0.1,1.9-0.1,10.1-1.8,10.4s-8.9,0-8.9,0s-2.7-1.3-2.3-4c0.4-2.7,0.5-11.2,1.1-11.5s0.3-9.6,0.3-9.6s0.6-3.3,1.6-3.4
				c0,0,0.1-7.1-0.3-7.3s-2.9-1.2-2.8-4.4s-0.6-12.4-0.6-12.4l-0.7-10.5l1.4-1.2H1562.6z"/>
			<path fill="#505356" d="M1602.9,786.8c0,0,2.2,8.9-5.5,12.2c-7.7,3.3-11.5,2.4-13.3,2.4s-18.4-4.1-18.4-4.1s-5,1.8-7.4,1.8
				s-10.8,0-11.2-3.1c-0.4-3.1,0-6.8,0-6.8l42.3-5.8L1602.9,786.8z"/>
			<path fill="#33373C" d="M1556.4,740c0,0-13.3-4.9-28.8,1.6c-15.5,6.5-43,12.7-43,12.7s-15.7,4.8-9.2,15.6
				c6.5,10.8,82.6,20.8,82.6,20.8h11.5l2.7-29L1556.4,740z"/>
			<path fill="#505356" d="M1563.9,789c0,0-38.3-18.8-50.5-21.8c-12.2-2.9-36.2,0.1-38,2.6s4.1,7,6.2,7.7s67.9,16.1,69.3,16.1
				c1.4,0,17.4,1.6,16.7,1C1566.9,794,1567.7,790.9,1563.9,789z"/>
			<path fill="#505356" d="M1613.1,623.2l-15.7,3.3c0,0-24,4.4-32.3,29.6c-8.3,25.2-9.8,35.5-9.8,35.5s-6.2,12.4-3.8,23.7
				c2.4,11.2,9.2,46.8,9.5,48.8s0.6,10.4,0.6,10.4s-0.3,23.7,11.5,21.3c11.8-2.4,45-14.2,45-14.2s12.1-2.1,11.2-24
				c-0.9-21.9-2.3-38.8,0-43.5c2.3-4.7,14.2-54.8,15.1-57.7c0.9-3,2.4-22.8,2.4-22.8s2.4-13.9-15.7-12.1S1613.1,623.2,1613.1,623.2z
				"/>
			<path fill="#505356" d="M1526.6,737.7c0,0,3.8-3.6-3.6-6.8c-7.4-3.3-35.8-7.4-35.8-7.4s-13-0.9-15.7,1.8c-2.7,2.7,3.1,7,5.3,8
				c6.6,2.8,27.8,6.5,27.8,6.5S1521.6,741,1526.6,737.7z"/>
			<path fill="#505356" d="M1504.7,739.8l12.1,35.3c0,0,3.3,5.4-2.9,7.5c-6.2,2.1-9-4.1-9-4.1l-14.1-42L1504.7,739.8z"/>
			<polygon fill="#505356" points="1560.1,798.8 1560.1,812 1553.3,812 1553.3,798.8 			"/>
			<ellipse fill="#505356" cx="1556.7" cy="811.6" rx="5.7" ry="1.8"/>
			<rect x="1551" y="811.6" fill="#505356" width="11.5" height="23.1"/>
			<path fill="#505356" d="M1551,834.7c0,0-25.9,3.6-27.9,4.6c-2,1-19,6.3-20.8,7.1c-1.8,0.8-15.6,7.9-15.6,7.9s-7.9-0.4-8.5,1.6
				c-0.6,2-1.2,8.5-1.2,8.5s3.6,1.6,5.1,1.6c1.6,0,4.1-1.6,4.7-1.8c0.6-0.2,0.6-1.6,0.6-1.6s44.5-14,63.5-14.6V834.7z"/>
			<path fill="#505356" d="M1486.9,864.1l-3.9,1.7l-0.9,0.1l-2-0.4l-3.1-1.2c0,0-6.7,1.9-7.1,6.4c-0.4,4.5,2.6,10.8,7.8,10.9
				c5.2,0.1,7.9-3.4,7.8-8.7c0,0,2.3-3.2,2.1-5.2C1487.4,865.7,1487.7,863.8,1486.9,864.1z"/>
			<path fill="#505356" d="M1562.6,834.7c0,0,25.9,3.6,27.9,4.6c2,1,19,6.3,20.8,7.1c1.8,0.8,15.6,7.9,15.6,7.9s7.9-0.4,8.5,1.6
				c0.6,2,1.2,8.5,1.2,8.5s-3.6,1.6-5.1,1.6c-1.6,0-4.1-1.6-4.7-1.8c-0.6-0.2-0.6-1.6-0.6-1.6s-44.5-14-63.5-14.6V834.7z"/>
			<path fill="#505356" d="M1626.7,864.1l3.9,1.7l0.9,0.1l2-0.4l3.1-1.2c0,0,6.7,1.9,7.1,6.4c0.4,4.5-2.6,10.8-7.8,10.9
				c-5.2,0.1-7.9-3.4-7.8-8.7c0,0-2.3-3.2-2.1-5.2C1626.2,865.7,1625.9,863.8,1626.7,864.1z"/>
		</g>
	</g>
</g>
</svg>
