<?xml version="1.0" encoding="utf-8"?>
<!-- Generator: Adobe Illustrator 18.0.0, SVG Export Plug-In . SVG Version: 6.00 Build 0)  -->
<!DOCTYPE svg PUBLIC "-//W3C//DTD SVG 1.1//EN" "http://www.w3.org/Graphics/SVG/1.1/DTD/svg11.dtd">
<svg version="1.1" id="Layer_1" xmlns="http://www.w3.org/2000/svg" xmlns:xlink="http://www.w3.org/1999/xlink" x="0px" y="0px"
	 viewBox="0 0 2000 946" enable-background="new 0 0 2000 946" xml:space="preserve">
<g>
	<rect x="0" y="0" fill="#C3E6F1" width="2000" height="776.6"/>
</g>
<g>
	<g>
		<polyline fill="#A6DEF0" points="1421.4,611.8 1498.2,611.8 1498.2,499.9 1520.2,499.9 1520.2,547.2 1558.1,547.2 1558.1,408.6 
			1589.6,408.6 1589.6,458.9 1630.5,458.9 1630.5,351.9 1684,351.9 1684,489.6 1733,489.6 1733,548.8 1784.9,548.8 1784.9,621.1 
			1849.5,621.1 1849.5,512.5 1871.5,512.5 1871.5,569.1 1920.3,569.1 1920.3,619.6 1959.7,619.6 1959.7,458.9 1999.8,458.9 
			1999.8,776 1421.4,776 		"/>
	</g>
	<g>
		<polygon fill="#A6DEF0" points="687.4,605.9 755.9,605.9 755.9,513.1 774.7,494 774.7,421.7 797.5,398.8 797.5,352.4 806.2,352.4 
			806.2,604.4 873.9,604.4 873.9,549.3 933.8,549.3 990.5,605.9 1033.1,605.9 1033.1,490.1 1059.8,490.1 1059.8,434.2 1089.7,434.2 
			1089.7,520.9 1110.2,520.9 1110.2,358.6 1127.6,358.6 1127.6,409.1 1160.7,409.1 1160.7,459.4 1198.4,459.4 1198.4,550.8 
			1229.9,550.8 1229.9,604.4 1270.9,604.4 1270.9,456.3 1326.8,400.4 1326.8,365 1362.2,365 1362.2,503.5 1410.2,551.6 
			1410.2,612.2 1424,612.2 1423.7,776 687.4,776 		"/>
	</g>
	<g>
		<polyline fill="#A6DEF0" points="0.1,458.7 65.5,458.9 65.5,394.4 98.6,394.4 98.6,509.3 133.2,509.3 133.2,559.8 192.4,559.8 
			192.4,775.5 0.1,776 		"/>
	</g>
	<g>
		<polyline fill="#A6DEF0" points="711.4,776 160.6,776 160.6,628 203.1,628 203.1,590.1 262.9,590.1 262.9,628 314.9,628 
			314.9,569.6 337,569.6 395.3,605.9 395.3,451.6 430,451.6 430,557.1 448.9,557.1 448.9,505.2 475.6,505.2 475.6,579.1 
			497.7,579.1 497.7,605.9 555.9,605.9 555.9,513.1 574.8,494 574.8,421.7 597.7,398.8 597.7,352.4 606.2,352.4 606.2,604.4 
			674,604.4 674,549.3 711.4,549.3 		"/>
	</g>
</g>
<g>
	<line fill="none" x1="2001.5" y1="776.5" x2="1563.2" y2="776.5"/>
</g>
<g>
	<path fill="#A6DEF0" d="M1526.5,776.3"/>
</g>
<g>
	<line fill="none" x1="848.6" y1="776.5" x2="410.4" y2="776.5"/>
</g>
<g>
	<path fill="#A6DEF0" d="M373.8,776.3"/>
</g>
<g>
	<g>
		<g>
			<g>
				<circle fill="#97CE89" cx="144.2" cy="724" r="18.3"/>
			</g>
			<g>
				<circle fill="#97CE89" cx="116.6" cy="738.5" r="18.3"/>
			</g>
			<g>
				<circle fill="#97CE89" cx="144.2" cy="746.1" r="18.3"/>
			</g>
			<g>
				<circle fill="#97CE89" cx="171.7" cy="724" r="18.3"/>
			</g>
			<g>
				<circle fill="#97CE89" cx="177.7" cy="746.1" r="18.3"/>
			</g>
			<g>
				<circle fill="#97CE89" cx="204" cy="760.6" r="18.3"/>
			</g>
			<g>
				<circle fill="#97CE89" cx="95.7" cy="760.6" r="18.3"/>
			</g>
			<g>
				<polygon fill="#97CE89" points="95.7,779 204,779 204,754.1 146.9,741.1 107.5,749.9 				"/>
			</g>
		</g>
	</g>
	<g>
		<g>
			<g>
				<circle fill="#8ABB82" cx="1375.8" cy="714.8" r="15"/>
			</g>
			<g>
				<circle fill="#8ABB82" cx="1360.7" cy="724.4" r="15"/>
			</g>
			<g>
				<circle fill="#8ABB82" cx="1388" cy="726.7" r="15"/>
			</g>
			<g>
				<circle fill="#8ABB82" cx="1342.1" cy="739.4" r="15"/>
			</g>
			<g>
				<circle fill="#8ABB82" cx="1335.3" cy="764" r="15"/>
			</g>
			<g>
				<circle fill="#8ABB82" cx="1405.8" cy="739.4" r="15"/>
			</g>
			<g>
				<circle fill="#8ABB82" cx="1414.9" cy="764" r="15"/>
			</g>
			<g>
				<polygon fill="#8ABB82" points="1335.3,779 1414.9,779 1409.1,741.6 1368.1,719.4 1342.1,743 				"/>
			</g>
		</g>
		<g>
			<g>
				<circle fill="#8ABB82" cx="1132.6" cy="703" r="17.8"/>
			</g>
			<g>
				<circle fill="#8ABB82" cx="1114.8" cy="714.3" r="17.8"/>
			</g>
			<g>
				<circle fill="#8ABB82" cx="1147.3" cy="716.9" r="17.8"/>
			</g>
			<g>
				<circle fill="#8ABB82" cx="1092.7" cy="732.1" r="17.8"/>
			</g>
			<g>
				<circle fill="#8ABB82" cx="1084.7" cy="761.2" r="17.8"/>
			</g>
			<g>
				<circle fill="#8ABB82" cx="1168.2" cy="732.1" r="17.8"/>
			</g>
			<g>
				<circle fill="#8ABB82" cx="1179.1" cy="761.2" r="17.8"/>
			</g>
			<g>
				<polygon fill="#8ABB82" points="1084.7,779 1179.1,779 1172,734.7 1123.4,708.4 1092.7,736.4 				"/>
			</g>
		</g>
		<g>
			<g>
				<circle fill="#97CE89" cx="829.4" cy="703" r="17.8"/>
			</g>
			<g>
				<circle fill="#97CE89" cx="811.6" cy="714.3" r="17.8"/>
			</g>
			<g>
				<circle fill="#97CE89" cx="843.9" cy="716.9" r="17.8"/>
			</g>
			<g>
				<circle fill="#97CE89" cx="789.4" cy="732.1" r="17.8"/>
			</g>
			<g>
				<circle fill="#97CE89" cx="781.3" cy="761.2" r="17.8"/>
			</g>
			<g>
				<circle fill="#97CE89" cx="865" cy="732.1" r="17.8"/>
			</g>
			<g>
				<circle fill="#97CE89" cx="875.7" cy="761.2" r="17.8"/>
			</g>
			<g>
				<polygon fill="#97CE89" points="781.3,779 875.7,779 868.8,734.7 820.2,708.4 789.4,736.4 				"/>
			</g>
		</g>
		<g>
			<g>
				<circle fill="#7A9F70" cx="1360.7" cy="732.1" r="11"/>
			</g>
			<g>
				<circle fill="#7A9F70" cx="1349.8" cy="739.2" r="11"/>
			</g>
			<g>
				<circle fill="#7A9F70" cx="1369.7" cy="740.8" r="11"/>
			</g>
			<g>
				<circle fill="#7A9F70" cx="1336.2" cy="750" r="11"/>
			</g>
			<g>
				<circle fill="#7A9F70" cx="1331.2" cy="768" r="11"/>
			</g>
			<g>
				<circle fill="#7A9F70" cx="1382.6" cy="750" r="11"/>
			</g>
			<g>
				<circle fill="#7A9F70" cx="1389.4" cy="768" r="11"/>
			</g>
			<g>
				<polygon fill="#7A9F70" points="1331.2,779 1389.4,779 1384.9,751.7 1355.1,735.6 1336.2,752.8 				"/>
			</g>
		</g>
		<g>
			<g>
				<circle fill="#7A9F70" cx="1045.1" cy="732.1" r="11"/>
			</g>
			<g>
				<circle fill="#7A9F70" cx="1034.1" cy="739.2" r="11"/>
			</g>
			<g>
				<circle fill="#7A9F70" cx="1054" cy="740.8" r="11"/>
			</g>
			<g>
				<circle fill="#7A9F70" cx="1020.5" cy="750" r="11"/>
			</g>
			<g>
				<circle fill="#7A9F70" cx="1015.5" cy="768" r="11"/>
			</g>
			<g>
				<circle fill="#7A9F70" cx="1067.1" cy="750" r="11"/>
			</g>
			<g>
				<circle fill="#7A9F70" cx="1073.6" cy="768" r="11"/>
			</g>
			<g>
				<polygon fill="#7A9F70" points="1015.5,779 1073.6,779 1069.4,751.7 1039.4,735.6 1020.5,752.8 				"/>
			</g>
		</g>
		<g>
			<g>
				<circle fill="#F8BE8B" cx="1257.6" cy="724" r="18.3"/>
			</g>
			<g>
				<circle fill="#F8BE8B" cx="1230.1" cy="738.5" r="18.3"/>
			</g>
			<g>
				<circle fill="#F8BE8B" cx="1257.6" cy="746.1" r="18.3"/>
			</g>
			<g>
				<circle fill="#F8BE8B" cx="1285.3" cy="724" r="18.3"/>
			</g>
			<g>
				<circle fill="#F8BE8B" cx="1291.2" cy="746.1" r="18.3"/>
			</g>
			<g>
				<circle fill="#F8BE8B" cx="1317.6" cy="760.6" r="18.3"/>
			</g>
			<g>
				<circle fill="#F8BE8B" cx="1209.2" cy="760.6" r="18.3"/>
			</g>
			<g>
				<polygon fill="#F8BE8B" points="1209.2,779 1317.6,779 1317.6,754.1 1260.4,741.1 1221,749.9 				"/>
			</g>
		</g>
		<g>
			<g>
				<circle fill="#8ABB82" cx="962.3" cy="724" r="18.3"/>
			</g>
			<g>
				<circle fill="#8ABB82" cx="934.8" cy="738.5" r="18.3"/>
			</g>
			<g>
				<circle fill="#8ABB82" cx="962.3" cy="746.1" r="18.3"/>
			</g>
			<g>
				<circle fill="#8ABB82" cx="990" cy="724" r="18.3"/>
			</g>
			<g>
				<circle fill="#8ABB82" cx="995.9" cy="746.1" r="18.3"/>
			</g>
			<g>
				<circle fill="#8ABB82" cx="1022.3" cy="760.6" r="18.3"/>
			</g>
			<g>
				<circle fill="#8ABB82" cx="913.9" cy="760.6" r="18.3"/>
			</g>
			<g>
				<polygon fill="#8ABB82" points="913.9,779 1022.3,779 1022.3,754.1 965.1,741.1 925.8,749.9 				"/>
			</g>
		</g>
		<g>
			<g>
				<circle fill="#7A9F70" cx="1231.9" cy="665.4" r="19.9"/>
			</g>
			<g>
				<circle fill="#7A9F70" cx="1220" cy="733.9" r="12.9"/>
			</g>
			<g>
				<circle fill="#7A9F70" cx="1238" cy="735.7" r="12.9"/>
			</g>
			<g>
				<circle fill="#7A9F70" cx="1212.1" cy="682.9" r="19.9"/>
			</g>
			<g>
				<circle fill="#7A9F70" cx="1209.7" cy="711.8" r="23.9"/>
			</g>
			<g>
				<circle fill="#7A9F70" cx="1245.2" cy="717.4" r="23.9"/>
			</g>
			<g>
				<circle fill="#7A9F70" cx="1243.1" cy="686.1" r="19.9"/>
			</g>
			<g>
				<path fill="#73675A" d="M1232.9,781.8c-4.1,0-7.4-3.3-7.4-7.4v-80.9c0-4.1,3.3-7.4,7.4-7.4c4.1,0,7.4,3.3,7.4,7.4v80.8
					C1240.3,778.5,1237,781.8,1232.9,781.8z"/>
			</g>
			<g>
				<path fill="#73675A" d="M1232.9,736c-1.7,0-3.4-0.6-4.8-1.8l-14.7-12.7c-3.1-2.7-3.4-7.4-0.8-10.4c2.6-3,7.4-3.4,10.4-0.8
					l14.7,12.7c3.1,2.7,3.4,7.4,0.8,10.4C1237,735.2,1235,736,1232.9,736z"/>
			</g>
			<g>
				<path fill="#73675A" d="M1232.9,713.5c-1.9,0-3.8-0.7-5.2-2.1c-2.9-2.9-3-7.6-0.1-10.5l10.2-10.4c2.9-2.9,7.6-3,10.5-0.1
					c2.9,2.9,3,7.6,0.1,10.5l-10.2,10.4C1236.7,712.7,1234.8,713.5,1232.9,713.5z"/>
			</g>
		</g>
		<g>
			<g>
				<circle fill="#7A9F70" cx="330.7" cy="665.4" r="19.9"/>
			</g>
			<g>
				<circle fill="#7A9F70" cx="318.8" cy="733.9" r="12.9"/>
			</g>
			<g>
				<circle fill="#7A9F70" cx="336.7" cy="735.7" r="12.9"/>
			</g>
			<g>
				<circle fill="#7A9F70" cx="310.7" cy="682.9" r="19.9"/>
			</g>
			<g>
				<circle fill="#7A9F70" cx="308.4" cy="711.8" r="23.9"/>
			</g>
			<g>
				<circle fill="#7A9F70" cx="344" cy="717.4" r="23.9"/>
			</g>
			<g>
				<circle fill="#7A9F70" cx="341.9" cy="686.1" r="19.9"/>
			</g>
			<g>
				<path fill="#73675A" d="M331.6,781.8c-4.1,0-7.4-3.3-7.4-7.4v-80.9c0-4.1,3.3-7.4,7.4-7.4c4.1,0,7.4,3.3,7.4,7.4v80.8
					C339,778.5,335.7,781.8,331.6,781.8z"/>
			</g>
			<g>
				<path fill="#73675A" d="M331.6,736c-1.7,0-3.4-0.6-4.8-1.8l-14.6-12.7c-3.1-2.7-3.4-7.4-0.8-10.4c2.7-3.1,7.4-3.4,10.4-0.8
					l14.6,12.7c3.1,2.7,3.4,7.4,0.8,10.4C335.8,735.2,333.7,736,331.6,736z"/>
			</g>
			<g>
				<path fill="#73675A" d="M331.6,713.5c-1.9,0-3.8-0.7-5.2-2.1c-2.9-2.9-3-7.6-0.1-10.5l10.2-10.4c2.9-2.9,7.6-3,10.5-0.1
					c2.9,2.9,3,7.6,0.1,10.5l-10.2,10.4C335.5,712.7,333.5,713.5,331.6,713.5z"/>
			</g>
		</g>
		<g>
			<g>
				<circle fill="#8ABB82" cx="726.2" cy="703" r="17.8"/>
			</g>
			<g>
				<circle fill="#8ABB82" cx="708.4" cy="714.3" r="17.8"/>
			</g>
			<g>
				<circle fill="#8ABB82" cx="740.6" cy="716.9" r="17.8"/>
			</g>
			<g>
				<circle fill="#8ABB82" cx="686.1" cy="732.1" r="17.8"/>
			</g>
			<g>
				<circle fill="#8ABB82" cx="678.1" cy="761.2" r="17.8"/>
			</g>
			<g>
				<circle fill="#8ABB82" cx="761.7" cy="732.1" r="17.8"/>
			</g>
			<g>
				<circle fill="#8ABB82" cx="772.5" cy="761.2" r="17.8"/>
			</g>
			<g>
				<polygon fill="#8ABB82" points="678.1,779 772.5,779 765.5,734.7 717,708.4 686.1,736.4 				"/>
			</g>
		</g>
		<g>
			<g>
				<circle fill="#8ABB82" cx="402.8" cy="703" r="17.8"/>
			</g>
			<g>
				<circle fill="#8ABB82" cx="385" cy="714.3" r="17.8"/>
			</g>
			<g>
				<circle fill="#8ABB82" cx="417.3" cy="716.9" r="17.8"/>
			</g>
			<g>
				<circle fill="#8ABB82" cx="362.8" cy="732.1" r="17.8"/>
			</g>
			<g>
				<circle fill="#8ABB82" cx="354.7" cy="761.2" r="17.8"/>
			</g>
			<g>
				<circle fill="#8ABB82" cx="438.3" cy="732.1" r="17.8"/>
			</g>
			<g>
				<circle fill="#8ABB82" cx="449.2" cy="761.2" r="17.8"/>
			</g>
			<g>
				<polygon fill="#8ABB82" points="354.7,779 449.2,779 442.1,734.7 393.6,708.4 362.8,736.4 				"/>
			</g>
		</g>
		<g>
			<g>
				<circle fill="#97CE89" cx="630.9" cy="732.1" r="11"/>
			</g>
			<g>
				<circle fill="#97CE89" cx="619.8" cy="739.2" r="11"/>
			</g>
			<g>
				<circle fill="#97CE89" cx="639.8" cy="740.8" r="11"/>
			</g>
			<g>
				<circle fill="#97CE89" cx="606.3" cy="750" r="11"/>
			</g>
			<g>
				<circle fill="#97CE89" cx="601.2" cy="768" r="11"/>
			</g>
			<g>
				<circle fill="#97CE89" cx="652.9" cy="750" r="11"/>
			</g>
			<g>
				<circle fill="#97CE89" cx="659.5" cy="768" r="11"/>
			</g>
			<g>
				<polygon fill="#97CE89" points="601.2,779 659.5,779 655.2,751.7 625.3,735.6 606.3,752.8 				"/>
			</g>
		</g>
		<g>
			<g>
				<circle fill="#F3A657" cx="315.2" cy="732.1" r="11"/>
			</g>
			<g>
				<circle fill="#F3A657" cx="304.3" cy="739.2" r="11"/>
			</g>
			<g>
				<circle fill="#F3A657" cx="324.2" cy="740.8" r="11"/>
			</g>
			<g>
				<circle fill="#F3A657" cx="290.6" cy="750" r="11"/>
			</g>
			<g>
				<circle fill="#F3A657" cx="285.7" cy="768" r="11"/>
			</g>
			<g>
				<circle fill="#F3A657" cx="337.1" cy="750" r="11"/>
			</g>
			<g>
				<circle fill="#F3A657" cx="343.8" cy="768" r="11"/>
			</g>
			<g>
				<polygon fill="#F3A657" points="285.7,779 343.8,779 339.4,751.7 309.6,735.6 290.6,752.8 				"/>
			</g>
		</g>
		<g>
			<g>
				<circle fill="#F8BE8B" cx="527.8" cy="723.4" r="18.3"/>
			</g>
			<g>
				<circle fill="#F8BE8B" cx="500.3" cy="738" r="18.3"/>
			</g>
			<g>
				<circle fill="#F8BE8B" cx="527.8" cy="745.4" r="18.3"/>
			</g>
			<g>
				<circle fill="#F8BE8B" cx="555.3" cy="723.4" r="18.3"/>
			</g>
			<g>
				<circle fill="#F8BE8B" cx="561.2" cy="745.4" r="18.3"/>
			</g>
			<g>
				<circle fill="#F8BE8B" cx="587.7" cy="760.1" r="18.3"/>
			</g>
			<g>
				<circle fill="#F8BE8B" cx="479.2" cy="760.1" r="18.3"/>
			</g>
			<g>
				<polygon fill="#F8BE8B" points="479.2,778.4 587.7,778.4 587.7,753.7 530.6,740.7 491,749.2 				"/>
			</g>
		</g>
		<g>
			<g>
				<circle fill="#8ABB82" cx="232.5" cy="724" r="18.3"/>
			</g>
			<g>
				<circle fill="#8ABB82" cx="205" cy="738.5" r="18.3"/>
			</g>
			<g>
				<circle fill="#8ABB82" cx="232.5" cy="746.1" r="18.3"/>
			</g>
			<g>
				<circle fill="#8ABB82" cx="260" cy="724" r="18.3"/>
			</g>
			<g>
				<circle fill="#8ABB82" cx="265.9" cy="746.1" r="18.3"/>
			</g>
			<g>
				<circle fill="#8ABB82" cx="292.4" cy="760.6" r="18.3"/>
			</g>
			<g>
				<circle fill="#8ABB82" cx="183.9" cy="760.6" r="18.3"/>
			</g>
			<g>
				<polygon fill="#8ABB82" points="183.9,779 292.4,779 292.4,754.1 235.3,741.1 195.8,749.9 				"/>
			</g>
		</g>
		<g>
			<g>
				<circle fill="#7A9F70" cx="849.4" cy="641.8" r="24.2"/>
			</g>
			<g>
				<circle fill="#7A9F70" cx="834.8" cy="725.8" r="15.6"/>
			</g>
			<g>
				<circle fill="#7A9F70" cx="856.8" cy="728" r="15.6"/>
			</g>
			<g>
				<circle fill="#7A9F70" cx="825.1" cy="663.2" r="24.2"/>
			</g>
			<g>
				<circle fill="#7A9F70" cx="822.2" cy="698.6" r="29.3"/>
			</g>
			<g>
				<circle fill="#7A9F70" cx="865.8" cy="705.6" r="29.3"/>
			</g>
			<g>
				<circle fill="#7A9F70" cx="863" cy="667.2" r="24.2"/>
			</g>
			<g>
				<path fill="#73675A" d="M850.5,782.5c-4.1,0-7.4-3.3-7.4-7.4v-98.7c0-4.1,3.3-7.4,7.4-7.4c4.1,0,7.4,3.3,7.4,7.4v98.7
					C857.9,779.2,854.6,782.5,850.5,782.5z"/>
			</g>
			<g>
				<path fill="#73675A" d="M850.5,726.7c-1.7,0-3.4-0.6-4.9-1.8l-17.8-15.5c-3.1-2.7-3.4-7.4-0.7-10.4c2.7-3,7.4-3.4,10.4-0.7
					l17.8,15.5c3.1,2.7,3.4,7.4,0.7,10.4C854.6,725.8,852.6,726.7,850.5,726.7z"/>
			</g>
			<g>
				<path fill="#73675A" d="M850.5,699c-1.9,0-3.8-0.7-5.2-2.2c-2.9-2.9-2.9-7.6,0-10.5l12.5-12.5c2.9-2.9,7.6-2.9,10.5,0
					c2.9,2.9,2.9,7.6,0,10.5l-12.5,12.5C854.3,698.2,852.4,699,850.5,699z"/>
			</g>
		</g>
	</g>
	<g>
		<g>
			<g>
				<circle fill="#8ABB82" cx="1674.7" cy="703" r="17.8"/>
			</g>
			<g>
				<circle fill="#8ABB82" cx="1656.9" cy="714.3" r="17.8"/>
			</g>
			<g>
				<circle fill="#8ABB82" cx="1689.4" cy="716.9" r="17.8"/>
			</g>
			<g>
				<circle fill="#8ABB82" cx="1634.8" cy="732.1" r="17.8"/>
			</g>
			<g>
				<circle fill="#8ABB82" cx="1626.8" cy="761.2" r="17.8"/>
			</g>
			<g>
				<circle fill="#8ABB82" cx="1710.3" cy="732.1" r="17.8"/>
			</g>
			<g>
				<circle fill="#8ABB82" cx="1721.3" cy="761.2" r="17.8"/>
			</g>
			<g>
				<polygon fill="#8ABB82" points="1626.8,779 1721.3,779 1714.1,734.7 1665.5,708.4 1634.8,736.4 				"/>
			</g>
		</g>
		<g>
			<g>
				<circle fill="#8ABB82" cx="1935.7" cy="703" r="17.8"/>
			</g>
			<g>
				<circle fill="#8ABB82" cx="1917.9" cy="714.3" r="17.8"/>
			</g>
			<g>
				<circle fill="#8ABB82" cx="1950.4" cy="716.9" r="17.8"/>
			</g>
			<g>
				<circle fill="#8ABB82" cx="1895.8" cy="732.1" r="17.8"/>
			</g>
			<g>
				<circle fill="#8ABB82" cx="1887.8" cy="761.2" r="17.8"/>
			</g>
			<g>
				<circle fill="#8ABB82" cx="1971.3" cy="732.1" r="17.8"/>
			</g>
			<g>
				<circle fill="#8ABB82" cx="1982.2" cy="761.2" r="17.8"/>
			</g>
			<g>
				<polygon fill="#8ABB82" points="1887.8,779 1982.2,779 1975.1,734.7 1926.5,708.4 1895.8,736.4 				"/>
			</g>
		</g>
		<g>
			<g>
				<path fill="#97CE89" d="M1435.7,761.2"/>
			</g>
		</g>
		<g>
			<g>
				<circle fill="#7A9F70" cx="1902.9" cy="732.1" r="11"/>
			</g>
			<g>
				<circle fill="#7A9F70" cx="1892" cy="739.2" r="11"/>
			</g>
			<g>
				<circle fill="#7A9F70" cx="1911.9" cy="740.8" r="11"/>
			</g>
			<g>
				<circle fill="#7A9F70" cx="1878.4" cy="750" r="11"/>
			</g>
			<g>
				<circle fill="#7A9F70" cx="1873.4" cy="768" r="11"/>
			</g>
			<g>
				<circle fill="#7A9F70" cx="1924.8" cy="750" r="11"/>
			</g>
			<g>
				<circle fill="#7A9F70" cx="1931.6" cy="768" r="11"/>
			</g>
			<g>
				<polygon fill="#7A9F70" points="1873.4,779 1931.6,779 1927.1,751.7 1897.3,735.6 1878.4,752.8 				"/>
			</g>
		</g>
		<g>
			<g>
				<circle fill="#7A9F70" cx="1587.2" cy="732.1" r="11"/>
			</g>
			<g>
				<circle fill="#7A9F70" cx="1576.2" cy="739.2" r="11"/>
			</g>
			<g>
				<circle fill="#7A9F70" cx="1596.2" cy="740.8" r="11"/>
			</g>
			<g>
				<circle fill="#7A9F70" cx="1562.6" cy="750" r="11"/>
			</g>
			<g>
				<circle fill="#7A9F70" cx="1557.6" cy="768" r="11"/>
			</g>
			<g>
				<circle fill="#7A9F70" cx="1609.2" cy="750" r="11"/>
			</g>
			<g>
				<circle fill="#7A9F70" cx="1615.7" cy="768" r="11"/>
			</g>
			<g>
				<polygon fill="#7A9F70" points="1557.6,779 1615.7,779 1611.5,751.7 1581.5,735.6 1562.6,752.8 				"/>
			</g>
		</g>
		<g>
			<g>
				<circle fill="#F8BE8B" cx="1799.9" cy="724" r="18.3"/>
			</g>
			<g>
				<circle fill="#F8BE8B" cx="1772.3" cy="738.5" r="18.3"/>
			</g>
			<g>
				<circle fill="#F8BE8B" cx="1799.9" cy="746.1" r="18.3"/>
			</g>
			<g>
				<circle fill="#F8BE8B" cx="1827.5" cy="724" r="18.3"/>
			</g>
			<g>
				<circle fill="#F8BE8B" cx="1833.4" cy="746.1" r="18.3"/>
			</g>
			<g>
				<circle fill="#F8BE8B" cx="1859.8" cy="760.6" r="18.3"/>
			</g>
			<g>
				<circle fill="#F8BE8B" cx="1751.4" cy="760.6" r="18.3"/>
			</g>
			<g>
				<polygon fill="#F8BE8B" points="1751.4,779 1859.8,779 1859.8,754.1 1802.6,741.1 1763.2,749.9 				"/>
			</g>
		</g>
		<g>
			<g>
				<circle fill="#8ABB82" cx="1494.6" cy="724" r="18.3"/>
			</g>
			<g>
				<circle fill="#8ABB82" cx="1467" cy="738.5" r="18.3"/>
			</g>
			<g>
				<circle fill="#8ABB82" cx="1494.6" cy="746.1" r="18.3"/>
			</g>
			<g>
				<circle fill="#8ABB82" cx="1522.1" cy="724" r="18.3"/>
			</g>
			<g>
				<circle fill="#8ABB82" cx="1528" cy="746.1" r="18.3"/>
			</g>
			<g>
				<circle fill="#8ABB82" cx="1554.5" cy="760.6" r="18.3"/>
			</g>
			<g>
				<circle fill="#8ABB82" cx="1446" cy="760.6" r="18.3"/>
			</g>
			<g>
				<polygon fill="#8ABB82" points="1446,779 1554.5,779 1554.5,754.1 1497.3,741.1 1457.8,749.9 				"/>
			</g>
		</g>
		<g>
			<g>
				<circle fill="#7A9F70" cx="1774.1" cy="665.4" r="19.9"/>
			</g>
			<g>
				<circle fill="#7A9F70" cx="1762.2" cy="733.9" r="12.9"/>
			</g>
			<g>
				<circle fill="#7A9F70" cx="1780.2" cy="735.7" r="12.9"/>
			</g>
			<g>
				<circle fill="#7A9F70" cx="1754.3" cy="682.9" r="19.9"/>
			</g>
			<g>
				<circle fill="#7A9F70" cx="1751.9" cy="711.8" r="23.9"/>
			</g>
			<g>
				<circle fill="#7A9F70" cx="1787.4" cy="717.4" r="23.9"/>
			</g>
			<g>
				<circle fill="#7A9F70" cx="1785.3" cy="686.1" r="19.9"/>
			</g>
			<g>
				<path fill="#73675A" d="M1775.1,781.8c-4.1,0-7.4-3.3-7.4-7.4v-80.9c0-4.1,3.3-7.4,7.4-7.4c4.1,0,7.4,3.3,7.4,7.4v80.8
					C1782.5,778.5,1779.2,781.8,1775.1,781.8z"/>
			</g>
			<g>
				<path fill="#73675A" d="M1775.1,736c-1.7,0-3.4-0.6-4.8-1.8l-14.6-12.7c-3.1-2.7-3.4-7.4-0.8-10.4c2.7-3.1,7.4-3.4,10.4-0.8
					l14.6,12.7c3.1,2.7,3.4,7.4,0.8,10.4C1779.3,735.2,1777.2,736,1775.1,736z"/>
			</g>
			<g>
				<path fill="#73675A" d="M1775.1,713.5c-1.9,0-3.8-0.7-5.2-2.1c-2.9-2.9-3-7.6-0.1-10.5l10.2-10.4c2.9-2.9,7.6-3,10.5-0.1
					c2.9,2.9,3,7.6,0.1,10.5l-10.2,10.4C1778.9,712.7,1777,713.5,1775.1,713.5z"/>
			</g>
		</g>
		<g>
			<g>
				<path fill="#7A9F70" d="M1429.5,667.2"/>
			</g>
		</g>
	</g>
	<g>
		<g>
			<circle fill="#8ABB82" cx="66" cy="703" r="17.8"/>
		</g>
		<g>
			<circle fill="#8ABB82" cx="48.2" cy="714.3" r="17.8"/>
		</g>
		<g>
			<circle fill="#8ABB82" cx="80.4" cy="716.9" r="17.8"/>
		</g>
		<g>
			<circle fill="#8ABB82" cx="25.9" cy="732.1" r="17.8"/>
		</g>
		<g>
			<circle fill="#8ABB82" cx="17.9" cy="761.2" r="17.8"/>
		</g>
		<g>
			<circle fill="#8ABB82" cx="101.5" cy="732.1" r="17.8"/>
		</g>
		<g>
			<circle fill="#8ABB82" cx="112.3" cy="761.2" r="17.8"/>
		</g>
		<g>
			<polygon fill="#8ABB82" points="17.9,779 112.3,779 105.3,734.7 56.8,708.4 25.9,736.4 			"/>
		</g>
	</g>
</g>
<g>
	<rect x="0.1" y="776" fill="#363736" width="1999.9" height="170"/>
</g>
</svg>
