<?xml version="1.0" encoding="utf-8"?>
<!-- Generator: Adobe Illustrator 18.0.0, SVG Export Plug-In . SVG Version: 6.00 Build 0)  -->
<!DOCTYPE svg PUBLIC "-//W3C//DTD SVG 1.1//EN" "http://www.w3.org/Graphics/SVG/1.1/DTD/svg11.dtd">
<svg version="1.1" id="Layer_1" xmlns="http://www.w3.org/2000/svg" xmlns:xlink="http://www.w3.org/1999/xlink" x="0px" y="0px"
	 viewBox="0 0 2000 946" enable-background="new 0 0 2000 946" xml:space="preserve">
<g>
	<rect x="0" y="0" fill="#C3E6F1" width="2000" height="776.6"/>
</g>
<g>
	<g>
		<polyline fill="#A6DEF0" points="1421.4,611.9 1498.2,611.9 1498.2,499.9 1520.2,499.9 1520.2,547.3 1558.1,547.3 1558.1,408.6 
			1589.6,408.6 1589.6,458.9 1630.6,458.9 1630.6,351.9 1684.1,351.9 1684.1,489.6 1733,489.6 1733,548.9 1784.9,548.9 
			1784.9,621.2 1849.5,621.2 1849.5,512.5 1871.5,512.5 1871.5,569.2 1920.3,569.2 1920.3,619.7 1959.7,619.7 1959.7,458.9 
			1999.8,458.9 1999.8,776.1 1421.4,776.1 		"/>
	</g>
	<g>
		<polygon fill="#A6DEF0" points="687.4,606 755.9,606 755.9,513.1 774.7,494 774.7,421.7 797.5,398.8 797.5,352.4 806.2,352.4 
			806.2,604.5 873.9,604.5 873.9,549.4 933.8,549.4 990.5,606 1033.1,606 1033.1,490.1 1059.8,490.1 1059.8,434.2 1089.7,434.2 
			1089.7,520.9 1110.2,520.9 1110.2,358.6 1127.6,358.6 1127.6,409.1 1160.7,409.1 1160.7,459.4 1198.4,459.4 1198.4,550.9 
			1229.9,550.9 1229.9,604.5 1270.9,604.5 1270.9,456.3 1326.8,400.4 1326.8,365 1362.2,365 1362.2,503.5 1410.2,551.7 
			1410.2,612.3 1424,612.3 1423.7,776.1 687.4,776.1 		"/>
	</g>
	<g>
		<polyline fill="#A6DEF0" points="0.1,458.7 65.5,458.9 65.5,394.4 98.6,394.4 98.6,509.3 133.2,509.3 133.2,559.9 192.4,559.9 
			192.4,775.6 0.1,776.1 		"/>
	</g>
	<g>
		<polyline fill="#A6DEF0" points="711.4,776.1 160.6,776.1 160.6,628.1 203.1,628.1 203.1,590.2 262.9,590.2 262.9,628.1 
			314.9,628.1 314.9,569.7 337,569.7 395.3,606 395.3,451.6 430,451.6 430,557.2 448.9,557.2 448.9,505.2 475.6,505.2 475.6,579.2 
			497.7,579.2 497.7,606 556,606 556,513.1 574.9,494 574.9,421.7 597.8,398.8 597.8,352.4 606.3,352.4 606.3,604.5 674,604.5 
			674,549.4 711.4,549.4 		"/>
	</g>
</g>
<g>
	<line fill="none" x1="2001.5" y1="776.6" x2="1563.2" y2="776.6"/>
</g>
<g>
	<path fill="#A6DEF0" d="M1526.5,776.4"/>
</g>
<g>
	<line fill="none" x1="848.6" y1="776.6" x2="410.4" y2="776.6"/>
</g>
<g>
	<path fill="#A6DEF0" d="M373.8,776.4"/>
</g>
<g>
	<g>
		<rect x="880.6" y="770.9" fill="#71BBD1" width="57.2" height="8"/>
	</g>
	<g>
		<rect x="890.9" y="762.9" fill="#71BBD1" width="36.7" height="8"/>
	</g>
	<g>
		<rect x="880.6" y="680.3" fill="#71BBD1" width="57.2" height="8"/>
	</g>
	<g>
		<rect x="890.9" y="688.4" fill="#71BBD1" width="36.7" height="8"/>
	</g>
	<g>
		<rect x="895" y="696.4" fill="#71BBD1" width="28.4" height="66.4"/>
	</g>
	<g>
		<rect x="897.1" y="650.4" fill="#71BBD1" width="23.9" height="19.1"/>
	</g>
	<g>
		<rect x="897.1" y="556.3" fill="#71BBD1" width="23.9" height="86.1"/>
	</g>
	<g>
		<rect x="892.3" y="642.4" fill="#71BBD1" width="33.6" height="8"/>
	</g>
	<g>
		<rect x="892.3" y="545.6" fill="#71BBD1" width="33.6" height="10.8"/>
	</g>
	<g>
		<rect x="886.3" y="538.4" fill="#71BBD1" width="45.5" height="7.2"/>
	</g>
	<g>
		<rect x="897.6" y="526" fill="#71BBD1" width="23" height="10.6"/>
	</g>
	<g>
		<rect x="513" y="770.9" fill="#71BBD1" width="57.2" height="8"/>
	</g>
	<g>
		<rect x="523.2" y="762.9" fill="#71BBD1" width="36.7" height="8"/>
	</g>
	<g>
		<rect x="513" y="680.3" fill="#71BBD1" width="57.2" height="8"/>
	</g>
	<g>
		<rect x="523.2" y="688.4" fill="#71BBD1" width="36.7" height="8"/>
	</g>
	<g>
		<rect x="527.4" y="696.4" fill="#71BBD1" width="28.4" height="66.4"/>
	</g>
	<g>
		<rect x="529.5" y="650.4" fill="#71BBD1" width="23.9" height="19.1"/>
	</g>
	<g>
		<rect x="529.5" y="556.3" fill="#71BBD1" width="23.9" height="86.1"/>
	</g>
	<g>
		<rect x="524.6" y="642.4" fill="#71BBD1" width="33.6" height="8"/>
	</g>
	<g>
		<rect x="524.6" y="545.6" fill="#71BBD1" width="33.6" height="10.8"/>
	</g>
	<g>
		<rect x="518.7" y="538.4" fill="#71BBD1" width="45.5" height="7.2"/>
	</g>
	<g>
		<rect x="529.9" y="525.4" fill="#71BBD1" width="23" height="10.6"/>
	</g>
	<g>
		<rect x="353.5" y="669.5" fill="#71BBD1" width="737.9" height="10.9"/>
	</g>
	<g>
		<path fill="#71BBD1" d="M728.7,624.7c-4,0-6.3-0.1-6.4-0.1c-1-0.1-1.8-1-1.8-2c0.1-1.1,1-1.8,2-1.8c0.3,0,28.9,1.8,63.1-7.6
			c31.4-8.7,74.1-28.8,99-75.6c0.3-0.6,1-1,1.7-1h45.5c1.1,0,1.9,0.9,1.9,1.9s-0.9,1.9-1.9,1.9h-44.3c-25.6,47.4-69,67.8-100.9,76.5
			C761.4,623.8,739.2,624.7,728.7,624.7z"/>
	</g>
	<g>
		<path fill="#71BBD1" d="M1089.5,624.7c-10.5,0-32.7-1-57.9-7.9c-31.9-8.8-75.3-29.2-100.9-76.5h-44.3c-1.1,0-1.9-0.9-1.9-1.9
			s0.9-1.9,1.9-1.9h45.5c0.7,0,1.4,0.4,1.7,1c24.9,46.8,67.6,67,99,75.6c34.2,9.4,62.8,7.7,63.1,7.6c1-0.1,2,0.7,2,1.8
			c0.1,1-0.7,2-1.8,2C1095.7,624.6,1093.5,624.7,1089.5,624.7z"/>
	</g>
	<g>
		<path fill="#71BBD1" d="M719.3,624.7c-10.5,0-32.7-1-57.9-7.9c-31.9-8.8-75.3-29.2-100.9-76.5h-44.3c-1.1,0-1.9-0.9-1.9-1.9
			s0.9-1.9,1.9-1.9h45.5c0.7,0,1.4,0.4,1.7,1c24.9,46.8,67.6,67,99,75.6c34.2,9.4,62.8,7.7,63.1,7.6c1-0.1,2,0.7,2,1.8
			c0.1,1-0.7,2-1.8,2C725.6,624.6,723.3,624.7,719.3,624.7z"/>
	</g>
	<g>
		<path fill="#71BBD1" d="M361.1,624.7c-4,0-6.3-0.1-6.4-0.1c-1-0.1-1.8-1-1.8-2c0.1-1.1,1-1.8,2-1.8c0.3,0,28.9,1.8,63.1-7.6
			c31.4-8.7,74.1-28.8,99-75.6c0.3-0.6,1-1,1.7-1h45.5c1.1,0,1.9,0.9,1.9,1.9s-0.9,1.9-1.9,1.9h-44.3c-25.6,47.4-69,67.8-100.9,76.5
			C393.8,623.8,371.6,624.7,361.1,624.7z"/>
	</g>
	<g>
		<path fill="#71BBD1" d="M1080.7,676.8c-1.1,0-1.9-0.9-1.9-1.9v-52.1c0-1.1,0.9-1.9,1.9-1.9s1.9,0.9,1.9,1.9v52.1
			C1082.6,676,1081.8,676.8,1080.7,676.8z"/>
	</g>
	<g>
		<path fill="#71BBD1" d="M1068,676.8c-1.1,0-1.9-0.9-1.9-1.9v-53.2c0-1.1,0.9-1.9,1.9-1.9s1.9,0.9,1.9,1.9v53.2
			C1069.9,676,1069.1,676.8,1068,676.8z"/>
	</g>
	<g>
		<path fill="#71BBD1" d="M1056.2,676.8c-1.1,0-1.9-0.9-1.9-1.9v-54.8c0-1.1,0.9-1.9,1.9-1.9s1.9,0.9,1.9,1.9v54.8
			C1058.1,676,1057.2,676.8,1056.2,676.8z"/>
	</g>
	<g>
		<path fill="#71BBD1" d="M1044.7,676.8c-1.1,0-1.9-0.9-1.9-1.9v-56.9c0-1.1,0.9-1.9,1.9-1.9s1.9,0.9,1.9,1.9v56.9
			C1046.6,676,1045.8,676.8,1044.7,676.8z"/>
	</g>
	<g>
		<path fill="#71BBD1" d="M1032.6,676.8c-1.1,0-1.9-0.9-1.9-1.9v-59.8c0-1.1,0.9-1.9,1.9-1.9s1.9,0.9,1.9,1.9v59.8
			C1034.5,676,1033.7,676.8,1032.6,676.8z"/>
	</g>
	<g>
		<path fill="#71BBD1" d="M1021.3,676.8c-1.1,0-1.9-0.9-1.9-1.9v-63.2c0-1.1,0.9-1.9,1.9-1.9s1.9,0.9,1.9,1.9v63.2
			C1023.2,676,1022.4,676.8,1021.3,676.8z"/>
	</g>
	<g>
		<path fill="#71BBD1" d="M1010.4,676.8c-1.1,0-1.9-0.9-1.9-1.9v-67.2c0-1.1,0.9-1.9,1.9-1.9s1.9,0.9,1.9,1.9v67.2
			C1012.3,676,1011.4,676.8,1010.4,676.8z"/>
	</g>
	<g>
		<path fill="#71BBD1" d="M998.9,676.8c-1.1,0-1.9-0.9-1.9-1.9v-72.4c0-1.1,0.9-1.9,1.9-1.9s1.9,0.9,1.9,1.9v72.4
			C1000.8,676,999.9,676.8,998.9,676.8z"/>
	</g>
	<g>
		<path fill="#71BBD1" d="M987.2,676.8c-1.1,0-1.9-0.9-1.9-1.9v-78.7c0-1.1,0.9-1.9,1.9-1.9s1.9,0.9,1.9,1.9v78.7
			C989.1,676,988.2,676.8,987.2,676.8z"/>
	</g>
	<g>
		<path fill="#71BBD1" d="M974.8,676.8c-1.1,0-1.9-0.9-1.9-1.9V588c0-1.1,0.9-1.9,1.9-1.9s1.9,0.9,1.9,1.9v86.9
			C976.7,676,975.8,676.8,974.8,676.8z"/>
	</g>
	<g>
		<path fill="#71BBD1" d="M963.3,676.8c-1.1,0-1.9-0.9-1.9-1.9v-96.2c0-1.1,0.9-1.9,1.9-1.9s1.9,0.9,1.9,1.9v96.2
			C965.2,676,964.3,676.8,963.3,676.8z"/>
	</g>
	<g>
		<path fill="#71BBD1" d="M952.9,676.8c-1.1,0-1.9-0.9-1.9-1.9V568.4c0-1.1,0.9-1.9,1.9-1.9s1.9,0.9,1.9,1.9v106.5
			C954.8,676,954,676.8,952.9,676.8z"/>
	</g>
	<g>
		<path fill="#71BBD1" d="M939.3,676.8c-1.1,0-1.9-0.9-1.9-1.9V551c0-1.1,0.9-1.9,1.9-1.9s1.9,0.9,1.9,1.9v124
			C941.2,676,940.4,676.8,939.3,676.8z"/>
	</g>
	<g>
		<path fill="#71BBD1" d="M928.7,676.8c-1.1,0-1.9-0.9-1.9-1.9V545.6c0-1.1,0.9-1.9,1.9-1.9s1.9,0.9,1.9,1.9v129.3
			C930.6,676,929.7,676.8,928.7,676.8z"/>
	</g>
	<g>
		<path fill="#71BBD1" d="M882.3,675.6c-1.1,0-1.9-0.9-1.9-1.9V545.6c0-1.1,0.9-1.9,1.9-1.9s1.9,0.9,1.9,1.9v128.1
			C884.2,674.8,883.3,675.6,882.3,675.6z"/>
	</g>
	<g>
		<path fill="#71BBD1" d="M869.2,676.8c-1.1,0-1.9-0.9-1.9-1.9v-111c0-1.1,0.9-1.9,1.9-1.9s1.9,0.9,1.9,1.9v111
			C871.1,676,870.3,676.8,869.2,676.8z"/>
	</g>
	<g>
		<path fill="#71BBD1" d="M857.2,676.8c-1.1,0-1.9-0.9-1.9-1.9v-98.3c0-1.1,0.9-1.9,1.9-1.9s1.9,0.9,1.9,1.9v98.3
			C859.1,676,858.2,676.8,857.2,676.8z"/>
	</g>
	<g>
		<path fill="#71BBD1" d="M846.3,676.8c-1.1,0-1.9-0.9-1.9-1.9v-89.1c0-1.1,0.9-1.9,1.9-1.9s1.9,0.9,1.9,1.9v89.1
			C848.2,676,847.4,676.8,846.3,676.8z"/>
	</g>
	<g>
		<path fill="#71BBD1" d="M834.7,676.8c-1.1,0-1.9-0.9-1.9-1.9v-81c0-1.1,0.9-1.9,1.9-1.9s1.9,0.9,1.9,1.9v81
			C836.6,676,835.8,676.8,834.7,676.8z"/>
	</g>
	<g>
		<path fill="#71BBD1" d="M823.8,676.8c-1.1,0-1.9-0.9-1.9-1.9v-74.7c0-1.1,0.9-1.9,1.9-1.9c1.1,0,1.9,0.9,1.9,1.9v74.7
			C825.7,676,824.9,676.8,823.8,676.8z"/>
	</g>
	<g>
		<path fill="#71BBD1" d="M812.8,675.6c-1.1,0-1.9-0.9-1.9-1.9v-68.2c0-1.1,0.9-1.9,1.9-1.9s1.9,0.9,1.9,1.9v68.2
			C814.7,674.8,813.8,675.6,812.8,675.6z"/>
	</g>
	<g>
		<path fill="#71BBD1" d="M800.1,676.8c-1.1,0-1.9-0.9-1.9-1.9v-64.7c0-1.1,0.9-1.9,1.9-1.9s1.9,0.9,1.9,1.9v64.7
			C802,676,801.2,676.8,800.1,676.8z"/>
	</g>
	<g>
		<path fill="#71BBD1" d="M788.2,676.8c-1.1,0-1.9-0.9-1.9-1.9v-60.5c0-1.1,0.9-1.9,1.9-1.9s1.9,0.9,1.9,1.9v60.5
			C790.1,676,789.3,676.8,788.2,676.8z"/>
	</g>
	<g>
		<path fill="#71BBD1" d="M777.1,675.6c-1.1,0-1.9-0.9-1.9-1.9v-56.5c0-1.1,0.9-1.9,1.9-1.9s1.9,0.9,1.9,1.9v56.5
			C779,674.8,778.2,675.6,777.1,675.6z"/>
	</g>
	<g>
		<path fill="#71BBD1" d="M765.9,675.6c-1.1,0-1.9-0.9-1.9-1.9v-54.2c0-1.1,0.9-1.9,1.9-1.9s1.9,0.9,1.9,1.9v54.2
			C767.8,674.8,767,675.6,765.9,675.6z"/>
	</g>
	<g>
		<path fill="#71BBD1" d="M754,675.6c-1.1,0-1.9-0.9-1.9-1.9v-52.5c0-1.1,0.9-1.9,1.9-1.9s1.9,0.9,1.9,1.9v52.5
			C755.9,674.8,755,675.6,754,675.6z"/>
	</g>
	<g>
		<path fill="#71BBD1" d="M741.9,676.8c-1.1,0-1.9-0.9-1.9-1.9v-52.1c0-1.1,0.9-1.9,1.9-1.9s1.9,0.9,1.9,1.9v52.1
			C743.8,676,742.9,676.8,741.9,676.8z"/>
	</g>
	<g>
		<path fill="#71BBD1" d="M731.1,675.6c-1.1,0-1.9-0.9-1.9-1.9v-50.9c0-1.1,0.9-1.9,1.9-1.9c1.1,0,1.9,0.9,1.9,1.9v50.9
			C733,674.8,732.1,675.6,731.1,675.6z"/>
	</g>
	<g>
		<path fill="#71BBD1" d="M718,676.8c-1.1,0-1.9-0.9-1.9-1.9v-52.1c0-1.1,0.9-1.9,1.9-1.9s1.9,0.9,1.9,1.9v52.1
			C719.9,676,719,676.8,718,676.8z"/>
	</g>
	<g>
		<path fill="#71BBD1" d="M707.8,676.8c-1.1,0-1.9-0.9-1.9-1.9v-52.1c0-1.1,0.9-1.9,1.9-1.9s1.9,0.9,1.9,1.9v52.1
			C709.7,676,708.8,676.8,707.8,676.8z"/>
	</g>
	<g>
		<path fill="#71BBD1" d="M695.5,675.6c-1.1,0-1.9-0.9-1.9-1.9v-52.5c0-1.1,0.9-1.9,1.9-1.9c1.1,0,1.9,0.9,1.9,1.9v52.5
			C697.4,674.8,696.6,675.6,695.5,675.6z"/>
	</g>
	<g>
		<path fill="#71BBD1" d="M682.1,675.6c-1.1,0-1.9-0.9-1.9-1.9v-54.2c0-1.1,0.9-1.9,1.9-1.9s1.9,0.9,1.9,1.9v54.2
			C684,674.8,683.2,675.6,682.1,675.6z"/>
	</g>
	<g>
		<path fill="#71BBD1" d="M670.9,675.6c-1.1,0-1.9-0.9-1.9-1.9v-56.5c0-1.1,0.9-1.9,1.9-1.9s1.9,0.9,1.9,1.9v56.5
			C672.8,674.8,672,675.6,670.9,675.6z"/>
	</g>
	<g>
		<path fill="#71BBD1" d="M660.1,675.6c-1.1,0-1.9-0.9-1.9-1.9v-59.2c0-1.1,0.9-1.9,1.9-1.9s1.9,0.9,1.9,1.9v59.2
			C662,674.8,661.1,675.6,660.1,675.6z"/>
	</g>
	<g>
		<path fill="#71BBD1" d="M648.2,676.8c-1.1,0-1.9-0.9-1.9-1.9v-64.2c0-1.1,0.9-1.9,1.9-1.9s1.9,0.9,1.9,1.9v64.2
			C650.1,676,649.3,676.8,648.2,676.8z"/>
	</g>
	<g>
		<path fill="#71BBD1" d="M636.2,676.8c-1.1,0-1.9-0.9-1.9-1.9v-69c0-1.1,0.9-1.9,1.9-1.9c1.1,0,1.9,0.9,1.9,1.9v69
			C638.1,676,637.2,676.8,636.2,676.8z"/>
	</g>
	<g>
		<path fill="#71BBD1" d="M624.5,675.6c-1.1,0-1.9-0.9-1.9-1.9v-73.4c0-1.1,0.9-1.9,1.9-1.9s1.9,0.9,1.9,1.9v73.4
			C626.4,674.8,625.6,675.6,624.5,675.6z"/>
	</g>
	<g>
		<path fill="#71BBD1" d="M613.6,675.6c-1.1,0-1.9-0.9-1.9-1.9v-79.7c0-1.1,0.9-1.9,1.9-1.9s1.9,0.9,1.9,1.9v79.7
			C615.5,674.8,614.6,675.6,613.6,675.6z"/>
	</g>
	<g>
		<path fill="#71BBD1" d="M602,675.6c-1.1,0-1.9-0.9-1.9-1.9V586c0-1.1,0.9-1.9,1.9-1.9c1.1,0,1.9,0.9,1.9,1.9v87.7
			C603.9,674.8,603,675.6,602,675.6z"/>
	</g>
	<g>
		<path fill="#71BBD1" d="M591.1,676.8c-1.1,0-1.9-0.9-1.9-1.9v-98.2c0-1.1,0.9-1.9,1.9-1.9s1.9,0.9,1.9,1.9v98.2
			C593,676,592.1,676.8,591.1,676.8z"/>
	</g>
	<g>
		<path fill="#71BBD1" d="M579.8,675.6c-1.1,0-1.9-0.9-1.9-1.9V565c0-1.1,0.9-1.9,1.9-1.9s1.9,0.9,1.9,1.9v108.7
			C581.7,674.8,580.9,675.6,579.8,675.6z"/>
	</g>
	<g>
		<path fill="#71BBD1" d="M568.2,675.6c-1.1,0-1.9-0.9-1.9-1.9V549.4c0-1.1,0.9-1.9,1.9-1.9c1.1,0,1.9,0.9,1.9,1.9v124.3
			C570.1,674.8,569.2,675.6,568.2,675.6z"/>
	</g>
	<g>
		<path fill="#71BBD1" d="M507.5,678c-1.1,0-1.9-0.9-1.9-1.9V556.3c0-1.1,0.9-1.9,1.9-1.9c1.1,0,1.9,0.9,1.9,1.9v119.7
			C509.4,677.1,508.5,678,507.5,678z"/>
	</g>
	<g>
		<path fill="#71BBD1" d="M496.4,676.8c-1.1,0-1.9-0.9-1.9-1.9V569.7c0-1.1,0.9-1.9,1.9-1.9s1.9,0.9,1.9,1.9v105.2
			C498.3,676,497.5,676.8,496.4,676.8z"/>
	</g>
	<g>
		<path fill="#71BBD1" d="M483.4,676.8c-1.1,0-1.9-0.9-1.9-1.9V582c0-1.1,0.9-1.9,1.9-1.9c1.1,0,1.9,0.9,1.9,1.9v92.9
			C485.3,676,484.4,676.8,483.4,676.8z"/>
	</g>
	<g>
		<path fill="#71BBD1" d="M472.9,676.8c-1.1,0-1.9-0.9-1.9-1.9V590c0-1.1,0.9-1.9,1.9-1.9s1.9,0.9,1.9,1.9v84.9
			C474.8,676,474,676.8,472.9,676.8z"/>
	</g>
	<g>
		<path fill="#71BBD1" d="M462.1,678c-1.1,0-1.9-0.9-1.9-1.9v-79.2c0-1.1,0.9-1.9,1.9-1.9s1.9,0.9,1.9,1.9v79.2
			C464.1,677.1,463.2,678,462.1,678z"/>
	</g>
	<g>
		<path fill="#71BBD1" d="M450.2,675.6c-1.1,0-1.9-0.9-1.9-1.9v-70.5c0-1.1,0.9-1.9,1.9-1.9s1.9,0.9,1.9,1.9v70.5
			C452.1,674.8,451.2,675.6,450.2,675.6z"/>
	</g>
	<g>
		<path fill="#71BBD1" d="M438.9,675.6c-1.1,0-1.9-0.9-1.9-1.9v-65.6c0-1.1,0.9-1.9,1.9-1.9s1.9,0.9,1.9,1.9v65.6
			C440.8,674.8,440,675.6,438.9,675.6z"/>
	</g>
	<g>
		<path fill="#71BBD1" d="M429.7,676.8c-1.1,0-1.9-0.9-1.9-1.9v-63.4c0-1.1,0.9-1.9,1.9-1.9s1.9,0.9,1.9,1.9v63.4
			C431.6,676,430.8,676.8,429.7,676.8z"/>
	</g>
	<g>
		<path fill="#71BBD1" d="M416.5,675.6c-1.1,0-1.9-0.9-1.9-1.9v-57.5c0-1.1,0.9-1.9,1.9-1.9s1.9,0.9,1.9,1.9v57.5
			C418.4,674.8,417.6,675.6,416.5,675.6z"/>
	</g>
	<g>
		<path fill="#71BBD1" d="M404.4,676.8c-1.1,0-1.9-0.9-1.9-1.9v-56.6c0-1.1,0.9-1.9,1.9-1.9s1.9,0.9,1.9,1.9v56.6
			C406.3,676,405.5,676.8,404.4,676.8z"/>
	</g>
	<g>
		<path fill="#71BBD1" d="M392.4,676.8c-1.1,0-1.9-0.9-1.9-1.9v-54.5c0-1.1,0.9-1.9,1.9-1.9s1.9,0.9,1.9,1.9v54.5
			C394.3,676,393.4,676.8,392.4,676.8z"/>
	</g>
	<g>
		<path fill="#71BBD1" d="M380.3,676.8c-1.1,0-1.9-0.9-1.9-1.9v-53c0-1.1,0.9-1.9,1.9-1.9c1.1,0,1.9,0.9,1.9,1.9v53
			C382.2,676,381.3,676.8,380.3,676.8z"/>
	</g>
	<g>
		<path fill="#71BBD1" d="M367.3,675.6c-1.1,0-1.9-0.9-1.9-1.9v-50.9c0-1.1,0.9-1.9,1.9-1.9s1.9,0.9,1.9,1.9v50.9
			C369.2,674.8,368.3,675.6,367.3,675.6z"/>
	</g>
</g>
<g>
	<g>
		<g>
			<g>
				<circle fill="#97CE89" cx="144.2" cy="724.1" r="18.3"/>
			</g>
			<g>
				<circle fill="#97CE89" cx="116.6" cy="738.6" r="18.3"/>
			</g>
			<g>
				<circle fill="#97CE89" cx="144.2" cy="746.2" r="18.3"/>
			</g>
			<g>
				<circle fill="#97CE89" cx="171.7" cy="724.1" r="18.3"/>
			</g>
			<g>
				<circle fill="#97CE89" cx="177.7" cy="746.2" r="18.3"/>
			</g>
			<g>
				<circle fill="#97CE89" cx="204" cy="760.7" r="18.3"/>
			</g>
			<g>
				<circle fill="#97CE89" cx="95.7" cy="760.7" r="18.3"/>
			</g>
			<g>
				<polygon fill="#97CE89" points="95.7,779.1 204,779.1 204,754.2 146.9,741.2 107.5,750 				"/>
			</g>
		</g>
	</g>
	<g>
		<g>
			<g>
				<circle fill="#7A9F70" cx="1231.9" cy="665.5" r="19.9"/>
			</g>
			<g>
				<circle fill="#7A9F70" cx="1220" cy="734" r="12.9"/>
			</g>
			<g>
				<circle fill="#7A9F70" cx="1238" cy="735.8" r="12.9"/>
			</g>
			<g>
				<circle fill="#7A9F70" cx="1212.1" cy="683" r="19.9"/>
			</g>
			<g>
				<circle fill="#7A9F70" cx="1209.7" cy="711.9" r="23.9"/>
			</g>
			<g>
				<circle fill="#7A9F70" cx="1245.2" cy="717.5" r="23.9"/>
			</g>
			<g>
				<circle fill="#7A9F70" cx="1243.1" cy="686.2" r="19.9"/>
			</g>
			<g>
				<path fill="#73675A" d="M1232.9,781.9c-4.1,0-7.4-3.3-7.4-7.4v-80.9c0-4.1,3.3-7.4,7.4-7.4c4.1,0,7.4,3.3,7.4,7.4v80.8
					C1240.3,778.6,1237,781.9,1232.9,781.9z"/>
			</g>
			<g>
				<path fill="#73675A" d="M1232.9,736.1c-1.7,0-3.4-0.6-4.8-1.8l-14.7-12.7c-3.1-2.7-3.4-7.4-0.8-10.4c2.6-3,7.4-3.4,10.4-0.8
					l14.7,12.7c3.1,2.7,3.4,7.4,0.8,10.4C1237,735.3,1235,736.1,1232.9,736.1z"/>
			</g>
		</g>
		<g>
			<g>
				<circle fill="#8ABB82" cx="1375.8" cy="714.9" r="15"/>
			</g>
			<g>
				<circle fill="#8ABB82" cx="1360.7" cy="724.5" r="15"/>
			</g>
			<g>
				<circle fill="#8ABB82" cx="1388" cy="726.8" r="15"/>
			</g>
			<g>
				<circle fill="#8ABB82" cx="1342.1" cy="739.5" r="15"/>
			</g>
			<g>
				<circle fill="#8ABB82" cx="1335.3" cy="764.1" r="15"/>
			</g>
			<g>
				<circle fill="#8ABB82" cx="1405.8" cy="739.5" r="15"/>
			</g>
			<g>
				<circle fill="#8ABB82" cx="1414.9" cy="764.1" r="15"/>
			</g>
			<g>
				<polygon fill="#8ABB82" points="1335.3,779.1 1414.9,779.1 1409.1,741.7 1368.1,719.5 1342.1,743.1 				"/>
			</g>
		</g>
		<g>
			<g>
				<circle fill="#8ABB82" cx="1132.6" cy="703.1" r="17.8"/>
			</g>
			<g>
				<circle fill="#8ABB82" cx="1114.8" cy="714.4" r="17.8"/>
			</g>
			<g>
				<circle fill="#8ABB82" cx="1147.3" cy="717" r="17.8"/>
			</g>
			<g>
				<circle fill="#8ABB82" cx="1092.7" cy="732.2" r="17.8"/>
			</g>
			<g>
				<circle fill="#8ABB82" cx="1084.7" cy="761.3" r="17.8"/>
			</g>
			<g>
				<circle fill="#8ABB82" cx="1168.2" cy="732.2" r="17.8"/>
			</g>
			<g>
				<circle fill="#8ABB82" cx="1179.1" cy="761.3" r="17.8"/>
			</g>
			<g>
				<polygon fill="#8ABB82" points="1084.7,779.1 1179.1,779.1 1172,734.8 1123.4,708.5 1092.7,736.5 				"/>
			</g>
		</g>
		<g>
			<g>
				<circle fill="#97CE89" cx="829.4" cy="703.1" r="17.8"/>
			</g>
			<g>
				<circle fill="#97CE89" cx="811.6" cy="714.4" r="17.8"/>
			</g>
			<g>
				<circle fill="#97CE89" cx="843.9" cy="717" r="17.8"/>
			</g>
			<g>
				<circle fill="#97CE89" cx="789.4" cy="732.2" r="17.8"/>
			</g>
			<g>
				<circle fill="#97CE89" cx="781.3" cy="761.3" r="17.8"/>
			</g>
			<g>
				<circle fill="#97CE89" cx="865" cy="732.2" r="17.8"/>
			</g>
			<g>
				<circle fill="#97CE89" cx="875.7" cy="761.3" r="17.8"/>
			</g>
			<g>
				<polygon fill="#97CE89" points="781.3,779.1 875.7,779.1 868.8,734.8 820.2,708.5 789.4,736.5 				"/>
			</g>
		</g>
		<g>
			<g>
				<circle fill="#7A9F70" cx="1360.7" cy="732.2" r="11"/>
			</g>
			<g>
				<circle fill="#7A9F70" cx="1349.8" cy="739.3" r="11"/>
			</g>
			<g>
				<circle fill="#7A9F70" cx="1369.7" cy="740.9" r="11"/>
			</g>
			<g>
				<circle fill="#7A9F70" cx="1336.2" cy="750.1" r="11"/>
			</g>
			<g>
				<circle fill="#7A9F70" cx="1331.2" cy="768.1" r="11"/>
			</g>
			<g>
				<circle fill="#7A9F70" cx="1382.6" cy="750.1" r="11"/>
			</g>
			<g>
				<circle fill="#7A9F70" cx="1389.4" cy="768.1" r="11"/>
			</g>
			<g>
				<polygon fill="#7A9F70" points="1331.2,779.1 1389.4,779.1 1384.9,751.8 1355.1,735.7 1336.2,752.9 				"/>
			</g>
		</g>
		<g>
			<g>
				<circle fill="#7A9F70" cx="1045.1" cy="732.2" r="11"/>
			</g>
			<g>
				<circle fill="#7A9F70" cx="1034.1" cy="739.3" r="11"/>
			</g>
			<g>
				<circle fill="#7A9F70" cx="1054" cy="740.9" r="11"/>
			</g>
			<g>
				<circle fill="#7A9F70" cx="1020.5" cy="750.1" r="11"/>
			</g>
			<g>
				<circle fill="#7A9F70" cx="1015.5" cy="768.1" r="11"/>
			</g>
			<g>
				<circle fill="#7A9F70" cx="1067.1" cy="750.1" r="11"/>
			</g>
			<g>
				<circle fill="#7A9F70" cx="1073.6" cy="768.1" r="11"/>
			</g>
			<g>
				<polygon fill="#7A9F70" points="1015.5,779.1 1073.6,779.1 1069.4,751.8 1039.4,735.7 1020.5,752.9 				"/>
			</g>
		</g>
		<g>
			<g>
				<circle fill="#F8BE8B" cx="1257.6" cy="724.1" r="18.3"/>
			</g>
			<g>
				<circle fill="#F8BE8B" cx="1230.1" cy="738.6" r="18.3"/>
			</g>
			<g>
				<circle fill="#F8BE8B" cx="1257.6" cy="746.2" r="18.3"/>
			</g>
			<g>
				<circle fill="#F8BE8B" cx="1285.3" cy="724.1" r="18.3"/>
			</g>
			<g>
				<circle fill="#F8BE8B" cx="1291.2" cy="746.2" r="18.3"/>
			</g>
			<g>
				<circle fill="#F8BE8B" cx="1317.6" cy="760.7" r="18.3"/>
			</g>
			<g>
				<circle fill="#F8BE8B" cx="1209.2" cy="760.7" r="18.3"/>
			</g>
			<g>
				<polygon fill="#F8BE8B" points="1209.2,779.1 1317.6,779.1 1317.6,754.2 1260.4,741.2 1221,750 				"/>
			</g>
		</g>
		<g>
			<g>
				<circle fill="#8ABB82" cx="962.3" cy="724.1" r="18.3"/>
			</g>
			<g>
				<circle fill="#8ABB82" cx="934.8" cy="738.6" r="18.3"/>
			</g>
			<g>
				<circle fill="#8ABB82" cx="962.3" cy="746.2" r="18.3"/>
			</g>
			<g>
				<circle fill="#8ABB82" cx="990" cy="724.1" r="18.3"/>
			</g>
			<g>
				<circle fill="#8ABB82" cx="995.9" cy="746.2" r="18.3"/>
			</g>
			<g>
				<circle fill="#8ABB82" cx="1022.3" cy="760.7" r="18.3"/>
			</g>
			<g>
				<circle fill="#8ABB82" cx="913.9" cy="760.7" r="18.3"/>
			</g>
			<g>
				<polygon fill="#8ABB82" points="913.9,779.1 1022.3,779.1 1022.3,754.2 965.1,741.2 925.8,750 				"/>
			</g>
		</g>
		<g>
			<g>
				<circle fill="#7A9F70" cx="1111.5" cy="626.1" r="26.6"/>
			</g>
			<g>
				<circle fill="#7A9F70" cx="1095.6" cy="717.8" r="17.3"/>
			</g>
			<g>
				<circle fill="#7A9F70" cx="1119.6" cy="720.2" r="17.3"/>
			</g>
			<g>
				<circle fill="#7A9F70" cx="1085" cy="649.5" r="26.6"/>
			</g>
			<g>
				<circle fill="#7A9F70" cx="1081.8" cy="688.2" r="32"/>
			</g>
			<g>
				<circle fill="#7A9F70" cx="1129.3" cy="695.7" r="32"/>
			</g>
			<g>
				<circle fill="#7A9F70" cx="1126.5" cy="653.8" r="26.6"/>
			</g>
			<g>
				<path fill="#73675A" d="M1112.8,781.9c-5.5,0-9.9-4.4-9.9-9.9V663.7c0-5.5,4.4-9.9,9.9-9.9c5.5,0,9.9,4.4,9.9,9.9v108.1
					C1122.7,777.5,1118.3,781.9,1112.8,781.9z"/>
			</g>
			<g>
				<path fill="#73675A" d="M1112.8,720.6c-2.3,0-4.5-0.8-6.4-2.4l-19.7-17c-4.1-3.6-4.5-9.9-1.1-13.9c3.5-4,9.9-4.6,13.9-1.1
					l19.7,17c4.1,3.6,4.5,9.9,1.1,13.9C1118.3,719.5,1115.6,720.6,1112.8,720.6z"/>
			</g>
			<g>
				<path fill="#73675A" d="M1112.8,690.5c-2.5,0-5.1-0.9-7-2.8c-3.9-3.9-4-10.2-0.1-14.1l13.7-13.9c3.9-3.9,10.2-4,14.1-0.1
					c3.9,3.9,4,10.2,0.1,14.1l-13.7,13.9C1117.9,689.4,1115.4,690.5,1112.8,690.5z"/>
			</g>
		</g>
		<g>
			<g>
				<circle fill="#7A9F70" cx="341.8" cy="637.6" r="24.7"/>
			</g>
			<g>
				<circle fill="#7A9F70" cx="327" cy="722.5" r="16"/>
			</g>
			<g>
				<circle fill="#7A9F70" cx="349.2" cy="724.8" r="16"/>
			</g>
			<g>
				<circle fill="#7A9F70" cx="317" cy="659.3" r="24.7"/>
			</g>
			<g>
				<circle fill="#7A9F70" cx="314.1" cy="695.1" r="29.6"/>
			</g>
			<g>
				<circle fill="#7A9F70" cx="358.3" cy="702.1" r="29.6"/>
			</g>
			<g>
				<circle fill="#7A9F70" cx="355.6" cy="663.3" r="24.7"/>
			</g>
			<g>
				<path fill="#73675A" d="M342.9,781.9c-5.1,0-9.2-4.1-9.2-9.2V672.5c0-5.1,4.1-9.2,9.2-9.2c5.1,0,9.2,4.1,9.2,9.2v100.1
					C352.1,777.8,348,781.9,342.9,781.9z"/>
			</g>
			<g>
				<path fill="#73675A" d="M342.9,725.1c-2.1,0-4.2-0.7-5.9-2.2l-18.1-15.7c-3.8-3.3-4.2-9.2-1-12.9c3.3-3.8,9.2-4.2,12.9-1
					l18.1,15.7c3.8,3.3,4.2,9.2,1,12.9C348.1,724.1,345.5,725.1,342.9,725.1z"/>
			</g>
			<g>
				<path fill="#73675A" d="M342.9,697.2c-2.4,0-4.7-0.9-6.4-2.6c-3.6-3.6-3.7-9.4-0.1-13l12.6-12.9c3.6-3.6,9.4-3.7,13-0.1
					c3.6,3.6,3.7,9.4,0.1,13l-12.6,12.9C347.7,696.3,345.2,697.2,342.9,697.2z"/>
			</g>
		</g>
		<g>
			<g>
				<circle fill="#8ABB82" cx="726.2" cy="703.1" r="17.8"/>
			</g>
			<g>
				<circle fill="#8ABB82" cx="708.4" cy="714.4" r="17.8"/>
			</g>
			<g>
				<circle fill="#8ABB82" cx="740.6" cy="717" r="17.8"/>
			</g>
			<g>
				<circle fill="#8ABB82" cx="686.1" cy="732.2" r="17.8"/>
			</g>
			<g>
				<circle fill="#8ABB82" cx="678.1" cy="761.3" r="17.8"/>
			</g>
			<g>
				<circle fill="#8ABB82" cx="761.7" cy="732.2" r="17.8"/>
			</g>
			<g>
				<circle fill="#8ABB82" cx="772.5" cy="761.3" r="17.8"/>
			</g>
			<g>
				<polygon fill="#8ABB82" points="678.1,779.1 772.5,779.1 765.5,734.8 717,708.5 686.1,736.5 				"/>
			</g>
		</g>
		<g>
			<g>
				<circle fill="#8ABB82" cx="402.8" cy="703.1" r="17.8"/>
			</g>
			<g>
				<circle fill="#8ABB82" cx="385" cy="714.4" r="17.8"/>
			</g>
			<g>
				<circle fill="#8ABB82" cx="417.3" cy="717" r="17.8"/>
			</g>
			<g>
				<circle fill="#8ABB82" cx="362.8" cy="732.2" r="17.8"/>
			</g>
			<g>
				<circle fill="#8ABB82" cx="354.7" cy="761.3" r="17.8"/>
			</g>
			<g>
				<circle fill="#8ABB82" cx="438.3" cy="732.2" r="17.8"/>
			</g>
			<g>
				<circle fill="#8ABB82" cx="449.2" cy="761.3" r="17.8"/>
			</g>
			<g>
				<polygon fill="#8ABB82" points="354.7,779.1 449.2,779.1 442.1,734.8 393.6,708.5 362.8,736.5 				"/>
			</g>
		</g>
		<g>
			<g>
				<circle fill="#97CE89" cx="631" cy="732.2" r="11"/>
			</g>
			<g>
				<circle fill="#97CE89" cx="619.9" cy="739.3" r="11"/>
			</g>
			<g>
				<circle fill="#97CE89" cx="639.9" cy="740.9" r="11"/>
			</g>
			<g>
				<circle fill="#97CE89" cx="606.4" cy="750.1" r="11"/>
			</g>
			<g>
				<circle fill="#97CE89" cx="601.3" cy="768.1" r="11"/>
			</g>
			<g>
				<circle fill="#97CE89" cx="652.9" cy="750.1" r="11"/>
			</g>
			<g>
				<circle fill="#97CE89" cx="659.5" cy="768.1" r="11"/>
			</g>
			<g>
				<polygon fill="#97CE89" points="601.3,779.1 659.5,779.1 655.2,751.8 625.4,735.7 606.4,752.9 				"/>
			</g>
		</g>
		<g>
			<g>
				<circle fill="#F3A657" cx="315.2" cy="732.2" r="11"/>
			</g>
			<g>
				<circle fill="#F3A657" cx="304.3" cy="739.3" r="11"/>
			</g>
			<g>
				<circle fill="#F3A657" cx="324.2" cy="740.9" r="11"/>
			</g>
			<g>
				<circle fill="#F3A657" cx="290.6" cy="750.1" r="11"/>
			</g>
			<g>
				<circle fill="#F3A657" cx="285.7" cy="768.1" r="11"/>
			</g>
			<g>
				<circle fill="#F3A657" cx="337.1" cy="750.1" r="11"/>
			</g>
			<g>
				<circle fill="#F3A657" cx="343.8" cy="768.1" r="11"/>
			</g>
			<g>
				<polygon fill="#F3A657" points="285.7,779.1 343.8,779.1 339.4,751.8 309.6,735.7 290.6,752.9 				"/>
			</g>
		</g>
		<g>
			<g>
				<circle fill="#F8BE8B" cx="527.8" cy="723.5" r="18.3"/>
			</g>
			<g>
				<circle fill="#F8BE8B" cx="500.3" cy="738.1" r="18.3"/>
			</g>
			<g>
				<circle fill="#F8BE8B" cx="527.8" cy="745.5" r="18.3"/>
			</g>
			<g>
				<circle fill="#F8BE8B" cx="555.4" cy="723.5" r="18.3"/>
			</g>
			<g>
				<circle fill="#F8BE8B" cx="561.3" cy="745.5" r="18.3"/>
			</g>
			<g>
				<circle fill="#F8BE8B" cx="587.8" cy="760.2" r="18.3"/>
			</g>
			<g>
				<circle fill="#F8BE8B" cx="479.2" cy="760.2" r="18.3"/>
			</g>
			<g>
				<polygon fill="#F8BE8B" points="479.2,778.5 587.8,778.5 587.8,753.8 530.6,740.8 491,749.3 				"/>
			</g>
		</g>
		<g>
			<g>
				<circle fill="#8ABB82" cx="232.5" cy="724.1" r="18.3"/>
			</g>
			<g>
				<circle fill="#8ABB82" cx="205" cy="738.6" r="18.3"/>
			</g>
			<g>
				<circle fill="#8ABB82" cx="232.5" cy="746.2" r="18.3"/>
			</g>
			<g>
				<circle fill="#8ABB82" cx="260" cy="724.1" r="18.3"/>
			</g>
			<g>
				<circle fill="#8ABB82" cx="265.9" cy="746.2" r="18.3"/>
			</g>
			<g>
				<circle fill="#8ABB82" cx="292.4" cy="760.7" r="18.3"/>
			</g>
			<g>
				<circle fill="#8ABB82" cx="183.9" cy="760.7" r="18.3"/>
			</g>
			<g>
				<polygon fill="#8ABB82" points="183.9,779.1 292.4,779.1 292.4,754.2 235.3,741.2 195.8,750 				"/>
			</g>
		</g>
		<g>
			<g>
				<circle fill="#7A9F70" cx="849.4" cy="641.9" r="24.2"/>
			</g>
			<g>
				<circle fill="#7A9F70" cx="834.8" cy="725.9" r="15.6"/>
			</g>
			<g>
				<circle fill="#7A9F70" cx="856.8" cy="728.1" r="15.6"/>
			</g>
			<g>
				<circle fill="#7A9F70" cx="825.1" cy="663.3" r="24.2"/>
			</g>
			<g>
				<circle fill="#7A9F70" cx="822.2" cy="698.7" r="29.3"/>
			</g>
			<g>
				<circle fill="#7A9F70" cx="865.8" cy="705.7" r="29.3"/>
			</g>
			<g>
				<circle fill="#7A9F70" cx="863" cy="667.3" r="24.2"/>
			</g>
			<g>
				<path fill="#73675A" d="M850.5,782.6c-4.1,0-7.4-3.3-7.4-7.4v-98.7c0-4.1,3.3-7.4,7.4-7.4c4.1,0,7.4,3.3,7.4,7.4v98.7
					C857.9,779.3,854.6,782.6,850.5,782.6z"/>
			</g>
			<g>
				<path fill="#73675A" d="M850.5,726.8c-1.7,0-3.4-0.6-4.9-1.8l-17.8-15.5c-3.1-2.7-3.4-7.4-0.7-10.4c2.7-3,7.4-3.4,10.4-0.7
					l17.8,15.5c3.1,2.7,3.4,7.4,0.7,10.4C854.6,725.9,852.6,726.8,850.5,726.8z"/>
			</g>
			<g>
				<path fill="#73675A" d="M850.5,699.1c-1.9,0-3.8-0.7-5.2-2.2c-2.9-2.9-2.9-7.6,0-10.5l12.5-12.5c2.9-2.9,7.6-2.9,10.5,0
					c2.9,2.9,2.9,7.6,0,10.5l-12.5,12.5C854.3,698.3,852.4,699.1,850.5,699.1z"/>
			</g>
		</g>
	</g>
	<g>
		<g>
			<g>
				<circle fill="#8ABB82" cx="1674.8" cy="703.1" r="17.8"/>
			</g>
			<g>
				<circle fill="#8ABB82" cx="1657" cy="714.4" r="17.8"/>
			</g>
			<g>
				<circle fill="#8ABB82" cx="1689.5" cy="717" r="17.8"/>
			</g>
			<g>
				<circle fill="#8ABB82" cx="1634.9" cy="732.2" r="17.8"/>
			</g>
			<g>
				<circle fill="#8ABB82" cx="1626.9" cy="761.3" r="17.8"/>
			</g>
			<g>
				<circle fill="#8ABB82" cx="1710.4" cy="732.2" r="17.8"/>
			</g>
			<g>
				<circle fill="#8ABB82" cx="1721.3" cy="761.3" r="17.8"/>
			</g>
			<g>
				<polygon fill="#8ABB82" points="1626.9,779.1 1721.3,779.1 1714.2,734.8 1665.6,708.5 1634.9,736.5 				"/>
			</g>
		</g>
		<g>
			<g>
				<circle fill="#8ABB82" cx="1935.7" cy="703.1" r="17.8"/>
			</g>
			<g>
				<circle fill="#8ABB82" cx="1917.9" cy="714.4" r="17.8"/>
			</g>
			<g>
				<circle fill="#8ABB82" cx="1950.4" cy="717" r="17.8"/>
			</g>
			<g>
				<circle fill="#8ABB82" cx="1895.8" cy="732.2" r="17.8"/>
			</g>
			<g>
				<circle fill="#8ABB82" cx="1887.8" cy="761.3" r="17.8"/>
			</g>
			<g>
				<circle fill="#8ABB82" cx="1971.3" cy="732.2" r="17.8"/>
			</g>
			<g>
				<circle fill="#8ABB82" cx="1982.2" cy="761.3" r="17.8"/>
			</g>
			<g>
				<polygon fill="#8ABB82" points="1887.8,779.1 1982.2,779.1 1975.1,734.8 1926.5,708.5 1895.8,736.5 				"/>
			</g>
		</g>
		<g>
			<g>
				<path fill="#97CE89" d="M1435.7,761.3"/>
			</g>
		</g>
		<g>
			<g>
				<circle fill="#7A9F70" cx="1902.9" cy="732.2" r="11"/>
			</g>
			<g>
				<circle fill="#7A9F70" cx="1892" cy="739.3" r="11"/>
			</g>
			<g>
				<circle fill="#7A9F70" cx="1911.9" cy="740.9" r="11"/>
			</g>
			<g>
				<circle fill="#7A9F70" cx="1878.4" cy="750.1" r="11"/>
			</g>
			<g>
				<circle fill="#7A9F70" cx="1873.4" cy="768.1" r="11"/>
			</g>
			<g>
				<circle fill="#7A9F70" cx="1924.8" cy="750.1" r="11"/>
			</g>
			<g>
				<circle fill="#7A9F70" cx="1931.6" cy="768.1" r="11"/>
			</g>
			<g>
				<polygon fill="#7A9F70" points="1873.4,779.1 1931.6,779.1 1927.1,751.8 1897.3,735.7 1878.4,752.9 				"/>
			</g>
		</g>
		<g>
			<g>
				<circle fill="#7A9F70" cx="1587.2" cy="732.2" r="11"/>
			</g>
			<g>
				<circle fill="#7A9F70" cx="1576.2" cy="739.3" r="11"/>
			</g>
			<g>
				<circle fill="#7A9F70" cx="1596.2" cy="740.9" r="11"/>
			</g>
			<g>
				<circle fill="#7A9F70" cx="1562.6" cy="750.1" r="11"/>
			</g>
			<g>
				<circle fill="#7A9F70" cx="1557.6" cy="768.1" r="11"/>
			</g>
			<g>
				<circle fill="#7A9F70" cx="1609.2" cy="750.1" r="11"/>
			</g>
			<g>
				<circle fill="#7A9F70" cx="1615.8" cy="768.1" r="11"/>
			</g>
			<g>
				<polygon fill="#7A9F70" points="1557.6,779.1 1615.8,779.1 1611.5,751.8 1581.5,735.7 1562.6,752.9 				"/>
			</g>
		</g>
		<g>
			<g>
				<circle fill="#F8BE8B" cx="1799.9" cy="724.1" r="18.3"/>
			</g>
			<g>
				<circle fill="#F8BE8B" cx="1772.3" cy="738.6" r="18.3"/>
			</g>
			<g>
				<circle fill="#F8BE8B" cx="1799.9" cy="746.2" r="18.3"/>
			</g>
			<g>
				<circle fill="#F8BE8B" cx="1827.5" cy="724.1" r="18.3"/>
			</g>
			<g>
				<circle fill="#F8BE8B" cx="1833.4" cy="746.2" r="18.3"/>
			</g>
			<g>
				<circle fill="#F8BE8B" cx="1859.8" cy="760.7" r="18.3"/>
			</g>
			<g>
				<circle fill="#F8BE8B" cx="1751.4" cy="760.7" r="18.3"/>
			</g>
			<g>
				<polygon fill="#F8BE8B" points="1751.4,779.1 1859.8,779.1 1859.8,754.2 1802.6,741.2 1763.2,750 				"/>
			</g>
		</g>
		<g>
			<g>
				<circle fill="#8ABB82" cx="1494.6" cy="724.1" r="18.3"/>
			</g>
			<g>
				<circle fill="#8ABB82" cx="1467" cy="738.6" r="18.3"/>
			</g>
			<g>
				<circle fill="#8ABB82" cx="1494.6" cy="746.2" r="18.3"/>
			</g>
			<g>
				<circle fill="#8ABB82" cx="1522.1" cy="724.1" r="18.3"/>
			</g>
			<g>
				<circle fill="#8ABB82" cx="1528" cy="746.2" r="18.3"/>
			</g>
			<g>
				<circle fill="#8ABB82" cx="1554.5" cy="760.7" r="18.3"/>
			</g>
			<g>
				<circle fill="#8ABB82" cx="1446" cy="760.7" r="18.3"/>
			</g>
			<g>
				<polygon fill="#8ABB82" points="1446,779.1 1554.5,779.1 1554.5,754.2 1497.3,741.2 1457.8,750 				"/>
			</g>
		</g>
		<g>
			<g>
				<circle fill="#7A9F70" cx="1774.1" cy="665.5" r="19.9"/>
			</g>
			<g>
				<circle fill="#7A9F70" cx="1762.2" cy="734" r="12.9"/>
			</g>
			<g>
				<circle fill="#7A9F70" cx="1780.2" cy="735.8" r="12.9"/>
			</g>
			<g>
				<circle fill="#7A9F70" cx="1754.3" cy="683" r="19.9"/>
			</g>
			<g>
				<circle fill="#7A9F70" cx="1751.9" cy="711.9" r="23.9"/>
			</g>
			<g>
				<circle fill="#7A9F70" cx="1787.4" cy="717.5" r="23.9"/>
			</g>
			<g>
				<circle fill="#7A9F70" cx="1785.3" cy="686.2" r="19.9"/>
			</g>
			<g>
				<path fill="#73675A" d="M1775.1,781.9c-4.1,0-7.4-3.3-7.4-7.4v-80.9c0-4.1,3.3-7.4,7.4-7.4s7.4,3.3,7.4,7.4v80.8
					C1782.5,778.6,1779.2,781.9,1775.1,781.9z"/>
			</g>
			<g>
				<path fill="#73675A" d="M1775.1,736.1c-1.7,0-3.4-0.6-4.8-1.8l-14.6-12.7c-3.1-2.7-3.4-7.4-0.8-10.4c2.7-3.1,7.4-3.4,10.4-0.8
					l14.6,12.7c3.1,2.7,3.4,7.4,0.8,10.4C1779.3,735.3,1777.2,736.1,1775.1,736.1z"/>
			</g>
			<g>
				<path fill="#73675A" d="M1775.1,713.6c-1.9,0-3.8-0.7-5.2-2.1c-2.9-2.9-3-7.6-0.1-10.5l10.2-10.4c2.9-2.9,7.6-3,10.5-0.1
					c2.9,2.9,3,7.6,0.1,10.5l-10.2,10.4C1778.9,712.8,1777,713.6,1775.1,713.6z"/>
			</g>
		</g>
		<g>
			<g>
				<path fill="#7A9F70" d="M1429.5,667.3"/>
			</g>
		</g>
	</g>
	<g>
		<g>
			<circle fill="#8ABB82" cx="66" cy="703.1" r="17.8"/>
		</g>
		<g>
			<circle fill="#8ABB82" cx="48.2" cy="714.4" r="17.8"/>
		</g>
		<g>
			<circle fill="#8ABB82" cx="80.4" cy="717" r="17.8"/>
		</g>
		<g>
			<circle fill="#8ABB82" cx="25.9" cy="732.2" r="17.8"/>
		</g>
		<g>
			<circle fill="#8ABB82" cx="17.9" cy="761.3" r="17.8"/>
		</g>
		<g>
			<circle fill="#8ABB82" cx="101.5" cy="732.2" r="17.8"/>
		</g>
		<g>
			<circle fill="#8ABB82" cx="112.3" cy="761.3" r="17.8"/>
		</g>
		<g>
			<polygon fill="#8ABB82" points="17.9,779.1 112.3,779.1 105.3,734.8 56.8,708.5 25.9,736.5 			"/>
		</g>
	</g>
</g>
<g>
	
		<line fill="none" stroke="#575149" stroke-width="9" stroke-linecap="round" stroke-linejoin="round" stroke-miterlimit="10" x1="1449.9" y1="696.9" x2="1449.9" y2="776.4"/>
	
		<line fill="none" stroke="#716558" stroke-width="9" stroke-linecap="round" stroke-linejoin="round" stroke-miterlimit="10" x1="1534" y1="696.9" x2="1534" y2="776.4"/>
	
		<line fill="none" stroke="#575149" stroke-width="9" stroke-linecap="round" stroke-linejoin="round" stroke-miterlimit="10" x1="1430.8" y1="742.9" x2="1430.8" y2="776.4"/>
	
		<line fill="none" stroke="#716558" stroke-width="9" stroke-linecap="round" stroke-linejoin="round" stroke-miterlimit="10" x1="1553.1" y1="742.9" x2="1553.1" y2="776.4"/>
	
		<line fill="none" stroke="#F9A74E" stroke-width="9" stroke-linecap="round" stroke-linejoin="round" stroke-miterlimit="10" x1="1428.2" y1="709.8" x2="1555.7" y2="709.8"/>
	
		<line fill="none" stroke="#F9A74E" stroke-width="9" stroke-linecap="round" stroke-linejoin="round" stroke-miterlimit="10" x1="1428.2" y1="725.8" x2="1555.7" y2="725.8"/>
	
		<line fill="none" stroke="#F9A74E" stroke-width="9" stroke-linecap="round" stroke-linejoin="round" stroke-miterlimit="10" x1="1417" y1="742.9" x2="1566.8" y2="742.9"/>
</g>
<g>
	<rect x="0.1" y="776.1" fill="#363736" width="1999.9" height="170"/>
</g>
</svg>
