<?xml version="1.0" encoding="utf-8"?>
<!-- Generator: Adobe Illustrator 18.0.0, SVG Export Plug-In . SVG Version: 6.00 Build 0)  -->
<!DOCTYPE svg PUBLIC "-//W3C//DTD SVG 1.1//EN" "http://www.w3.org/Graphics/SVG/1.1/DTD/svg11.dtd">
<svg version="1.1" id="Layer_1" xmlns="http://www.w3.org/2000/svg" xmlns:xlink="http://www.w3.org/1999/xlink" x="0px" y="0px"
	 viewBox="0 0 2000 946" enable-background="new 0 0 2000 946" xml:space="preserve">
<g>
	<rect x="-1635" y="152.3" fill="#353535" width="2512" height="33.8"/>
	<polygon fill="#353535" points="-1711.7,152.3 908.8,152.3 908.8,0 -1580,0 	"/>
	<rect x="827.8" y="152.3" fill="#353535" width="803.3" height="33.8"/>
	<polygon fill="#353535" points="1707.7,152.3 827.8,152.3 827.8,0 1576,0 	"/>
	<rect x="-16.9" y="186.1" fill="#826055" width="33.8" height="761"/>
	<polygon fill="#9F7664" points="16.5,947 102.4,862.5 102.4,186.1 16.5,186.1 	"/>
	<path fill="#B5856D" d="M101.7,186.1v676.3h1364V186.1H101.7z M770.3,756.5c0,5.5-4.5,10-10,10h-546c-5.5,0-10-4.5-10-10V244.6
		c0-5.5,4.5-10,10-10h546c5.5,0,10,4.5,10,10V756.5z M1377.9,756.5c0,5.5-4.5,10-10,10h-546c-5.5,0-10-4.5-10-10V244.6
		c0-5.5,4.5-10,10-10h546c5.5,0,10,4.5,10,10V756.5z"/>
	<g>
		<path fill="none" stroke="#8F9BA2" stroke-width="8" stroke-miterlimit="10" d="M762.9,766.6H214.8c-4.9,0-9-4-9-9v-514
			c0-5,4.1-9,9-9h548.1c5,0,9,4,9,9v514C771.9,762.5,767.9,766.6,762.9,766.6z"/>
		
			<line fill="none" stroke="#8F9BA2" stroke-width="8" stroke-linecap="round" stroke-linejoin="round" stroke-miterlimit="10" x1="486.8" y1="239.2" x2="486.8" y2="762.4"/>
		
			<line fill="none" stroke="#8F9BA2" stroke-width="8" stroke-linecap="round" stroke-linejoin="round" stroke-miterlimit="10" x1="339.5" y1="239.2" x2="339.5" y2="762.4"/>
		
			<line fill="none" stroke="#8F9BA2" stroke-width="8" stroke-linecap="round" stroke-linejoin="round" stroke-miterlimit="10" x1="630.3" y1="239.2" x2="630.3" y2="762.4"/>
		
			<line fill="none" stroke="#8F9BA2" stroke-width="8" stroke-linecap="round" stroke-linejoin="round" stroke-miterlimit="10" x1="205.8" y1="508.4" x2="771.9" y2="508.4"/>
	</g>
	<g>
		<path fill="none" stroke="#8F9BA2" stroke-width="8" stroke-miterlimit="10" d="M1368.9,766.6H820.8c-5,0-9-4-9-9v-514
			c0-5,4-9,9-9h548.1c4.9,0,9,4,9,9v514C1377.9,762.5,1373.8,766.6,1368.9,766.6z"/>
		
			<line fill="none" stroke="#8F9BA2" stroke-width="8" stroke-linecap="round" stroke-linejoin="round" stroke-miterlimit="10" x1="1092.7" y1="239.2" x2="1092.7" y2="762.4"/>
		
			<line fill="none" stroke="#8F9BA2" stroke-width="8" stroke-linecap="round" stroke-linejoin="round" stroke-miterlimit="10" x1="945.5" y1="239.2" x2="945.5" y2="762.4"/>
		
			<line fill="none" stroke="#8F9BA2" stroke-width="8" stroke-linecap="round" stroke-linejoin="round" stroke-miterlimit="10" x1="1236.3" y1="239.2" x2="1236.3" y2="762.4"/>
		
			<line fill="none" stroke="#8F9BA2" stroke-width="8" stroke-linecap="round" stroke-linejoin="round" stroke-miterlimit="10" x1="811.8" y1="508.4" x2="1377.9" y2="508.4"/>
	</g>
	<g>
		<path fill="#918781" d="M1314.6,688.9c0,0-47.6-5.4-73.4,4.8c-25.8,10.2-44.2,38.1-46.2,40.1c-2,2-12.2,6.8-10.2,12.2
			s14.3,1.4,18.4,0c4.1-1.4,40.8,6.8,65.3-3.4C1292.9,732.4,1314.6,688.9,1314.6,688.9z"/>
		<path fill="#33373C" d="M1409.4,807.7H785.4c-4.9,0-9-4-9-9v-38.2c0-5,4.1-9,9-9h624.1c5,0,9,4,9,9v38.2
			C1418.4,803.6,1414.4,807.7,1409.4,807.7z"/>
		<path fill="#33373C" d="M1408.4,889.4h-622c-5.5,0-10-4.5-10-10v-22.7c0-5.5,4.5-10,10-10h632.1c0,0,0,4.5,0,10v22.7
			C1418.4,884.9,1413.9,889.4,1408.4,889.4z"/>
		<polygon fill="#515459" points="788.3,807.7 794.6,846.6 1410.3,846.6 1414.4,807.7 		"/>
		<polygon fill="#33373C" points="799.1,889.4 803.7,904.7 818.2,904.7 822.7,889.4 		"/>
		<polygon fill="#33373C" points="1366.1,889.4 1370.6,904.7 1385.1,904.7 1389.7,889.4 		"/>
		<path fill="#33373C" d="M1394.1,846.6h24.4V594.6c0,0,0.3-7-6.4-7s-11.2,0-11.2,0s-6.7,0.3-6.7,6.3
			C1394.1,600,1394.1,846.6,1394.1,846.6z"/>
		<path fill="#AFA096" d="M1227.6,740.6c0,0,19.7-40.8,82.3-51c62.6-10.2,69.8,7.5,76.2,7.5c6.3,0,12.9,10.9,2.7,27.2
			s-50.3,27.2-110.8,27.2S1225.1,744.9,1227.6,740.6z"/>
	</g>
	<rect x="1551.5" y="186.1" fill="#826055" width="33.8" height="761"/>
	<polygon fill="#9F7664" points="1551.5,947 1465.7,862.5 1465.7,186.1 1551.5,186.1 	"/>
</g>
</svg>
