<?xml version="1.0" encoding="UTF-8" standalone="no"?>
<svg width="3497px" height="1654px" viewBox="0 0 3497 1654" version="1.1" xmlns="http://www.w3.org/2000/svg" xmlns:xlink="http://www.w3.org/1999/xlink">
    <!-- Generator: Sketch 39.1 (31720) - http://www.bohemiancoding.com/sketch -->
    <title>night-bg</title>
    <desc>Created with Sketch.</desc>
    <defs></defs>
    <g id="Page-1" stroke="none" stroke-width="1" fill="none" fill-rule="evenodd">
        <g id="night-bg">
            <rect id="Rectangle-path" fill="#0D2529" x="0" y="0" width="3496.5035" height="1357.69231"></rect>
            <g id="Group" transform="translate(0.000000, 614.636364)" fill="#0B2023">
                <polyline id="Shape" points="2484.96503 454.944056 2619.23077 454.944056 2619.23077 259.314685 2657.69231 259.314685 2657.69231 342.006993 2723.95105 342.006993 2723.95105 99.6993007 2779.02098 99.6993007 2779.02098 187.636364 2850.52448 187.636364 2850.52448 0.573426573 2944.05594 0.573426573 2944.05594 241.307692 3029.72028 241.307692 3029.72028 344.804196 3120.45455 344.804196 3120.45455 471.202797 3233.39161 471.202797 3233.39161 281.342657 3271.85315 281.342657 3271.85315 380.293706 3357.16783 380.293706 3357.16783 468.58042 3426.04895 468.58042 3426.04895 187.636364 3496.15385 187.636364 3496.15385 742.006993 2484.96503 742.006993"></polyline>
                <polygon id="Shape" points="1201.74825 444.629371 1321.5035 444.629371 1321.5035 282.391608 1354.37063 249 1354.37063 122.601399 1394.23077 82.5664336 1394.23077 1.44755245 1409.44056 1.44755245 1409.44056 442.006993 1527.7972 442.006993 1527.7972 345.678322 1632.51748 345.678322 1731.64336 444.629371 1806.11888 444.629371 1806.11888 242.181818 1852.7972 242.181818 1852.7972 144.454545 1905.06993 144.454545 1905.06993 296.027972 1940.90909 296.027972 1940.90909 12.2867133 1971.32867 12.2867133 1971.32867 100.573427 2029.1958 100.573427 2029.1958 188.51049 2095.1049 188.51049 2095.1049 348.300699 2150.17483 348.300699 2150.17483 442.006993 2221.85315 442.006993 2221.85315 183.090909 2319.58042 85.3636364 2319.58042 23.4755245 2381.46853 23.4755245 2381.46853 265.608392 2465.38462 349.699301 2465.38462 455.643357 2489.51049 455.643357 2488.98601 742.006993 1201.74825 742.006993"></polygon>
                <polyline id="Shape" points="0.174825175 187.286713 114.51049 187.636364 114.51049 74.8741259 172.377622 74.8741259 172.377622 275.748252 232.867133 275.748252 232.867133 364.034965 336.363636 364.034965 336.363636 741.132867 0.174825175 742.006993"></polyline>
                <polyline id="Shape" points="1243.70629 742.006993 280.769231 742.006993 280.769231 483.265734 355.06993 483.265734 355.06993 417.006993 459.615385 417.006993 459.615385 483.265734 550.524476 483.265734 550.524476 381.167832 589.160839 381.167832 691.083916 444.629371 691.083916 174.874126 751.748252 174.874126 751.748252 359.314685 784.79021 359.314685 784.79021 268.58042 831.468531 268.58042 831.468531 397.776224 870.104895 397.776224 870.104895 444.629371 971.853147 444.629371 971.853147 282.391608 1004.8951 249 1004.8951 122.601399 1044.93007 82.5664336 1044.93007 1.44755245 1059.79021 1.44755245 1059.79021 442.006993 1178.32168 442.006993 1178.32168 345.678322 1243.70629 345.678322"></polyline>
            </g>
            <path d="M3499.12587,1357.51748 L2732.86713,1357.51748" id="Shape"></path>
            <path d="M1483.56643,1357.51748 L717.482517,1357.51748" id="Shape"></path>
            <rect id="Rectangle-path" fill="#363736" x="0.174825175" y="1356.64336" width="3496.32867" height="297.202797"></rect>
        </g>
    </g>
</svg>