<?xml version="1.0" encoding="UTF-8" standalone="no"?>
<svg width="112px" height="371px" viewBox="0 0 112 371" version="1.1" xmlns="http://www.w3.org/2000/svg" xmlns:xlink="http://www.w3.org/1999/xlink">
    <!-- Generator: Sketch 39.1 (31720) - http://www.bohemiancoding.com/sketch -->
    <title>baloon-taser</title>
    <desc>Created with Sketch.</desc>
    <defs></defs>
    <g id="baloon-iron" stroke="none" stroke-width="1" fill="none" fill-rule="evenodd">
        <g id="baloon-taser">
            <path d="M57,130.5 L57,294" id="Line" stroke="#5E5E5E" stroke-width="2" stroke-linecap="square"></path>
            <polygon id="Triangle" fill="#2FDE7B" points="56.5 122 73 141 40 141"></polygon>
            <path d="M56,131 C86.927946,131 112,101.674651 112,65.5 C112,29.3253489 86.927946,0 56,0 C25.072054,0 0,29.3253489 0,65.5 C0,101.674651 25.072054,131 56,131 Z" id="Oval" fill="#2FDE7B"></path>
            <g id="taser-01" transform="translate(30.000000, 271.000000)">
                <g id="Layer_1">
                    <g id="Group">
                        <path d="M26,5.35864979 L35.4766355,5.35864979 C35.4766355,5.35864979 39.0728972,5.48523207 39.7046729,3.41772152 C40.3364486,1.35021097 40.6280374,-0.253164557 43.446729,0.0421940928 C46.2654206,0.337552743 49.2785047,0.29535865 49.4728972,1.72995781 C49.6186916,3.16455696 52.1943925,32.1097046 51.7084112,33.7974684 C51.2224299,35.4852321 48.9869159,36.4135021 48.9869159,37.721519 L48.9869159,93.3755274 C48.9869159,93.3755274 50.0560748,99.1139241 45.9738318,99.1139241 C41.8915888,99.1139241 26,99.5780591 26,99.5780591 L26,5.35864979 L26,5.35864979 Z" id="Shape" fill="#202020"></path>
                        <path d="M26.1943925,5.35864979 L16.7663551,5.35864979 C16.7663551,5.35864979 13.1700935,5.48523207 12.5383178,3.41772152 C11.9551402,1.35021097 11.6149533,-0.253164557 8.79626168,0.0421940928 C5.97757009,0.337552743 2.96448598,0.29535865 2.77009346,1.72995781 C2.62429907,3.16455696 0.0485981308,32.1097046 0.534579439,33.7974684 C0.971962617,35.4852321 3.25607477,36.4135021 3.25607477,37.721519 L3.25607477,93.3755274 C3.25607477,93.3755274 2.18691589,99.1139241 6.26915888,99.1139241 C10.3514019,99.1139241 26.2429907,99.6202532 26.2429907,99.6202532 L26.2429907,5.35864979 L26.1943925,5.35864979 Z" id="Shape" fill="#202020"></path>
                        <path d="M26.1943925,37.2995781 C12.1009346,38.4388186 12.3925234,32.0675105 12.3925234,32.0675105 C12.3925234,32.0675105 9.52523364,16.9620253 9.23364486,12.7848101 C8.94205607,8.60759494 13.6074766,9.4092827 13.6074766,9.4092827 L26.2429907,9.4092827 L38.8785047,9.4092827 C38.8785047,9.4092827 43.5439252,8.60759494 43.2523364,12.7848101 C42.8635514,16.9620253 39.9962617,32.0675105 39.9962617,32.0675105 C39.9962617,32.0675105 40.3364486,38.4388186 26.1943925,37.2995781 L26.1943925,37.2995781 Z" id="Shape" fill="#3F3F3F"></path>
                        <path d="M26.1943925,40.2953586 C26.1943925,40.2953586 32.6579439,39.9156118 33.8728972,39.4936709 C35.0878505,39.1139241 37.1775701,39.3670886 36.4485981,41.1814346 C35.7196262,42.9957806 34.7476636,46.6666667 34.7476636,46.6666667 C34.7476636,46.6666667 33.9214953,49.0295359 31.4429907,49.0295359 L19.6336449,49.0295359 C19.6336449,49.0295359 16.1831776,49.535865 15.2598131,47.2151899 C14.3364486,44.8945148 13.1214953,40.6751055 13.1214953,40.6751055 C13.1214953,40.6751055 13.4130841,38.7763713 16.1345794,39.3248945 C18.8560748,39.8734177 24.6878505,40.3797468 26.1943925,40.2953586 L26.1943925,40.2953586 Z" id="Shape" fill="#3F3F3F"></path>
                        <path d="M3.3046729,40.92827 C3.3046729,40.92827 4.22803738,53.9662447 4.03364486,55.2742616 C3.88785047,56.5822785 1.02056075,54.8945148 1.16635514,51.6033755 C1.31214953,48.3544304 1.16635514,43.9240506 1.16635514,43.9240506 C1.16635514,43.9240506 1.16635514,41.6033755 3.3046729,40.92827 L3.3046729,40.92827 Z" id="Shape" fill="#202020"></path>
                        <g transform="translate(9.233645, 74.683544)" id="Shape" fill="#FFFFFF">
                            <polygon points="1.2635514 0.421940928 1.94392523 2.99578059 2.08971963 3.71308017 2.23551402 2.99578059 2.81869159 0.421940928 3.98504673 0.421940928 4.61682243 2.99578059 4.76261682 3.71308017 4.90841121 3.03797468 5.58878505 0.421940928 6.70654206 0.421940928 5.24859813 4.93670886 4.22803738 4.93670886 3.59626168 2.32067511 3.40186916 1.43459916 3.20747664 2.32067511 2.57570093 4.93670886 1.55514019 4.93670886 0.0971962617 0.421940928"></polygon>
                            <path d="M8.06728972,0.421940928 L9.28224299,0.421940928 L11.128972,4.93670886 L9.96261682,4.93670886 L9.62242991,4.00843882 L7.7271028,4.00843882 L7.38691589,4.93670886 L6.26915888,4.93670886 L8.06728972,0.421940928 L8.06728972,0.421940928 Z M8.01869159,3.20675105 L9.33084112,3.20675105 L8.69906542,1.43459916 L8.01869159,3.20675105 L8.01869159,3.20675105 Z"></path>
                            <path d="M14.7738318,0.548523207 C14.9682243,0.632911392 15.1140187,0.717299578 15.2598131,0.843881857 C15.3570093,0.970464135 15.4542056,1.09704641 15.5028037,1.22362869 C15.5514019,1.35021097 15.6,1.51898734 15.6,1.68776371 C15.6,1.89873418 15.5514019,2.10970464 15.4056075,2.32067511 C15.2598131,2.53164557 15.0654206,2.65822785 14.7738318,2.74261603 C15.0168224,2.82700422 15.1626168,2.9535865 15.2598131,3.08016878 C15.3570093,3.24894515 15.4056075,3.45991561 15.4056075,3.79746835 L15.4056075,4.092827 C15.4056075,4.30379747 15.4056075,4.43037975 15.4542056,4.51476793 C15.5028037,4.64135021 15.5514019,4.7257384 15.6485981,4.76793249 L15.6485981,4.89451477 L14.4336449,4.89451477 C14.3850467,4.81012658 14.3850467,4.7257384 14.3850467,4.64135021 C14.3364486,4.51476793 14.3364486,4.38818565 14.3364486,4.26160338 L14.3364486,3.83966245 C14.3364486,3.5443038 14.2878505,3.37552743 14.1420561,3.24894515 C14.0448598,3.16455696 13.8504673,3.12236287 13.5102804,3.12236287 L12.4411215,3.12236287 L12.4411215,4.89451477 L11.3719626,4.89451477 L11.3719626,0.421940928 L13.8504673,0.421940928 C14.2878505,0.421940928 14.5794393,0.464135021 14.7738318,0.548523207 L14.7738318,0.548523207 Z M12.5383178,1.22362869 L12.5383178,2.44725738 L13.7046729,2.44725738 C13.9476636,2.44725738 14.0934579,2.40506329 14.2392523,2.3628692 C14.4336449,2.27848101 14.5308411,2.10970464 14.5308411,1.85654008 C14.5308411,1.60337553 14.4336449,1.39240506 14.2392523,1.30801688 C14.1420561,1.26582278 13.9476636,1.22362869 13.753271,1.22362869 L12.5383178,1.22362869 L12.5383178,1.22362869 Z"></path>
                            <polygon points="16.2803738 0.421940928 17.3981308 0.421940928 19.4392523 3.5443038 19.4392523 0.421940928 20.4598131 0.421940928 20.4598131 4.93670886 19.3906542 4.93670886 17.3009346 1.72995781 17.3009346 4.93670886 16.2803738 4.93670886 16.2803738 0.421940928"></polygon>
                            <polygon points="22.1121495 4.93670886 21.0429907 4.93670886 21.0429907 0.421940928 22.1121495 0.421940928"></polygon>
                            <polygon points="22.7439252 0.421940928 23.8616822 0.421940928 25.9028037 3.5443038 25.9028037 0.421940928 26.9233645 0.421940928 26.9233645 4.93670886 25.8542056 4.93670886 23.764486 1.72995781 23.764486 4.93670886 22.7439252 4.93670886"></polygon>
                            <path d="M31.1028037,1.81434599 C31.0056075,1.51898734 30.811215,1.30801688 30.5196262,1.1814346 C30.3252336,1.09704641 30.1308411,1.09704641 29.9364486,1.09704641 C29.4990654,1.09704641 29.1588785,1.22362869 28.9158879,1.51898734 C28.6242991,1.7721519 28.5271028,2.19409283 28.5271028,2.74261603 C28.5271028,3.29113924 28.6728972,3.67088608 28.964486,3.92405063 C29.2560748,4.1350211 29.5962617,4.26160338 29.9364486,4.26160338 C30.2766355,4.26160338 30.6168224,4.17721519 30.811215,4.00843882 C31.0056075,3.83966245 31.2,3.58649789 31.2485981,3.29113924 L30.0336449,3.29113924 L30.0336449,2.53164557 L32.1719626,2.53164557 L32.1719626,4.93670886 L31.4429907,4.93670886 L31.3457944,4.38818565 C31.1514019,4.59915612 30.9570093,4.76793249 30.7626168,4.85232068 C30.471028,5.02109705 30.1308411,5.06329114 29.6934579,5.06329114 C29.0130841,5.06329114 28.4299065,4.85232068 27.9925234,4.43037975 C27.5551402,4.00843882 27.3121495,3.45991561 27.3121495,2.74261603 C27.3121495,2.02531646 27.5551402,1.43459916 27.9925234,0.970464135 C28.4785047,0.548523207 29.0616822,0.29535865 29.8392523,0.29535865 C30.5196262,0.29535865 31.0056075,0.421940928 31.4429907,0.717299578 C31.8317757,1.01265823 32.0747664,1.35021097 32.1233645,1.81434599 L31.1028037,1.81434599 L31.1028037,1.81434599 Z"></path>
                        </g>
                    </g>
                </g>
            </g>
        </g>
    </g>
</svg>