<?xml version="1.0" encoding="UTF-8" standalone="no"?>
<svg width="134px" height="357px" viewBox="0 0 134 357" version="1.1" xmlns="http://www.w3.org/2000/svg" xmlns:xlink="http://www.w3.org/1999/xlink">
    <!-- Generator: Sketch 39.1 (31720) - http://www.bohemiancoding.com/sketch -->
    <title>baloon-iron</title>
    <desc>Created with Sketch.</desc>
    <defs></defs>
    <g id="baloon-iron" stroke="none" stroke-width="1" fill="none" fill-rule="evenodd">
        <g transform="translate(-1.000000, 0.000000)">
            <path d="M80,130.5 L80,294" id="Line" stroke="#5E5E5E" stroke-width="2" stroke-linecap="square"></path>
            <polygon id="Triangle" fill="#E60000" points="79.5 122 96 141 63 141"></polygon>
            <path d="M79,131 C109.927946,131 135,101.674651 135,65.5 C135,29.3253489 109.927946,0 79,0 C48.072054,0 23,29.3253489 23,65.5 C23,101.674651 48.072054,131 79,131 Z" id="Oval" fill="#E60000"></path>
            <g id="iron-01" transform="translate(70.500000, 318.000000) rotate(10.000000) translate(-70.500000, -318.000000) translate(6.000000, 283.000000)">
                <g id="Layer_1">
                    <g id="Group">
                        <ellipse id="Oval" fill="#202020" transform="translate(103.414435, 4.028171) rotate(15.099342) translate(-103.414435, -4.028171) " cx="103.414435" cy="4.02817127" rx="3.71154623" ry="3.05532576"></ellipse>
                        <path d="M9.04441341,64.6629834 C9.04441341,64.6629834 8.72011173,64.7016575 8.25167598,64.7403315 C6.12569832,64.9723757 0.504469274,65.7458564 0.252234637,66.8287293 C-0.0720670391,68.1436464 0.288268156,67.8342541 1.44134078,67.9889503 C2.59441341,68.1436464 59.6354749,69.6519337 60.896648,69.6519337 C62.1578212,69.6519337 97.3986034,67.9889503 98.623743,67.9889503 C99.8488827,67.9889503 103.127933,64.0441989 101.037989,63.3867403" id="Shape" fill="#202020"></path>
                        <ellipse id="Oval" fill="#333333" cx="71.5265363" cy="29.121547" rx="9.87318436" ry="1.85635359"></ellipse>
                        <path d="M128.135196,46.5248619 C126.910056,42.1933702 122.694134,30.4751381 120.063687,24.9834254 C117.43324,19.4917127 113.397486,7.73480663 113.253352,7.07734807 C113.109218,6.4198895 110.154469,4.75690608 105.830447,4.09944751 C101.506425,3.44198895 88.3541899,-0.386740331 74.9136872,1.93370166 C61.4371508,4.25414365 40.7178771,11.2154696 26.1963687,32.2928177 L1.15307263,63.5027624 C1.15307263,63.5027624 30.2321229,65.4751381 37.3307263,65.1657459 C44.4293296,64.8176796 94.6960894,64.3535912 94.6960894,64.3535912 L126.693855,53.4088398 C126.693855,53.3701657 129.396369,50.8563536 128.135196,46.5248619 L128.135196,46.5248619 Z M77.5441341,29.7790055 C68.4276536,30.320442 56.2122905,31.6353591 56.2122905,25.679558 C56.2122905,19.7237569 67.202514,15.5856354 76.1748603,14.8895028 C76.1748603,14.8895028 94.4078212,11.4088398 95.2005587,19.6850829 C95.9212291,28 86.6606145,29.2375691 77.5441341,29.7790055 L77.5441341,29.7790055 Z" id="Shape" fill="#999999"></path>
                        <path d="M15.9988827,57.4696133 C15.9988827,57.4696133 29.2952514,40.7624309 46.3030726,38.7900552 C63.3108939,36.8176796 99.3804469,51.3977901 99.3804469,51.3977901 L70.877933,58.359116 L19.0977654,59.3646409 L15.9988827,57.4696133 L15.9988827,57.4696133 Z" id="Shape" fill="#555555"></path>
                        <path d="M6.0896648,57.3535912 C6.0896648,57.3535912 59.5994413,58.2430939 77.3639665,55.4972376 C95.0924581,52.7513812 120.856425,48.1491713 120.748324,39.3314917 C120.640223,30.5138122 105.86648,4.09944751 105.86648,4.09944751 L110.514804,5.33701657 L112.568715,6.38121547 L113.289385,7.1160221 L115.667598,13.961326 C115.667598,13.961326 133.576257,49.1160221 127.414525,52.8287293 C121.252793,56.5414365 102.839665,64.2762431 94.7681564,64.3922652 C90.0837989,64.4309392 59.7796089,65.281768 35.024581,65.359116 C17.1879888,65.3977901 2.27011173,64.7790055 1.69357542,64.3922652 C0.216201117,63.4640884 6.0896648,57.3535912 6.0896648,57.3535912 L6.0896648,57.3535912 Z" id="Shape" fill="#333333"></path>
                        <path d="M25.4756983,33.1823204 C25.4756983,33.1823204 29.7997207,32.8342541 34.5561453,28.1160221 C39.3125698,23.3977901 52.2846369,12.1823204 61.6893855,9.32044199 C71.0941341,6.45856354 87.2011173,5.22099448 91.272905,6.22651934 C95.3446927,7.2320442 99.0201117,4.09944751 98.9120112,2.74585635 L90.227933,1.50828729 C90.227933,1.50828729 72.8958101,-1.50828729 56.5726257,6.45856354 C40.2494413,14.4254144 31.5293296,22.7403315 24.9351955,33.1823204" id="Shape" fill="#202020"></path>
                        <path d="M47.3120112,12.1823204 C47.3120112,12.1823204 46.2670391,9.20441989 49.4019553,7.07734807 C52.5368715,4.95027624 60.4642458,3.98342541 60.4282123,4.79558011 C60.3921788,5.60773481 47.3120112,12.1823204 47.3120112,12.1823204 L47.3120112,12.1823204 Z" id="Shape" fill="#202020"></path>
                        <path d="M84.4265363,29.121547 C84.4265363,29.121547 94.5519553,28.1160221 95.1284916,21.9668508 C95.1284916,21.9668508 115.018994,23.9392265 115.955866,24.2872928 C116.892737,24.6353591 119.739385,34.1878453 119.955587,34.961326 C120.171788,35.7348066 121.396927,38.9834254 120.532123,40.7237569 C120.532123,40.6850829 98.4435754,34.961326 84.4265363,29.121547 L84.4265363,29.121547 Z" id="Shape" fill="#202020"></path>
                        <ellipse id="Oval" fill="#FFFFFF" cx="61.8695531" cy="35" rx="2.27011173" ry="1.81767956"></ellipse>
                        <g transform="translate(58.374302, 37.127072)" id="Shape" fill="#FFFFFF">
                            <path d="M0.0720670391,0.61878453 C0.108100559,0.657458564 0.144134078,0.73480663 0.216201117,0.73480663 C0.324301676,0.773480663 0.360335196,0.73480663 0.396368715,0.696132597 C0.432402235,0.61878453 0.396368715,0.580110497 0.324301676,0.502762431 C0.216201117,0.386740331 0.180167598,0.309392265 0.216201117,0.232044199 C0.252234637,0.116022099 0.396368715,0.0773480663 0.540502793,0.154696133 C0.612569832,0.193370166 0.648603352,0.232044199 0.684636872,0.270718232 C0.648603352,0.309392265 0.648603352,0.309392265 0.612569832,0.348066298 C0.576536313,0.309392265 0.540502793,0.270718232 0.504469274,0.232044199 C0.432402235,0.193370166 0.360335196,0.232044199 0.360335196,0.270718232 C0.324301676,0.309392265 0.360335196,0.386740331 0.432402235,0.464088398 C0.540502793,0.580110497 0.576536313,0.657458564 0.540502793,0.73480663 C0.504469274,0.850828729 0.360335196,0.889502762 0.180167598,0.812154696 C0.108100559,0.773480663 0.0360335196,0.73480663 1.42108547e-14,0.657458564 C0.0360335196,0.657458564 0.0360335196,0.61878453 0.0720670391,0.61878453 L0.0720670391,0.61878453 Z"></path>
                            <path d="M0.82877095,0.696132597 C0.756703911,0.850828729 0.864804469,0.966850829 1.00893855,1.0441989 C1.11703911,1.08287293 1.15307263,1.08287293 1.22513966,1.08287293 L1.22513966,1.19889503 C1.18910615,1.19889503 1.08100559,1.19889503 0.972905028,1.16022099 C0.756703911,1.08287293 0.648603352,0.889502762 0.720670391,0.657458564 C0.79273743,0.464088398 0.972905028,0.348066298 1.18910615,0.386740331 C1.40530726,0.464088398 1.40530726,0.696132597 1.36927374,0.812154696 C1.36927374,0.850828729 1.36927374,0.850828729 1.33324022,0.889502762 C1.11703911,0.812154696 1.00893855,0.773480663 0.82877095,0.696132597 L0.82877095,0.696132597 Z M1.22513966,0.73480663 C1.26117318,0.657458564 1.26117318,0.502762431 1.11703911,0.464088398 C0.972905028,0.425414365 0.900837989,0.502762431 0.864804469,0.580110497 C1.00893855,0.657458564 1.08100559,0.696132597 1.22513966,0.73480663 L1.22513966,0.73480663 Z"></path>
                            <path d="M1.69056889,0.232044199 C1.73073078,0.232044199 1.77089267,0.270718232 1.81105456,0.270718232 C1.69056889,0.696132597 1.65040699,0.889502762 1.52992131,1.31491713 C1.44959753,1.31491713 1.44959753,1.27624309 1.36927374,1.27624309 C1.52992131,0.850828729 1.57008321,0.61878453 1.69056889,0.232044199 L1.69056889,0.232044199 Z"></path>
                            <path d="M1.76564246,1.35359116 C1.8377095,1.12154696 1.8377095,0.966850829 1.90977654,0.73480663 C1.87374302,0.73480663 1.8377095,0.73480663 1.80167598,0.696132597 C1.80167598,0.657458564 1.80167598,0.61878453 1.8377095,0.580110497 C1.87374302,0.580110497 1.90977654,0.580110497 1.94581006,0.61878453 L1.94581006,0.580110497 C1.98184358,0.464088398 2.01787709,0.386740331 2.08994413,0.348066298 C2.16201117,0.309392265 2.19804469,0.309392265 2.27011173,0.309392265 C2.30614525,0.309392265 2.34217877,0.348066298 2.37821229,0.348066298 C2.37821229,0.386740331 2.34217877,0.425414365 2.34217877,0.464088398 C2.34217877,0.464088398 2.30614525,0.425414365 2.27011173,0.425414365 C2.16201117,0.386740331 2.12597765,0.502762431 2.08994413,0.61878453 L2.08994413,0.657458564 C2.16201117,0.657458564 2.19804469,0.696132597 2.27011173,0.696132597 C2.27011173,0.73480663 2.27011173,0.773480663 2.23407821,0.812154696 C2.16201117,0.812154696 2.12597765,0.773480663 2.05391061,0.773480663 C2.01787709,1.00552486 1.98184358,1.16022099 1.90977654,1.39226519 C1.87374302,1.39226519 1.8377095,1.39226519 1.76564246,1.35359116 L1.76564246,1.35359116 Z"></path>
                            <path d="M3.1349162,1.58563536 C3.09888268,1.58563536 3.02681564,1.62430939 2.91871508,1.58563536 C2.70251397,1.54696133 2.55837989,1.39226519 2.59441341,1.16022099 C2.63044693,0.928176796 2.81061453,0.812154696 3.02681564,0.812154696 C3.09888268,0.812154696 3.17094972,0.850828729 3.20698324,0.889502762 C3.20698324,0.928176796 3.17094972,0.966850829 3.17094972,1.00552486 C3.1349162,0.966850829 3.09888268,0.966850829 3.02681564,0.966850829 C2.84664804,0.928176796 2.73854749,1.0441989 2.73854749,1.19889503 C2.70251397,1.35359116 2.81061453,1.50828729 2.9547486,1.50828729 L3.1349162,1.50828729 C3.09888268,1.50828729 3.09888268,1.54696133 3.1349162,1.58563536 L3.1349162,1.58563536 Z"></path>
                            <path d="M3.36740644,0.541436464 L3.54411877,0.541436464 C3.49994069,0.966850829 3.49994069,1.19889503 3.45576261,1.62430939 L3.27905028,1.62430939 C3.32322836,1.19889503 3.32322836,0.966850829 3.36740644,0.541436464 L3.36740644,0.541436464 Z"></path>
                            <path d="M3.74748603,1.31491713 C3.74748603,1.50828729 3.85558659,1.58563536 3.99972067,1.58563536 C4.10782123,1.58563536 4.14385475,1.58563536 4.21592179,1.54696133 C4.21592179,1.58563536 4.21592179,1.58563536 4.25195531,1.62430939 C4.21592179,1.66298343 4.10782123,1.66298343 3.99972067,1.66298343 C3.74748603,1.66298343 3.63938547,1.50828729 3.63938547,1.27624309 C3.63938547,1.0441989 3.78351955,0.889502762 3.99972067,0.889502762 C4.25195531,0.889502762 4.28798883,1.12154696 4.28798883,1.23756906 L4.28798883,1.31491713 C4.07178771,1.31491713 3.96368715,1.31491713 3.74748603,1.31491713 L3.74748603,1.31491713 Z M4.14385475,1.19889503 C4.14385475,1.12154696 4.10782123,0.966850829 3.96368715,0.966850829 C3.81955307,0.966850829 3.78351955,1.08287293 3.74748603,1.19889503 L4.14385475,1.19889503 L4.14385475,1.19889503 Z"></path>
                            <path d="M4.90055866,1.62430939 C4.90055866,1.58563536 4.90055866,1.58563536 4.86452514,1.54696133 L4.86452514,1.54696133 C4.82849162,1.62430939 4.75642458,1.66298343 4.64832402,1.66298343 C4.50418994,1.66298343 4.39608939,1.58563536 4.39608939,1.46961326 C4.39608939,1.27624309 4.54022346,1.19889503 4.82849162,1.16022099 L4.82849162,1.16022099 C4.82849162,1.08287293 4.7924581,1.00552486 4.64832402,1.00552486 C4.57625698,1.00552486 4.50418994,1.0441989 4.46815642,1.08287293 C4.46815642,1.0441989 4.43212291,1.0441989 4.43212291,1.00552486 C4.50418994,0.966850829 4.57625698,0.928176796 4.68435754,0.928176796 C4.90055866,0.928176796 4.9726257,1.0441989 4.9726257,1.19889503 C4.9726257,1.31491713 4.9726257,1.35359116 5.00865922,1.46961326 C5.00865922,1.54696133 5.00865922,1.58563536 5.04469274,1.66298343 C4.9726257,1.62430939 4.93659218,1.62430939 4.90055866,1.62430939 L4.90055866,1.62430939 Z M4.86452514,1.23756906 C4.72039106,1.23756906 4.54022346,1.27624309 4.54022346,1.43093923 C4.54022346,1.50828729 4.6122905,1.54696133 4.68435754,1.54696133 C4.7924581,1.54696133 4.82849162,1.46961326 4.86452514,1.39226519 L4.86452514,1.35359116 L4.86452514,1.23756906 L4.86452514,1.23756906 Z"></path>
                            <path d="M5.18882682,1.0441989 C5.18882682,0.966850829 5.18882682,0.889502762 5.1527933,0.850828729 L5.26089385,0.850828729 C5.26089385,0.889502762 5.26089385,0.928176796 5.29692737,0.966850829 L5.29692737,0.966850829 C5.33296089,0.889502762 5.40502793,0.812154696 5.51312849,0.773480663 C5.62122905,0.773480663 5.76536313,0.773480663 5.83743017,1.0441989 C5.87346369,1.23756906 5.87346369,1.31491713 5.90949721,1.46961326 C5.83743017,1.46961326 5.83743017,1.46961326 5.76536313,1.50828729 C5.72932961,1.35359116 5.72932961,1.23756906 5.69329609,1.08287293 C5.65726257,0.966850829 5.62122905,0.889502762 5.47709497,0.889502762 C5.40502793,0.889502762 5.33296089,0.966850829 5.29692737,1.0441989 L5.29692737,1.12154696 C5.33296089,1.31491713 5.33296089,1.39226519 5.33296089,1.54696133 L5.18882682,1.54696133 C5.22486034,1.39226519 5.22486034,1.27624309 5.18882682,1.0441989 L5.18882682,1.0441989 Z"></path>
                        </g>
                    </g>
                </g>
            </g>
        </g>
    </g>
</svg>