<?xml version="1.0" encoding="UTF-8" standalone="no"?>
<svg width="112px" height="339px" viewBox="0 0 112 339" version="1.1" xmlns="http://www.w3.org/2000/svg" xmlns:xlink="http://www.w3.org/1999/xlink">
    <!-- Generator: Sketch 39.1 (31720) - http://www.bohemiancoding.com/sketch -->
    <title>baloon-gun</title>
    <desc>Created with Sketch.</desc>
    <defs></defs>
    <g id="baloon-gun" stroke="none" stroke-width="1" fill="none" fill-rule="evenodd">
        <g>
            <path d="M57,130.5 L57,294" id="Line" stroke="#5E5E5E" stroke-width="2" stroke-linecap="square"></path>
            <polygon id="Triangle" fill="#3399FF" points="56.5 122 73 141 40 141"></polygon>
            <ellipse id="Oval" fill="#3399FF" cx="56" cy="65.5" rx="56" ry="65.5"></ellipse>
            <g id="gun-01" transform="translate(9.000000, 274.000000)">
                <g id="Group">
                    <path d="M45.2815934,22.0065934 C45.2815934,22.0065934 46.6648352,25.8673993 46.2733516,27.1619048 C45.8818681,28.4564103 44.9423077,31.6358974 42.5934066,32.5443223 C42.5934066,32.5443223 42.2802198,33.1802198 43.7156593,33.2710623 C45.1510989,33.3391941 48.8571429,29.9098901 49.0137363,27.4344322 C49.1703297,24.9589744 48.9615385,23.959707 49.353022,23.8007326 C49.7445055,23.6417582 51.7019231,22.7106227 51.7019231,22.7106227 L45.2815934,22.0065934 L45.2815934,22.0065934 Z" id="Shape" fill="#303030"></path>
                    <path d="M87.5618132,33.1347985 C84.168956,29.5010989 80.2541209,23.3010989 83.7252747,19.8945055 C87.1964286,16.4879121 89.728022,15.8747253 91.2156593,15.8747253 C92.7032967,15.8747253 94.8434066,14.6710623 94.8173077,13.9897436 C94.7912088,13.3084249 93.6167582,12.6952381 91.7115385,12.1956044 C89.8324176,11.7186813 31.3708791,8.60732601 31.3708791,8.60732601 L0.0260989011,9.99267399 L0.0260989011,17.3054945 C0.0260989011,17.3054945 -0.23489011,18.8271062 2.2967033,18.8952381 C4.8282967,18.96337 8.82142857,18.8952381 8.82142857,18.8952381 C8.82142857,18.8952381 9.4217033,21.2344322 11.4313187,21.3252747 C13.4409341,21.3934066 27.6909341,21.3252747 27.6909341,21.3252747 L32.0494505,32.385348 C32.0494505,32.385348 33.4326923,35.1106227 35.625,35.7238095 C37.7912088,36.3369963 45.4381868,36.83663 48.6744505,36.4732601 C51.1016484,36.2007326 57.3653846,34.3611722 58.0700549,34.2021978 C58.7747253,34.0432234 61.1236264,34.2021978 61.6456044,36.0871795 C62.1675824,37.9721612 70.0755495,57.7304029 70.0755495,57.7304029 L69.2142857,60.2967033 L75.5563187,61.8864469 L93.2252747,60.5919414 L92.4423077,57.2534799 C92.4423077,57.2534799 95.1304945,56.1179487 94.7912088,54.0739927 C94.4519231,52.0300366 90.9546703,36.7684982 87.5618132,33.1347985 L87.5618132,33.1347985 Z M56.5824176,31.7721612 C55.0164835,33.1347985 44.9162088,34.3384615 40.8447802,34.2021978 C36.7472527,34.0432234 35.9642857,31.7040293 35.9642857,31.7040293 L33.3543956,22.0065934 C33.1717033,21.3479853 38.4958791,22.0065934 45.2815934,22.0065934 C52.0673077,22.0065934 57.5480769,22.9150183 58.0700549,25.7992674 C58.592033,28.6835165 58.1483516,30.4095238 56.5824176,31.7721612 L56.5824176,31.7721612 Z" id="Shape" stroke="#3F3F3F" stroke-width="6" fill="#3F3F3F"></path>
                    <path d="M0.0260989011,4.2014652 L0.0260989011,9.99267399 L10.3351648,9.99267399 C10.3351648,9.99267399 12.9450549,9.76556777 13.3365385,12.9450549 L90.7197802,12.3772894 C90.7197802,12.3772894 93.1991758,12.2637363 92.2857143,10.6739927 C91.3722527,9.08424908 88.2403846,3.29304029 88.2403846,3.29304029 C88.2403846,3.29304029 87.7184066,2.15750916 85.5,2.27106227 L83.0989011,0.181684982 L77.6181319,1.02197802 L77.8008242,2.31648352 L62.0631868,2.38461538 L62.1414835,1.18095238 L57.3653846,1.56703297 L55.5384615,0.817582418 L49.1964286,1.72600733 L49.1964286,2.86153846 L7.96016484,2.56630037 L5.61126374,0.227106227 L3.18406593,0.976556777 L1.61813187,2.56630037 L0.0521978022,2.86153846 L0.0521978022,4.2014652 L0.0260989011,4.2014652 Z" id="Shape" stroke="#202020" stroke-width="6" fill="#202020"></path>
                </g>
            </g>
        </g>
    </g>
</svg>