<?xml version="1.0" encoding="utf-8"?>
<!-- Generator: Adobe Illustrator 18.0.0, SVG Export Plug-In . SVG Version: 6.00 Build 0)  -->
<!DOCTYPE svg PUBLIC "-//W3C//DTD SVG 1.1//EN" "http://www.w3.org/Graphics/SVG/1.1/DTD/svg11.dtd">
<svg version="1.1" id="Layer_1" xmlns="http://www.w3.org/2000/svg" xmlns:xlink="http://www.w3.org/1999/xlink" x="0px" y="0px"
	 viewBox="0 0 8564 3508" enable-background="new 0 0 8564 3508" xml:space="preserve">
<g>
	<rect y="2" fill="#C3E6F1" width="8564.9" height="2778.7"/>
</g>
<g>
	<rect x="0.3" y="2778.6" fill="#363736" width="8564.6" height="728.1"/>
</g>
<g>
	<g>
		<polyline fill="#A6DEF0" points="4656,2242.5 4907.9,2242.5 4907.9,1876.2 4979.9,1876.2 4979.9,2030.9 5103.9,2030.9 
			5103.9,1577 5207.1,1577 5207.1,1741.9 5341.3,1741.9 5341.3,1391.2 5516.4,1391.2 5516.4,1842.3 5676.5,1842.3 5676.5,2036.2 
			5846.7,2036.2 5846.7,2273.1 6058.4,2273.1 6058.4,1917.5 6130.3,1917.5 6130.3,2102.8 6290.4,2102.8 6290.4,2268.3 
			6419.3,2268.3 6419.3,1741.9 6599.8,1741.9 6599.8,1530.3 6708.3,1530.3 6708.3,1906.8 6821.6,1906.8 6821.6,2072.2 
			7015.6,2072.2 7015.6,2779 4656,2779 		"/>
	</g>
	<g>
		<polyline fill="#A6DEF0" points="8716.5,2780.7 6912.5,2780.7 6912.5,2295.7 7051.6,2295.7 7051.6,2171.6 7247.5,2171.6 
			7247.5,2295.7 7417.9,2295.7 7417.9,2104.5 7490.4,2104.5 7681.1,2223.2 7681.1,1717.8 7794.9,1717.8 7794.9,2063.6 
			7856.7,2063.6 7856.7,1893.4 7944.2,1893.4 7944.2,2135.6 8016.7,2135.6 8016.7,2223.2 8207.4,2223.2 8207.4,1919.2 
			8269.2,1856.9 8269.2,1620 8344.4,1544.7 8344.4,1392.7 8372.3,1392.7 8372.3,2218.3 8594.1,2218.3 8594.1,2037.9 8716.5,2037.9 
					"/>
	</g>
	<g>
		<polygon fill="#A6DEF0" points="2251.5,2223.2 2476,2223.2 2476,1919.2 2537.6,1856.9 2537.6,1620 2612.3,1544.7 2612.3,1392.7 
			2640.9,1392.7 2640.9,2218.3 2862.7,2218.3 2862.7,2037.9 3058.7,2037.9 3244.6,2223.2 3384.2,2223.2 3384.2,1844 3471.7,1844 
			3471.7,1660.7 3569.5,1660.7 3569.5,1944.9 3636.6,1944.9 3636.6,1413.1 3693.6,1413.1 3693.6,1578.5 3802.1,1578.5 
			3802.1,1743.4 3925.6,1743.4 3925.6,2042.7 4028.7,2042.7 4028.7,2218.3 4163,2218.3 4163,1733.3 4346.2,1550.2 4346.2,1434.2 
			4462.2,1434.2 4462.2,1888 4619.5,2045.4 4619.5,2244.1 4664.7,2244.1 4663.6,2780.7 2251.5,2780.7 		"/>
	</g>
	<g>
		<polyline fill="#A6DEF0" points="0.3,2268.3 34.1,2268.3 34.1,1741.9 214.6,1741.9 214.6,1530.3 323.1,1530.3 323.1,1906.8 
			436.4,1906.8 436.4,2072.2 630.3,2072.2 630.3,2779 0.3,2779 		"/>
	</g>
	<g>
		<polyline fill="#A6DEF0" points="2330.3,2780.7 526.2,2780.7 526.2,2295.7 665.3,2295.7 665.3,2171.6 861.3,2171.6 861.3,2295.7 
			1031.6,2295.7 1031.6,2104.5 1104.1,2104.5 1294.8,2223.2 1294.8,1717.8 1408.6,1717.8 1408.6,2063.6 1470.4,2063.6 
			1470.4,1893.4 1557.9,1893.4 1557.9,2135.6 1630.4,2135.6 1630.4,2223.2 1821.1,2223.2 1821.1,1919.2 1882.9,1856.9 1882.9,1620 
			1958.2,1544.7 1958.2,1392.7 1986,1392.7 1986,2218.3 2207.8,2218.3 2207.8,2037.9 2330.3,2037.9 		"/>
	</g>
</g>
<g>
	<line fill="none" x1="8571.1" y1="2780.7" x2="6694.5" y2="2780.7"/>
</g>
<g>
	<path fill="#A6DEF0" d="M6537.5,2779.9"/>
</g>
<g>
	<g>
		<g>
			<circle fill="#7A9F70" cx="7497.9" cy="2405.8" r="65.3"/>
		</g>
		<g>
			<circle fill="#7A9F70" cx="7459" cy="2630.2" r="42.1"/>
		</g>
		<g>
			<circle fill="#7A9F70" cx="7517.8" cy="2636.2" r="42.1"/>
		</g>
		<g>
			<circle fill="#7A9F70" cx="7432.5" cy="2463.1" r="65.3"/>
		</g>
		<g>
			<circle fill="#7A9F70" cx="7425" cy="2557.9" r="78.3"/>
		</g>
		<g>
			<circle fill="#7A9F70" cx="7541.5" cy="2576.3" r="78.3"/>
		</g>
		<g>
			<circle fill="#7A9F70" cx="7534.5" cy="2473.8" r="65.3"/>
		</g>
		<g>
			<path fill="#73675A" d="M7501.1,2787.3c-13.3,0-24.2-10.9-24.2-24.2v-264.9c0-13.3,10.9-24.2,24.2-24.2
				c13.3,0,24.2,10.9,24.2,24.2V2763C7525.3,2776.4,7514.5,2787.3,7501.1,2787.3z"/>
		</g>
		<g>
			<path fill="#73675A" d="M7501.1,2637.2c-5.6,0-11.3-1.9-15.8-6l-48-41.6c-10.1-8.8-11.3-24.1-2.5-34.2
				c8.8-10.1,24.1-11.3,34.2-2.5l48,41.6c10.1,8.8,11.3,24.1,2.5,34.2C7514.6,2634.4,7507.8,2637.2,7501.1,2637.2z"/>
		</g>
		<g>
			<path fill="#73675A" d="M7501.1,2563.4c-6.1,0-12.3-2.3-17-7c-9.6-9.5-9.7-24.8-0.3-34.3l33.4-34c9.5-9.6,24.8-9.7,34.3-0.3
				c9.6,9.5,9.7,24.8,0.3,34.3l-33.4,34C7513.7,2560.9,7507.3,2563.4,7501.1,2563.4z"/>
		</g>
	</g>
	<g>
		<g>
			<circle fill="#8ABB82" cx="7734.1" cy="2528.9" r="58.3"/>
		</g>
		<g>
			<circle fill="#8ABB82" cx="7675.9" cy="2566.1" r="58.3"/>
		</g>
		<g>
			<circle fill="#8ABB82" cx="7781.7" cy="2574.6" r="58.3"/>
		</g>
		<g>
			<circle fill="#8ABB82" cx="7603.1" cy="2624.3" r="58.3"/>
		</g>
		<g>
			<circle fill="#8ABB82" cx="7576.7" cy="2719.8" r="58.3"/>
		</g>
		<g>
			<circle fill="#8ABB82" cx="7850.6" cy="2624.3" r="58.3"/>
		</g>
		<g>
			<circle fill="#8ABB82" cx="7886.3" cy="2719.8" r="58.3"/>
		</g>
		<g>
			<polygon fill="#8ABB82" points="7576.7,2778.1 7886.3,2778.1 7863.1,2633 7703.9,2546.7 7603.1,2638.4 			"/>
		</g>
	</g>
	<g>
		<g>
			<circle fill="#97CE89" cx="8481.4" cy="2624.3" r="36.2"/>
		</g>
		<g>
			<circle fill="#97CE89" cx="8445.3" cy="2647.5" r="36.2"/>
		</g>
		<g>
			<circle fill="#97CE89" cx="8510.6" cy="2652.9" r="36.2"/>
		</g>
		<g>
			<circle fill="#97CE89" cx="8400.9" cy="2683.1" r="36.2"/>
		</g>
		<g>
			<circle fill="#97CE89" cx="8384.2" cy="2742" r="36.2"/>
		</g>
		<g>
			<circle fill="#97CE89" cx="8553.1" cy="2683.1" r="36.2"/>
		</g>
		<g>
			<circle fill="#97CE89" cx="8574.7" cy="2742" r="36.2"/>
		</g>
		<g>
			<polygon fill="#97CE89" points="8384.2,2778.1 8574.7,2778.1 8560.7,2688.6 8463,2635.7 8400.9,2692.3 			"/>
		</g>
	</g>
	<g>
		<g>
			<circle fill="#F3A657" cx="7447.2" cy="2624.3" r="36.2"/>
		</g>
		<g>
			<circle fill="#F3A657" cx="7411.6" cy="2647.5" r="36.2"/>
		</g>
		<g>
			<circle fill="#F3A657" cx="7476.9" cy="2652.9" r="36.2"/>
		</g>
		<g>
			<circle fill="#F3A657" cx="7366.7" cy="2683.1" r="36.2"/>
		</g>
		<g>
			<circle fill="#F3A657" cx="7350.5" cy="2742" r="36.2"/>
		</g>
		<g>
			<circle fill="#F3A657" cx="7518.9" cy="2683.1" r="36.2"/>
		</g>
		<g>
			<circle fill="#F3A657" cx="7541" cy="2742" r="36.2"/>
		</g>
		<g>
			<polygon fill="#F3A657" points="7350.5,2778.1 7541,2778.1 7526.5,2688.6 7428.8,2635.7 7366.7,2692.3 			"/>
		</g>
	</g>
	<g>
		<g>
			<circle fill="#F8BE8B" cx="8143.7" cy="2595.8" r="59.9"/>
		</g>
		<g>
			<circle fill="#F8BE8B" cx="8053.6" cy="2643.7" r="59.9"/>
		</g>
		<g>
			<circle fill="#F8BE8B" cx="8143.7" cy="2668.1" r="59.9"/>
		</g>
		<g>
			<circle fill="#F8BE8B" cx="8233.7" cy="2595.8" r="59.9"/>
		</g>
		<g>
			<circle fill="#F8BE8B" cx="8253.2" cy="2668.1" r="59.9"/>
		</g>
		<g>
			<circle fill="#F8BE8B" cx="8340" cy="2716" r="59.9"/>
		</g>
		<g>
			<circle fill="#F8BE8B" cx="7984.5" cy="2716" r="59.9"/>
		</g>
		<g>
			<polygon fill="#F8BE8B" points="7984.5,2775.9 8340,2775.9 8340,2695 8152.9,2652.4 8023.3,2680.4 			"/>
		</g>
	</g>
	<g>
		<g>
			<circle fill="#8ABB82" cx="7176.3" cy="2597.8" r="59.9"/>
		</g>
		<g>
			<circle fill="#8ABB82" cx="7086.2" cy="2645.4" r="59.9"/>
		</g>
		<g>
			<circle fill="#8ABB82" cx="7176.3" cy="2670.2" r="59.9"/>
		</g>
		<g>
			<circle fill="#8ABB82" cx="7266.4" cy="2597.8" r="59.9"/>
		</g>
		<g>
			<circle fill="#8ABB82" cx="7285.8" cy="2670.2" r="59.9"/>
		</g>
		<g>
			<circle fill="#8ABB82" cx="7372.7" cy="2717.7" r="59.9"/>
		</g>
		<g>
			<circle fill="#8ABB82" cx="7017.2" cy="2717.7" r="59.9"/>
		</g>
		<g>
			<polygon fill="#8ABB82" points="7017.2,2778.1 7372.7,2778.1 7372.7,2696.6 7185.5,2654 7056.1,2682.6 			"/>
		</g>
	</g>
</g>
<g>
	<line fill="none" x1="3621.6" y1="2780.7" x2="1745" y2="2780.7"/>
</g>
<g>
	<path fill="#A6DEF0" d="M1588,2779.9"/>
</g>
<g>
	<g>
		<g>
			<circle fill="#97CE89" cx="472.5" cy="2597.8" r="59.9"/>
		</g>
		<g>
			<circle fill="#97CE89" cx="381.8" cy="2645.4" r="59.9"/>
		</g>
		<g>
			<circle fill="#97CE89" cx="472.5" cy="2670.2" r="59.9"/>
		</g>
		<g>
			<circle fill="#97CE89" cx="562.6" cy="2597.8" r="59.9"/>
		</g>
		<g>
			<circle fill="#97CE89" cx="582" cy="2670.2" r="59.9"/>
		</g>
		<g>
			<circle fill="#97CE89" cx="668.4" cy="2717.7" r="59.9"/>
		</g>
		<g>
			<circle fill="#97CE89" cx="313.4" cy="2717.7" r="59.9"/>
		</g>
		<g>
			<polygon fill="#97CE89" points="313.4,2778.1 668.4,2778.1 668.4,2696.6 481.1,2654 352.1,2682.6 			"/>
		</g>
	</g>
	<g>
		<g>
			<circle fill="#8ABB82" cx="215.8" cy="2528.9" r="58.3"/>
		</g>
		<g>
			<circle fill="#8ABB82" cx="157.6" cy="2566.1" r="58.3"/>
		</g>
		<g>
			<circle fill="#8ABB82" cx="263.2" cy="2574.6" r="58.3"/>
		</g>
		<g>
			<circle fill="#8ABB82" cx="84.8" cy="2624.3" r="58.3"/>
		</g>
		<g>
			<circle fill="#8ABB82" cx="58.3" cy="2719.8" r="58.3"/>
		</g>
		<g>
			<circle fill="#8ABB82" cx="332.3" cy="2624.3" r="58.3"/>
		</g>
		<g>
			<circle fill="#8ABB82" cx="367.9" cy="2719.8" r="58.3"/>
		</g>
		<g>
			<polygon fill="#8ABB82" points="58.3,2778.1 367.9,2778.1 344.7,2633 185.6,2546.7 84.8,2638.4 			"/>
		</g>
	</g>
</g>
<g>
	<g>
		<g>
			<circle fill="#8ABB82" cx="4506.9" cy="2567.7" r="49.1"/>
		</g>
		<g>
			<circle fill="#8ABB82" cx="4457.3" cy="2599" r="49.1"/>
		</g>
		<g>
			<circle fill="#8ABB82" cx="4546.8" cy="2606.5" r="49.1"/>
		</g>
		<g>
			<circle fill="#8ABB82" cx="4396.4" cy="2648.1" r="49.1"/>
		</g>
		<g>
			<circle fill="#8ABB82" cx="4374.2" cy="2729" r="49.1"/>
		</g>
		<g>
			<circle fill="#8ABB82" cx="4605.1" cy="2648.1" r="49.1"/>
		</g>
		<g>
			<circle fill="#8ABB82" cx="4634.8" cy="2729" r="49.1"/>
		</g>
		<g>
			<polygon fill="#8ABB82" points="4374.2,2778.1 4634.8,2778.1 4615.9,2655.7 4481.6,2582.8 4396.4,2659.9 			"/>
		</g>
	</g>
	<g>
		<g>
			<circle fill="#8ABB82" cx="3710.1" cy="2528.9" r="58.3"/>
		</g>
		<g>
			<circle fill="#8ABB82" cx="3651.8" cy="2566.1" r="58.3"/>
		</g>
		<g>
			<circle fill="#8ABB82" cx="3758.1" cy="2574.6" r="58.3"/>
		</g>
		<g>
			<circle fill="#8ABB82" cx="3579.5" cy="2624.3" r="58.3"/>
		</g>
		<g>
			<circle fill="#8ABB82" cx="3553" cy="2719.8" r="58.3"/>
		</g>
		<g>
			<circle fill="#8ABB82" cx="3826.6" cy="2624.3" r="58.3"/>
		</g>
		<g>
			<circle fill="#8ABB82" cx="3862.3" cy="2719.8" r="58.3"/>
		</g>
		<g>
			<polygon fill="#8ABB82" points="3553,2778.1 3862.3,2778.1 3839.1,2633 3679.9,2546.7 3579.5,2638.4 			"/>
		</g>
	</g>
	<g>
		<g>
			<circle fill="#97CE89" cx="2716.8" cy="2528.9" r="58.3"/>
		</g>
		<g>
			<circle fill="#97CE89" cx="2658.5" cy="2566.1" r="58.3"/>
		</g>
		<g>
			<circle fill="#97CE89" cx="2764.3" cy="2574.6" r="58.3"/>
		</g>
		<g>
			<circle fill="#97CE89" cx="2585.7" cy="2624.3" r="58.3"/>
		</g>
		<g>
			<circle fill="#97CE89" cx="2559.3" cy="2719.8" r="58.3"/>
		</g>
		<g>
			<circle fill="#97CE89" cx="2833.4" cy="2624.3" r="58.3"/>
		</g>
		<g>
			<circle fill="#97CE89" cx="2868.5" cy="2719.8" r="58.3"/>
		</g>
		<g>
			<polygon fill="#97CE89" points="2559.3,2778.1 2868.5,2778.1 2845.8,2633 2686.6,2546.7 2585.7,2638.4 			"/>
		</g>
	</g>
	<g>
		<g>
			<circle fill="#7A9F70" cx="4457.3" cy="2624.3" r="36.2"/>
		</g>
		<g>
			<circle fill="#7A9F70" cx="4421.6" cy="2647.5" r="36.2"/>
		</g>
		<g>
			<circle fill="#7A9F70" cx="4487" cy="2652.9" r="36.2"/>
		</g>
		<g>
			<circle fill="#7A9F70" cx="4376.9" cy="2683.1" r="36.2"/>
		</g>
		<g>
			<circle fill="#7A9F70" cx="4360.7" cy="2742" r="36.2"/>
		</g>
		<g>
			<circle fill="#7A9F70" cx="4529.1" cy="2683.1" r="36.2"/>
		</g>
		<g>
			<circle fill="#7A9F70" cx="4551.2" cy="2742" r="36.2"/>
		</g>
		<g>
			<polygon fill="#7A9F70" points="4360.7,2778.1 4551.2,2778.1 4536.6,2688.6 4439,2635.7 4376.9,2692.3 			"/>
		</g>
	</g>
	<g>
		<g>
			<circle fill="#7A9F70" cx="3423.6" cy="2624.3" r="36.2"/>
		</g>
		<g>
			<circle fill="#7A9F70" cx="3387.4" cy="2647.5" r="36.2"/>
		</g>
		<g>
			<circle fill="#7A9F70" cx="3452.7" cy="2652.9" r="36.2"/>
		</g>
		<g>
			<circle fill="#7A9F70" cx="3342.7" cy="2683.1" r="36.2"/>
		</g>
		<g>
			<circle fill="#7A9F70" cx="3326.5" cy="2742" r="36.2"/>
		</g>
		<g>
			<circle fill="#7A9F70" cx="3495.4" cy="2683.1" r="36.2"/>
		</g>
		<g>
			<circle fill="#7A9F70" cx="3516.9" cy="2742" r="36.2"/>
		</g>
		<g>
			<polygon fill="#7A9F70" points="3326.5,2778.1 3516.9,2778.1 3502.9,2688.6 3404.8,2635.7 3342.7,2692.3 			"/>
		</g>
	</g>
	<g>
		<g>
			<circle fill="#F8BE8B" cx="4119.5" cy="2597.8" r="59.9"/>
		</g>
		<g>
			<circle fill="#F8BE8B" cx="4029.5" cy="2645.4" r="59.9"/>
		</g>
		<g>
			<circle fill="#F8BE8B" cx="4119.5" cy="2670.2" r="59.9"/>
		</g>
		<g>
			<circle fill="#F8BE8B" cx="4210.3" cy="2597.8" r="59.9"/>
		</g>
		<g>
			<circle fill="#F8BE8B" cx="4229.6" cy="2670.2" r="59.9"/>
		</g>
		<g>
			<circle fill="#F8BE8B" cx="4316" cy="2717.7" r="59.9"/>
		</g>
		<g>
			<circle fill="#F8BE8B" cx="3960.9" cy="2717.7" r="59.9"/>
		</g>
		<g>
			<polygon fill="#F8BE8B" points="3960.9,2778.1 4316,2778.1 4316,2696.6 4128.7,2654 3999.8,2682.6 			"/>
		</g>
	</g>
	<g>
		<g>
			<circle fill="#8ABB82" cx="3152.2" cy="2597.8" r="59.9"/>
		</g>
		<g>
			<circle fill="#8ABB82" cx="3062.1" cy="2645.4" r="59.9"/>
		</g>
		<g>
			<circle fill="#8ABB82" cx="3152.2" cy="2670.2" r="59.9"/>
		</g>
		<g>
			<circle fill="#8ABB82" cx="3242.9" cy="2597.8" r="59.9"/>
		</g>
		<g>
			<circle fill="#8ABB82" cx="3262.3" cy="2670.2" r="59.9"/>
		</g>
		<g>
			<circle fill="#8ABB82" cx="3348.7" cy="2717.7" r="59.9"/>
		</g>
		<g>
			<circle fill="#8ABB82" cx="2993.5" cy="2717.7" r="59.9"/>
		</g>
		<g>
			<polygon fill="#8ABB82" points="2993.5,2778.1 3348.7,2778.1 3348.7,2696.6 3161.4,2654 3032.4,2682.6 			"/>
		</g>
	</g>
	<g>
		<g>
			<circle fill="#7A9F70" cx="4035.4" cy="2405.8" r="65.3"/>
		</g>
		<g>
			<circle fill="#7A9F70" cx="3996.5" cy="2630.2" r="42.1"/>
		</g>
		<g>
			<circle fill="#7A9F70" cx="4055.4" cy="2636.2" r="42.1"/>
		</g>
		<g>
			<circle fill="#7A9F70" cx="3970.6" cy="2463.1" r="65.3"/>
		</g>
		<g>
			<circle fill="#7A9F70" cx="3962.6" cy="2557.9" r="78.3"/>
		</g>
		<g>
			<circle fill="#7A9F70" cx="4079.1" cy="2576.3" r="78.3"/>
		</g>
		<g>
			<circle fill="#7A9F70" cx="4072.1" cy="2473.8" r="65.3"/>
		</g>
		<g>
			<path fill="#73675A" d="M4038.7,2787.3c-13.3,0-24.2-10.9-24.2-24.2v-264.9c0-13.3,10.9-24.2,24.2-24.2
				c13.3,0,24.2,10.9,24.2,24.2V2763C4062.9,2776.4,4052,2787.3,4038.7,2787.3z"/>
		</g>
		<g>
			<path fill="#73675A" d="M4038.7,2637.2c-5.6,0-11.3-1.9-15.8-6l-48.1-41.6c-10.1-8.8-11.3-24.1-2.5-34.2
				c8.8-10.1,24.1-11.3,34.2-2.5l48.1,41.6c10.1,8.8,11.3,24.1,2.5,34.2C4052.1,2634.4,4045.4,2637.2,4038.7,2637.2z"/>
		</g>
		<g>
			<path fill="#73675A" d="M4038.7,2563.4c-6.1,0-12.3-2.3-17-7c-9.6-9.5-9.7-24.8-0.3-34.3l33.4-34c9.5-9.6,24.8-9.7,34.3-0.3
				s9.7,24.8,0.3,34.3l-33.4,34C4051.2,2560.9,4044.9,2563.4,4038.7,2563.4z"/>
		</g>
	</g>
	<g>
		<g>
			<circle fill="#7A9F70" cx="1083.2" cy="2405.8" r="65.3"/>
		</g>
		<g>
			<circle fill="#7A9F70" cx="1044.3" cy="2630.2" r="42.1"/>
		</g>
		<g>
			<circle fill="#7A9F70" cx="1103.2" cy="2636.2" r="42.1"/>
		</g>
		<g>
			<circle fill="#7A9F70" cx="1017.9" cy="2463.1" r="65.3"/>
		</g>
		<g>
			<circle fill="#7A9F70" cx="1010.4" cy="2557.9" r="78.3"/>
		</g>
		<g>
			<circle fill="#7A9F70" cx="1126.9" cy="2576.3" r="78.3"/>
		</g>
		<g>
			<circle fill="#7A9F70" cx="1119.9" cy="2473.8" r="65.3"/>
		</g>
		<g>
			<path fill="#73675A" d="M1086.5,2787.3c-13.3,0-24.2-10.9-24.2-24.2v-264.9c0-13.3,10.9-24.2,24.2-24.2s24.2,10.9,24.2,24.2V2763
				C1110.7,2776.4,1099.8,2787.3,1086.5,2787.3z"/>
		</g>
		<g>
			<path fill="#73675A" d="M1086.5,2637.2c-5.6,0-11.3-1.9-15.8-6l-48-41.6c-10.1-8.8-11.3-24.1-2.5-34.2
				c8.8-10.1,24.1-11.3,34.2-2.5l48,41.6c10.1,8.8,11.3,24.1,2.5,34.2C1099.9,2634.4,1093.2,2637.2,1086.5,2637.2z"/>
		</g>
		<g>
			<path fill="#73675A" d="M1086.5,2563.4c-6.1,0-12.3-2.3-17-7c-9.6-9.5-9.7-24.8-0.3-34.3l33.4-34c9.5-9.6,24.8-9.7,34.3-0.3
				s9.7,24.8,0.3,34.3l-33.4,34C1099,2560.9,1092.7,2563.4,1086.5,2563.4z"/>
		</g>
	</g>
	<g>
		<g>
			<circle fill="#8ABB82" cx="2378.6" cy="2528.9" r="58.3"/>
		</g>
		<g>
			<circle fill="#8ABB82" cx="2320.3" cy="2566.1" r="58.3"/>
		</g>
		<g>
			<circle fill="#8ABB82" cx="2426" cy="2574.6" r="58.3"/>
		</g>
		<g>
			<circle fill="#8ABB82" cx="2247.4" cy="2624.3" r="58.3"/>
		</g>
		<g>
			<circle fill="#8ABB82" cx="2221" cy="2719.8" r="58.3"/>
		</g>
		<g>
			<circle fill="#8ABB82" cx="2495.1" cy="2624.3" r="58.3"/>
		</g>
		<g>
			<circle fill="#8ABB82" cx="2530.2" cy="2719.8" r="58.3"/>
		</g>
		<g>
			<polygon fill="#8ABB82" points="2221,2778.1 2530.2,2778.1 2507.5,2633 2348.4,2546.7 2247.4,2638.4 			"/>
		</g>
	</g>
	<g>
		<g>
			<circle fill="#8ABB82" cx="1319.5" cy="2528.9" r="58.3"/>
		</g>
		<g>
			<circle fill="#8ABB82" cx="1261.3" cy="2566.1" r="58.3"/>
		</g>
		<g>
			<circle fill="#8ABB82" cx="1367" cy="2574.6" r="58.3"/>
		</g>
		<g>
			<circle fill="#8ABB82" cx="1188.5" cy="2624.3" r="58.3"/>
		</g>
		<g>
			<circle fill="#8ABB82" cx="1162" cy="2719.8" r="58.3"/>
		</g>
		<g>
			<circle fill="#8ABB82" cx="1436" cy="2624.3" r="58.3"/>
		</g>
		<g>
			<circle fill="#8ABB82" cx="1471.6" cy="2719.8" r="58.3"/>
		</g>
		<g>
			<polygon fill="#8ABB82" points="1162,2778.1 1471.6,2778.1 1448.4,2633 1289.3,2546.7 1188.5,2638.4 			"/>
		</g>
	</g>
	<g>
		<g>
			<circle fill="#97CE89" cx="2066.8" cy="2624.3" r="36.2"/>
		</g>
		<g>
			<circle fill="#97CE89" cx="2030.6" cy="2647.5" r="36.2"/>
		</g>
		<g>
			<circle fill="#97CE89" cx="2095.9" cy="2652.9" r="36.2"/>
		</g>
		<g>
			<circle fill="#97CE89" cx="1986.3" cy="2683.1" r="36.2"/>
		</g>
		<g>
			<circle fill="#97CE89" cx="1969.6" cy="2742" r="36.2"/>
		</g>
		<g>
			<circle fill="#97CE89" cx="2138.4" cy="2683.1" r="36.2"/>
		</g>
		<g>
			<circle fill="#97CE89" cx="2160.1" cy="2742" r="36.2"/>
		</g>
		<g>
			<polygon fill="#97CE89" points="1969.6,2778.1 2160.1,2778.1 2146.1,2688.6 2048.4,2635.7 1986.3,2692.3 			"/>
		</g>
	</g>
	<g>
		<g>
			<circle fill="#F3A657" cx="1032.5" cy="2624.3" r="36.2"/>
		</g>
		<g>
			<circle fill="#F3A657" cx="996.9" cy="2647.5" r="36.2"/>
		</g>
		<g>
			<circle fill="#F3A657" cx="1062.2" cy="2652.9" r="36.2"/>
		</g>
		<g>
			<circle fill="#F3A657" cx="952.1" cy="2683.1" r="36.2"/>
		</g>
		<g>
			<circle fill="#F3A657" cx="935.9" cy="2742" r="36.2"/>
		</g>
		<g>
			<circle fill="#F3A657" cx="1104.2" cy="2683.1" r="36.2"/>
		</g>
		<g>
			<circle fill="#F3A657" cx="1126.4" cy="2742" r="36.2"/>
		</g>
		<g>
			<polygon fill="#F3A657" points="935.9,2778.1 1126.4,2778.1 1111.9,2688.6 1014.1,2635.7 952.1,2692.3 			"/>
		</g>
	</g>
	<g>
		<g>
			<circle fill="#F8BE8B" cx="1729" cy="2595.8" r="59.9"/>
		</g>
		<g>
			<circle fill="#F8BE8B" cx="1638.9" cy="2643.7" r="59.9"/>
		</g>
		<g>
			<circle fill="#F8BE8B" cx="1729" cy="2668.1" r="59.9"/>
		</g>
		<g>
			<circle fill="#F8BE8B" cx="1819.1" cy="2595.8" r="59.9"/>
		</g>
		<g>
			<circle fill="#F8BE8B" cx="1838.5" cy="2668.1" r="59.9"/>
		</g>
		<g>
			<circle fill="#F8BE8B" cx="1925.4" cy="2716" r="59.9"/>
		</g>
		<g>
			<circle fill="#F8BE8B" cx="1569.9" cy="2716" r="59.9"/>
		</g>
		<g>
			<polygon fill="#F8BE8B" points="1569.9,2775.9 1925.4,2775.9 1925.4,2695 1738.2,2652.4 1608.6,2680.4 			"/>
		</g>
	</g>
	<g>
		<g>
			<circle fill="#8ABB82" cx="761.7" cy="2597.8" r="59.9"/>
		</g>
		<g>
			<circle fill="#8ABB82" cx="671.6" cy="2645.4" r="59.9"/>
		</g>
		<g>
			<circle fill="#8ABB82" cx="761.7" cy="2670.2" r="59.9"/>
		</g>
		<g>
			<circle fill="#8ABB82" cx="851.7" cy="2597.8" r="59.9"/>
		</g>
		<g>
			<circle fill="#8ABB82" cx="871.2" cy="2670.2" r="59.9"/>
		</g>
		<g>
			<circle fill="#8ABB82" cx="958" cy="2717.7" r="59.9"/>
		</g>
		<g>
			<circle fill="#8ABB82" cx="602.5" cy="2717.7" r="59.9"/>
		</g>
		<g>
			<polygon fill="#8ABB82" points="602.5,2778.1 958,2778.1 958,2696.6 770.9,2654 641.4,2682.6 			"/>
		</g>
	</g>
	<g>
		<g>
			<circle fill="#7A9F70" cx="2782.2" cy="2328.7" r="79.3"/>
		</g>
		<g>
			<circle fill="#7A9F70" cx="2734.6" cy="2603.8" r="51.2"/>
		</g>
		<g>
			<circle fill="#7A9F70" cx="2806.4" cy="2610.8" r="51.2"/>
		</g>
		<g>
			<circle fill="#7A9F70" cx="2702.9" cy="2398.8" r="79.3"/>
		</g>
		<g>
			<circle fill="#7A9F70" cx="2693.1" cy="2514.8" r="96"/>
		</g>
		<g>
			<circle fill="#7A9F70" cx="2836.1" cy="2537.5" r="96"/>
		</g>
		<g>
			<circle fill="#7A9F70" cx="2826.9" cy="2411.7" r="79.3"/>
		</g>
		<g>
			<path fill="#73675A" d="M2785.9,2789.4c-13.3,0-24.2-10.9-24.2-24.2v-323.2c0-13.3,10.9-24.2,24.2-24.2s24.2,10.9,24.2,24.2
				v323.2C2810.2,2778.5,2799.3,2789.4,2785.9,2789.4z"/>
		</g>
		<g>
			<path fill="#73675A" d="M2785.9,2606.5c-5.7,0-11.3-1.9-15.9-6l-58.3-50.7c-10.1-8.8-11.1-24.1-2.3-34.2s24.1-11.1,34.2-2.3
				l58.3,50.7c10.1,8.8,11.1,24.1,2.3,34.2C2799.4,2603.7,2792.7,2606.5,2785.9,2606.5z"/>
		</g>
		<g>
			<path fill="#73675A" d="M2785.9,2515.9c-6.2,0-12.4-2.3-17.1-7.1c-9.5-9.5-9.5-24.9,0-34.3l41-41c9.5-9.5,24.9-9.5,34.3,0
				s9.5,24.9,0,34.3l-41,41C2798.4,2513.5,2792.1,2515.9,2785.9,2515.9z"/>
		</g>
	</g>
</g>
<g>
	<g>
		<g>
			<circle fill="#97CE89" cx="6887.2" cy="2597.8" r="59.9"/>
		</g>
		<g>
			<circle fill="#97CE89" cx="6796.5" cy="2645.4" r="59.9"/>
		</g>
		<g>
			<circle fill="#97CE89" cx="6887.2" cy="2670.2" r="59.9"/>
		</g>
		<g>
			<circle fill="#97CE89" cx="6977.3" cy="2597.8" r="59.9"/>
		</g>
		<g>
			<circle fill="#97CE89" cx="6996.7" cy="2670.2" r="59.9"/>
		</g>
		<g>
			<circle fill="#97CE89" cx="7083" cy="2717.7" r="59.9"/>
		</g>
		<g>
			<circle fill="#97CE89" cx="6728" cy="2717.7" r="59.9"/>
		</g>
		<g>
			<polygon fill="#97CE89" points="6728,2778.1 7083,2778.1 7083,2696.6 6895.7,2654 6766.8,2682.6 			"/>
		</g>
	</g>
	<g>
		<g>
			<circle fill="#8ABB82" cx="6545" cy="2528.9" r="58.3"/>
		</g>
		<g>
			<circle fill="#8ABB82" cx="6486.8" cy="2566.1" r="58.3"/>
		</g>
		<g>
			<circle fill="#8ABB82" cx="6592.6" cy="2574.6" r="58.3"/>
		</g>
		<g>
			<circle fill="#8ABB82" cx="6414" cy="2624.3" r="58.3"/>
		</g>
		<g>
			<circle fill="#8ABB82" cx="6387.6" cy="2719.8" r="58.3"/>
		</g>
		<g>
			<circle fill="#8ABB82" cx="6661.7" cy="2624.3" r="58.3"/>
		</g>
		<g>
			<circle fill="#8ABB82" cx="6697.2" cy="2719.8" r="58.3"/>
		</g>
		<g>
			<polygon fill="#8ABB82" points="6387.6,2778.1 6697.2,2778.1 6674,2633 6514.8,2546.7 6414,2638.4 			"/>
		</g>
	</g>
	<g>
		<g>
			<circle fill="#8ABB82" cx="5486.1" cy="2528.9" r="58.3"/>
		</g>
		<g>
			<circle fill="#8ABB82" cx="5427.7" cy="2566.1" r="58.3"/>
		</g>
		<g>
			<circle fill="#8ABB82" cx="5534" cy="2574.6" r="58.3"/>
		</g>
		<g>
			<circle fill="#8ABB82" cx="5355.4" cy="2624.3" r="58.3"/>
		</g>
		<g>
			<circle fill="#8ABB82" cx="5329" cy="2719.8" r="58.3"/>
		</g>
		<g>
			<circle fill="#8ABB82" cx="5602.6" cy="2624.3" r="58.3"/>
		</g>
		<g>
			<circle fill="#8ABB82" cx="5638.2" cy="2719.8" r="58.3"/>
		</g>
		<g>
			<polygon fill="#8ABB82" points="5329,2778.1 5638.2,2778.1 5615,2633 5455.9,2546.7 5355.4,2638.4 			"/>
		</g>
	</g>
	<g>
		<g>
			<path fill="#97CE89" d="M4703.1,2719.8"/>
		</g>
	</g>
	<g>
		<g>
			<circle fill="#7A9F70" cx="6233.2" cy="2624.3" r="36.2"/>
		</g>
		<g>
			<circle fill="#7A9F70" cx="6197.6" cy="2647.5" r="36.2"/>
		</g>
		<g>
			<circle fill="#7A9F70" cx="6262.9" cy="2652.9" r="36.2"/>
		</g>
		<g>
			<circle fill="#7A9F70" cx="6152.9" cy="2683.1" r="36.2"/>
		</g>
		<g>
			<circle fill="#7A9F70" cx="6136.7" cy="2742" r="36.2"/>
		</g>
		<g>
			<circle fill="#7A9F70" cx="6305" cy="2683.1" r="36.2"/>
		</g>
		<g>
			<circle fill="#7A9F70" cx="6327.2" cy="2742" r="36.2"/>
		</g>
		<g>
			<polygon fill="#7A9F70" points="6136.7,2778.1 6327.2,2778.1 6312.5,2688.6 6214.9,2635.7 6152.9,2692.3 			"/>
		</g>
	</g>
	<g>
		<g>
			<circle fill="#7A9F70" cx="5199.5" cy="2624.3" r="36.2"/>
		</g>
		<g>
			<circle fill="#7A9F70" cx="5163.3" cy="2647.5" r="36.2"/>
		</g>
		<g>
			<circle fill="#7A9F70" cx="5228.7" cy="2652.9" r="36.2"/>
		</g>
		<g>
			<circle fill="#7A9F70" cx="5118.6" cy="2683.1" r="36.2"/>
		</g>
		<g>
			<circle fill="#7A9F70" cx="5102.4" cy="2742" r="36.2"/>
		</g>
		<g>
			<circle fill="#7A9F70" cx="5271.3" cy="2683.1" r="36.2"/>
		</g>
		<g>
			<circle fill="#7A9F70" cx="5292.8" cy="2742" r="36.2"/>
		</g>
		<g>
			<polygon fill="#7A9F70" points="5102.4,2778.1 5292.8,2778.1 5278.8,2688.6 5180.7,2635.7 5118.6,2692.3 			"/>
		</g>
	</g>
	<g>
		<g>
			<circle fill="#F8BE8B" cx="5896" cy="2597.8" r="59.9"/>
		</g>
		<g>
			<circle fill="#F8BE8B" cx="5805.4" cy="2645.4" r="59.9"/>
		</g>
		<g>
			<circle fill="#F8BE8B" cx="5896" cy="2670.2" r="59.9"/>
		</g>
		<g>
			<circle fill="#F8BE8B" cx="5986.2" cy="2597.8" r="59.9"/>
		</g>
		<g>
			<circle fill="#F8BE8B" cx="6005.6" cy="2670.2" r="59.9"/>
		</g>
		<g>
			<circle fill="#F8BE8B" cx="6091.9" cy="2717.7" r="59.9"/>
		</g>
		<g>
			<circle fill="#F8BE8B" cx="5736.8" cy="2717.7" r="59.9"/>
		</g>
		<g>
			<polygon fill="#F8BE8B" points="5736.8,2778.1 6091.9,2778.1 6091.9,2696.6 5904.7,2654 5775.7,2682.6 			"/>
		</g>
	</g>
	<g>
		<g>
			<circle fill="#8ABB82" cx="4895.8" cy="2597.8" r="59.9"/>
		</g>
		<g>
			<circle fill="#8ABB82" cx="4805.6" cy="2645.4" r="59.9"/>
		</g>
		<g>
			<circle fill="#8ABB82" cx="4895.8" cy="2670.2" r="59.9"/>
		</g>
		<g>
			<circle fill="#8ABB82" cx="4985.9" cy="2597.8" r="59.9"/>
		</g>
		<g>
			<circle fill="#8ABB82" cx="5005.4" cy="2670.2" r="59.9"/>
		</g>
		<g>
			<circle fill="#8ABB82" cx="5092.2" cy="2717.7" r="59.9"/>
		</g>
		<g>
			<circle fill="#8ABB82" cx="4736.7" cy="2717.7" r="59.9"/>
		</g>
		<g>
			<polygon fill="#8ABB82" points="4736.7,2778.1 5092.2,2778.1 5092.2,2696.6 4904.9,2654 4775.4,2682.6 			"/>
		</g>
	</g>
	<g>
		<g>
			<circle fill="#7A9F70" cx="5811.4" cy="2405.8" r="65.3"/>
		</g>
		<g>
			<circle fill="#7A9F70" cx="5772.5" cy="2630.2" r="42.1"/>
		</g>
		<g>
			<circle fill="#7A9F70" cx="5831.3" cy="2636.2" r="42.1"/>
		</g>
		<g>
			<circle fill="#7A9F70" cx="5746.6" cy="2463.1" r="65.3"/>
		</g>
		<g>
			<circle fill="#7A9F70" cx="5738.5" cy="2557.9" r="78.3"/>
		</g>
		<g>
			<circle fill="#7A9F70" cx="5855" cy="2576.3" r="78.3"/>
		</g>
		<g>
			<circle fill="#7A9F70" cx="5848" cy="2473.8" r="65.3"/>
		</g>
		<g>
			<path fill="#73675A" d="M5814.6,2787.3c-13.3,0-24.2-10.9-24.2-24.2v-264.9c0-13.3,10.9-24.2,24.2-24.2
				c13.3,0,24.2,10.9,24.2,24.2V2763C5838.8,2776.4,5827.9,2787.3,5814.6,2787.3z"/>
		</g>
		<g>
			<path fill="#73675A" d="M5814.6,2637.2c-5.6,0-11.3-1.9-15.8-6l-48-41.6c-10.1-8.8-11.3-24.1-2.5-34.2
				c8.8-10.1,24.1-11.3,34.2-2.5l48,41.6c10.1,8.8,11.3,24.1,2.5,34.2C5828.2,2634.4,5821.3,2637.2,5814.6,2637.2z"/>
		</g>
		<g>
			<path fill="#73675A" d="M5814.6,2563.4c-6.1,0-12.3-2.3-17-7c-9.6-9.5-9.7-24.8-0.3-34.3l33.4-34c9.5-9.6,24.8-9.7,34.3-0.3
				c9.6,9.5,9.7,24.8,0.3,34.3l-33.4,34C5827.2,2560.9,5820.8,2563.4,5814.6,2563.4z"/>
		</g>
	</g>
	<g>
		<g>
			<path fill="#7A9F70" d="M4682.7,2411.7"/>
		</g>
	</g>
</g>
</svg>
