<?xml version="1.0" encoding="utf-8"?>
<!-- Generator: Adobe Illustrator 18.0.0, SVG Export Plug-In . SVG Version: 6.00 Build 0)  -->
<!DOCTYPE svg PUBLIC "-//W3C//DTD SVG 1.1//EN" "http://www.w3.org/Graphics/SVG/1.1/DTD/svg11.dtd">
<svg version="1.1" id="Layer_1" xmlns="http://www.w3.org/2000/svg" xmlns:xlink="http://www.w3.org/1999/xlink" x="0px" y="0px"
	 viewBox="0 0 622.5 357" enable-background="new 0 0 622.5 357" xml:space="preserve">
<path fill="#272727" d="M480.6,24.1l-0.7-15c0,0-0.5-3.7,3-2.8s15,10.2,15.7,11c0.7,0.8,4.2,6,3,8.7c-1.2,2.7-4,15-4,15
	s-8.7-6.2-9.2-6.8C487.9,33.4,480.6,24.1,480.6,24.1z"/>
<path fill="#4B4B4B" d="M228.6,202.2l16.8-16.1l24.2-2.1l12.1,32.6l9.8,29.3l-8,32.2l-38.7,10l-23.5,3.9c0,0-8.5-12.2-5.2-20.4
	c3.2-8.3-12.8-39.8-12.8-39.8v-21.8L228.6,202.2z"/>
<polygon fill="#4B4B4B" points="304.3,162 328.9,154 349.6,182.7 379.6,215 375.1,263.7 325.9,279.2 282.8,268.2 279.4,232.7 
	277.2,192.5 "/>
<circle fill="#232323" cx="528.7" cy="256.5" r="19.9"/>
<circle fill="#8A8A8A" cx="117.1" cy="254" r="28.8"/>
<polygon fill="#887C5F" points="112.9,191.4 115.1,208.7 122.4,206.8 124.7,191.4 "/>
<polygon fill="#887C5F" points="65.1,225 77.5,228.7 76.5,235.4 74.4,238.4 50.6,235.4 "/>
<polygon fill="#887C5F" points="76.5,292.9 83,283.5 87.1,284.9 88.7,288.2 82.6,300.4 "/>
<polygon points="161.2,239.6 175.8,231 180.1,235.3 163,245.9 "/>
<polygon fill="#887C5F" points="137.8,294.8 146.1,303.5 152.4,299.1 141.9,288 "/>
<path fill="#232323" d="M117.8,204.2c-26.5,0-48.1,21.5-48.1,48.1c0,26.5,21.5,48.1,48.1,48.1c26.5,0,48.1-21.5,48.1-48.1
	C165.9,225.8,144.4,204.2,117.8,204.2z M117.8,289.2c-20.4,0-37-16.5-37-37c0-20.4,16.5-37,37-37c20.4,0,37,16.5,37,37
	C154.8,272.7,138.2,289.2,117.8,289.2z"/>
<path fill="#887C5F" d="M117.8,179.5c-40.5,0-73.3,32.8-73.3,73.3c0,40.5,32.8,73.3,73.3,73.3c40.5,0,73.3-32.8,73.3-73.3
	C191.1,212.3,158.3,179.5,117.8,179.5z M118.2,307.6c-31.2,0-56.5-25.3-56.5-56.5c0-31.2,25.3-56.5,56.5-56.5
	c31.2,0,56.5,25.3,56.5,56.5C174.7,282.4,149.4,307.6,118.2,307.6z"/>
<path fill="#313131" d="M117.1,160.3c-52,0-94.1,42.1-94.1,94.1c0,52,42.1,94.1,94.1,94.1c52,0,94.1-42.1,94.1-94.1
	C211.2,202.4,169.1,160.3,117.1,160.3z M117.6,324.7c-40,0-72.5-32.4-72.5-72.5c0-40,32.4-72.5,72.5-72.5c40,0,72.5,32.4,72.5,72.5
	C190.1,292.3,157.7,324.7,117.6,324.7z"/>
<polygon fill="#AFAAAA" points="170.3,119.6 154.7,159.3 162.5,163.5 191.2,129.1 185,126.5 168.3,148 165.2,145.7 176.7,118.4 "/>
<polygon fill="#757575" points="163,115.6 144.9,154.4 154,159.3 188.7,122.6 180.7,120.7 158.2,145.7 155.4,145.7 168.3,115.6 "/>
<path fill="#232323" d="M93,250.6l5,15l23.3-3.8c0,0,80.8-36,87-38.8c6.2-2.8,35.5-21.2,37.2-23.7c1.7-2.5,6.7-6.3-10.2-11
	c-16.8-4.7-53.8-21.3-53.8-21.3s-42-17.1-44-17.7c-2-0.7-6.8-2.3-5.3,0c1.5,2.3,7.5,16.1,11,17.7s16.5,16.6,17.2,18.1
	s-16.7,26.5-16.7,26.5L93,250.6z"/>
<path fill="#757575" d="M225.2,239.6c0,0,21.3,9.5,24,11.9c2.7,2.3,21.7,11,21.7,11l-2.5,12.4c0,0-10.5,10.5-11.5,10.5
	s-45.8-11.8-46.5-14.7c-0.7-2.8,4.8-16.3,4.8-16.3L225.2,239.6z"/>
<path fill="#DFDFDF" d="M103.5,227.1l106.8,43.5c0,0,8.8-9.3,11.3-15.8s3.5-15.2,3.5-15.2l-99-39.3L103.5,227.1z"/>
<path fill="#757575" d="M126.2,200.2c0,0,1.8,1.5,1.1,4.7c-0.7,3.2-2.2,10.7-5.8,13.7c-3.7,3-11.5,7.2-11.5,7.2s-5.5,2.5-6.5,1.3
	s-1.3-4.7,0-6.7c1.3-2,8-10.5,9.3-11.8C114.2,207.4,119.6,198.2,126.2,200.2z"/>
<path fill="#212121" d="M62.9,111.1c0,0-6.4-1.4-14.6-1.5s-17.4-1.9-18.9-2.6s-4.4-4.4-9.6-4.7s-10.1,1.8-10.5,3.8s0,3.6,1.6,4
	s13.6,2.6,13.5,4s-0.6,6.4-0.6,6.4s-1.4,1.8,1.8,3.5s3.8,2,3,4.1c-0.8,2.1-1.6,6.5-2.9,6.5s-6.6-3.2-8.1-0.6s-2.1,4-0.1,4.9
	s3.9,1.9,3.4,2.5S9.9,160.9,9.9,162.2s2.8,1.2,2.8,1.2s6.8-14.4,9.8-15s23.1-9,23.8-10.6s7-13,8.6-13.1s4.5,0.2,5.8,0.2
	s7.2-6.4,8.5-6.5s4.2-0.1,5.2,0.1s5.8-4.2,1.6-4.9c-4.2-0.7-9.7-2.3-9.7-2.3L62.9,111.1z"/>
<path fill="#212121" d="M78.7,65.3c0,0,10.8,15.8,12.1,16.8s29.6,15.7,33.3,16.3c3.7,0.6,17.2-3.2,17.2-3.2l-8.8-6.1l-39.6-22
	L78.7,65.3z"/>
<path fill="#212121" d="M70.4,46.7l54,7.2c0,0,10.8-0.7,17.3,5.8s8.8,8.6,8.2,11.8s-2.1,4.5-5,3.5c-2.9-1-77.5-20-77.5-20L70.4,46.7
	z"/>
<path fill="#757575" d="M128.7,93.9c0,0-37.8-22.2-49.5-28.4S40.7,50.1,38.4,42.7c0,0,30.2,2.2,32,4c1.8,1.8,3,4.5,7.2,6.2
	c4.2,1.7,50.7,16.5,54,17.7c3.3,1.2,12.6,2.8,13.6,4c1,1.2,7.2,9,7.2,9l-4.1,4.2L128.7,93.9z"/>
<path fill="#737373" d="M234.6,120.7l-102.4-40l-25.7-7.8c0,0-7-3.7-3.7,1c3.3,4.7,20.3,15,21.8,16.5s6,4.5,4.7,5.7
	c-1.3,1.3-6.2,1.4-5.3,2.3c0.8,0.8,61,29.2,61,29.2l32.2,5.5L234.6,120.7z"/>
<path fill="#212121" d="M234.6,120.7c0,0-39.6-0.5-42.6,0s-7.5,5.8-7,6.8s4.8,4.3,6.3,4.3s11.7,7.6,16.5,9.5s44.3,16.5,44.3,16.5
	s-2.2,4-2.8,4.3c-0.7,0.3-9.5-3.3-12.3,2.7c-2.8,6,5.7,10.7,6.7,10.7s5.5,3,4.8,5c-0.7,2-4.2,6.7-4.2,7.8c0,1.2,5.5,7.8,8.7,8.3
	s16.5,1.3,16.5,1.3l11.5-36.7l15.3-11.5l7.9-9.3l-12.6-12.5L234.6,120.7z"/>
<path fill="#212121" d="M260.9,97.4c0,0-28.6,1.5-42.2-1.7C205,92.6,163.5,80.8,162,80c-1.5-0.8-6-3.9-9.8,0
	c-3.8,3.9-5.2,6.4-2.5,7.9c2.7,1.5,84.9,32.8,84.9,32.8h32.1l10.5-8.2v-10.7L260.9,97.4z"/>
<path fill="#474747" d="M269.6,100.3c0,0,6.3,1.3,4.8,7.1c-1.5,5.8-39.8,13.3-39.8,13.3l63.8,18h4l47.2-24.7l43.8-21.6l9.4-6.8
	l-12.6-3.2l-90.6,11.9L269.6,100.3z"/>
<path fill="#8D8D8D" d="M269.6,75.2c0,0-7.1-0.2-8.6,22.2c0,0,16.9,5.6,19.7,6.8s6.5,2.8,11.8,1.2s51.3-12.4,51.3-12.4l36-16.6
	l-3.2-12L335.9,54l-36.3,5.8L269.6,75.2z"/>
<path fill="#D1D1D1" d="M302.4,63.5c0,0,22,5.9,23.8,6.7c1.8,0.8,8.8,3.4,18.2,0c9.5-3.4,14.3-4,20.5-2.5c6.2,1.6,14.7-1.4,14.7-1.4
	l-23-12.3l-55.8,4.5L302.4,63.5z"/>
<path fill="#696969" d="M365.6,54c0,0-29-6.2-44.2-5s-46.8,20.6-50.5,25s1.8,1.5,1.8,1.5S301.9,61,318.9,60s30.2-1,35.2,1.2
	s10.8,7.9,14.6,7.3C372.6,68,365.6,54,365.6,54z"/>
<path fill="#272727" d="M424.4,82.5l-6.8-8.5c0,0-3-7.3-11-9.5s-41-10.5-41-10.5s-6.5-0.5-4,3s5.8,7.8,5.8,7.8s4.2,6.1-2,9.3
	s-20.5,9.7-20.5,9.7s-7,2.8-8.8,10.7l40.5-7.2c0,0,18.2-3,19.2,1s-48,23.2-50,24.5s-45.8,25-46.2,25.8s1.5,7.2,1.5,7.2l86.8-41.8
	l24.8-13.2L424.4,82.5z"/>
<path fill="#737373" d="M424.4,82.5c0,0-75.7,32.7-100.1,46.4s-45.7,27.7-45.7,27.7s-6.3,3.7-10.3,17.3c-4,13.7-5.7,28.7-5.7,28.7
	s-4,15,0,21s8,18,8,19.2c0,1.2,5-2.5,5.3,0c0.3,2.5-1.9,6.8,2.7,8.5s11.6-8.5,11.6-8.5s-8.7-28.2-4.7-42.8
	c4-14.7,18.2-26.7,22.6-29.7c4.4-3,13.1-6.3,13.1-6.3s4.7-0.5,4.7,3.1s4.6,17,8,19.1s13.5-16.7,13.5-16.7l-14.1-14.2l4-7.7l52.3-21
	l38.2-10l10.3-9.2L424.4,82.5z"/>
<polyline fill="#696969" points="417.6,91.8 430.4,74.4 429.2,73.1 426.5,73.7 424,68.4 432,60.9 432,59.1 434.2,57.7 433.2,53.2 
	433.2,50.6 434.2,48.9 436.4,48.1 438.9,50.6 441.4,54.4 445.2,54.1 448.2,54.7 447,50.2 447,48.1 443.5,48.1 443.5,37.9 
	441.2,37.9 441.2,32.9 458.8,32.9 458.8,36.9 456.3,36.9 456.3,48.1 454,48.1 453.9,49.9 456.3,50.9 456.3,54.7 458.8,58.7 
	461.4,58.6 465.7,66.6 471.2,77.1 472.2,81.1 472.2,83.7 483.7,84.4 488.4,84.4 490.4,82.1 485.2,81.4 479.4,75.7 487.7,64.1 
	475.2,58.6 473.9,52.6 472,49.9 475.6,41.4 497.2,49.2 520.7,71.9 519.2,94.4 455,107.4 435.6,107.4 "/>
<path fill="#272727" d="M430.4,74.4c0,0,2.5-0.8,5.3,0c2.7,0.8,2.6,4.3,2.6,4.3l-12.7,18.7l-7.8-5.6L430.4,74.4z"/>
<polygon fill="#887C5F" points="487,295.1 493.2,286.1 497.2,287.4 498.7,290.6 492.9,302.2 "/>
<polygon fill="#887C5F" points="568.4,243.9 582.4,235.6 586.5,239.7 570.1,249.9 "/>
<polygon fill="#887C5F" points="545.9,296.9 553.9,305.2 559.9,301.1 549.9,290.4 "/>
<path fill="#232323" d="M526.7,209.9c-25.5,0-46.2,20.7-46.2,46.2c0,25.5,20.7,46.2,46.2,46.2c25.5,0,46.2-20.7,46.2-46.2
	C572.9,230.6,552.2,209.9,526.7,209.9z M526.7,291.6c-19.6,0-35.5-15.9-35.5-35.5c0-19.6,15.9-35.5,35.5-35.5
	c19.6,0,35.5,15.9,35.5,35.5C562.2,275.7,546.3,291.6,526.7,291.6z"/>
<path fill="#232323" d="M480.7,226.9l17.9,2.7c0,0,9.5,0.6,14.5-1.3c5-2,8.8-0.6,9.3,0s10.2-3.5,10.2-3.5s2-0.2,2.8,2.5
	c0.8,2.7,3.8,12.2,3.8,12.2s1.8,3.5,0,4.7S520,256.5,520,256.5s-16.2,6.9-20.8,13c-4.7,6.2-27.8-4.3-27.8-4.3l3.8-39L480.7,226.9z"
	/>
<path fill="#887C5F" d="M526.7,186.1c-38.9,0-70.4,31.5-70.4,70.4c0,38.9,31.5,70.4,70.4,70.4c38.9,0,70.4-31.5,70.4-70.4
	C597.1,217.6,565.6,186.1,526.7,186.1z M527.1,309.2c-30,0-54.3-24.3-54.3-54.3c0-30,24.3-54.3,54.3-54.3c30,0,54.3,24.3,54.3,54.3
	C581.3,285,557,309.2,527.1,309.2z"/>
<path fill="#313131" d="M526,167.7c-49.9,0-90.4,40.5-90.4,90.4c0,49.9,40.5,90.4,90.4,90.4c49.9,0,90.4-40.5,90.4-90.4
	C616.4,208.1,575.9,167.7,526,167.7z M526.5,325.7c-38.5,0-69.6-31.2-69.6-69.6c0-38.5,31.2-69.6,69.6-69.6
	c38.5,0,69.6,31.2,69.6,69.6C596.1,294.5,565,325.7,526.5,325.7z"/>
<path fill="#232323" d="M502,163.2c0,0,14.6-3.3,31.4-2.6c16.8,0.7,35.3,7.2,35.3,7.2s3.8,2.3-1.2,2.5c-5,0.2-24.2,0.5-32.3,7.3
	s-9.7,11.2-7,16.8c2.7,5.7,8.3,8.3,9.2,9.7c0.8,1.3,2,6-3,9.2c-5,3.2-25.3,14.5-25.3,14.5s-5.5,2.3-8.5-1.3
	c-3-3.7-28.3-16.8-29.8-17.5c-1.5-0.7-6-3.3-12.2,1.8c-6.2,5.2-11.3,12.3-11.3,12.3s-2,7.2-6.3,1.9s21-40.1,21-40.1l28.7-20.2
	L502,163.2z"/>
<path fill="#4B4B4B" d="M347.5,169.4c0,0-35.1-14.4-38.6-14.4s9.8-5.8,9.8-5.8s54.5-29.3,84.1-38s85.9-12.5,89.1-13.8
	s12.8-5.2,18-10.5c5.3-5.2,6.8-11.5,0-20c-6.8-8.5-46.8-34.5-52-35.8c-5.2-1.2,6.5-14.2,6.5-14.2s3.5-3.3,7.5,0s63.2,51.2,72.5,65.5
	c9.3,14.2,20.3,41,20.3,41s5,8.5-4,9.8s-20,3.8-20,3.8l-78.5-8.7c0,0-34.5-2.1-54.2,1.2c-19.8,3.2-58.8,17.2-67.2,27l18.9,7.1"/>
<path fill="#8A8A8A" d="M261.2,278.1l31-14.1c0,0,1-10.2,10.2-17.2s92-57,92-57l63.4-28.7c0,0,47.6-18.5,54.9-19.1
	c7.3-0.6,24.8,2.2,24.8,2.2s13.2-2.5,3.2-7.2s-33.8-14.5-38.5-15.8s-36.5-6.8-36.5-6.8s-6.8-1-6.2,0s9.5,4.5,11.2,5.2s6.5,5,0.2,6.2
	s-67.8,19.5-80.5,24.5S351.9,167,351.9,167s-6.2,2-12.8,11s-20.5,37-20.5,37s-4,10-10.8,14.5S266.9,253.9,261.2,278.1z"/>
<circle fill="#272727" cx="421.7" cy="94.4" r="4.8"/>
<path fill="#757575" d="M102.6,88.5l-39.8,22.6l6.6,4.5l56.8-17.4L102.6,88.5z M72.9,112l-2-1.9l7.1-3.6L81,109L72.9,112z
	 M85.5,107.7l-3.7-3.2l8.3-3.7l4.3,3.4L85.5,107.7z M92.5,99.4l8.9-6.2l7.2,5.8l-11.1,3.9L92.5,99.4z"/>
<ellipse transform="matrix(-0.8296 -0.5584 0.5584 -0.8296 94.2295 458.7377)" fill="#232323" cx="117.1" cy="215" rx="3.2" ry="5.3"/>
<path fill="#757575" d="M87.5,255.4l1.5,6.3h19.3c0,0,10.3-1.8,8.8-10.3c-1.6-8.5-12.2-4.2-13.6-3.7
	C102.2,248.2,87.5,255.4,87.5,255.4z"/>
<path fill="#ACACAC" d="M517.8,227.7l-3.4,1.9c-1.4,0.8-3.3,0.3-4.1-1.1l-16.5-29.3c-0.8-1.4-0.3-3.3,1.1-4.1l3.4-1.9
	c1.4-0.8,3.3-0.3,4.1,1.1l16.5,29.3C519.7,225,519.2,226.8,517.8,227.7z"/>
<path fill="#2F322F" d="M533.3,249.9l-8,4.5c-1.4,0.8-3.3,0.3-4.1-1.1l-12.9-22.9c-0.8-1.4-0.3-3.3,1.1-4.1l8-4.5
	c1.4-0.8,3.3-0.3,4.1,1.1l12.9,22.9C535.3,247.3,534.8,249.1,533.3,249.9z"/>
<path fill="#887C5F" d="M503.1,194.6l-9.1,5.2c-1.4,0.8-3.3,0.3-4.1-1.1l-12.9-22.9c-0.8-1.4-0.3-3.3,1.1-4.1l9.1-5.2
	c1.4-0.8,3.3-0.3,4.1,1.1l12.9,22.9C505,191.9,504.5,193.8,503.1,194.6z"/>
<path fill="#313131" d="M224.9,284.2l-19.5,16.5h21.5l1.8,1.5h210c0,0-18.2-25-12.5-50.8s14.8-26.5,14.8-26.5s38.5-58.8,96.5-80.8
	c0,0-10.2-4.5-24.8-2.2c-14.5,2.2-72.8,26-73.3,27s-5,14.2-5.2,15s-0.5,3.5-3.5,5.5s-17.5,13.8-17.5,13.8s-4.2,3.2-8.8,0.5
	s-18-9-18-9l-25.2,14.8l4.8,5.2c0,0,6.5,4.8,1.8,12s-16,25.8-16,25.8s-6.2,10-15.5,11s-44,0.5-44,0.5l-50,22.8L224.9,284.2z"/>
<path fill="#F44545" d="M33.3,120.6c-3.2,0-5.8-2.2-5.8-5c0-2.8,2.6-5,5.8-5"/>
</svg>
