<?xml version="1.0" encoding="UTF-8" standalone="no"?>
<svg width="1176px" height="664px" viewBox="0 0 1176 664" version="1.1" xmlns="http://www.w3.org/2000/svg" xmlns:xlink="http://www.w3.org/1999/xlink">
    <!-- Generator: Sketch 39.1 (31720) - http://www.bohemiancoding.com/sketch -->
    <title>cta</title>
    <desc>Created with Sketch.</desc>
    <defs></defs>
    <g id="Page-1-Copy" stroke="none" stroke-width="1" fill="none" fill-rule="evenodd">
        <g id="cta" transform="translate(-2.000000, 0.000000)">
            <path d="M624.765625,196.273438 L623.429688,246.265625 C623.429688,247.390631 623.499999,248.468745 623.640625,249.5 C625.609385,249.453125 627.765613,249.195315 630.109375,248.726562 L628.914062,208.4375 C628.914062,207.45312 629.289059,206.667972 630.039062,206.082031 C630.789066,205.496091 631.562496,205.203125 632.359375,205.203125 L635.3125,207.734375 L635.3125,216.804688 C635.3125,230.117254 635.921869,240.546837 637.140625,248.09375 L641.289062,247.742188 C644.148452,247.742188 645.578125,248.773427 645.578125,250.835938 C645.578125,252.242195 645.167973,253.179685 644.347656,253.648438 C643.52734,254.11719 642.179697,254.351562 640.304688,254.351562 C638.429678,254.351562 637.492188,254.773433 637.492188,255.617188 C637.492188,258.851579 637.621092,263.304659 637.878906,268.976562 C638.13672,274.648466 638.499998,278.023432 638.96875,279.101562 C638.781249,280.226568 638.6875,281.246089 638.6875,282.160156 C638.6875,283.074223 638.921873,283.906246 639.390625,284.65625 L639.390625,287.257812 C639.390625,290.867206 638.242199,292.671875 635.945312,292.671875 C634.49218,292.671875 633.414066,291.933601 632.710938,290.457031 C632.007809,288.980461 631.65625,287.44532 631.65625,285.851562 L631.65625,285.359375 C631.984377,284.234369 632.148438,282.500012 632.148438,280.15625 L631.09375,266.164062 L631.234375,259.90625 C631.234375,258.265617 631.140626,256.789069 630.953125,255.476562 L621.953125,256.25 L621.953125,256.320312 C620.124991,256.320312 618.226572,255.546883 616.257812,254 C616.257812,251.843739 616.468748,249.992195 616.890625,248.445312 C616.468748,246.195301 616.257812,243.46486 616.257812,240.253906 C616.257812,237.042953 616.62109,232.132846 617.347656,225.523438 C618.074222,218.914029 618.4375,214.062515 618.4375,210.96875 L618.4375,184.320312 C618.4375,182.445303 619.351553,181.507812 621.179688,181.507812 C622.257818,181.507812 623.230464,181.835934 624.097656,182.492188 C624.964848,183.148441 625.398438,184.01562 625.398438,185.09375 L624.765625,196.273438 Z M682.84375,258.570312 C682.703124,256.835929 682.234379,251.656293 681.4375,243.03125 C679.328114,220.99989 678.273438,208.683607 678.273438,206.082031 C678.273438,203.480456 678.296875,202.062501 678.34375,201.828125 C677.781247,202.484378 676.433604,209.281185 674.300781,222.21875 C672.167958,235.156315 670.960939,242.187494 670.679688,243.3125 C670.398436,244.437506 669.953128,245.984365 669.34375,247.953125 C668.078119,252.03127 667.398438,255.171864 667.304688,257.375 C671.289082,258.45313 674.593737,258.992188 677.21875,258.992188 C679.843763,258.992188 681.718744,258.851564 682.84375,258.570312 L682.84375,258.570312 Z M683.40625,182.492188 C685.281259,195.94538 687.24999,213.453017 689.3125,235.015625 C691.37501,256.578233 692.40625,273.265566 692.40625,285.078125 C692.40625,288.312516 690.835953,289.929688 687.695312,289.929688 C684.554672,289.929688 682.984375,288.687512 682.984375,286.203125 L682.984375,267.429688 C681.624993,266.492183 679.199236,265.695316 675.707031,265.039062 C672.214826,264.382809 669.109389,263.960938 666.390625,263.773438 C665.218744,265.742197 664.316409,269.761688 663.683594,275.832031 C663.050778,281.902374 662.031257,286.085926 660.625,288.382812 C655.984352,288.382812 653.42969,287.421885 652.960938,285.5 C655.117198,282.359359 659.499967,262.343934 666.109375,225.453125 C668.687513,210.874927 670.234372,202.414074 670.75,200.070312 C673.328138,187.695251 676.117173,181.507812 679.117188,181.507812 C680.898446,181.507812 682.32812,181.929683 683.40625,182.773438 L683.40625,182.492188 Z" id="4A" fill="#000000"></path>
            <path d="M352.082031,41.7089844 L350.851562,51.484375 C350.851562,56.223982 351.478184,64.9055358 352.731445,77.5292969 C353.984707,90.1530579 355.20377,97.3307205 356.388672,99.0625 C358.485037,102.115901 361.697895,103.642578 366.027344,103.642578 C370.356792,103.642578 373.660796,102.298191 375.939453,99.609375 C377.534513,99.609375 379.015618,99.3815127 380.382812,98.9257812 L380.382812,100.771484 C380.382812,103.597019 379.562508,105.898429 377.921875,107.675781 C375.233059,110.729182 370.949248,112.255859 365.070312,112.255859 C361.925766,112.255859 358.826838,111.1963 355.773438,109.077148 C352.720037,106.957997 350.395841,104.212256 348.800781,100.839844 C347.205721,97.4674311 345.952479,88.7858772 345.041016,74.7949219 C344.129553,60.8039665 343.673828,50.0260795 343.673828,42.4609375 C343.673828,34.8957955 343.992835,29.4726727 344.630859,26.1914062 C344.357421,24.6874925 344.220703,23.2291737 344.220703,21.8164062 C344.220703,16.07419 346.362609,11.5055508 350.646484,8.11035156 C354.93036,4.71515229 360.216765,3.01757812 366.505859,3.01757812 C368.738943,3.01757812 370.926422,3.64419946 373.068359,4.89746094 C375.210297,6.15072241 376.28125,7.80272412 376.28125,9.85351562 C376.28125,10.8561248 375.893884,11.6308566 375.119141,12.1777344 C374.344397,12.7246121 373.262051,12.9980469 371.87207,12.9980469 C370.482089,12.9980469 369.445316,12.4283911 368.761719,11.2890625 L368.761719,11.5625 L366.574219,11.5625 L366.574219,11.015625 C359.373662,11.015625 354.861988,14.0689799 353.039062,20.1757812 C352.1276,23.1836088 351.671875,27.1484129 351.671875,32.0703125 L352.082031,41.7089844 Z M417.775391,79.4433594 C417.638671,77.757153 417.182947,72.7213961 416.408203,64.3359375 C414.357412,42.9165596 413.332031,30.9423955 413.332031,28.4130859 C413.332031,25.8837764 413.354817,24.5052095 413.400391,24.2773438 C412.853513,24.9153678 411.543305,31.5233746 409.469727,44.1015625 C407.396148,56.6797504 406.222658,63.5156195 405.949219,64.609375 C405.67578,65.7031305 405.242842,67.2070217 404.650391,69.1210938 C403.419916,73.0859573 402.759115,76.1393122 402.667969,78.28125 C406.541686,79.3294323 409.754545,79.8535156 412.306641,79.8535156 C414.858737,79.8535156 416.681635,79.7167982 417.775391,79.4433594 L417.775391,79.4433594 Z M418.322266,5.47851562 C420.145191,18.5580081 422.059235,35.5793223 424.064453,56.5429688 C426.069671,77.5066152 427.072266,93.7304113 427.072266,105.214844 C427.072266,108.359391 425.545588,109.931641 422.492188,109.931641 C419.438787,109.931641 417.912109,108.72397 417.912109,106.308594 L417.912109,88.0566406 C416.590488,87.1451777 414.232113,86.3704459 410.836914,85.7324219 C407.441715,85.0943979 404.422539,84.6842457 401.779297,84.5019531 C400.639968,86.4160252 399.762698,90.3238637 399.147461,96.2255859 C398.532223,102.127308 397.541022,106.19465 396.173828,108.427734 C391.662087,108.427734 389.178388,107.493499 388.722656,105.625 C390.819021,102.571599 395.080046,83.1121585 401.505859,47.2460938 C404.012382,33.0728458 405.516274,24.8470166 406.017578,22.5683594 C408.524101,10.5370492 411.235662,4.52148438 414.152344,4.52148438 C415.884123,4.52148438 417.274083,4.93163652 418.322266,5.75195312 L418.322266,5.47851562 Z M477.521484,11.2890625 L476.974609,63.0371094 L476.974609,105.830078 C476.974609,108.063162 476.06316,109.680985 474.240234,110.683594 C473.283198,111.184898 472.291997,111.435547 471.266602,111.435547 C470.241206,111.435547 469.466474,111.276043 468.942383,110.957031 C468.418292,110.638019 468.019533,110.250653 467.746094,109.794922 C467.472655,109.33919 467.233399,108.769535 467.02832,108.085938 C466.823241,107.40234 466.675131,106.764326 466.583984,106.171875 C466.08268,102.845035 464.350926,95.8724489 461.388672,85.2539062 C455.646456,64.8371375 451.977873,49.4564319 450.382812,39.1113281 C450.291666,38.7923161 450.234701,38.3593777 450.211914,37.8125 C450.189127,37.2656223 450.154948,36.8098977 450.109375,36.4453125 C450.063802,35.4427033 449.813153,34.622399 449.357422,33.984375 C449.402995,32.0703029 449.004236,29.6207832 448.161133,26.6357422 C447.31803,23.6507012 446.850912,21.8619821 446.759766,21.2695312 L446.759766,109.863281 L441.837891,109.863281 L441.837891,107.265625 C442.020183,106.582028 441.997397,105.146495 441.769531,102.958984 C441.541666,100.771473 441.427734,98.1738432 441.427734,95.1660156 C441.427734,92.1581881 441.131513,85.231174 440.539062,74.3847656 C439.946612,63.5383572 439.650391,56.9075642 439.650391,54.4921875 L439.650391,36.6503906 L440.607422,10.9472656 C440.607422,7.48370664 440.85807,5.54687705 441.359375,5.13671875 C442.544277,4.22525586 443.774733,3.76953125 445.050781,3.76953125 C446.326829,3.76953125 447.306637,3.95182109 447.990234,4.31640625 C449.585294,5.182296 450.382812,6.38996621 450.382812,7.93945312 C450.382812,9.48894004 450.565102,11.0270106 450.929688,12.5537109 C451.294273,14.0804113 451.818356,15.7893786 452.501953,17.6806641 C453.18555,19.5719496 453.664061,21.0188752 453.9375,22.0214844 C454.210939,23.0240936 454.450194,24.1861913 454.655273,25.5078125 C454.860353,26.8294337 455.008463,28.0143177 455.099609,29.0625 C455.418621,32.5716321 455.81738,35.6022008 456.295898,38.1542969 C456.774416,40.706393 457.697259,44.5003003 459.064453,49.5361328 C460.431647,54.5719653 461.730463,59.0266733 462.960938,62.9003906 C466.059911,72.8353361 467.814451,81.7447522 468.224609,89.6289062 C468.95378,90.9961006 469.409504,92.6594954 469.591797,94.6191406 L470.001953,45.8105469 L470.001953,4.38476562 C470.548831,2.06053525 472.086901,0.8984375 474.616211,0.8984375 C477.14552,0.8984375 478.410156,2.72133594 478.410156,6.3671875 L478.410156,7.1875 C477.817705,8.4179749 477.521484,9.78514873 477.521484,11.2890625 L477.521484,11.2890625 Z M529.474609,97.4902344 L529.40625,104.462891 L529.40625,107.607422 C529.40625,108.837897 528.996098,109.829098 528.175781,110.581055 C527.355465,111.333012 526.432622,111.708984 525.407227,111.708984 C524.381831,111.708984 523.515954,111.378584 522.80957,110.717773 C522.103187,110.056963 521.75,109.248052 521.75,108.291016 L522.433594,81.2207031 C522.433594,78.4863145 521.989262,74.4417585 521.100586,69.0869141 C520.21191,63.7320696 519.767578,59.425472 519.767578,56.1669922 C519.767578,52.9085124 519.209315,48.9437083 518.092773,44.2724609 C516.976231,39.6012136 515.734382,35.3971541 514.367188,31.6601562 C510.766909,21.9075033 508.966797,13.5449567 508.966797,6.57226562 C508.966797,5.06835186 510.447902,4.31640625 513.410156,4.31640625 C514.093753,4.31640625 514.800127,4.58984102 515.529297,5.13671875 C516.258467,5.68359648 516.645833,6.29882471 516.691406,6.98242188 C517.602869,17.737684 519.927065,29.1535854 523.664062,41.2304688 C523.846355,40.4101521 524.062824,38.4619294 524.313477,35.3857422 C524.564129,32.3095549 524.86035,29.153662 525.202148,25.9179688 C525.543947,22.6822755 525.988279,19.4010583 526.535156,16.0742188 C527.765631,8.5546499 529.622709,4.79492188 532.106445,4.79492188 C534.590182,4.79492188 535.832031,5.29621895 535.832031,6.29882812 C535.832031,11.5397397 534.715506,19.3554168 532.482422,29.7460938 C530.249338,40.1367707 529.132812,48.0208064 529.132812,53.3984375 L529.542969,58.2519531 L529.542969,60.3710938 C529.542969,60.3710938 529.520183,72.7440169 529.474609,97.4902344 L529.474609,97.4902344 Z M566.286133,10.9814453 C564.941725,9.68261069 563.64291,9.03320312 562.389648,9.03320312 C561.136387,9.03320312 560.1224,9.35221035 559.347656,9.99023438 C558.572913,10.6282584 557.912112,11.5852801 557.365234,12.8613281 C556.818357,14.1373762 556.31706,15.4931569 555.861328,16.9287109 C555.405597,18.364265 555.029624,20.1188047 554.733398,22.1923828 C554.437173,24.2659609 554.175131,26.1458249 553.947266,27.8320312 C553.7194,29.5182376 553.53711,31.5234259 553.400391,33.8476562 C553.263671,36.1718866 553.14974,38.0631437 553.058594,39.5214844 C552.967447,40.979825 552.910482,42.7343647 552.887695,44.7851562 C552.864909,46.8359478 552.853516,48.2031216 552.853516,48.8867188 L552.853516,51.7578125 C552.853516,59.2773813 553.559889,67.8905765 554.972656,77.5976562 C557.798191,96.6928038 561.785782,106.240234 566.935547,106.240234 C568.758473,106.240234 570.307936,104.497088 571.583984,101.010742 C572.860032,97.5243966 573.748695,93.1608335 574.25,87.9199219 C575.161463,79.0331587 575.617188,72.5960486 575.617188,68.6083984 C575.617188,64.6207483 575.605794,61.7610764 575.583008,60.0292969 C575.560221,58.2975174 575.491863,55.7796389 575.37793,52.4755859 C575.263997,49.171533 575.070314,46.0726056 574.796875,43.1787109 C574.523436,40.2848163 574.181643,37.0833509 573.771484,33.5742188 C573.361326,30.0650866 572.803063,26.943373 572.09668,24.2089844 C571.390296,21.4745957 570.581385,18.9111448 569.669922,16.5185547 C568.758459,14.1259646 567.630541,12.2802799 566.286133,10.9814453 L566.286133,10.9814453 Z M581.974609,67.7539062 L580.744141,85.4589844 L580.744141,86.0742188 C580.15169,88.671888 579.855469,91.4745943 579.855469,94.4824219 C579.855469,97.4902494 579.342779,100.395494 578.317383,103.198242 C577.291987,106.000991 575.719737,108.48469 573.600586,110.649414 C571.481435,112.814138 569.168632,113.896484 566.662109,113.896484 C564.155586,113.896484 561.86557,113.030608 559.791992,111.298828 C557.718414,109.567049 556.009447,107.345391 554.665039,104.633789 C553.320631,101.922187 552.124354,98.6865422 551.076172,94.9267578 C550.02799,91.1669734 549.230471,87.4983903 548.683594,83.9208984 C548.136716,80.3434066 547.680991,76.5722854 547.316406,72.6074219 C546.815102,66.5461937 546.564453,61.5674023 546.564453,57.6708984 C546.564453,53.7743946 546.632812,50.5729292 546.769531,48.0664062 C546.951824,43.4635187 547.1569,39.3733903 547.384766,35.7958984 C547.612631,32.2184066 547.749349,29.4726658 547.794922,27.5585938 C547.840495,25.6445217 547.886067,24.0266993 547.931641,22.7050781 C547.977214,21.3834569 548.113931,19.7542415 548.341797,17.8173828 C548.569663,15.8805242 548.843097,14.2285225 549.162109,12.8613281 C549.481121,11.4941338 549.971025,10.0586013 550.631836,8.5546875 C551.292647,7.05077373 552.078771,5.82031729 552.990234,4.86328125 C555.086599,2.72134346 557.433581,1.65039062 560.03125,1.65039062 C562.628919,1.65039062 564.702466,1.90103916 566.251953,2.40234375 C567.80144,2.90364834 569.111648,3.55305591 570.182617,4.35058594 C571.253586,5.14811597 572.233394,6.19628257 573.12207,7.49511719 C574.010747,8.79395181 574.739906,10.0585876 575.30957,11.2890625 C575.879235,12.5195374 576.391925,14.0006424 576.847656,15.7324219 C577.440107,17.9199328 578.032549,21.0416464 578.625,25.0976562 C580.858084,41.0482568 581.974609,55.2668646 581.974609,67.7539062 L581.974609,67.7539062 Z M632.560547,69.9414062 L632.970703,78.5546875 L632.970703,80.6738281 L632.628906,82.1777344 L632.697266,90.3125 C632.697266,98.515666 631.535168,104.326155 629.210938,107.744141 C627.023427,110.934261 623.628278,112.529297 619.025391,112.529297 C613.419894,112.529297 609.158869,110.501322 606.242188,106.445312 C603.690091,102.981754 601.821621,98.3333625 600.636719,92.5 C599.132805,85.4817357 597.925135,80.5143375 597.013672,77.5976562 C596.922526,77.3697905 596.409835,66.933697 595.475586,46.2890625 C594.541336,25.644428 594.074219,14.1829541 594.074219,11.9042969 C593.390622,11.1295534 593.048828,10.1725317 593.048828,9.03320312 C593.048828,7.89387451 593.447587,6.89128037 594.245117,6.02539062 C595.042647,5.15950088 595.988276,4.7265625 597.082031,4.7265625 C600.454444,4.7265625 602.140625,8.05335215 602.140625,14.7070312 L603.439453,63.3789062 C603.986331,64.6093812 604.453449,67.0930803 604.84082,70.8300781 C605.228192,74.567076 605.421875,77.4723204 605.421875,79.5458984 C605.421875,81.6194765 605.752275,84.1715343 606.413086,87.2021484 C607.073897,90.2327625 607.973953,93.2975105 609.113281,96.3964844 C610.25261,99.4954582 611.79068,102.138661 613.727539,104.326172 C615.664398,106.513683 617.726552,107.607422 619.914062,107.607422 C623.468768,107.607422 625.337239,104.394563 625.519531,97.96875 C625.565104,97.1484334 625.587891,96.1686255 625.587891,95.0292969 L625.587891,32.2070312 C625.587891,29.5637889 625.086594,25.5648054 624.083984,20.2099609 C623.081375,14.8551165 622.580078,11.2321058 622.580078,9.34082031 C622.580078,7.44953481 623.047196,6.15071968 623.981445,5.44433594 C624.915695,4.7379522 625.975254,4.38476562 627.160156,4.38476562 L631.398438,7.66601562 L631.398438,9.99023438 L630.167969,18.5351562 C630.167969,23.9583604 630.509762,31.8993618 631.193359,42.3583984 C631.876957,52.8174351 632.241536,60.5761466 632.287109,65.6347656 L632.287109,65.8398438 L632.560547,69.9414062 Z M686.496094,53.671875 L685.265625,7.734375 C685.220052,7.05077783 685.584632,6.29883223 686.359375,5.47851562 C687.134118,4.65819902 688.011388,4.24804688 688.991211,4.24804688 C689.971034,4.24804688 690.848303,5.06835117 691.623047,6.70898438 C692.39779,8.34961758 692.785156,11.0383928 692.785156,14.7753906 C692.785156,25.0293481 693.218095,40.4214468 694.083984,60.9521484 C694.949874,81.48285 695.382812,96.8521625 695.382812,107.060547 C695.382812,108.291022 694.995447,109.441726 694.220703,110.512695 C693.44596,111.583664 692.466152,112.119141 691.28125,112.119141 C688.911446,112.119141 687.726562,110.569677 687.726562,107.470703 C687.726562,90.0617619 687.339197,73.6101035 686.564453,58.1152344 C684.05793,57.6595029 681.756521,57.4316406 679.660156,57.4316406 C677.563792,57.4316406 675.695321,57.7962203 674.054688,58.5253906 C674.100261,63.6295828 674.49902,71.456653 675.250977,82.0068359 C676.002933,92.5570189 676.378906,100.543593 676.378906,105.966797 C676.378906,106.87826 676.105471,107.72135 675.558594,108.496094 C675.011716,109.270837 674.282557,109.658203 673.371094,109.658203 C671.86718,109.658203 670.739262,109.031582 669.987305,107.77832 C669.235348,106.525059 668.756837,103.221055 668.551758,97.8662109 C668.346679,92.5113665 668.221354,86.6439121 668.175781,80.2636719 C668.130208,73.8834316 668.061849,70.0781312 667.970703,68.8476562 C666.284497,44.6027434 665.441406,23.9128461 665.441406,6.77734375 L665.441406,5.75195312 C665.578126,4.2936125 666.375644,3.56445312 667.833984,3.56445312 C670.705092,3.56445312 672.345701,4.54426104 672.755859,6.50390625 C672.436847,9.8307458 672.277344,13.3398253 672.277344,17.03125 L673.234375,45.8105469 L673.097656,51.0742188 C673.097656,52.3958399 673.188801,53.6035102 673.371094,54.6972656 L686.496094,53.671875 Z M723.888672,58.7304688 L720.402344,58.59375 C719.308588,58.59375 718.488284,58.9355435 717.941406,59.6191406 L717.941406,102.822266 C722.726586,102.548827 725.187499,102.412109 725.324219,102.412109 C730.519557,102.412109 733.117188,103.642566 733.117188,106.103516 L733.117188,106.582031 C732.479163,107.858079 731.396818,108.837887 729.870117,109.521484 C728.343417,110.205082 727.010422,110.592447 725.871094,110.683594 C724.731765,110.77474 723.227874,110.820312 721.359375,110.820312 L716.984375,110.820312 C713.42967,110.820312 711.242192,110.136726 710.421875,108.769531 C710.05729,108.131507 709.875,107.288417 709.875,106.240234 L709.875,5.20507812 L721.974609,3.97460938 C723.387377,3.97460938 724.811516,4.39615464 726.24707,5.23925781 C727.682624,6.08236099 728.400391,7.18749316 728.400391,8.5546875 C728.400391,11.3346493 726.281271,12.7246094 722.042969,12.7246094 L718.009766,12.5878906 C717.326168,12.5878906 716.824871,12.6106769 716.505859,12.65625 L717.599609,35.7617188 C717.599609,37.6302177 717.485678,40.3531722 717.257812,43.9306641 C717.029947,47.5081559 716.916016,50.1171793 716.916016,51.7578125 C717.41732,51.6666662 718.100907,51.5071626 718.966797,51.2792969 C720.880869,50.7779923 722.373367,50.5273438 723.444336,50.5273438 C724.515305,50.5273438 725.472327,50.9147097 726.31543,51.6894531 C727.158533,52.4641966 727.580078,53.398432 727.580078,54.4921875 C727.580078,55.585943 727.238285,56.5657509 726.554688,57.4316406 C725.87109,58.2975304 724.982427,58.7304688 723.888672,58.7304688 L723.888672,58.7304688 Z M769.826172,79.4433594 C769.689452,77.757153 769.233728,72.7213961 768.458984,64.3359375 C766.408193,42.9165596 765.382812,30.9423955 765.382812,28.4130859 C765.382812,25.8837764 765.405599,24.5052095 765.451172,24.2773438 C764.904294,24.9153678 763.594086,31.5233746 761.520508,44.1015625 C759.44693,56.6797504 758.273439,63.5156195 758,64.609375 C757.726561,65.7031305 757.293623,67.2070217 756.701172,69.1210938 C755.470697,73.0859573 754.809896,76.1393122 754.71875,78.28125 C758.592467,79.3294323 761.805326,79.8535156 764.357422,79.8535156 C766.909518,79.8535156 768.732416,79.7167982 769.826172,79.4433594 L769.826172,79.4433594 Z M770.373047,5.47851562 C772.195973,18.5580081 774.110016,35.5793223 776.115234,56.5429688 C778.120453,77.5066152 779.123047,93.7304113 779.123047,105.214844 C779.123047,108.359391 777.596369,109.931641 774.542969,109.931641 C771.489568,109.931641 769.962891,108.72397 769.962891,106.308594 L769.962891,88.0566406 C768.641269,87.1451777 766.282895,86.3704459 762.887695,85.7324219 C759.492496,85.0943979 756.473321,84.6842457 753.830078,84.5019531 C752.69075,86.4160252 751.81348,90.3238637 751.198242,96.2255859 C750.583005,102.127308 749.591804,106.19465 748.224609,108.427734 C743.712868,108.427734 741.229169,107.493499 740.773438,105.625 C742.869802,102.571599 747.130827,83.1121585 753.556641,47.2460938 C756.063164,33.0728458 757.567055,24.8470166 758.068359,22.5683594 C760.574882,10.5370492 763.286444,4.52148438 766.203125,4.52148438 C767.934904,4.52148438 769.324865,4.93163652 770.373047,5.75195312 L770.373047,5.47851562 Z M800.451172,9.99023438 L799.699219,38.5644531 C799.699219,41.4355612 799.744791,43.5774669 799.835938,44.9902344 C801.385424,43.4863206 802.889316,41.6862084 804.347656,39.5898438 L806.398438,27.4902344 C806.398438,22.6594811 805.760423,18.603532 804.484375,15.3222656 C803.208327,12.0409992 801.863939,10.2636732 800.451172,9.99023438 L800.451172,9.99023438 Z M821.916016,106.855469 C821.916016,109.908869 820.79949,111.435547 818.566406,111.435547 C816.834627,111.435547 815.148446,110.182304 813.507812,107.675781 L813.507812,107.197266 C813.279947,103.460268 812.129242,98.3333659 810.055664,91.8164062 C807.982086,85.2994466 806.694664,80.9017041 806.193359,78.6230469 C805.692055,76.3443896 804.883144,72.0491852 803.766602,65.7373047 C802.65006,59.4254242 801.681645,54.6061364 800.861328,51.2792969 L800.861328,106.445312 C800.861328,109.407567 799.334651,110.888672 796.28125,110.888672 C795.187495,110.888672 794.253259,110.512699 793.478516,109.760742 C792.703772,109.008785 792.316406,108.085943 792.316406,106.992188 L792.316406,105.898438 L793.273438,23.7988281 L793.273438,6.57226562 C793.273438,5.47851016 793.5013,4.70377832 793.957031,4.24804688 C794.412763,3.79231543 795.734364,3.56445312 797.921875,3.56445312 C800.109386,3.56445312 802.342437,4.28221938 804.621094,5.71777344 C806.899751,7.15332749 808.722649,9.01040527 810.089844,11.2890625 C812.915379,15.9830964 814.328125,21.1555707 814.328125,26.8066406 C814.328125,31.3639551 813.188813,36.5820019 810.910156,42.4609375 C810.636717,43.0989615 810.089848,44.4433491 809.269531,46.4941406 C808.449215,48.5449321 807.970704,49.7526023 807.833984,50.1171875 C807.879558,53.7630391 808.483393,58.308892 809.645508,63.7548828 C810.807623,69.2008736 811.889969,73.5986161 812.892578,76.9482422 C813.895187,80.2978683 815.569975,85.5273082 817.916992,92.6367188 C820.264009,99.7461293 821.597004,103.802078 821.916016,104.804688 L821.916016,106.855469 Z M890.34375,69.9414062 L890.753906,78.5546875 L890.753906,80.6738281 L890.412109,82.1777344 L890.480469,90.3125 C890.480469,98.515666 889.318371,104.326155 886.994141,107.744141 C884.80663,110.934261 881.411481,112.529297 876.808594,112.529297 C871.203097,112.529297 866.942072,110.501322 864.025391,106.445312 C861.473295,102.981754 859.604824,98.3333625 858.419922,92.5 C856.916008,85.4817357 855.708338,80.5143375 854.796875,77.5976562 C854.705729,77.3697905 854.193039,66.933697 853.258789,46.2890625 C852.32454,25.644428 851.857422,14.1829541 851.857422,11.9042969 C851.173825,11.1295534 850.832031,10.1725317 850.832031,9.03320312 C850.832031,7.89387451 851.23079,6.89128037 852.02832,6.02539062 C852.82585,5.15950088 853.771479,4.7265625 854.865234,4.7265625 C858.237647,4.7265625 859.923828,8.05335215 859.923828,14.7070312 L861.222656,63.3789062 C861.769534,64.6093812 862.236652,67.0930803 862.624023,70.8300781 C863.011395,74.567076 863.205078,77.4723204 863.205078,79.5458984 C863.205078,81.6194765 863.535478,84.1715343 864.196289,87.2021484 C864.8571,90.2327625 865.757156,93.2975105 866.896484,96.3964844 C868.035813,99.4954582 869.573884,102.138661 871.510742,104.326172 C873.447601,106.513683 875.509755,107.607422 877.697266,107.607422 C881.251971,107.607422 883.120442,104.394563 883.302734,97.96875 C883.348308,97.1484334 883.371094,96.1686255 883.371094,95.0292969 L883.371094,32.2070312 C883.371094,29.5637889 882.869797,25.5648054 881.867188,20.2099609 C880.864578,14.8551165 880.363281,11.2321058 880.363281,9.34082031 C880.363281,7.44953481 880.830399,6.15071968 881.764648,5.44433594 C882.698898,4.7379522 883.758458,4.38476562 884.943359,4.38476562 L889.181641,7.66601562 L889.181641,9.99023438 L887.951172,18.5351562 C887.951172,23.9583604 888.292965,31.8993618 888.976562,42.3583984 C889.66016,52.8174351 890.024739,60.5761466 890.070312,65.6347656 L890.070312,65.8398438 L890.34375,69.9414062 Z M902.033203,108.359375 C902.033203,105.852852 903.08137,104.599609 905.177734,104.599609 C906.225917,104.599609 907.604484,104.952796 909.313477,105.65918 C911.022469,106.365563 912.503574,106.71875 913.756836,106.71875 C915.010097,106.71875 916.365878,105.921232 917.824219,104.326172 C919.282559,102.731112 920.421871,100.74871 921.242188,98.3789062 C922.928394,93.5937261 923.771484,89.2415561 923.771484,85.3222656 C923.771484,81.4029752 923.087897,77.2103088 921.720703,72.7441406 C920.353509,68.2779725 918.678721,64.0853061 916.696289,60.1660156 C914.713857,56.2467252 912.742848,52.3274936 910.783203,48.4082031 C906.089169,39.0201354 903.742188,30.4980852 903.742188,22.8417969 C903.742188,15.5500938 906.043597,9.8307499 910.646484,5.68359375 C913.107434,3.49608281 916.001285,2.40234375 919.328125,2.40234375 C921.014331,2.40234375 922.65494,2.86946147 924.25,3.80371094 C925.84506,4.7379604 926.961585,5.95702373 927.599609,7.4609375 L927.599609,10.46875 C923.680319,10.46875 921.059902,10.0130254 919.738281,9.1015625 C918.006502,9.28385508 916.502611,10.1041594 915.226562,11.5625 C912.902332,14.2968887 911.740234,17.4527816 911.740234,21.0302734 C911.740234,24.6077653 912.264318,28.2991346 913.3125,32.1044922 C914.360682,35.9098498 915.613925,39.4872879 917.072266,42.8369141 C918.530606,46.1865402 920.000318,49.2968606 921.481445,52.1679688 C922.962573,55.0390769 924.227208,57.3860586 925.275391,59.2089844 C926.323573,61.0319102 926.847656,61.9889318 926.847656,62.0800781 L926.847656,63.1738281 C927.166668,64.3587299 927.713538,66.2272008 928.488281,68.7792969 C929.263025,71.331393 929.878253,73.3593675 930.333984,74.8632812 C931.473313,78.9648643 932.042969,82.6790198 932.042969,86.0058594 C932.042969,89.3326989 931.64421,92.499985 930.84668,95.5078125 C930.04915,98.51564 928.909838,101.352526 927.428711,104.018555 C925.947584,106.684584 923.942395,108.860669 921.413086,110.546875 C918.883776,112.233081 916.525402,113.076172 914.337891,113.076172 C912.15038,113.076172 910.304695,112.962241 908.800781,112.734375 C907.296867,112.506509 905.792976,112.005212 904.289062,111.230469 C902.785149,110.455725 902.033203,109.498704 902.033203,108.359375 L902.033203,108.359375 Z M942.091797,13.6132812 C942.091797,11.5169166 942.365232,9.53451455 942.912109,7.66601562 C943.458987,5.7975167 944.507154,4.12272876 946.056641,2.64160156 C947.606128,1.16047437 949.565743,0.419921875 951.935547,0.419921875 C956.584008,0.419921875 959.614576,1.76430947 961.027344,4.453125 C962.075526,6.59506279 962.861651,9.18129995 963.385742,12.2119141 C963.909833,15.2425282 964.171875,18.1022001 964.171875,20.7910156 C964.171875,23.9811357 963.966799,27.2053874 963.556641,30.4638672 C963.146482,33.722347 962.724937,36.3199773 962.291992,38.2568359 C961.859047,40.1936946 961.20964,42.9394354 960.34375,46.4941406 C959.47786,49.9576996 958.81706,52.7262266 958.361328,54.7998047 C957.905597,56.8733828 957.381513,59.767234 956.789062,63.4814453 C956.196612,67.1956566 955.786459,70.9439915 955.558594,74.7265625 C955.194009,80.4687787 955.12565,86.6894196 955.353516,93.3886719 L953.712891,95.1660156 C953.029293,95.4394545 952.436851,95.5761719 951.935547,95.5761719 C951.160803,95.5761719 950.465823,95.291344 949.850586,94.7216797 C949.235348,94.1520154 948.836589,93.3886767 948.654297,92.4316406 L948.654297,92.2265625 C948.654297,78.1444608 949.54296,65.3158131 951.320312,53.7402344 C951.776044,51.3248577 952.539383,47.8841369 953.610352,43.4179688 C954.68132,38.9518006 955.524411,34.9072447 956.139648,31.2841797 C956.754886,27.6611147 957.0625,24.2090008 957.0625,20.9277344 C957.0625,18.3300651 956.7321,15.3450689 956.071289,11.9726562 C955.410478,8.60024355 954.64714,6.9140625 953.78125,6.9140625 L952.208984,6.9140625 C950.978509,6.9140625 950.135419,7.51789761 949.679688,8.72558594 C949.223956,9.93327427 948.996094,11.6536347 948.996094,13.8867188 C948.996094,14.3880233 949.098632,15.4247968 949.303711,16.9970703 C949.50879,18.5693438 949.748046,20.3580629 950.021484,22.3632812 C949.930338,22.8190127 949.793621,23.1949855 949.611328,23.4912109 C949.429036,23.7874364 949.201173,24.0039056 948.927734,24.140625 C948.654296,24.2773444 948.41504,24.3570962 948.209961,24.3798828 C948.004882,24.4026694 947.799806,24.4140625 947.594727,24.4140625 L947.287109,24.4140625 C944.871733,24.9153671 943.481773,24.3229251 943.117188,22.6367188 C942.798175,20.9049393 942.547527,19.2871169 942.365234,17.7832031 C942.182942,16.2792894 942.091797,14.8893293 942.091797,13.6132812 L942.091797,13.6132812 Z M947.150391,107.197266 C947.150391,105.784498 947.674474,104.519862 948.722656,103.40332 C949.770839,102.286778 951.024081,101.728516 952.482422,101.728516 C953.895189,101.728516 955.091466,102.298171 956.071289,103.4375 C957.051112,104.576829 957.541016,105.784499 957.541016,107.060547 C957.541016,108.746753 956.994146,110.034175 955.900391,110.922852 C954.806635,111.811528 953.485034,112.255859 951.935547,112.255859 C950.568353,112.255859 949.429041,111.731776 948.517578,110.683594 C947.606115,109.635411 947.150391,108.473314 947.150391,107.197266 L947.150391,107.197266 Z" id="CAN-YOU-HEAR-US?" fill="#000000"></path>
            <g id="taser" transform="translate(1066.153709, 284.165404) rotate(40.000000) translate(-1066.153709, -284.165404) translate(1012.653709, 165.665404)" stroke="#000000">
                <g id="Group" transform="translate(0.000000, 0.000000)">
                    <path d="M53.5,12.7 L73,12.7 C73,12.7 80.4,13 81.7,8.1 C83,3.2 83.6,-0.6 89.4,0.1 C95.2,0.8 101.4,0.7 101.8,4.1 C102.1,7.5 107.4,76.1 106.4,80.1 C105.4,84.1 100.8,86.3 100.8,89.4 L100.8,221.3 C100.8,221.3 103,234.9 94.6,234.9 C86.2,234.9 53.5,236 53.5,236 L53.5,12.7 L53.5,12.7 Z" id="Shape" fill="#202020"></path>
                    <path d="M53.9,12.7 L34.5,12.7 C34.5,12.7 27.1,13 25.8,8.1 C24.6,3.2 23.9,-0.6 18.1,0.1 C12.3,0.8 6.1,0.7 5.7,4.1 C5.4,7.5 0.1,76.1 1.1,80.1 C2,84.1 6.7,86.3 6.7,89.4 L6.7,221.3 C6.7,221.3 4.5,234.9 12.9,234.9 C21.3,234.9 54,236.1 54,236.1 L54,12.7 L53.9,12.7 Z" id="Shape" fill="#202020"></path>
                    <path d="M53.9,88.4 C24.9,91.1 25.5,76 25.5,76 C25.5,76 19.6,40.2 19,30.3 C18.4,20.4 28,22.3 28,22.3 L54,22.3 L80,22.3 C80,22.3 89.6,20.4 89,30.3 C88.2,40.2 82.3,76 82.3,76 C82.3,76 83,91.1 53.9,88.4 L53.9,88.4 Z" id="Shape" fill="#3F3F3F"></path>
                    <path d="M53.9,95.5 C53.9,95.5 67.2,94.6 69.7,93.6 C72.2,92.7 76.5,93.3 75,97.6 C73.5,101.9 71.5,110.6 71.5,110.6 C71.5,110.6 69.8,116.2 64.7,116.2 L40.4,116.2 C40.4,116.2 33.3,117.4 31.4,111.9 C29.5,106.4 27,96.4 27,96.4 C27,96.4 27.6,91.9 33.2,93.2 C38.8,94.5 50.8,95.7 53.9,95.5 L53.9,95.5 Z" id="Shape" fill="#3F3F3F"></path>
                    <path d="M6.8,97 C6.8,97 8.7,127.9 8.3,131 C8,134.1 2.1,130.1 2.4,122.3 C2.7,114.6 2.4,104.1 2.4,104.1 C2.4,104.1 2.4,98.6 6.8,97 L6.8,97 Z" id="Shape" fill="#202020"></path>
                    <g transform="translate(19.000000, 177.000000)" id="Shape" fill="#FFFFFF">
                        <polygon points="2.6 1 4 7.1 4.3 8.8 4.6 7.1 5.8 1 8.2 1 9.5 7.1 9.8 8.8 10.1 7.2 11.5 1 13.8 1 10.8 11.7 8.7 11.7 7.4 5.5 7 3.4 6.6 5.5 5.3 11.7 3.2 11.7 0.2 1"></polygon>
                        <path d="M16.6,1 L19.1,1 L22.9,11.7 L20.5,11.7 L19.8,9.5 L15.9,9.5 L15.2,11.7 L12.9,11.7 L16.6,1 L16.6,1 Z M16.5,7.6 L19.2,7.6 L17.9,3.4 L16.5,7.6 L16.5,7.6 Z"></path>
                        <path d="M30.4,1.3 C30.8,1.5 31.1,1.7 31.4,2 C31.6,2.3 31.8,2.6 31.9,2.9 C32,3.2 32.1,3.6 32.1,4 C32.1,4.5 32,5 31.7,5.5 C31.4,6 31,6.3 30.4,6.5 C30.9,6.7 31.2,7 31.4,7.3 C31.6,7.7 31.7,8.2 31.7,9 L31.7,9.7 C31.7,10.2 31.7,10.5 31.8,10.7 C31.9,11 32,11.2 32.2,11.3 L32.2,11.6 L29.7,11.6 C29.6,11.4 29.6,11.2 29.6,11 C29.5,10.7 29.5,10.4 29.5,10.1 L29.5,9.1 C29.5,8.4 29.4,8 29.1,7.7 C28.9,7.5 28.5,7.4 27.8,7.4 L25.6,7.4 L25.6,11.6 L23.4,11.6 L23.4,1 L28.5,1 C29.4,1 30,1.1 30.4,1.3 L30.4,1.3 Z M25.8,2.9 L25.8,5.8 L28.2,5.8 C28.7,5.8 29,5.7 29.3,5.6 C29.7,5.4 29.9,5 29.9,4.4 C29.9,3.8 29.7,3.3 29.3,3.1 C29.1,3 28.7,2.9 28.3,2.9 L25.8,2.9 L25.8,2.9 Z"></path>
                        <polygon points="33.5 1 35.8 1 40 8.4 40 1 42.1 1 42.1 11.7 39.9 11.7 35.6 4.1 35.6 11.7 33.5 11.7 33.5 1"></polygon>
                        <polygon points="45.5 11.7 43.3 11.7 43.3 1 45.5 1"></polygon>
                        <polygon points="46.8 1 49.1 1 53.3 8.4 53.3 1 55.4 1 55.4 11.7 53.2 11.7 48.9 4.1 48.9 11.7 46.8 11.7"></polygon>
                        <path d="M64,4.3 C63.8,3.6 63.4,3.1 62.8,2.8 C62.4,2.6 62,2.6 61.6,2.6 C60.7,2.6 60,2.9 59.5,3.6 C58.9,4.2 58.7,5.2 58.7,6.5 C58.7,7.8 59,8.7 59.6,9.3 C60.2,9.8 60.9,10.1 61.6,10.1 C62.3,10.1 63,9.9 63.4,9.5 C63.8,9.1 64.2,8.5 64.3,7.8 L61.8,7.8 L61.8,6 L66.2,6 L66.2,11.7 L64.7,11.7 L64.5,10.4 C64.1,10.9 63.7,11.3 63.3,11.5 C62.7,11.9 62,12 61.1,12 C59.7,12 58.5,11.5 57.6,10.5 C56.7,9.5 56.2,8.2 56.2,6.5 C56.2,4.8 56.7,3.4 57.6,2.3 C58.6,1.3 59.8,0.7 61.4,0.7 C62.8,0.7 63.8,1 64.7,1.7 C65.5,2.4 66,3.2 66.1,4.3 L64,4.3 L64,4.3 Z"></path>
                    </g>
                </g>
            </g>
            <g id="iron" transform="translate(199.157802, 263.263788) rotate(20.000000) translate(-199.157802, -263.263788) translate(20.157802, 172.763788)">
                <g id="Group">
                    <ellipse id="Oval" fill="#202020" transform="translate(286.995100, 10.415700) rotate(15.099342) translate(-286.995100, -10.415700) " cx="286.99484" cy="10.4155005" rx="10.3" ry="7.9"></ellipse>
                    <path d="M25.1,167.2 C25.1,167.2 24.2,167.3 22.9,167.4 C17,168 1.4,170 0.7,172.8 C-0.2,176.2 0.8,175.4 4,175.8 C7.2,176.2 165.5,180.1 169,180.1 C172.5,180.1 270.3,175.8 273.7,175.8 C277.1,175.8 286.2,165.6 280.4,163.9" id="Shape" fill="#202020"></path>
                    <ellipse id="Oval" fill="#333333" cx="198.5" cy="75.3" rx="27.4" ry="4.8"></ellipse>
                    <path d="M355.6,120.3 C352.2,109.1 340.5,78.8 333.2,64.6 C325.9,50.4 314.7,20 314.3,18.3 C313.9,16.6 305.7,12.3 293.7,10.6 C281.7,8.9 245.2,-1 207.9,5 C170.5,11 113,29 72.7,83.5 L3.2,164.2 C3.2,164.2 83.9,169.3 103.6,168.5 C123.3,167.6 262.8,166.4 262.8,166.4 L351.6,138.1 C351.6,138 359.1,131.5 355.6,120.3 L355.6,120.3 Z M215.2,77 C189.9,78.4 156,81.8 156,66.4 C156,51 186.5,40.3 211.4,38.5 C211.4,38.5 262,29.5 264.2,50.9 C266.2,72.4 240.5,75.6 215.2,77 L215.2,77 Z" id="Shape" fill="#999999"></path>
                    <path d="M44.4,148.6 C44.4,148.6 81.3,105.4 128.5,100.3 C175.7,95.2 275.8,132.9 275.8,132.9 L196.7,150.9 L53,153.5 L44.4,148.6 L44.4,148.6 Z" id="Shape" fill="#555555"></path>
                    <path d="M16.9,148.3 C16.9,148.3 165.4,150.6 214.7,143.5 C263.9,136.4 335.4,124.5 335.1,101.7 C334.8,78.9 293.8,10.6 293.8,10.6 L306.7,13.8 L312.4,16.5 L314.4,18.4 L321,36.1 C321,36.1 370.7,127 353.6,136.6 C336.5,146.2 285.4,166.2 263,166.5 C250,166.6 165.9,168.8 97.2,169 C47.7,169.1 6.3,167.5 4.7,166.5 C0.6,164.1 16.9,148.3 16.9,148.3 L16.9,148.3 Z" id="Shape" fill="#333333"></path>
                    <path d="M70.7,85.8 C70.7,85.8 82.7,84.9 95.9,72.7 C109.1,60.5 145.1,31.5 171.2,24.1 C197.3,16.7 242,13.5 253.3,16.1 C264.6,18.7 274.8,10.6 274.5,7.1 L250.4,3.9 C250.4,3.9 202.3,-3.9 157,16.7 C111.7,37.3 87.5,58.8 69.2,85.8" id="Shape" fill="#202020"></path>
                    <path d="M131.3,31.5 C131.3,31.5 128.4,23.8 137.1,18.3 C145.8,12.8 167.8,10.3 167.7,12.4 C167.6,14.5 131.3,31.5 131.3,31.5 L131.3,31.5 Z" id="Shape" fill="#202020"></path>
                    <path d="M234.3,75.3 C234.3,75.3 262.4,72.7 264,56.8 C264,56.8 319.2,61.9 321.8,62.8 C324.4,63.7 332.3,88.4 332.9,90.4 C333.5,92.4 336.9,100.8 334.5,105.3 C334.5,105.2 273.2,90.4 234.3,75.3 L234.3,75.3 Z" id="Shape" fill="#202020"></path>
                    <ellipse id="Oval" fill="#FFFFFF" cx="171.7" cy="90.5" rx="6.3" ry="4.7"></ellipse>
                    <g transform="translate(162.000000, 96.000000)" id="Shape" fill="#FFFFFF">
                        <path d="M0.2,1.6 C0.3,1.7 0.4,1.9 0.6,1.9 C0.9,2 1,1.9 1.1,1.8 C1.2,1.6 1.1,1.5 0.9,1.3 C0.6,1 0.5,0.8 0.6,0.6 C0.7,0.3 1.1,0.2 1.5,0.4 C1.7,0.5 1.8,0.6 1.9,0.7 C1.8,0.8 1.8,0.8 1.7,0.9 C1.6,0.8 1.5,0.7 1.4,0.6 C1.2,0.5 1,0.6 1,0.7 C0.9,0.8 1,1 1.2,1.2 C1.5,1.5 1.6,1.7 1.5,1.9 C1.4,2.2 1,2.3 0.5,2.1 C0.3,2 0.1,1.9 1.13686838e-13,1.7 C0.1,1.7 0.1,1.6 0.2,1.6 L0.2,1.6 Z"></path>
                        <path d="M2.3,1.8 C2.1,2.2 2.4,2.5 2.8,2.7 C3.1,2.8 3.2,2.8 3.4,2.8 L3.4,3.1 C3.3,3.1 3,3.1 2.7,3 C2.1,2.8 1.8,2.3 2,1.7 C2.2,1.2 2.7,0.9 3.3,1 C3.9,1.2 3.9,1.8 3.8,2.1 C3.8,2.2 3.8,2.2 3.7,2.3 C3.1,2.1 2.8,2 2.3,1.8 L2.3,1.8 Z M3.4,1.9 C3.5,1.7 3.5,1.3 3.1,1.2 C2.7,1.1 2.5,1.3 2.4,1.5 C2.8,1.7 3,1.8 3.4,1.9 L3.4,1.9 Z"></path>
                        <path d="M4.6,0.6 C4.7,0.6 4.8,0.7 4.9,0.7 C4.6,1.8 4.5,2.3 4.2,3.4 C4,3.4 4,3.3 3.8,3.3 C4.2,2.2 4.3,1.6 4.6,0.6 L4.6,0.6 Z"></path>
                        <path d="M4.9,3.5 C5.1,2.9 5.1,2.5 5.3,1.9 C5.2,1.9 5.1,1.9 5,1.8 C5,1.7 5,1.6 5.1,1.5 C5.2,1.5 5.3,1.5 5.4,1.6 L5.4,1.5 C5.5,1.2 5.6,1 5.8,0.9 C6,0.8 6.1,0.8 6.3,0.8 C6.4,0.8 6.5,0.9 6.6,0.9 C6.6,1 6.5,1.1 6.5,1.2 C6.5,1.2 6.4,1.1 6.3,1.1 C6,1 5.9,1.3 5.8,1.6 L5.8,1.7 C6,1.7 6.1,1.8 6.3,1.8 C6.3,1.9 6.3,2 6.2,2.1 C6,2.1 5.9,2 5.7,2 C5.6,2.6 5.5,3 5.3,3.6 C5.2,3.6 5.1,3.6 4.9,3.5 L4.9,3.5 Z"></path>
                        <path d="M8.7,4.1 C8.6,4.1 8.4,4.2 8.1,4.1 C7.5,4 7.1,3.6 7.2,3 C7.3,2.4 7.8,2.1 8.4,2.1 C8.6,2.1 8.8,2.2 8.9,2.3 C8.9,2.4 8.8,2.5 8.8,2.6 C8.7,2.5 8.6,2.5 8.4,2.5 C7.9,2.4 7.6,2.7 7.6,3.1 C7.5,3.5 7.8,3.9 8.2,3.9 L8.7,3.9 C8.6,3.9 8.6,4 8.7,4.1 L8.7,4.1 Z"></path>
                        <path d="M9.3,1.4 L9.7,1.4 C9.6,2.5 9.6,3.1 9.5,4.2 L9.1,4.2 C9.2,3.1 9.2,2.5 9.3,1.4 L9.3,1.4 Z"></path>
                        <path d="M10.4,3.4 C10.4,3.9 10.7,4.1 11.1,4.1 C11.4,4.1 11.5,4.1 11.7,4 C11.7,4.1 11.7,4.1 11.8,4.2 C11.7,4.3 11.4,4.3 11.1,4.3 C10.4,4.3 10.1,3.9 10.1,3.3 C10.1,2.7 10.5,2.3 11.1,2.3 C11.8,2.3 11.9,2.9 11.9,3.2 L11.9,3.4 C11.3,3.4 11,3.4 10.4,3.4 L10.4,3.4 Z M11.5,3.1 C11.5,2.9 11.4,2.5 11,2.5 C10.6,2.5 10.5,2.8 10.4,3.1 L11.5,3.1 L11.5,3.1 Z"></path>
                        <path d="M13.6,4.2 C13.6,4.1 13.6,4.1 13.5,4 L13.5,4 C13.4,4.2 13.2,4.3 12.9,4.3 C12.5,4.3 12.2,4.1 12.2,3.8 C12.2,3.3 12.6,3.1 13.4,3 L13.4,3 C13.4,2.8 13.3,2.6 12.9,2.6 C12.7,2.6 12.5,2.7 12.4,2.8 C12.4,2.7 12.3,2.7 12.3,2.6 C12.5,2.5 12.7,2.4 13,2.4 C13.6,2.4 13.8,2.7 13.8,3.1 C13.8,3.4 13.8,3.5 13.9,3.8 C13.9,4 13.9,4.1 14,4.3 C13.8,4.2 13.7,4.2 13.6,4.2 L13.6,4.2 Z M13.5,3.2 C13.1,3.2 12.6,3.3 12.6,3.7 C12.6,3.9 12.8,4 13,4 C13.3,4 13.4,3.8 13.5,3.6 L13.5,3.5 L13.5,3.2 L13.5,3.2 Z" stroke="#000000"></path>
                        <path d="M14.7420201,3.63969262 C14.7420201,3.43969262 14.7420201,3.23969262 14.6420201,3.13969262 L14.9420201,3.13969262 C14.9420201,3.23969262 14.9420201,3.33969262 15.0420201,3.43969262 L15.0420201,3.43969262 C15.1420201,3.23969262 15.3420201,3.03969262 15.6420201,2.93969262 C15.9420201,2.93969262 16.3420201,2.93969262 16.5420201,3.63969262 C16.6420201,4.13969262 16.6420201,4.33969262 16.7420201,4.73969262 C16.5420201,4.73969262 16.5420201,4.73969262 16.3420201,4.83969262 C16.2420201,4.43969262 16.2420201,4.13969262 16.1420201,3.73969262 C16.0420201,3.43969262 15.9420201,3.23969262 15.5420201,3.23969262 C15.3420201,3.23969262 15.1420201,3.43969262 15.0420201,3.63969262 L15.0420201,3.83969262 C15.1420201,4.33969262 15.1420201,4.53969262 15.1420201,4.93969262 L14.7420201,4.93969262 C14.8420201,4.53969262 14.8420201,4.23969262 14.7420201,3.63969262 L14.7420201,3.63969262 Z"></path>
                    </g>
                </g>
            </g>
            <g id="gun" transform="translate(609.806416, 584.205585) rotate(-15.000000) translate(-609.806416, -584.205585) translate(477.806416, 483.705585)">
                <g id="Group" transform="translate(-0.000000, 0.000000)">
                    <path d="M126.505072,70.6565002 C126.505072,70.6565002 130.338945,83.227816 129.253886,87.4429043 C128.168828,91.6579925 125.564688,102.010841 119.054339,104.968798 C119.054339,104.968798 118.186292,107.039367 122.164839,107.335163 C126.143386,107.55701 136.415271,96.3907232 136.849294,88.3302913 C137.283317,80.2698594 136.70462,77.016107 137.789678,76.4984646 C138.874736,75.9808222 144.300028,72.9489166 144.300028,72.9489166 L126.505072,70.6565002 L126.505072,70.6565002 Z" id="Shape" fill="#303030"></path>
                    <path d="M243.691364,106.891469 C234.287526,95.0596427 223.436943,74.8715884 233.057793,63.779251 C242.678643,52.6869135 249.695353,50.6902927 253.818575,50.6902927 C257.941796,50.6902927 263.873448,46.7710001 263.801111,44.5525326 C263.728773,42.3340651 260.473599,40.3374444 255.192982,38.7105682 C249.984702,37.157641 87.9493352,27.0266394 87.9493352,27.0266394 L1.07233722,31.5375233 L1.07233722,55.3490745 C1.07233722,55.3490745 0.348965044,60.3036519 7.36567513,60.5254986 C14.3823852,60.7473454 25.4499795,60.5254986 25.4499795,60.5254986 C25.4499795,60.5254986 27.1137355,68.142237 32.6837012,68.4380327 C38.2536669,68.6598794 77.7497876,68.4380327 77.7497876,68.4380327 L89.8301029,104.451155 C89.8301029,104.451155 93.6639754,113.325025 99.7403017,115.321646 C105.744291,117.318267 126.939095,118.945143 135.90891,117.76196 C142.636272,116.874573 159.997204,110.884711 161.950309,110.367068 C163.903413,109.849426 170.413763,110.367068 171.860507,116.504828 C173.307252,122.642589 195.225429,186.978146 195.225429,186.978146 L192.8383,195.334374 L210.416244,200.510798 L259.38854,196.29571 L257.218424,185.425219 C257.218424,185.425219 264.669157,181.727773 263.728773,175.07237 C262.78839,168.416968 253.095202,118.723296 243.691364,106.891469 L243.691364,106.891469 Z M157.827087,102.454534 C153.486854,106.891469 125.492351,110.810762 114.207745,110.367068 C102.850802,109.849426 100.680685,102.232688 100.680685,102.232688 L93.4469637,70.6565002 C92.9406032,68.5119816 107.697396,70.6565002 126.505072,70.6565002 C145.312749,70.6565002 160.503564,73.6144569 161.950309,83.0059693 C163.397053,92.3974817 162.16732,98.0175993 157.827087,102.454534 L157.827087,102.454534 Z" id="Shape" stroke="#3F3F3F" stroke-width="6" fill="#3F3F3F"></path>
                    <path d="M0.813518172,13.6464754 L0.813518172,32.5034491 L29.386719,32.5034491 C29.386719,32.5034491 36.6204408,31.76396 37.705499,42.1168083 L252.185348,40.2680854 C252.185348,40.2680854 259.057384,39.8983408 256.525581,34.7219166 C253.993779,29.5454925 245.313313,10.6885187 245.313313,10.6885187 C245.313313,10.6885187 243.866568,6.9910729 237.717905,7.36081749 L231.062881,0.557517159 L215.872065,3.29362707 L216.378426,7.50871532 L172.759084,7.73056207 L172.976095,3.81126949 L159.738385,5.06840107 L154.674779,2.62808682 L137.096836,5.58604349 L137.096836,9.28348932 L22.8040322,8.3221534 L16.2936827,0.705414992 L9.56632147,3.14572924 L5.22608843,8.3221534 L0.88585539,9.28348932 L0.88585539,13.6464754 L0.813518172,13.6464754 Z" id="Shape" stroke="#202020" stroke-width="6" fill="#202020"></path>
                </g>
            </g>
        </g>
    </g>
</svg>