<?xml version="1.0" encoding="utf-8"?>
<!-- Generator: Adobe Illustrator 18.0.0, SVG Export Plug-In . SVG Version: 6.00 Build 0)  -->
<!DOCTYPE svg PUBLIC "-//W3C//DTD SVG 1.1//EN" "http://www.w3.org/Graphics/SVG/1.1/DTD/svg11.dtd">
<svg version="1.1" id="Layer_1" xmlns="http://www.w3.org/2000/svg" xmlns:xlink="http://www.w3.org/1999/xlink" x="0px" y="0px"
	 viewBox="0 0 1061.3 304.8" enable-background="new 0 0 1061.3 304.8" xml:space="preserve">
<path fill="none" stroke="#565151" stroke-width="4" stroke-linecap="round" stroke-linejoin="round" stroke-miterlimit="10" d="
	M267.8,162.2c-21.8-1-57.9-9.2-66.6-15.8c-2.4-1.8-4.8-6.6-4.8-8.3"/>
<path fill="none" stroke="#565151" stroke-width="4" stroke-linecap="round" stroke-linejoin="round" stroke-miterlimit="10" d="
	M801,162.2c21.8-1,57.1-4.4,62-15.9c0.8-1.9,2.6-6.4,3.1-7.9"/>
<polyline fill="#3A3A3A" points="864.9,133.6 870.4,130.2 870.4,133.1 866.7,135.1 "/>
<g>
	<path fill="#F75555" d="M504.6,228.7c-0.1-1.7-0.2-3.2-0.3-4.7c-0.1-1.4-0.3-3.1-0.5-4.8c-0.2-1.8-0.5-3.3-0.8-4.7
		c-0.4-1.4-0.8-2.7-1.2-3.9c-0.5-1.2-1-2.1-1.7-2.8s-1.3-1-2-1s-1.1,0.2-1.5,0.5c-0.4,0.3-0.7,0.8-1,1.4c-0.3,0.6-0.5,1.3-0.8,2
		c-0.2,0.7-0.4,1.6-0.6,2.6c-0.1,1-0.3,2-0.4,2.8c-0.1,0.8-0.2,1.8-0.3,3s-0.1,2.1-0.2,2.8s-0.1,1.6-0.1,2.6c0,1,0,1.7,0,2.1v1.4
		c0,3.8,0.4,8.1,1.1,12.9c1.4,9.6,3.4,14.3,6,14.3c0.9,0,1.7-0.9,2.3-2.6c0.6-1.7,1.1-3.9,1.3-6.6c0.5-4.5,0.7-7.7,0.7-9.7
		s0-3.4,0-4.3C504.7,231.6,504.7,230.4,504.6,228.7z"/>
	<path fill="#F75555" d="M637.9,207.4l-0.4,14.3c0,1.4,0,2.5,0.1,3.2c0.8-0.8,1.5-1.7,2.3-2.7l1-6.1c0-2.4-0.3-4.5-1-6.1
		C639.3,208.5,638.6,207.6,637.9,207.4z"/>
	<path fill="#F75555" d="M432,207.6c0,2.5,0.1,6.2,0.3,11.1c0.2,4.9,0.3,8.6,0.3,11.1c3.5-3.4,5.3-7.3,5.3-11.9v0
		c0-3.4-0.6-5.7-1.8-7C435.3,210.1,434,209,432,207.6z"/>
	<path fill="#F75555" d="M789.9,217.4c0-16.1,13.5-65.8,13.7-66.3c0.3-1.3,0-2.7-0.8-3.7c-0.9-1-2.2-1.5-3.5-1.4
		c-1.7,0.2-168.4,19.1-265.2,19.1c-96.8,0-263.5-18.9-265.2-19.1c-1.2-0.1-2.5,0.3-3.3,1.2s-1.3,2.2-1.1,3.4
		c0.1,0.6,8.8,56,8.8,74.2c0,13.1-8.6,53.6-8.7,54c-0.2,1.1,0,2.2,0.6,3.1s1.6,1.5,2.7,1.7c1.5,0.2,147.1,20,266.2,20
		s264.7-19.8,266.2-20c1.2-0.2,2.2-0.8,2.8-1.8c0.6-1,0.8-2.2,0.5-3.3C803.4,278.2,789.9,232.2,789.9,217.4z M367.4,256.4
		c-0.4,0.3-0.9,0.5-1.5,0.5h-8.8c-1.3,0-2-0.5-2-1.6c0-1.1,0.7-1.6,2.1-1.6l2.2,0c0.2,0,0.3-1.2,0.3-3.5c0-2.3-0.2-7.1-0.7-14.3
		c-0.4-7.2-0.7-12.6-0.7-16.2l0.1-7.2c0-1.5-0.1-2.8-0.2-3.9c-0.6,0.2-1.2,0.3-1.6,0.3c-1.1,0-1.6-0.6-1.6-1.7
		c0-0.6,0.4-1.1,1.1-1.5c0.7-0.4,1.6-0.7,2.6-0.9c2-0.3,3.4-0.5,4.4-0.5s1.6,0.2,2,0.6c0.4,0.4,0.6,0.8,0.6,1.3s-0.2,1-0.5,1.3
		c-0.3,0.4-0.7,0.6-1.2,0.6l-1.2,0c-0.5,0-0.8,0.1-1,0.3c-0.2,0.2-0.3,0.6-0.3,1.1c0,4.6,0.3,11.4,0.9,20.5
		c0.6,9.1,0.9,15.9,0.9,20.5v3l1.4,0c1.9,0,2.8,0.4,2.8,1.2C367.8,255.5,367.7,256,367.4,256.4z M392.3,206
		c-0.3,0.6-0.4,1.3-0.4,2.1l-0.3,25.9v21.4c0,1.1-0.5,1.9-1.4,2.4c-0.5,0.2-1,0.4-1.5,0.4c-0.5,0-0.9-0.1-1.2-0.2
		c-0.3-0.2-0.5-0.4-0.6-0.6s-0.3-0.5-0.4-0.9c-0.1-0.3-0.2-0.7-0.2-1c-0.3-1.7-1.1-5.2-2.6-10.5c-2.9-10.2-4.7-17.9-5.5-23.1
		c0-0.2-0.1-0.4-0.1-0.7c0-0.3,0-0.5-0.1-0.7c0-0.5-0.1-0.9-0.4-1.2c0-1-0.2-2.2-0.6-3.7c-0.4-1.5-0.7-2.4-0.7-2.7v44.4H374v-1.3
		c0.1-0.3,0.1-1.1,0-2.2c-0.1-1.1-0.2-2.4-0.2-3.9c0-1.5-0.1-5-0.4-10.4c-0.3-5.4-0.4-8.8-0.4-10v-8.9l0.5-12.9
		c0-1.7,0.1-2.7,0.4-2.9c0.6-0.5,1.2-0.7,1.8-0.7s1.1,0.1,1.5,0.3c0.8,0.4,1.2,1,1.2,1.8c0,0.8,0.1,1.5,0.3,2.3s0.4,1.6,0.8,2.6
		c0.3,0.9,0.6,1.7,0.7,2.2s0.3,1.1,0.4,1.7s0.2,1.3,0.2,1.8c0.2,1.8,0.4,3.3,0.6,4.6c0.2,1.3,0.7,3.2,1.4,5.7c0.7,2.5,1.3,4.8,2,6.7
		c1.6,5,2.4,9.4,2.6,13.4c0.4,0.7,0.6,1.5,0.7,2.5l0.2-24.4v-20.7c0.3-1.2,1-1.7,2.3-1.7s1.9,0.9,1.9,2.7V206z M422.4,250.3
		c-0.4,1.5-1,2.9-1.7,4.3c-0.7,1.3-1.7,2.4-3,3.3c-1.3,0.8-2.4,1.3-3.5,1.3s-2-0.1-2.8-0.2s-1.5-0.4-2.3-0.8
		c-0.8-0.4-1.1-0.9-1.1-1.4c0-1.3,0.5-1.9,1.6-1.9c0.5,0,1.2,0.2,2.1,0.5c0.9,0.4,1.6,0.5,2.2,0.5s1.3-0.4,2-1.2
		c0.7-0.8,1.3-1.8,1.7-3c0.8-2.4,1.3-4.6,1.3-6.5s-0.3-4.1-1-6.3s-1.5-4.3-2.5-6.3c-1-2-2-3.9-3-5.9c-2.4-4.7-3.5-9-3.5-12.8
		c0-3.7,1.2-6.5,3.5-8.6c1.2-1.1,2.7-1.6,4.3-1.6c0.8,0,1.7,0.2,2.5,0.7s1.4,1.1,1.7,1.8v1.5c-2,0-3.3-0.2-3.9-0.7
		c-0.9,0.1-1.6,0.5-2.3,1.2c-1.2,1.4-1.7,2.9-1.7,4.7c0,1.8,0.3,3.6,0.8,5.5c0.5,1.9,1.2,3.7,1.9,5.4c0.7,1.7,1.5,3.2,2.2,4.7
		c0.7,1.4,1.4,2.6,1.9,3.5c0.5,0.9,0.8,1.4,0.8,1.4v0.5c0.2,0.6,0.4,1.5,0.8,2.8s0.7,2.3,0.9,3c0.6,2.1,0.9,3.9,0.9,5.6
		C423,247.2,422.8,248.7,422.4,250.3z M439.4,226.6c-1.5,2.8-3.7,5-6.5,6.5l0.5,21.8c0,1.9-0.8,2.9-2.3,2.9c-0.6,0-1-0.2-1.3-0.7
		c-0.3-0.5-0.4-1-0.4-1.6l0.3-25c0-11.1-0.6-19.4-1.8-25c0.7-1,1.6-1.6,2.7-1.6c1.7,0,3.3,0.4,4.7,1.2c1.4,0.8,2.6,1.8,3.5,3.1
		c1.8,2.7,2.8,5.7,2.8,9.2C441.6,220.7,440.9,223.8,439.4,226.6z M458.9,256.4c-0.4,0.3-0.9,0.5-1.5,0.5h-8.8c-1.3,0-2-0.5-2-1.6
		c0-1.1,0.7-1.6,2.1-1.6l2.2,0c0.2,0,0.3-1.2,0.3-3.5c0-2.3-0.2-7.1-0.7-14.3c-0.4-7.2-0.7-12.6-0.7-16.2l0.1-7.2
		c0-1.5-0.1-2.8-0.2-3.9c-0.6,0.2-1.2,0.3-1.6,0.3c-1.1,0-1.6-0.6-1.6-1.7c0-0.6,0.4-1.1,1.1-1.5c0.7-0.4,1.6-0.7,2.6-0.9
		c2-0.3,3.4-0.5,4.4-0.5s1.6,0.2,2,0.6c0.4,0.4,0.6,0.8,0.6,1.3s-0.2,1-0.5,1.3c-0.3,0.4-0.7,0.6-1.2,0.6l-1.2,0
		c-0.5,0-0.8,0.1-1,0.3c-0.2,0.2-0.3,0.6-0.3,1.1c0,4.6,0.3,11.4,0.9,20.5c0.6,9.1,0.9,15.9,0.9,20.5v3l1.4,0c1.9,0,2.8,0.4,2.8,1.2
		C459.4,255.5,459.3,256,458.9,256.4z M483.8,206c-0.3,0.6-0.4,1.3-0.4,2.1l-0.3,25.9v21.4c0,1.1-0.5,1.9-1.4,2.4
		c-0.5,0.2-1,0.4-1.5,0.4c-0.5,0-0.9-0.1-1.2-0.2c-0.3-0.2-0.5-0.4-0.6-0.6s-0.3-0.5-0.4-0.9c-0.1-0.3-0.2-0.7-0.2-1
		c-0.3-1.7-1.1-5.2-2.6-10.5c-2.9-10.2-4.7-17.9-5.5-23.1c0-0.2-0.1-0.4-0.1-0.7c0-0.3,0-0.5-0.1-0.7c0-0.5-0.1-0.9-0.4-1.2
		c0-1-0.2-2.2-0.6-3.7c-0.4-1.5-0.7-2.4-0.7-2.7v44.4h-2.5v-1.3c0.1-0.3,0.1-1.1,0-2.2c-0.1-1.1-0.2-2.4-0.2-3.9
		c0-1.5-0.1-5-0.4-10.4c-0.3-5.4-0.4-8.8-0.4-10v-8.9l0.5-12.9c0-1.7,0.1-2.7,0.4-2.9c0.6-0.5,1.2-0.7,1.8-0.7s1.1,0.1,1.5,0.3
		c0.8,0.4,1.2,1,1.2,1.8c0,0.8,0.1,1.5,0.3,2.3s0.4,1.6,0.8,2.6c0.3,0.9,0.6,1.7,0.7,2.2s0.3,1.1,0.4,1.7s0.2,1.3,0.2,1.8
		c0.2,1.8,0.4,3.3,0.6,4.6c0.2,1.3,0.7,3.2,1.4,5.7c0.7,2.5,1.3,4.8,2,6.7c1.6,5,2.4,9.4,2.6,13.4c0.4,0.7,0.6,1.5,0.7,2.5l0.2-24.4
		v-20.7c0.3-1.2,1-1.7,2.3-1.7s1.9,0.9,1.9,2.7V206z M507.3,245.2v0.3c-0.3,1.3-0.4,2.7-0.4,4.2c0,1.5-0.3,3-0.8,4.4
		s-1.3,2.6-2.4,3.7s-2.2,1.6-3.5,1.6s-2.4-0.4-3.4-1.3s-1.9-2-2.6-3.3c-0.7-1.4-1.3-3-1.8-4.9c-0.5-1.9-0.9-3.7-1.2-5.5
		c-0.3-1.8-0.5-3.7-0.7-5.7c-0.3-3-0.4-5.5-0.4-7.5s0-3.6,0.1-4.8c0.1-2.3,0.2-4.4,0.3-6.1c0.1-1.8,0.2-3.2,0.2-4.1
		c0-1,0-1.8,0.1-2.4c0-0.7,0.1-1.5,0.2-2.4c0.1-1,0.3-1.8,0.4-2.5c0.2-0.7,0.4-1.4,0.7-2.2c0.3-0.8,0.7-1.4,1.2-1.8
		c1-1.1,2.2-1.6,3.5-1.6s2.3,0.1,3.1,0.4c0.8,0.3,1.4,0.6,2,1s1,0.9,1.5,1.6c0.4,0.7,0.8,1.3,1.1,1.9c0.3,0.6,0.5,1.4,0.8,2.2
		c0.3,1.1,0.6,2.7,0.9,4.7c1.1,8,1.7,15.1,1.7,21.4L507.3,245.2z M518.7,231.5c0,2.5,0.2,6.3,0.7,11.4c0.4,5.1,0.7,8.9,0.7,11.4
		l-0.1,0.4c0.1,0.2,0.1,0.5,0.1,1c0,0.5-0.2,0.9-0.7,1.3c-0.4,0.4-1,0.5-1.7,0.5c-1.3,0-2-1.5-2-4.5c0-4.5-0.2-12.9-0.7-25.2
		s-0.9-18.9-1.4-19.6c0-2.4,1.7-3.7,5-3.9c0.5,0,1.2,0,2,0c0.9,0,1.5,0.2,2,0.5c0.5,0.3,0.7,1,0.7,2c0,1-0.7,1.5-2,1.5l-1.7-0.1
		c-1.3,0-2,0.3-2,0.8c0,2.2,0.2,5.3,0.5,9.5c0.3,4.2,0.5,7.3,0.5,9.3c2-0.5,3.3-0.8,3.9-0.8s1,0.2,1.4,0.7c0.4,0.4,0.6,0.9,0.6,1.5
		C524.5,230.7,522.6,231.5,518.7,231.5z M534.2,231.5c0,2.5,0.2,6.3,0.7,11.4c0.4,5.1,0.7,8.9,0.7,11.4l-0.1,0.4
		c0.1,0.2,0.1,0.5,0.1,1c0,0.5-0.2,0.9-0.7,1.3c-0.4,0.4-1,0.5-1.7,0.5c-1.3,0-2-1.5-2-4.5c0-4.5-0.2-12.9-0.7-25.2
		s-0.9-18.9-1.4-19.6c0-2.4,1.7-3.7,5-3.9c0.5,0,1.2,0,2,0c0.9,0,1.5,0.2,2,0.5c0.5,0.3,0.7,1,0.7,2c0,1-0.7,1.5-2,1.5l-1.7-0.1
		c-1.3,0-2,0.3-2,0.8c0,2.2,0.2,5.3,0.5,9.5c0.3,4.2,0.5,7.3,0.5,9.3c2-0.5,3.3-0.8,3.9-0.8s1,0.2,1.4,0.7c0.4,0.4,0.6,0.9,0.6,1.5
		C540,230.7,538.1,231.5,534.2,231.5z M581.8,206.5c-0.7,3.8-1.3,9.6-1.9,17.2s-1.1,12.9-1.6,15.9c-0.5,3-0.8,5.1-1,6.2
		c-0.6,3.9-0.9,7.3-0.9,10.2c0,0.7-0.2,1.3-0.5,1.7c-0.4,0.5-0.8,0.7-1.5,0.7c-0.6,0-1.1-0.4-1.6-1.1c-0.4-0.8-0.7-1.8-1-3
		s-0.4-2.4-0.5-3.6c-0.1-1.1-0.2-2.3-0.3-3.5c-0.1-1.2-0.2-2.5-0.4-3.8c-0.2-1.3-0.7-4.2-1.6-8.7c-0.9-4.5-1.4-7.1-1.6-7.8
		c-1.7,13.1-2.6,23-2.6,29.6c0,0.5-0.2,1-0.6,1.4c-0.4,0.4-0.9,0.6-1.4,0.6c-1.7,0-2.6-1.8-2.6-5.3c0-2.2-1-10.2-2.9-24
		s-3.2-21.4-3.7-22.7c0.6-1.1,1.4-1.7,2.4-1.7c1.3,0,2.3,1.8,2.9,5.3c0.3,1.6,0.4,3.7,0.5,6.2s0.1,4.2,0.2,5.1
		c0.1,0.9,0.2,2.3,0.4,4.1c0.2,1.8,0.4,3.4,0.6,4.8c0.5,3,1,6.4,1.5,10.1c1.7-13.7,2.6-22.6,2.6-26.8v-1.3c0-0.5,0.2-1,0.6-1.5
		c0.4-0.5,0.8-0.7,1.3-0.7c1.9,0,2.8,0.7,2.8,2.1v1.1c0,4.5,0.9,11.1,2.8,19.6c0.8,3.8,1.4,6.8,1.8,9c0.3-2.6,0.7-6.3,1.4-11.2
		c1.4-10.6,2.2-18.8,2.2-24.6c0-1,0.2-1.8,0.5-2.2c0.3-0.5,0.9-0.7,1.7-0.7c0.8,0,1.4,0.2,1.8,0.5c0.4,0.4,0.7,0.8,0.7,1.4
		S582.3,206.1,581.8,206.5z M600,255.8c-0.3,0.6-0.9,1.1-1.6,1.5c-0.8,0.3-1.4,0.5-2,0.6c-0.6,0-1.3,0.1-2.3,0.1h-2.2
		c-1.8,0-2.9-0.3-3.3-1c-0.2-0.3-0.3-0.7-0.3-1.3V205l6.1-0.6c0.7,0,1.4,0.2,2.1,0.6c0.7,0.4,1.1,1,1.1,1.7c0,1.4-1.1,2.1-3.2,2.1
		l-2-0.1c-0.3,0-0.6,0-0.8,0l0.5,11.6c0,0.9-0.1,2.3-0.2,4.1c-0.1,1.8-0.2,3.1-0.2,3.9c0.3,0,0.6-0.1,1-0.2c1-0.3,1.7-0.4,2.2-0.4
		s1,0.2,1.4,0.6c0.4,0.4,0.6,0.9,0.6,1.4c0,0.5-0.2,1-0.5,1.5s-0.8,0.7-1.3,0.7l-1.7-0.1c-0.5,0-1,0.2-1.2,0.5v21.6
		c2.4-0.1,3.6-0.2,3.7-0.2c2.6,0,3.9,0.6,3.9,1.8V255.8z M627.9,207.8c-0.4,0.3-0.9,0.5-1.5,0.5l-2.5-0.1c-0.3,0-0.6,0-0.7,0
		c0.3,2.7,0.5,5.6,0.5,8.6l-0.1,9c0,4.3,0.4,7.9,1.1,10.7v0c-0.3,1.5-0.5,3.3-0.5,5.3l0.6,12.6c0,2.3-0.7,3.4-2,3.4
		c-0.8,0-1.3-0.4-1.7-1.1s-0.5-1.5-0.5-2.4l0.5-11.2c0-2.4-0.2-6.1-0.5-10.9c-0.3-4.9-0.5-8.5-0.5-10.9l0.1-6.1
		c0-3.4-0.2-5.5-0.7-6.5l-3.8,0.4c-0.6,0-1.1-0.2-1.6-0.5s-0.7-0.8-0.7-1.4s0.6-1,1.7-1.4c1.1-0.4,2.5-0.7,4.1-0.9
		c2.8-0.3,5.2-0.5,7.1-0.5c0.6,0,1.1,0.2,1.6,0.6c0.5,0.4,0.7,0.9,0.7,1.4S628.3,207.5,627.9,207.8z M648.7,255.9
		c0,1.5-0.6,2.3-1.7,2.3c-0.9,0-1.7-0.6-2.5-1.9v-0.2c-0.1-1.9-0.7-4.4-1.7-7.7c-1-3.3-1.7-5.5-1.9-6.6c-0.3-1.1-0.7-3.3-1.2-6.5
		c-0.6-3.2-1-5.6-1.5-7.2v27.6c0,1.5-0.8,2.2-2.3,2.2c-0.5,0-1-0.2-1.4-0.6c-0.4-0.4-0.6-0.8-0.6-1.4v-0.5l0.5-41.1v-8.6
		c0-0.5,0.1-0.9,0.3-1.2c0.2-0.2,0.9-0.3,2-0.3s2.2,0.4,3.4,1.1c1.1,0.7,2.1,1.6,2.7,2.8c1.4,2.4,2.1,4.9,2.1,7.8
		c0,2.3-0.6,4.9-1.7,7.8c-0.1,0.3-0.4,1-0.8,2c-0.4,1-0.7,1.6-0.7,1.8c0,1.8,0.3,4.1,0.9,6.8c0.6,2.7,1.1,4.9,1.6,6.6
		c0.5,1.7,1.3,4.3,2.5,7.9c1.2,3.6,1.8,5.6,2,6.1V255.9z M673.2,242.8l-0.2,0.8l0,4.1c0,4.1-0.6,7-1.7,8.7c-1.1,1.6-2.8,2.4-5.1,2.4
		c-2.8,0-4.9-1-6.4-3c-1.3-1.7-2.2-4.1-2.8-7c-0.8-3.5-1.4-6-1.8-7.5c0-0.1-0.3-5.3-0.8-15.7s-0.7-16.1-0.7-17.2
		c-0.3-0.4-0.5-0.9-0.5-1.4s0.2-1.1,0.6-1.5c0.4-0.4,0.9-0.7,1.4-0.7c1.7,0,2.5,1.7,2.5,5l0.7,24.4c0.3,0.6,0.5,1.9,0.7,3.7
		c0.2,1.9,0.3,3.3,0.3,4.4c0,1,0.2,2.3,0.5,3.8c0.3,1.5,0.8,3.1,1.4,4.6c0.6,1.6,1.3,2.9,2.3,4c1,1.1,2,1.6,3.1,1.6
		c1.8,0,2.7-1.6,2.8-4.8c0-0.4,0-0.9,0-1.5v-31.5c0-1.3-0.3-3.3-0.8-6s-0.8-4.5-0.8-5.4c0-0.9,0.2-1.6,0.7-2c0.5-0.4,1-0.5,1.6-0.5
		l2.1,1.6v1.2l-0.6,4.3c0,2.7,0.2,6.7,0.5,11.9c0.3,5.2,0.5,9.1,0.5,11.7v0.1l0.1,2.1l0.2,4.3V242.8z M693.3,250.3
		c-0.4,1.5-1,2.9-1.7,4.3c-0.7,1.3-1.7,2.4-3,3.3c-1.3,0.8-2.4,1.3-3.5,1.3s-2-0.1-2.8-0.2s-1.5-0.4-2.3-0.8
		c-0.8-0.4-1.1-0.9-1.1-1.4c0-1.3,0.5-1.9,1.6-1.9c0.5,0,1.2,0.2,2.1,0.5c0.9,0.4,1.6,0.5,2.2,0.5s1.3-0.4,2-1.2
		c0.7-0.8,1.3-1.8,1.7-3c0.8-2.4,1.3-4.6,1.3-6.5s-0.3-4.1-1-6.3s-1.5-4.3-2.5-6.3c-1-2-2-3.9-3-5.9c-2.4-4.7-3.5-9-3.5-12.8
		c0-3.7,1.2-6.5,3.5-8.6c1.2-1.1,2.7-1.6,4.3-1.6c0.8,0,1.7,0.2,2.5,0.7s1.4,1.1,1.7,1.8v1.5c-2,0-3.3-0.2-3.9-0.7
		c-0.9,0.1-1.6,0.5-2.3,1.2c-1.2,1.4-1.7,2.9-1.7,4.7c0,1.8,0.3,3.6,0.8,5.5c0.5,1.9,1.2,3.7,1.9,5.4c0.7,1.7,1.5,3.2,2.2,4.7
		c0.7,1.4,1.4,2.6,1.9,3.5c0.5,0.9,0.8,1.4,0.8,1.4v0.5c0.2,0.6,0.4,1.5,0.8,2.8s0.7,2.3,0.9,3c0.6,2.1,0.9,3.9,0.9,5.6
		C693.9,247.2,693.7,248.7,693.3,250.3z M712.7,207.8c-0.4,0.3-0.9,0.5-1.5,0.5l-2.5-0.1c-0.3,0-0.6,0-0.7,0
		c0.3,2.7,0.5,5.6,0.5,8.6l-0.1,9c0,4.3,0.4,7.9,1.1,10.7v0c-0.3,1.5-0.5,3.3-0.5,5.3l0.6,12.6c0,2.3-0.7,3.4-2,3.4
		c-0.8,0-1.3-0.4-1.7-1.1s-0.5-1.5-0.5-2.4l0.5-11.2c0-2.4-0.2-6.1-0.5-10.9c-0.3-4.9-0.5-8.5-0.5-10.9l0.1-6.1
		c0-3.4-0.2-5.5-0.7-6.5l-3.8,0.4c-0.6,0-1.1-0.2-1.6-0.5s-0.7-0.8-0.7-1.4s0.6-1,1.7-1.4c1.1-0.4,2.5-0.7,4.1-0.9
		c2.8-0.3,5.2-0.5,7.1-0.5c0.6,0,1.1,0.2,1.6,0.6c0.5,0.4,0.7,0.9,0.7,1.4S713.1,207.5,712.7,207.8z"/>
</g>
<g>
	<polygon fill="#353535" points="917.2,99.6 917.2,105.5 925.2,110.2 928.5,111.5 930.2,108.1 929.5,97.4 929,94.2 923.7,92.6 
		920.4,95.4 	"/>
	<path fill="#353535" d="M900.1,109.1l-6.3-0.4c0,0-1.9-0.2-3,0.9c-1.1,1-1.8,3.6-1.9,5.2c-0.1,1.7,1.2,5.2,2.1,5.5
		c0.9,0.3,8.1,1.2,8.1,1.2l2.3-6.1l-0.3-5.9L900.1,109.1z"/>
	<path fill="#353535" d="M900.1,114.2v-5.5c0,0-0.3-1.4,0.9-2.2c1.2-0.8,3.1-2,3.1-2s1.3-0.8,3.7-0.3s16.6,2.2,16.6,2.2
		s3.9,0.5,4,3.4s-0.7,15.9-0.7,15.9s-2.7,2.2-3,2.4c-0.3,0.2-1.7,1-3.3,0.6c-1.6-0.4-9.7-1.5-9.7-1.5L900.1,114.2z"/>
	<path fill="#474747" d="M898.1,119.5c0,0-0.2-4,3.2-6.3c3.4-2.3,7.2-4.4,7.6-4.4c0.4,0,10.5-1,10.8,8.3s-8.3,12.6-8.7,12.7
		c-0.3,0.1-4.5,1.3-7.1-0.2"/>
	<path fill="#474747" d="M922.6,87.4l4.4,0.2v4.3c0,0,3.4,0.4,3.6,0.4c0.2,0,1,0,1,1.1c-0.1,1.1,0,16.9,0,16.9s2.3,1,2.5,4.2
		c0.2,3.2-0.3,4.8-1,4.8c0,0,0.2-4.8-1.8-5.6c-2-0.8-2.9-0.8-2.9-0.8V96c0,0,0-1.1-0.9-1.5c-0.9-0.3-3.6-0.6-3.6-0.6l-1.9-4.1
		L922.6,87.4z"/>
	<path fill="#474747" d="M907.9,88.3v4.8c0,0,0.4,2.6,9.3,2.2s7.6-2.2,7.6-2.2l-0.4-4.8H907.9z"/>
	<path fill="#474747" d="M909.3,94.4v3.1c0,0,1.1,2.3,7.1,2.1c6-0.2,7-1.9,7-1.9v-3.8L909.3,94.4z"/>
	<path fill="#353535" d="M928.6,112.7l1.9,0.4c0,0,2.1,0.3,2.4,2.4c0.3,2,1.1,6.4-1,8.9c-2,2.5-5,2.1-5.8,2s-4.4-1.7-4.8-2.5
		c-0.3-0.8-1.2-6.3,0-8C922.7,114,925.2,111.8,928.6,112.7z"/>
	<circle fill="#353535" cx="906.2" cy="121.5" r="8.4"/>
	<path fill="#474747" d="M907.9,88.3c0,0-3.4-2.2-3.4-2.9s12.3-2.1,12.3-2.1l8,1.9l-0.4,2l-1.8,1.1l-6.6,1.3L907.9,88.3"/>
	<path fill="#474747" d="M1020.1,44.5h-1.9c-4.4,0-8-3.6-8-8V32c0-4.4,3.6-8,8-8h1.9c4.4,0,8,3.6,8,8v4.5
		C1028.1,40.9,1024.5,44.5,1020.1,44.5z"/>
	<path fill="#474747" d="M890.5,31.4L890.5,31.4c-4.3,0-7.9-3.5-7.9-7.9v-2.7c0-4.3,3.5-7.9,7.9-7.9l0,0c4.3,0,7.9,3.5,7.9,7.9v2.7
		C898.4,27.8,894.9,31.4,890.5,31.4z"/>
	<path fill="#474747" d="M819.5,61.5h-3.7c-4.4,0-8-3.6-8-8v-6c0-4.4,3.6-8,8-8h3.7c4.4,0,8,3.6,8,8v6
		C827.5,57.9,823.9,61.5,819.5,61.5z"/>
	<ellipse fill="#3A3A3A" cx="816.9" cy="36.8" rx="6.8" ry="7.8"/>
	<path fill="#3A3A3A" d="M937.2,83.2c0,0,1.8,5.7,1.8,6.7c0,1,0,2.7,0.8,4.1s5.2,29.6,5.2,35.8s0.4,19.4,0.8,20.7
		c0.4,1.3,2.4,7.4,7.3,5.5c4.9-2,29.6-25.2,29.6-25.2s5-5,4.3-14.5c-0.7-9.5-2.2-39.8-7.2-48l-4.7,0.9l-0.4,9.6
		c0,0,3.1,11.5,3.4,12.6c0.3,1.1,2.9,25.5,2.9,26.8c0,1.4-0.3,6.9-2.5,9.2c-2.2,2.4-25.5,20.7-25.5,20.7s-1,1.4-0.8-1.8
		c0.1-3.2-4.3-61.7-3.3-64.9s-1.7-4.7-1.7-4.7l-8.5-0.1L937.2,83.2z"/>
	<path fill="#3A3A3A" d="M863,81.1l1.1,0.5l4.7,0.1l3.1-0.3l3.9-1.2c0,0-0.8,2.6-1.7,3.1c-0.8,0.5-2.4,0.5-2.7,1.1s-6.3,17.9-7,22.7
		c-0.7,4.8-2.7,25.3-2.4,26.2s0.7,1.8,2,1c1.3-0.8,33.8-20.8,34.1-22.1c0.3-1.3,0.9-28,0.9-28l4-1.5l1.7,3.3c0,0-0.9,29.1-1.7,30
		c-0.8,0.8-36.1,23.4-36.1,23.4s-4.5,3.9-7.4,1.4c-2.9-2.5-3.6-4.9-3.6-6.2S857,90.5,863,81.1z"/>
	<path fill="#282828" d="M951.5,74.5c0,0,0.1,6.7,1.7,7.4c0,0-11.6-1.4-12.6-2.9c0,0-5.5,8.1-9.6,8.5c-4.2,0.4-26.6-1.1-29.6-2.5
		s-18.3-9.2-20-9.4c-1.7-0.1-5,4.3-5.5,4.5c-0.4,0.1-4.6,2-7.2,2.1c-2.7,0.1-5.8-0.2-5.6-1.2s0.6-8.9-0.7-9.8
		c-1.3-0.8-19.4-3.2-23.5-3.8c-4.1-0.6-9.6-1.5-11.5-1.4c-1.8,0.1-7.1,1.7-9.6,1.7c-2.5,0-12.8-2.4-13.3-5.2l13.7-1.1l52.2-8
		l47.7-1.8l23.6,8.4l9.5,10.3L951.5,74.5z"/>
	<path fill="#3A3A3A" d="M808.3,57.5c0,0,5.3,2.9,12.7,1.3c7.4-1.7,6.2-4.6,6.2-4.6s61.4-16.6,61-16.8s-5.6-2.7-6.3-5.7
		s1.7-3.5,1.7-3.5s4.3,1.7,7.6,0.7s6.7-2,6.7-2s111.7,12,113.1,12.3c0,0,2.9,4.4,9.1,3.9c6.2-0.5,7.3-3.1,8.1-3.1
		c0.8,0,4.3,0.8,3.8,3.1c-0.6,2.3-5.6,6.6-9.1,7.3c-3.5,0.7-12.3,0.8-15.2,1.5s-18.7,5.9-19.9,6c-1.1,0.1-8.3,1.5-7.4,9.6
		c0,0-0.4,1.5-2.2,1.5c-1.8,0-2.8,0-2.8,0s-21.3,5.9-23.8,5.5c-2.5-0.4-13.3-9.4-39.3-15.2s-81.9,2.8-84.6,3.2
		c-2.7,0.4-19.3,3.4-23.2,0.1c0,0-1.1-4.1,0-4.5C805.5,57.7,808.3,57.5,808.3,57.5z"/>
	<path fill="#474747" d="M951.5,74.4c0,0-0.8,5.7,1.7,7.8c2.5,2.1,7.8,6.6,12.7,6c4.9-0.7,11.6-3.9,11.7-10.2
		c0.1-6.3-2.3-3.8-2.3-4.8c0-1,0.6-14.3,0.5-15.3c-0.1-1-2.3-2.2-2.7-2.4s-11,0.6-11.6,0c-0.6-0.6-5.2,1.2-5.2,2.6
		c0,1.5-0.4,14-1.1,14.5C954.4,73.2,951.6,72.9,951.5,74.4z"/>
	<path fill="#878787" d="M813.7,37.1c0,0,5.8-2.8,6.8-2.8c1,0,2.9,2.2,3.7,2.2c0.8,0,2.5,1.4,2.8,1.9s4.9,7.4,5.3,7.9
		c0.4,0.5,2.1,2.1,1.3,2.4c-0.8,0.3-3.8,0.4-4.5,0.8c-0.7,0.4-3.1,1.1-4.2,0.4c-1-0.7-5-2.5-6-2.7c-1-0.2-9.1-0.8-9.5-0.7
		c-0.5,0.2-1.9-0.7-1.5-1.5C808.2,44.2,813,37.9,813.7,37.1z"/>
	<path fill="#878787" d="M810.4,34.3c0,0,1.5-3.7,3.7-4.5c0,0-2.6-2.5-4.6-3.6c-2-1.1-5.7-1.5-6-1.5s-1.6,0.1-0.9,1.3
		c0.6,1.2,3,3.9,3.3,4.5C806.1,31.1,810.4,34.3,810.4,34.3z"/>
	<path fill="#878787" d="M886.5,13c0,0-6.3,4.1-6.6,4.3c-0.3,0.2-2.4,2.2-5.5,2.2c-3,0-16.7-1-20.6-1c-3.8,0-24.5,1-25,1
		c-0.6,0-2.3,0-2.7-0.8c-0.4-0.8,0.2-1.5,1.3-1.5s44.5-7.1,45.4-7.2c0.8-0.1,10.9-0.1,11.5-0.3c0.6-0.3,1.6-4.5,5.2-4.8
		c3.6-0.2,5.4,3.6,5.9,3.7s37.5-4.1,38-4.1c0.4-0.1,16.2-1.6,16.6-1.6s0.8,0.8,0,0.9c-0.8,0.1-36.6,5.4-37.5,5.7
		c-0.8,0.3-7.7,2.2-8.7,2.2c-1,0-7.3-1-7.7-0.8c-0.3,0.3-0.9,2.2-1.3,2.3c-0.3,0.1-2.4,1.1-4.2,1.1C888.9,14.2,886.9,14.1,886.5,13z
		"/>
	<path fill="#878787" d="M1018.5,25.4c0,0,0.1,3.6,0,4.1s0.1,2,0.7,2.5c0.6,0.6,5.7,0.8,6.3,0.8c0.6,0.1,15,3.4,15.8,3.6
		c0.8,0.3,9.1,2.4,9.6,2.7c0.5,0.3,2.8,0.8,5,0s2.4-1.7,1.3-2.2c-1.1-0.5-21.8-12.9-22.4-13.1c-0.6-0.2-7.7-2-7.9-2
		c-0.2,0-0.6-5.4-5.4-6.2c-4.8-0.8-5.5,2.5-5.5,2.5s-24.7-11-25.3-11.1s-2.8-0.6-2.7,0s26.8,13.1,26.8,13.5
		C1014.8,21,1013.4,24.9,1018.5,25.4z"/>
	<path fill="#878787" d="M962.1,55.7c0,0-6.8,4.3-7.1,4.3c-0.3,0-3.7,2.1-8.6,1.8c-4.9-0.3-14.2-2.9-23.1-3.5
		c-8.9-0.5-32.1-2.7-33.2-2.6c-1.2,0.1-2.8,0.2-4.1-1.2c-1.3-1.4,0.1-1.3,1.3-1.5s46.6-2.7,47.2-2.8c0.6-0.1,23.6,0.3,24.3,0
		c0.7-0.3,1.4-0.3,1.6-1c0.2-0.7,2.5-4.2,6.5-4.2c4,0,6.7,5.3,6.7,5.3s61.9-0.6,62.5-0.7c0.6-0.1,6-0.1,6.1,0.3
		c0.1,0.4-41.1,2.7-43.6,2.9c-2.5,0.2-15.3,2.3-16.6,2.2c-1.3-0.1-7.2-2-7.8-1.7c-0.5,0.3-1.3,3.1-5.7,3.2
		C964.1,56.8,963,55.8,962.1,55.7z"/>
	<circle fill="#F75555" cx="906.2" cy="121.5" r="2.1"/>
</g>
<g>
	<polygon fill="#353535" points="145.2,100.9 145.2,106.8 137.2,111.6 133.8,112.8 132.2,109.4 132.9,98.7 133.3,95.5 138.7,93.9 
		141.9,96.7 	"/>
	<path fill="#353535" d="M162.3,110.4l6.3-0.4c0,0,1.9-0.2,3,0.9c1.1,1,1.8,3.6,1.9,5.2c0.1,1.7-1.2,5.2-2.1,5.5
		c-0.9,0.3-8.1,1.2-8.1,1.2l-2.3-6.1l0.3-5.9L162.3,110.4z"/>
	<path fill="#353535" d="M162.3,115.5v-5.5c0,0,0.3-1.4-0.9-2.2c-1.2-0.8-3.1-2-3.1-2s-1.3-0.8-3.7-0.3c-2.4,0.4-16.6,2.2-16.6,2.2
		s-3.9,0.5-4,3.4s0.7,15.9,0.7,15.9s2.7,2.2,3,2.4s1.7,1,3.3,0.6s9.7-1.5,9.7-1.5L162.3,115.5z"/>
	<path fill="#474747" d="M164.2,120.8c0,0,0.2-4-3.2-6.3s-7.2-4.4-7.6-4.4c-0.4,0-10.5-1-10.8,8.3s8.3,12.6,8.7,12.7
		c0.3,0.1,4.5,1.3,7.1-0.2"/>
	<path fill="#474747" d="M139.8,88.7l-4.4,0.2v4.3c0,0-3.4,0.4-3.6,0.4s-1,0-1,1.1c0.1,1.1,0,16.9,0,16.9s-2.3,1-2.5,4.2
		c-0.2,3.2,0.3,4.8,1,4.8c0,0-0.2-4.8,1.8-5.6s2.9-0.8,2.9-0.8V97.3c0,0,0-1.1,0.9-1.5c0.9-0.3,3.6-0.6,3.6-0.6l1.9-4.1L139.8,88.7z
		"/>
	<path fill="#474747" d="M154.5,89.6v4.8c0,0-0.4,2.6-9.3,2.2c-8.9-0.3-7.6-2.2-7.6-2.2l0.4-4.8H154.5z"/>
	<path fill="#474747" d="M153.1,95.7v3.1c0,0-1.1,2.3-7.1,2.1c-6-0.2-7-1.9-7-1.9v-3.8L153.1,95.7z"/>
	<path fill="#353535" d="M133.7,114l-1.9,0.4c0,0-2.1,0.3-2.4,2.4c-0.3,2-1.1,6.4,1,8.9c2,2.5,5,2.1,5.8,2s4.4-1.7,4.8-2.5
		c0.3-0.8,1.2-6.3,0-8C139.7,115.4,137.1,113.1,133.7,114z"/>
	<circle fill="#353535" cx="156.1" cy="122.9" r="8.4"/>
	<path fill="#474747" d="M154.5,89.6c0,0,3.4-2.2,3.4-2.9c0-0.8-12.3-2.1-12.3-2.1l-8,1.9l0.4,2l1.8,1.1l6.6,1.3L154.5,89.6"/>
	<path fill="#474747" d="M42.2,45.8h1.9c4.4,0,8-3.6,8-8v-4.5c0-4.4-3.6-8-8-8h-1.9c-4.4,0-8,3.6-8,8v4.5
		C34.2,42.2,37.8,45.8,42.2,45.8z"/>
	<path fill="#474747" d="M171.8,32.7L171.8,32.7c4.3,0,7.9-3.5,7.9-7.9v-2.7c0-4.3-3.5-7.9-7.9-7.9h0c-4.3,0-7.9,3.5-7.9,7.9v2.7
		C163.9,29.2,167.5,32.7,171.8,32.7z"/>
	<path fill="#474747" d="M242.9,62.8h3.7c4.4,0,8-3.6,8-8v-6c0-4.4-3.6-8-8-8h-3.7c-4.4,0-8,3.6-8,8v6
		C234.9,59.2,238.5,62.8,242.9,62.8z"/>
	<ellipse fill="#3A3A3A" cx="245.5" cy="38.1" rx="6.8" ry="7.8"/>
	<path fill="#3A3A3A" d="M125.1,84.5c0,0-1.8,5.7-1.8,6.7c0,1,0,2.7-0.8,4.1c-0.8,1.4-5.2,29.6-5.2,35.8c0,6.2-0.4,19.4-0.8,20.7
		c-0.4,1.3-2.4,7.4-7.3,5.5c-4.9-2-29.6-25.2-29.6-25.2s-5-5-4.3-14.5s2.2-39.8,7.2-48l4.7,0.9l0.4,9.6c0,0-3.1,11.5-3.4,12.6
		c-0.3,1.1-2.9,25.5-2.9,26.8s0.3,6.9,2.5,9.2c2.2,2.4,25.5,20.7,25.5,20.7s1,1.4,0.8-1.8c-0.1-3.2,4.3-61.7,3.3-64.9
		s1.7-4.7,1.7-4.7l8.5-0.1L125.1,84.5z"/>
	<path fill="#3A3A3A" d="M199.4,82.4l-1.1,0.5l-4.7,0.1l-3.1-0.3l-3.9-1.2c0,0,0.8,2.6,1.7,3.1c0.8,0.5,2.4,0.5,2.7,1.1
		c0.3,0.6,6.3,17.9,7,22.7c0.7,4.8,2.7,25.3,2.4,26.2s-0.7,1.8-2,1s-33.8-20.8-34.1-22.1c-0.3-1.3-0.9-28-0.9-28l-4-1.5l-1.7,3.3
		c0,0,0.9,29.1,1.7,30c0.8,0.8,36.1,23.4,36.1,23.4s4.5,3.9,7.4,1.4c2.9-2.5,3.6-4.9,3.6-6.2S205.4,91.8,199.4,82.4z"/>
	<path fill="#282828" d="M110.9,75.8c0,0-0.1,6.7-1.7,7.4c0,0,11.6-1.4,12.6-2.9c0,0,5.5,8.1,9.6,8.5s26.6-1.1,29.6-2.5
		s18.3-9.2,20-9.4c1.7-0.1,5,4.3,5.5,4.5s4.6,2,7.2,2.1c2.7,0.1,5.8-0.2,5.6-1.2c-0.1-0.9-0.6-8.9,0.7-9.8
		c1.3-0.8,19.4-3.2,23.5-3.8c4.1-0.6,9.6-1.5,11.5-1.4c1.8,0.1,7.1,1.7,9.6,1.7s12.8-2.4,13.3-5.2l-13.7-1.1l-52.2-8L144.4,53
		l-23.6,8.4l-9.5,10.3L110.9,75.8z"/>
	<path fill="#3A3A3A" d="M254.1,58.8c0,0-5.3,2.9-12.7,1.3c-7.4-1.7-6.2-4.6-6.2-4.6s-61.4-16.6-61-16.8c0.4-0.1,5.6-2.7,6.3-5.7
		s-1.7-3.5-1.7-3.5s-4.3,1.7-7.6,0.7c-3.2-1-6.7-2-6.7-2S52.8,40.2,51.4,40.5c0,0-2.9,4.4-9.1,3.9s-7.3-3.1-8.1-3.1
		s-4.3,0.8-3.8,3.1c0.6,2.3,5.6,6.6,9.1,7.3c3.5,0.7,12.3,0.8,15.2,1.5c2.9,0.7,18.7,5.9,19.9,6c1.1,0.1,8.3,1.5,7.4,9.6
		c0,0,0.4,1.5,2.2,1.5s2.8,0,2.8,0s21.3,5.9,23.8,5.5c2.5-0.4,13.3-9.4,39.3-15.2s81.9,2.8,84.6,3.2c2.7,0.4,19.3,3.4,23.2,0.1
		c0,0,1.1-4.1,0-4.5C256.9,59.1,254.1,58.8,254.1,58.8z"/>
	<path fill="#474747" d="M110.9,75.7c0,0,0.8,5.7-1.7,7.8c-2.5,2.1-7.8,6.6-12.7,6s-11.6-3.9-11.7-10.2s2.3-3.8,2.3-4.8
		c0-1-0.6-14.3-0.5-15.3c0.1-1,2.3-2.2,2.7-2.4c0.4-0.1,11,0.6,11.6,0c0.6-0.6,5.2,1.2,5.2,2.6s0.4,14,1.1,14.5
		C107.9,74.5,110.8,74.2,110.9,75.7z"/>
	<path fill="#878787" d="M248.7,38.5c0,0-5.8-2.8-6.8-2.8s-2.9,2.2-3.7,2.2c-0.8,0-2.5,1.4-2.8,1.9c-0.3,0.5-4.9,7.4-5.3,7.9
		s-2.1,2.1-1.3,2.4c0.8,0.3,3.8,0.4,4.5,0.8c0.7,0.4,3.1,1.1,4.2,0.4c1-0.7,5-2.5,6-2.7c1-0.2,9.1-0.8,9.5-0.7
		c0.5,0.2,1.9-0.7,1.5-1.5S249.3,39.2,248.7,38.5z"/>
	<path fill="#878787" d="M252,35.6c0,0-1.5-3.7-3.7-4.5c0,0,2.6-2.5,4.6-3.6c2-1.1,5.7-1.5,6-1.5s1.6,0.1,0.9,1.3
		c-0.6,1.2-3,3.9-3.3,4.5S252,35.6,252,35.6z"/>
	<path fill="#878787" d="M175.8,14.3c0,0,6.3,4.1,6.6,4.3c0.3,0.2,2.4,2.2,5.5,2.2c3,0,16.7-1,20.6-1c3.8,0,24.5,1,25,1
		s2.3,0,2.7-0.8c0.4-0.8-0.2-1.5-1.3-1.5c-1,0-44.5-7.1-45.4-7.2c-0.8-0.1-10.9-0.1-11.5-0.3c-0.6-0.3-1.6-4.5-5.2-4.8
		c-3.6-0.2-5.4,3.6-5.9,3.7s-37.5-4.1-38-4.1C128.6,5.6,112.8,4,112.3,4s-0.8,0.8,0,0.9c0.8,0.1,36.6,5.4,37.5,5.7
		c0.8,0.3,7.7,2.2,8.7,2.2s7.3-1,7.7-0.8s0.9,2.2,1.3,2.3c0.3,0.1,2.4,1.1,4.2,1.1S175.5,15.4,175.8,14.3z"/>
	<path fill="#878787" d="M43.8,26.7c0,0-0.1,3.6,0,4.1s-0.1,2-0.7,2.5c-0.6,0.6-5.7,0.8-6.3,0.8c-0.6,0.1-15,3.4-15.8,3.6
		c-0.8,0.3-9.1,2.4-9.6,2.7c-0.5,0.3-2.8,0.8-5,0S4,38.8,5.2,38.4S27,25.5,27.6,25.3c0.6-0.2,7.7-2,7.9-2s0.6-5.4,5.4-6.2
		s5.5,2.5,5.5,2.5s24.7-11,25.3-11.1c0.6-0.1,2.8-0.6,2.7,0C74.2,9.1,47.5,21.6,47.5,22S48.9,26.2,43.8,26.7z"/>
	<path fill="#878787" d="M100.3,57c0,0,6.8,4.3,7.1,4.3c0.3,0,3.7,2.1,8.6,1.8s14.2-2.9,23.1-3.5c8.9-0.5,32.1-2.7,33.2-2.6
		c1.2,0.1,2.8,0.2,4.1-1.2s-0.1-1.3-1.3-1.5c-1.2-0.2-46.6-2.7-47.2-2.8c-0.6-0.1-23.6,0.3-24.3,0c-0.7-0.3-1.4-0.3-1.6-1
		c-0.2-0.7-2.5-4.2-6.5-4.2c-4,0-6.7,5.3-6.7,5.3S27,51,26.3,50.9c-0.6-0.1-6-0.1-6.1,0.3c-0.1,0.4,41.1,2.7,43.6,2.9
		c2.5,0.2,15.3,2.3,16.6,2.2c1.3-0.1,7.2-2,7.8-1.7c0.5,0.3,1.3,3.1,5.7,3.2S99.3,57.1,100.3,57z"/>
	<circle fill="#F75555" cx="156.1" cy="122.9" r="2.1"/>
</g>
<polygon fill="#3A3A3A" points="864.9,133.6 869.9,130.5 870.7,132.9 867.4,136 "/>
<polygon fill="#3A3A3A" points="198.6,135.7 193.7,132.6 192.9,135 196.1,138.1 "/>
<circle fill="none" stroke="#FFFFFF" stroke-width="3" stroke-miterlimit="10" cx="280.6" cy="162.5" r="5.5"/>
<circle fill="none" stroke="#FFFFFF" stroke-width="3" stroke-miterlimit="10" cx="783.6" cy="162.5" r="5.5"/>
<circle fill="#C2E7F4" cx="783.6" cy="162.5" r="4.1"/>
<circle fill="#C2E7F4" cx="280.6" cy="162.5" r="4.1"/>
<path fill="none" stroke="#565151" stroke-width="4" stroke-linecap="round" stroke-linejoin="round" stroke-miterlimit="10" d="
	M867.7,132.4c-0.5-3.3-4.1-4.5-7.3-4.4c-5.5,0.2-64.6,16.2-75.9,33.1"/>
<path fill="none" stroke="#565151" stroke-width="4" stroke-linecap="round" stroke-linejoin="round" stroke-miterlimit="10" d="
	M196.3,134.7c0.5-3.3,5.9-6.8,9-6.7c5.5,0.2,64.6,16.2,75.9,33.1"/>
</svg>
