<?xml version="1.0" encoding="utf-8"?>
<!-- Generator: Adobe Illustrator 18.0.0, SVG Export Plug-In . SVG Version: 6.00 Build 0)  -->
<!DOCTYPE svg PUBLIC "-//W3C//DTD SVG 1.1//EN" "http://www.w3.org/Graphics/SVG/1.1/DTD/svg11.dtd">
<svg version="1.1" id="Layer_1" xmlns="http://www.w3.org/2000/svg" xmlns:xlink="http://www.w3.org/1999/xlink" x="0px" y="0px"
	 viewBox="0 0 377 285" enable-background="new 0 0 377 285" xml:space="preserve">
<g>
	<path fill="#303030" d="M181.5,101.9c0,0,5.3,17,3.8,22.7c-1.5,5.7-5.1,19.7-14.1,23.7c0,0-1.2,2.8,4.3,3.2
		c5.5,0.3,19.7-14.8,20.3-25.7s-0.2-15.3,1.3-16c1.5-0.7,9-4.8,9-4.8L181.5,101.9z"/>
	
		<path fill="#3F3F3F" stroke="#3F3F3F" stroke-width="6" stroke-linecap="round" stroke-linejoin="round" stroke-miterlimit="10" d="
		M343.5,150.9c-13-16-28-43.3-14.7-58.3c13.3-15,23-17.7,28.7-17.7c5.7,0,13.9-5.3,13.8-8.3c-0.1-3-4.6-5.7-11.9-7.9
		c-7.2-2.1-231.2-15.8-231.2-15.8L8.1,49v32.2c0,0-1,6.7,8.7,7c9.7,0.3,25,0,25,0s2.3,10.3,10,10.7c7.7,0.3,62.3,0,62.3,0l16.7,48.7
		c0,0,5.3,12,13.7,14.7c8.3,2.7,37.6,4.9,50,3.3c9.3-1.2,33.3-9.3,36-10c2.7-0.7,11.7,0,13.7,8.3c2,8.3,32.3,95.3,32.3,95.3
		l-3.3,11.3l24.3,7l67.7-5.7l-3-14.7c0,0,10.3-5,9-14S356.5,166.9,343.5,150.9z M224.8,144.9c-6,6-44.7,11.3-60.3,10.7
		c-15.7-0.7-18.7-11-18.7-11l-10-42.7c-0.7-2.9,19.7,0,45.7,0s47,4,49,16.7S230.8,138.9,224.8,144.9z"/>
	
		<path fill="#202020" stroke="#202020" stroke-width="6" stroke-linecap="round" stroke-linejoin="round" stroke-miterlimit="10" d="
		M8.1,23.5V49h39.5c0,0,10-1,11.5,13l296.5-2.5c0,0,9.5-0.5,6-7.5s-15.5-32.5-15.5-32.5s-2-5-10.5-4.5l-9.2-9.2l-21,3.7l0.7,5.7
		l-60.3,0.3l0.3-5.3l-18.3,1.7l-7-3.3l-24.3,4v5l-158-1.3l-9-10.3l-9.3,3.3l-6,7l-6,1.3V23.5z"/>
</g>
</svg>
