<?xml version="1.0" encoding="utf-8"?>
<!-- Generator: Adobe Illustrator 18.0.0, SVG Export Plug-In . SVG Version: 6.00 Build 0)  -->
<!DOCTYPE svg PUBLIC "-//W3C//DTD SVG 1.1//EN" "http://www.w3.org/Graphics/SVG/1.1/DTD/svg11.dtd">
<svg version="1.1" id="Layer_1" xmlns="http://www.w3.org/2000/svg" xmlns:xlink="http://www.w3.org/1999/xlink" x="0px" y="0px"
	 viewBox="0 0 370 201" enable-background="new 0 0 370 201" xml:space="preserve">
<g>
	<g>
		
			<ellipse transform="matrix(0.9655 0.2605 -0.2605 0.9655 15.9043 -75.2775)" fill="#202020" cx="292" cy="22.4" rx="10.3" ry="7.9"/>
	</g>
	<g>
		<path fill="#202020" d="M30.1,179.2c0,0-0.9,0.1-2.2,0.2c-5.9,0.6-21.5,2.6-22.2,5.4c-0.9,3.4,0.1,2.6,3.3,3
			c3.2,0.4,161.5,4.3,165,4.3s101.3-4.3,104.7-4.3s12.5-10.2,6.7-11.9"/>
	</g>
	<g>
		<ellipse fill="#333333" cx="203.5" cy="87.3" rx="27.4" ry="4.8"/>
	</g>
	<g>
		<path fill="#999999" d="M360.6,132.3c-3.4-11.2-15.1-41.5-22.4-55.7c-7.3-14.2-18.5-44.6-18.9-46.3c-0.4-1.7-8.6-6-20.6-7.7
			c-12-1.7-48.5-11.6-85.8-5.6C175.5,23,118,41,77.7,95.5L8.2,176.2c0,0,80.7,5.1,100.4,4.3c19.7-0.9,159.2-2.1,159.2-2.1l88.8-28.3
			C356.6,150,364.1,143.5,360.6,132.3z M220.2,89c-25.3,1.4-59.2,4.8-59.2-10.6s30.5-26.1,55.4-27.9c0,0,50.6-9,52.8,12.4
			C271.2,84.4,245.5,87.6,220.2,89z"/>
	</g>
	<g>
		<path fill="#555555" d="M49.4,160.6c0,0,36.9-43.2,84.1-48.3s147.3,32.6,147.3,32.6l-79.1,18L58,165.5L49.4,160.6z"/>
	</g>
	<g>
		<path fill="#333333" d="M21.9,160.3c0,0,148.5,2.3,197.8-4.8c49.2-7.1,120.7-19,120.4-41.8s-41.3-91.1-41.3-91.1l12.9,3.2l5.7,2.7
			l2,1.9l6.6,17.7c0,0,49.7,90.9,32.6,100.5c-17.1,9.6-68.2,29.6-90.6,29.9c-13,0.1-97.1,2.3-165.8,2.5c-49.5,0.1-90.9-1.5-92.5-2.5
			C5.6,176.1,21.9,160.3,21.9,160.3z"/>
	</g>
	<g>
		<path fill="#202020" d="M75.7,97.8c0,0,12-0.9,25.2-13.1s49.2-41.2,75.3-48.6s70.8-10.6,82.1-8c11.3,2.6,21.5-5.5,21.2-9
			l-24.1-3.2c0,0-48.1-7.8-93.4,12.8S92.5,70.8,74.2,97.8"/>
	</g>
	<g>
		<path fill="#202020" d="M136.3,43.5c0,0-2.9-7.7,5.8-13.2c8.7-5.5,30.7-8,30.6-5.9S136.3,43.5,136.3,43.5z"/>
	</g>
	<g>
		<path fill="#202020" d="M239.3,87.3c0,0,28.1-2.6,29.7-18.5c0,0,55.2,5.1,57.8,6c2.6,0.9,10.5,25.6,11.1,27.6
			c0.6,2,4,10.4,1.6,14.9C339.5,117.2,278.2,102.4,239.3,87.3z"/>
	</g>
	<g>
		<ellipse fill="#FFFFFF" cx="176.7" cy="102.5" rx="6.3" ry="4.7"/>
	</g>
	<g>
		<g>
			<path fill="#FFFFFF" d="M167.2,109.6c0.1,0.1,0.2,0.3,0.4,0.3c0.3,0.1,0.4,0,0.5-0.1c0.1-0.2,0-0.3-0.2-0.5
				c-0.3-0.3-0.4-0.5-0.3-0.7c0.1-0.3,0.5-0.4,0.9-0.2c0.2,0.1,0.3,0.2,0.4,0.3c-0.1,0.1-0.1,0.1-0.2,0.2c-0.1-0.1-0.2-0.2-0.3-0.3
				c-0.2-0.1-0.4,0-0.4,0.1c-0.1,0.1,0,0.3,0.2,0.5c0.3,0.3,0.4,0.5,0.3,0.7c-0.1,0.3-0.5,0.4-1,0.2c-0.2-0.1-0.4-0.2-0.5-0.4
				C167.1,109.7,167.1,109.6,167.2,109.6z"/>
			<path fill="#FFFFFF" d="M169.3,109.8c-0.2,0.4,0.1,0.7,0.5,0.9c0.3,0.1,0.4,0.1,0.6,0.1c0,0.1,0,0.2,0,0.3c-0.1,0-0.4,0-0.7-0.1
				c-0.6-0.2-0.9-0.7-0.7-1.3c0.2-0.5,0.7-0.8,1.3-0.7c0.6,0.2,0.6,0.8,0.5,1.1c0,0.1,0,0.1-0.1,0.2
				C170.1,110.1,169.8,110,169.3,109.8z M170.4,109.9c0.1-0.2,0.1-0.6-0.3-0.7c-0.4-0.1-0.6,0.1-0.7,0.3
				C169.8,109.7,170,109.8,170.4,109.9z"/>
			<path fill="#FFFFFF" d="M171.6,108.6c0.1,0,0.2,0.1,0.3,0.1c-0.3,1.1-0.4,1.6-0.7,2.7c-0.2,0-0.2-0.1-0.4-0.1
				C171.2,110.2,171.3,109.6,171.6,108.6z"/>
			<path fill="#FFFFFF" d="M171.9,111.5c0.2-0.6,0.2-1,0.4-1.6c-0.1,0-0.2,0-0.3-0.1c0-0.1,0-0.2,0.1-0.3c0.1,0,0.2,0,0.3,0.1
				c0,0,0-0.1,0-0.1c0.1-0.3,0.2-0.5,0.4-0.6c0.2-0.1,0.3-0.1,0.5-0.1c0.1,0,0.2,0.1,0.3,0.1c0,0.1-0.1,0.2-0.1,0.3
				c0,0-0.1-0.1-0.2-0.1c-0.3-0.1-0.4,0.2-0.5,0.5c0,0,0,0.1,0,0.1c0.2,0,0.3,0.1,0.5,0.1c0,0.1,0,0.2-0.1,0.3
				c-0.2,0-0.3-0.1-0.5-0.1c-0.1,0.6-0.2,1-0.4,1.6C172.2,111.6,172.1,111.6,171.9,111.5z"/>
			<path fill="#FFFFFF" d="M175.7,112.1c-0.1,0-0.3,0.1-0.6,0c-0.6-0.1-1-0.5-0.9-1.1c0.1-0.6,0.6-0.9,1.2-0.9
				c0.2,0,0.4,0.1,0.5,0.2c0,0.1-0.1,0.2-0.1,0.3c-0.1-0.1-0.2-0.1-0.4-0.1c-0.5-0.1-0.8,0.2-0.8,0.6c-0.1,0.4,0.2,0.8,0.6,0.8
				c0.2,0,0.4,0,0.5,0C175.6,111.9,175.6,112,175.7,112.1z"/>
			<path fill="#FFFFFF" d="M176.3,109.4c0.1,0,0.2,0,0.4,0c-0.1,1.1-0.1,1.7-0.2,2.8c-0.2,0-0.2,0-0.4,0
				C176.2,111.1,176.2,110.5,176.3,109.4z"/>
			<path fill="#FFFFFF" d="M177.4,111.4c0,0.5,0.3,0.7,0.7,0.7c0.3,0,0.4,0,0.6-0.1c0,0.1,0,0.1,0.1,0.2c-0.1,0.1-0.4,0.1-0.7,0.1
				c-0.7,0-1-0.4-1-1c0-0.6,0.4-1,1-1c0.7,0,0.8,0.6,0.8,0.9c0,0.1,0,0.1,0,0.2C178.3,111.4,178,111.4,177.4,111.4z M178.5,111.1
				c0-0.2-0.1-0.6-0.5-0.6c-0.4,0-0.5,0.3-0.6,0.6C177.9,111.1,178.1,111.1,178.5,111.1z"/>
			<path fill="#FFFFFF" d="M180.6,112.2c0-0.1,0-0.1-0.1-0.2c0,0,0,0,0,0c-0.1,0.2-0.3,0.3-0.6,0.3c-0.4,0-0.7-0.2-0.7-0.5
				c0-0.5,0.4-0.7,1.2-0.8c0,0,0,0,0,0c0-0.2-0.1-0.4-0.5-0.4c-0.2,0-0.4,0.1-0.5,0.2c0-0.1-0.1-0.1-0.1-0.2
				c0.2-0.1,0.4-0.2,0.7-0.2c0.6,0,0.8,0.3,0.8,0.7c0,0.3,0,0.4,0.1,0.7c0,0.2,0,0.3,0.1,0.5C180.8,112.2,180.7,112.2,180.6,112.2z
				 M180.5,111.2c-0.4,0-0.9,0.1-0.9,0.5c0,0.2,0.2,0.3,0.4,0.3c0.3,0,0.4-0.2,0.5-0.4c0,0,0-0.1,0-0.1
				C180.5,111.4,180.5,111.4,180.5,111.2z"/>
			<path fill="#FFFFFF" d="M181.4,110.7c0-0.2,0-0.4-0.1-0.5c0.1,0,0.2,0,0.3,0c0,0.1,0,0.2,0.1,0.3c0,0,0,0,0,0
				c0.1-0.2,0.3-0.4,0.6-0.5c0.3,0,0.7,0,0.9,0.7c0.1,0.5,0.1,0.7,0.2,1.1c-0.2,0-0.2,0-0.4,0.1c-0.1-0.4-0.1-0.7-0.2-1.1
				c-0.1-0.3-0.2-0.5-0.6-0.5c-0.2,0-0.4,0.2-0.5,0.4c0,0,0,0.1,0,0.2c0.1,0.5,0.1,0.7,0.1,1.1c-0.2,0-0.2,0-0.4,0
				C181.5,111.6,181.5,111.3,181.4,110.7z"/>
		</g>
	</g>
</g>
</svg>
