<?xml version="1.0" encoding="utf-8"?>
<!-- Generator: Adobe Illustrator 18.0.0, SVG Export Plug-In . SVG Version: 6.00 Build 0)  -->
<!DOCTYPE svg PUBLIC "-//W3C//DTD SVG 1.1//EN" "http://www.w3.org/Graphics/SVG/1.1/DTD/svg11.dtd">
<svg version="1.1" id="Layer_1" xmlns="http://www.w3.org/2000/svg" xmlns:xlink="http://www.w3.org/1999/xlink" x="0px" y="0px"
	 viewBox="0 0 265.8 215.8" enable-background="new 0 0 265.8 215.8" xml:space="preserve">
<g>
	<polygon opacity="0.39" fill="#D3D3D3" points="97.8,27.1 131.2,27.1 165.5,30.4 182.2,35.9 193.7,50 195,107.6 193.7,122.4 
		187.7,133.3 175.1,160.5 161.2,174.1 150.7,179.1 136.9,182 109.6,178.4 94.2,163.4 82.5,148.4 70.2,116.7 70.2,108.9 71.5,55.9 
		78.6,37.5 	"/>
	<g>
		<g>
			<path d="M130.1,72c0.2,0,0.4,0,0.5,0c0.2,0,0.4,0,0.5,0H130.1z"/>
			<path d="M157.4,103c-5.8-7.2-20.3-25.5-20.3-25.5s-2.8-5-6.3-5.5c-3.5,0.5-6.3,5.5-6.3,5.5S109.8,95.8,104,103
				c-5.8,7.2-3.2,13.7-3.2,13.7l3.2,10.6l26.7-2.7l26.7,2.7l3.2-10.6C160.6,116.7,163.2,110.1,157.4,103z M121.7,99.3
				c-2.3,3.6-5.7,5.6-7.6,4.4s-1.5-5.1,0.8-8.7c2.3-3.6,5.7-5.6,7.6-4.4C124.5,91.8,124.1,95.7,121.7,99.3z M147.1,103.8
				c-1.9,1.2-5.3-0.8-7.6-4.4c-2.3-3.6-2.7-7.5-0.8-8.7c1.9-1.2,5.3,0.8,7.6,4.4C148.6,98.7,148.9,102.6,147.1,103.8z"/>
		</g>
		<path d="M66.5,60l-2.3,1.4l-7.1,4.1l-2.4,2.1L54.3,70c0,0,0.6,1.6,2.4,1.9c1.8,0.3,8.3,0.7,8.3,0.7s2.9-0.7,3-3.4s0.7-9.2,0.7-9.2
			H66.5z"/>
		<path fill="#A8A8A8" d="M66.5,61.5c0,0-11.8,5.3-11.9,7.4C54.5,71,56.2,72,56.7,72s-2.4-0.1-2.9-1.4c-0.5-1.3,0-8.6,0-8.6l8.6-1.2
			L66.5,61.5z"/>
		<path fill="#A8A8A8" d="M75.1,38.5c0,0-7.9-0.2-9.1-0.5c-1.2-0.2-5.4-1.2-5.3,0.5c0.1,1.7,0,5.9,0,5.9l1.2,17.3l7.8,0.8L75.1,38.5
			z"/>
		<path d="M45,46.9c0.1,3.7,0.8,13.1,0.8,13.1s0.4,3.2,2.8,3.2c2.3,0,10.9,0,10.9,0s2.4,0.2,2.4-3.1c0-3.3,0-8,0-8v-5.8
			c0,0,0.2-2.3-3.5-2.6s-9.6,0-9.6,0S44.9,43.2,45,46.9z M51.1,48.6c0,0,0-1.8,2.3-1.8c2.3-0.1,4,0,4,0s2-0.1,2.2,1.8l0.7,8.3
			c0,0,1.1,2.6-1.3,3.1c-2.4,0.5-5.2,0.4-5.2,0.4s-1.4,0.8-2.1-3C51,53.7,51.1,48.6,51.1,48.6z"/>
		<path d="M198.6,60l2.3,1.4l7.1,4.1l2.4,2.1l0.4,2.4c0,0-0.6,1.6-2.4,1.9c-1.8,0.3-8.2,0.7-8.2,0.7s-2.9-0.7-3-3.4
			c0-2.8-0.7-9.2-0.7-9.2H198.6z"/>
		<path fill="#A8A8A8" d="M198.6,61.5c0,0,11.8,5.3,11.9,7.4c0.1,2.2-1.6,3.1-2.1,3.1s2.4-0.1,2.9-1.4c0.5-1.3,0-8.6,0-8.6l-8.6-1.2
			L198.6,61.5z"/>
		<path fill="#A8A8A8" d="M190,38.5c0,0,7.9-0.2,9.1-0.5c1.2-0.2,5.4-1.2,5.3,0.5c-0.1,1.7,0,5.9,0,5.9l-1.2,17.3l-7.8,0.8L190,38.5
			z"/>
		<g>
			<path d="M133,184.4c0,0-0.1,0-0.3,0c-0.2,0-0.3,0-0.3,0H133z"/>
			<path d="M195.7,53.9c-1.2-14-9-23.5-23-28.8c-12.2-4.6-34.5-5-40.1-5h1.2c0,0-0.5,0-1.3,0c-0.8,0-1.3,0-1.3,0h1.2
				c-5.5,0-27.9,0.4-40.1,5c-14,5.2-21.8,14.8-23,28.8s-2,57.8-2,57.8s7.8,35.1,19.5,47.4c11.8,12.3,23.2,22.7,28.5,24
				c4.7,1.2,15.1,1.3,17.1,1.3c1.9,0,12.3-0.1,17.1-1.3c5.2-1.3,16.8-11.7,28.5-24c11.8-12.3,19.5-47.4,19.5-47.4
				S197,67.9,195.7,53.9z M175.7,156c-11,11.2-21.8,20.6-26.7,21.8c-4.5,1.1-14.2,1.2-16,1.2c0.2,0,0.3,0,0.3,0h-0.6
				c0,0,0.1,0,0.3,0c-1.8,0-11.6-0.1-16-1.2c-4.9-1.2-15.7-10.6-26.7-21.8c-11-11.2-18.3-43-18.3-43s0.7-39.7,1.9-52.4
				c1.2-12.7,8.4-21.3,21.6-26.1c11.4-4.2,32.4-4.5,37.5-4.5h-1.2c0,0,0.4,0,1.2,0c0.8,0,1.2,0,1.2,0H133c5.2,0,26.1,0.4,37.5,4.5
				c13.1,4.8,20.4,13.4,21.6,26.1c1.2,12.7,1.9,52.4,1.9,52.4S186.7,144.8,175.7,156z"/>
		</g>
		<path fill="#A8A8A8" d="M130.8,133.3l26.4,8.3c0,0,13.8-3.6,2.7-18.1s-29-13.3-29-13.3h1.5c0,0-17.9-1.2-29,13.3
			s2.7,18.1,2.7,18.1l26.4-8.3"/>
		<polygon fill="#A8A8A8" points="79.6,119.6 74.1,124.6 88.2,155.1 96.1,155.2 		"/>
		
			<ellipse transform="matrix(0.9076 -0.4199 0.4199 0.9076 -49.5654 49.5918)" fill="#A8A8A8" cx="87.9" cy="137.4" rx="6.2" ry="19.6"/>
		
			<ellipse transform="matrix(0.9076 -0.4199 0.4199 0.9076 -51.2113 47.0097)" fill="#7A7A7A" cx="81.2" cy="139.8" rx="6.2" ry="16.8"/>
		<polygon fill="#7A7A7A" points="74.1,124.6 68.9,129.8 83.1,160.3 88.2,155.1 		"/>
		<path fill="#606060" d="M100.2,137.4c0,0,11.4-10.1,32.2-10.1s30.7,10.1,30.7,10.1l0.6,5.6l-60.3,2.2L101,143L100.2,137.4z"/>
		<path d="M133.5,133.3c0,0-20.8-0.2-32.4,9.7c0,0-5.5,37,32.2,34.2h-1.9c37.8,2.8,32.2-34.2,32.2-34.2c-11.7-9.8-32.4-9.7-32.4-9.7
			"/>
		<path fill="#606060" d="M131.2,141.6c7,0,21.6,0.7,22.9,18.9c1.1,15.3-15.7,17-19.2,16.8c-3.5-0.2-27.7,0-26.3-17.3
			S124.4,141.6,131.2,141.6z"/>
		<path fill="#A8A8A8" d="M131.2,150.3c0,0,22-0.2,21.7,19.7c-0.3,19.8-1.2,21.8-19.3,21.8s-24.7,1.3-23.8-20.8
			S131.2,150.3,131.2,150.3z"/>
		<ellipse fill="#7A7A7A" cx="131.2" cy="171" rx="14.1" ry="12"/>
		
			<ellipse transform="matrix(0.9076 -0.4199 0.4199 0.9076 -53.8714 45.3205)" fill="#606060" cx="76" cy="145" rx="6.2" ry="16.8"/>
		<ellipse transform="matrix(0.8628 -0.5055 0.5055 0.8628 -69.4484 54.4467)" cx="65.6" cy="155.2" rx="13.6" ry="43.9"/>
		<polygon points="43.4,117.3 2.9,139.4 47.3,215.2 87.8,193.1 		"/>
		
			<ellipse transform="matrix(0.8628 -0.5055 0.5055 0.8628 -86.1821 37.0084)" fill="#606060" cx="25.1" cy="177.3" rx="13.6" ry="43.9"/>
		<g>
			<polygon fill="#A8A8A8" points="186.2,119.6 191.7,124.6 177.6,155.1 169.7,155.2 			"/>
			
				<ellipse transform="matrix(-0.9076 -0.4199 0.4199 -0.9076 281.7919 336.7749)" fill="#A8A8A8" cx="178" cy="137.4" rx="6.2" ry="19.6"/>
			
				<ellipse transform="matrix(-0.9076 -0.4199 0.4199 -0.9076 293.5211 344.251)" fill="#7A7A7A" cx="184.7" cy="139.8" rx="6.2" ry="16.8"/>
			<polygon fill="#7A7A7A" points="191.7,124.6 196.9,129.8 182.8,160.3 177.6,155.1 			"/>
			
				<ellipse transform="matrix(-0.9076 -0.4199 0.4199 -0.9076 301.1942 356.3346)" fill="#606060" cx="189.8" cy="145" rx="6.2" ry="16.8"/>
			<ellipse transform="matrix(-0.8628 -0.5055 0.5055 -0.8628 294.5265 390.2981)" cx="200.2" cy="155.2" rx="13.6" ry="43.9"/>
			<polygon points="222.4,117.3 262.9,139.4 218.5,215.2 178,193.1 			"/>
			
				<ellipse transform="matrix(-0.8628 -0.5055 0.5055 -0.8628 358.7896 451.9645)" fill="#606060" cx="240.7" cy="177.3" rx="13.6" ry="43.9"/>
		</g>
		<path d="M216.3,43.7c0,0-5.9-0.2-9.6,0s-3.5,2.6-3.5,2.6v5.8c0,0,0,4.7,0,8c0,3.3,2.4,3.1,2.4,3.1s8.6,0,10.9,0
			c2.3,0,2.8-3.2,2.8-3.2s0.7-9.4,0.8-13.1C220.2,43.2,216.3,43.7,216.3,43.7z M213.4,57.5c-0.7,3.8-2.1,3-2.1,3s-2.8,0.1-5.2-0.4
			c-2.4-0.5-1.3-3.1-1.3-3.1l0.7-8.3c0.2-2,2.2-1.8,2.2-1.8s1.7-0.1,4,0c2.3,0.1,2.3,1.8,2.3,1.8S214.1,53.7,213.4,57.5z"/>
		<path d="M130.7,21.4h13.6c0,0-3.4-1.8-3.1-6.6s0.8-6.4,0.8-6.4s-1.1-2.2-2.6-1.1s-8.6,1.2-8.6,1.2s-7.1-0.1-8.6-1.2
			s-2.6,1.1-2.6,1.1s0.5,1.5,0.8,6.4s-3.1,6.6-3.1,6.6H130.7z"/>
		<path d="M136.7,9.3h-11.9c-1.4,0-2.6-1.2-2.6-2.6v0c0-1.4,1.2-2.6,2.6-2.6h11.9c1.4,0,2.6,1.2,2.6,2.6v0
			C139.3,8.2,138.2,9.3,136.7,9.3z"/>
		<path d="M138.8,4.5h-15.6c-1.2,0-2.2-1-2.2-2.2v0c0-1.2,1-2.2,2.2-2.2h15.6c1.2,0,2.2,1,2.2,2.2v0C141.1,3.5,140,4.5,138.8,4.5z"
			/>
	</g>
</g>
</svg>
