<?xml version="1.0" encoding="UTF-8" standalone="no"?>
<svg width="2354px" height="729px" viewBox="0 0 2354 729" version="1.1" xmlns="http://www.w3.org/2000/svg" xmlns:xlink="http://www.w3.org/1999/xlink">
    <!-- Generator: Sketch 39.1 (31720) - http://www.bohemiancoding.com/sketch -->
    <title>movie-studio</title>
    <desc>Created with Sketch.</desc>
    <defs>
        <rect id="path-1" x="0" y="0" width="511" height="582"></rect>
        <rect id="path-3" x="0" y="0" width="511" height="11"></rect>
        <rect id="path-5" x="0" y="0" width="511" height="11"></rect>
        <rect id="path-7" x="0" y="0" width="69" height="81"></rect>
        <rect id="path-9" x="0" y="0" width="69" height="81"></rect>
        <rect id="path-11" x="0" y="0" width="69" height="81"></rect>
        <rect id="path-13" x="0" y="0" width="69" height="81"></rect>
        <rect id="path-15" x="0" y="0" width="69" height="81"></rect>
        <rect id="path-17" x="0" y="0" width="69" height="81"></rect>
        <rect id="path-19" x="0" y="0" width="69" height="81"></rect>
        <rect id="path-21" x="0" y="0" width="69" height="81"></rect>
        <rect id="path-23" x="0" y="0" width="156" height="582"></rect>
        <rect id="path-25" x="0" y="0" width="156" height="582"></rect>
        <rect id="path-27" x="0" y="0" width="84" height="69"></rect>
        <rect id="path-29" x="0" y="0" width="69" height="81"></rect>
        <rect id="path-31" x="0" y="0" width="69" height="81"></rect>
        <rect id="path-33" x="0" y="0" width="69" height="81"></rect>
        <rect id="path-35" x="0" y="0" width="69" height="81"></rect>
        <rect id="path-37" x="0" y="0" width="84" height="69"></rect>
        <rect id="path-39" x="0" y="0" width="245.199377" height="288.297872"></rect>
        <rect id="path-41" x="0.93311" y="0.702128" width="245.199377" height="288.297872"></rect>
        <rect id="path-43" x="0" y="0" width="84" height="69"></rect>
        <rect id="path-45" x="0" y="0" width="69" height="81"></rect>
        <rect id="path-47" x="0" y="0" width="69" height="81"></rect>
        <rect id="path-49" x="0" y="0" width="69" height="81"></rect>
        <rect id="path-51" x="0" y="0" width="69" height="81"></rect>
        <rect id="path-53" x="0" y="0" width="84" height="69"></rect>
        <rect id="path-55" x="0" y="0" width="156" height="335"></rect>
        <rect id="path-57" x="0" y="0" width="156" height="335"></rect>
    </defs>
    <g id="Page-1" stroke="none" stroke-width="1" fill="none" fill-rule="evenodd">
        <g id="movie-studio" transform="translate(0.000000, 5.000000)">
            <g id="main-building">
                <g>
                    <g id="movie-studio">
                        <g id="main-building" transform="translate(720.000000, 0.000000)">
                            <ellipse id="Oval" stroke="#C796B0" stroke-width="10" fill="#616D96" cx="432" cy="174" rx="187" ry="174"></ellipse>
                            <ellipse id="Oval" stroke="#40446A" stroke-width="10" fill="#4C557C" cx="432" cy="162.5" rx="140" ry="118.5"></ellipse>
                            <ellipse id="Oval" stroke="#4A577A" stroke-width="10" fill="#F7E8C4" cx="432" cy="162.5" rx="100" ry="86.5"></ellipse>
                            <g id="Rectangle-Clipped" transform="translate(177.000000, 141.000000)">
                                <mask id="mask-2" fill="white">
                                    <use xlink:href="#path-1"></use>
                                </mask>
                                <g id="path-1"></g>
                                <g id="Rectangle" mask="url(#mask-2)" stroke="#4A577A" stroke-width="20" fill="#616D96">
                                    <rect id="path-1" x="0" y="0" width="511" height="582"></rect>
                                </g>
                            </g>
                            <g id="Rectangle-8-Clipped" transform="translate(177.000000, 411.000000)">
                                <mask id="mask-4" fill="white">
                                    <use xlink:href="#path-3"></use>
                                </mask>
                                <g id="path-3"></g>
                                <g id="Rectangle-8" mask="url(#mask-4)" stroke="#4A577A" stroke-width="10" fill="#4A577A">
                                    <rect id="path-3" x="0" y="0" width="511" height="11"></rect>
                                </g>
                            </g>
                            <g id="Rectangle-8-Clipped" transform="translate(177.000000, 337.000000)">
                                <mask id="mask-6" fill="white">
                                    <use xlink:href="#path-5"></use>
                                </mask>
                                <g id="path-5"></g>
                                <g id="Rectangle-8" mask="url(#mask-6)" stroke="#4A577A" stroke-width="10" fill="#4A577A">
                                    <rect id="path-5" x="0" y="0" width="511" height="11"></rect>
                                </g>
                            </g>
                            <path d="M419.5,484.5 L421,486" id="Line" stroke="#979797"></path>
                            <rect id="Rectangle-4" fill="#F6B9A7" x="177" y="445" width="511" height="272"></rect>
                            <rect id="Rectangle-6" fill="#616D96" x="307" y="472" width="265" height="252"></rect>
                            <g id="MOVIE-STUDIO" transform="translate(348.000000, 360.000000)" fill="#000000" stroke="#979797">
                                <path d="M8.32714844,28.6484375 C10.5732534,15.8716809 11.9567031,6.97691309 12.4775391,1.96386719 L12.4775391,1.67089844 C12.5589197,1.23144312 12.7745751,0.885580688 13.1245117,0.633300781 C13.4744484,0.381020874 13.8243798,0.254882812 14.1743164,0.254882812 C14.5242531,0.254882812 14.7887361,0.319986328 14.9677734,0.450195312 C15.3584004,0.726889404 15.5537109,1.08495874 15.5537109,1.52441406 C15.5537109,5.47951196 15.6595042,11.4039319 15.8710938,19.2978516 C16.0826833,27.1917712 16.1884766,33.1161912 16.1884766,37.0712891 C16.1884766,38.0641326 15.854821,38.8453748 15.1875,39.4150391 C14.8294253,39.6591809 14.6097009,39.7080085 14.5283203,39.5615234 C13.8609993,39.7405608 13.4866541,39.6022158 13.4052734,39.1464844 C13.3727212,38.9511709 13.3564453,38.7070327 13.3564453,38.4140625 C13.3564453,38.4140625 13.3645833,38.1455105 13.3808594,37.6083984 C13.3157549,35.0693232 13.2832031,33.083666 13.2832031,31.6513672 C13.2832031,30.2190684 13.29541,28.2415491 13.3198242,25.71875 C13.3442384,23.1959509 13.3401694,18.4108425 13.3076172,11.3632812 C13.1285798,12.4049531 12.7501656,14.3702655 12.1723633,17.2592773 C11.5945609,20.1482892 11.1998708,22.2478776 10.9882812,23.5581055 C10.7766917,24.8683334 10.6057949,25.9628862 10.4755859,26.8417969 C10.345377,27.7207075 10.2192389,28.5060187 10.097168,29.1977539 C9.97509705,29.8894891 9.82454517,30.5934209 9.64550781,31.3095703 C9.27115698,32.8232498 8.73405298,33.5800781 8.03417969,33.5800781 C6.99250781,33.5800781 6.47167969,32.0257317 6.47167969,28.9169922 C6.27636621,27.3219321 5.73926221,24.1277909 4.86035156,19.3344727 C3.98144092,14.5411544 3.39550928,11.2493579 3.10253906,9.45898438 C3.06998682,12.5514478 3.05371094,14.8707605 3.05371094,16.4169922 L3.46875,37.2177734 C3.46875,37.9339229 3.21647388,38.5605442 2.71191406,39.0976562 C1.88183179,39.0976562 1.32031396,38.8209663 1.02734375,38.2675781 C0.734373535,37.7141899 0.587890625,36.9654995 0.587890625,36.0214844 L0.758789062,27.671875 L0.587890625,8.31152344 C0.587890625,6.14679907 0.612304443,3.99024512 0.661132812,1.84179688 L2.05273438,1.06054688 C2.98047339,1.15820361 4.0139917,4.08786182 5.15332031,9.84960938 C6.0647832,14.4069238 6.80940466,18.6061006 7.38720703,22.4472656 C7.9650094,26.2884307 8.27832007,28.3554673 8.32714844,28.6484375 L8.32714844,28.6484375 Z M27.8706055,3.63623047 C27.3904598,3.17236096 26.9265973,2.94042969 26.4790039,2.94042969 C26.0314105,2.94042969 25.6692722,3.05436084 25.3925781,3.28222656 C25.115884,3.51009229 24.8798838,3.85188574 24.6845703,4.30761719 C24.4892568,4.76334863 24.3102222,5.24755603 24.1474609,5.76025391 C23.9846997,6.27295178 23.8504237,6.89957312 23.7446289,7.64013672 C23.6388341,8.38070032 23.5452478,9.05208032 23.4638672,9.65429688 C23.3824866,10.2565134 23.3173831,10.9726521 23.2685547,11.8027344 C23.2197263,12.6328167 23.1790366,13.3082656 23.1464844,13.8291016 C23.1139321,14.3499375 23.0935873,14.9765588 23.0854492,15.7089844 C23.0773112,16.4414099 23.0732422,16.9296863 23.0732422,17.1738281 L23.0732422,18.1992188 C23.0732422,20.8847791 23.3255183,23.9609202 23.8300781,27.4277344 C24.8391978,34.2474299 26.2633372,37.6572266 28.1025391,37.6572266 C28.753584,37.6572266 29.3069639,37.0346742 29.7626953,35.7895508 C30.2184268,34.5444274 30.5358064,32.986012 30.7148438,31.1142578 C31.0403662,27.9404138 31.203125,25.6414459 31.203125,24.2172852 C31.203125,22.7931244 31.199056,21.771813 31.190918,21.1533203 C31.1827799,20.5348276 31.1583661,19.6355853 31.1176758,18.4555664 C31.0769855,17.2755475 31.007813,16.1687877 30.9101562,15.1352539 C30.8124995,14.1017201 30.6904304,12.9583396 30.5439453,11.7050781 C30.3974602,10.4518167 30.1980807,9.33691895 29.9458008,8.36035156 C29.6935209,7.38378418 29.404624,6.46826599 29.0791016,5.61376953 C28.7535791,4.75927307 28.3507511,4.10009998 27.8706055,3.63623047 L27.8706055,3.63623047 Z M33.4736328,23.9121094 L33.0341797,30.2353516 L33.0341797,30.4550781 C32.8225901,31.3828171 32.7167969,32.3837837 32.7167969,33.4580078 C32.7167969,34.5322319 32.5336932,35.5698192 32.1674805,36.5708008 C31.8012677,37.5717823 31.2397499,38.4588177 30.4829102,39.2319336 C29.7260704,40.0050494 28.9000696,40.3916016 28.0048828,40.3916016 C27.109696,40.3916016 26.2918331,40.0823599 25.5512695,39.4638672 C24.8107059,38.8453745 24.2003605,38.0519254 23.7202148,37.0834961 C23.2400692,36.1150668 22.8128274,34.9594794 22.4384766,33.6166992 C22.0641257,32.2739191 21.7792979,30.9637108 21.5839844,29.6860352 C21.3886709,28.4083595 21.2259121,27.0615305 21.0957031,25.6455078 C20.9166658,23.4807834 20.8271484,21.7026437 20.8271484,20.3110352 C20.8271484,18.9194266 20.8515623,17.7760461 20.9003906,16.8808594 C20.9654951,15.2369709 21.0387366,13.7762108 21.1201172,12.4985352 C21.2014978,11.2208595 21.2503254,10.2402378 21.2666016,9.55664062 C21.2828777,8.87304346 21.2991536,8.29524976 21.3154297,7.82324219 C21.3317058,7.35123462 21.3805334,6.76937195 21.4619141,6.07763672 C21.5432947,5.38590149 21.64095,4.79590088 21.7548828,4.30761719 C21.8688157,3.8193335 22.0437814,3.30664331 22.2797852,2.76953125 C22.5157889,2.23241919 22.7965479,1.79297046 23.1220703,1.45117188 C23.870772,0.686194092 24.7089797,0.303710938 25.6367188,0.303710938 C26.5644578,0.303710938 27.3050103,0.393228271 27.8583984,0.572265625 C28.4117866,0.751302979 28.8797181,0.983234253 29.262207,1.26806641 C29.6446959,1.55289856 29.9946273,1.92724377 30.3120117,2.39111328 C30.6293961,2.85498279 30.8898102,3.30663843 31.0932617,3.74609375 C31.2967133,4.18554907 31.4798169,4.71451514 31.6425781,5.33300781 C31.8541677,6.11426172 32.0657542,7.22915942 32.2773438,8.67773438 C33.0748738,14.3743774 33.4736328,19.4524517 33.4736328,23.9121094 L33.4736328,23.9121094 Z M49.3183594,0.694335938 L50.3681641,0.694335938 C50.1402983,2.8590603 49.5462288,7.58720313 48.5859375,14.8789062 C47.6256462,22.1706094 47.0519215,26.9394419 46.8647461,29.1855469 C46.6775707,31.4316519 46.5799154,32.9615845 46.5717773,33.7753906 C46.5636393,34.5891968 46.5432944,35.3012665 46.5107422,35.9116211 C46.4781899,36.5219757 46.4130864,37.1445281 46.3154297,37.7792969 C46.1038401,39.1464912 45.6074258,39.8300781 44.8261719,39.8300781 C44.3541643,39.8300781 43.9635432,39.6510435 43.6542969,39.2929688 C42.8893191,36.1191248 41.7500076,29.767463 40.2363281,20.237793 C38.7226487,10.7081229 37.6565786,4.56804761 37.0380859,1.81738281 C37.2333994,1.16633789 37.7216758,0.840820312 38.5029297,0.840820312 C38.8772805,0.840820312 39.1336256,0.926268677 39.2719727,1.09716797 C39.4103197,1.26806726 39.5120439,1.40234326 39.5771484,1.5 C39.6422529,1.59765674 39.6992185,1.74007068 39.7480469,1.92724609 C39.7968752,2.11442151 39.833496,2.26090442 39.8579102,2.36669922 C39.8823243,2.47249402 39.9067382,2.63118384 39.9311523,2.84277344 C39.9555665,3.05436304 40.0491528,3.65250159 40.2119141,4.63720703 C40.3746753,5.62191248 40.7408826,8.02667358 41.3105469,11.8515625 C42.51498,20.1523853 43.5566362,26.4430125 44.4355469,30.7236328 C44.6471365,28.8356025 45.0540334,25.8327029 45.65625,21.7148438 C46.8769592,13.1698792 47.4873047,6.4967688 47.4873047,1.6953125 C48.0081406,1.02799146 48.6184861,0.694335938 49.3183594,0.694335938 L49.3183594,0.694335938 Z M59.4257812,36.1923828 L60.4511719,36.1679688 C61.8020901,36.1679688 62.4775391,36.4446587 62.4775391,36.9980469 C62.607748,37.5514351 62.5467135,37.9461251 62.2944336,38.1821289 C62.0421537,38.4181327 61.6881533,38.5361328 61.2324219,38.5361328 L54.9580078,38.5361328 C53.9977166,38.5361328 53.5175781,38.1536497 53.5175781,37.3886719 C53.5175781,36.6236941 54.0221304,36.2412109 55.03125,36.2412109 L56.5693359,36.265625 C56.7320972,36.265625 56.8134766,35.4355552 56.8134766,33.7753906 C56.8134766,32.1152261 56.6588557,28.7176364 56.3496094,23.5825195 C56.040363,18.4474027 55.8857422,14.5940884 55.8857422,12.0224609 C55.8857422,12.0224609 55.9182939,10.3216316 55.9833984,6.91992188 C55.9833984,5.84569775 55.9427087,4.91797266 55.8613281,4.13671875 C55.4218728,4.28320386 55.0312517,4.35644531 54.6894531,4.35644531 C53.9081992,4.35644531 53.5175781,3.95768628 53.5175781,3.16015625 C53.5175781,2.75325317 53.7698542,2.39925281 54.2744141,2.09814453 C54.7789739,1.79703625 55.4055952,1.58138086 56.1542969,1.45117188 C57.5540435,1.20703003 58.5916307,1.08496094 59.2670898,1.08496094 C59.942549,1.08496094 60.4267563,1.21923694 60.7197266,1.48779297 C61.0126968,1.756349 61.1591797,2.07372864 61.1591797,2.43994141 C61.1591797,2.80615417 61.0493175,3.12353381 60.8295898,3.39208984 C60.6098622,3.66064587 60.3291033,3.79492188 59.9873047,3.79492188 L59.1083984,3.77050781 C58.782876,3.77050781 58.5428068,3.8396803 58.3881836,3.97802734 C58.2335604,4.11637439 58.15625,4.38899536 58.15625,4.79589844 C58.15625,8.05112305 58.3678364,12.9257488 58.7910156,19.4199219 C59.2141948,25.914095 59.4257812,30.7887207 59.4257812,34.0439453 L59.4257812,36.1923828 Z M71.6328125,20.6894531 L70.3876953,20.640625 C69.9970684,20.640625 69.7041025,20.7626941 69.5087891,21.0068359 L69.5087891,36.4365234 C71.217782,36.3388667 72.0966794,36.2900391 72.1455078,36.2900391 C74.0009858,36.2900391 74.9287109,36.7294878 74.9287109,37.6083984 L74.9287109,37.7792969 C74.7008452,38.2350283 74.3142931,38.5849597 73.769043,38.8291016 C73.2237928,39.0732434 72.7477234,39.2115884 72.3408203,39.2441406 C71.9339172,39.2766929 71.3968132,39.2929688 70.7294922,39.2929688 L69.1669922,39.2929688 C67.8974546,39.2929688 67.1162124,39.0488306 66.8232422,38.5605469 C66.6930332,38.3326812 66.6279297,38.0315774 66.6279297,37.6572266 L66.6279297,1.57324219 L70.9492188,1.13378906 C71.4537786,1.13378906 71.9623998,1.28434094 72.4750977,1.58544922 C72.9877955,1.8865575 73.2441406,2.28124756 73.2441406,2.76953125 C73.2441406,3.76237476 72.4873123,4.25878906 70.9736328,4.25878906 L69.5332031,4.20996094 C69.2890613,4.20996094 69.1100266,4.21809888 68.9960938,4.234375 L69.3867188,12.4863281 C69.3867188,13.1536492 69.3460291,14.1261329 69.2646484,15.4038086 C69.1832678,16.6814843 69.1425781,17.6132783 69.1425781,18.1992188 C69.3216155,18.1666665 69.5657537,18.1097009 69.875,18.0283203 C70.5585972,17.849283 71.0916322,17.7597656 71.4741211,17.7597656 C71.85661,17.7597656 72.1984034,17.8981106 72.4995117,18.1748047 C72.80062,18.4514988 72.9511719,18.7851543 72.9511719,19.1757812 C72.9511719,19.5664082 72.8291028,19.9163396 72.5849609,20.2255859 C72.3408191,20.5348323 72.0234395,20.6894531 71.6328125,20.6894531 L71.6328125,20.6894531 Z M84.9140625,38.4140625 C84.9140625,37.5188757 85.2884077,37.0712891 86.0371094,37.0712891 C86.4114602,37.0712891 86.9038055,37.1974271 87.5141602,37.449707 C88.1245148,37.7019869 88.6534808,37.828125 89.1010742,37.828125 C89.5486676,37.828125 90.032875,37.5432971 90.5537109,36.9736328 C91.0745469,36.4039685 91.4814438,35.6959678 91.7744141,34.8496094 C92.3766306,33.1406165 92.6777344,31.58627 92.6777344,30.1865234 C92.6777344,28.7867769 92.4335962,27.289396 91.9453125,25.6943359 C91.4570288,24.0992759 90.8588903,22.601895 90.1508789,21.2021484 C89.4428676,19.8024019 88.7389358,18.4026763 88.0390625,17.0029297 C86.3626218,13.6500483 85.5244141,10.606459 85.5244141,7.87207031 C85.5244141,5.26789062 86.3463459,3.22526782 87.9902344,1.74414062 C88.869145,0.962886719 89.9026633,0.572265625 91.0908203,0.572265625 C91.6930369,0.572265625 92.2789685,0.739093384 92.8486328,1.07275391 C93.4182971,1.40641443 93.8170562,1.84179419 94.0449219,2.37890625 L94.0449219,3.453125 C92.6451753,3.453125 91.7093123,3.29036621 91.2373047,2.96484375 C90.618812,3.02994824 90.081708,3.32291406 89.6259766,3.84375 C88.7958943,4.82031738 88.3808594,5.947422 88.3808594,7.22509766 C88.3808594,8.50277332 88.568032,9.82111951 88.9423828,11.1801758 C89.3167336,12.5392321 89.7643203,13.8168885 90.2851562,15.0131836 C90.8059922,16.2094786 91.3308893,17.3203074 91.8598633,18.3457031 C92.3888373,19.3710989 92.8404929,20.2093066 93.2148438,20.8603516 C93.5891946,21.5113965 93.7763672,21.8531899 93.7763672,21.8857422 L93.7763672,22.2763672 C93.8903,22.6995464 94.0856106,23.3668574 94.3623047,24.2783203 C94.6389988,25.1897832 94.8587231,25.9140598 95.0214844,26.4511719 C95.4283875,27.9160229 95.6318359,29.2425071 95.6318359,30.4306641 C95.6318359,31.618821 95.489422,32.7499946 95.2045898,33.8242188 C94.9197577,34.8984429 94.5128607,35.9116163 93.9838867,36.8637695 C93.4549127,37.8159227 92.738774,38.5930959 91.8354492,39.1953125 C90.9321244,39.7975291 90.0898477,40.0986328 89.3085938,40.0986328 C88.5273398,40.0986328 87.8681667,40.0579431 87.3310547,39.9765625 C86.7939426,39.8951819 86.2568386,39.7161472 85.7197266,39.4394531 C85.1826145,39.162759 84.9140625,38.8209656 84.9140625,38.4140625 L84.9140625,38.4140625 Z M106.007812,9.97167969 L105.910156,16.4169922 C105.910156,19.4606272 106.17057,22.0159402 106.691406,24.0830078 L106.691406,24.1074219 C106.463541,25.1653699 106.349609,26.4348884 106.349609,27.9160156 L106.764648,36.9003906 C106.764648,38.5280029 106.28451,39.3417969 105.324219,39.3417969 C104.770831,39.3417969 104.363934,39.0813828 104.103516,38.5605469 C103.843098,38.0397109 103.712891,37.4619172 103.712891,36.8271484 L104.103516,28.84375 C104.103516,27.118481 103.989584,24.5224783 103.761719,21.0556641 C103.533853,17.5888499 103.419922,14.9928472 103.419922,13.2675781 L103.493164,8.89746094 C103.493164,6.50487085 103.338543,4.95052441 103.029297,4.234375 L100.319336,4.50292969 C99.8961567,4.50292969 99.5177426,4.37679163 99.184082,4.12451172 C98.8504215,3.87223181 98.6835938,3.54671423 98.6835938,3.14794922 C98.6835938,2.7491842 99.0823528,2.40739075 99.8798828,2.12255859 C100.677413,1.83772644 101.653966,1.63020898 102.80957,1.5 C104.811533,1.27213428 106.496087,1.15820312 107.863281,1.15820312 C108.270184,1.15820312 108.640461,1.29247913 108.974121,1.56103516 C109.307782,1.82959119 109.474609,2.16731567 109.474609,2.57421875 C109.474609,2.98112183 109.328126,3.30257043 109.035156,3.53857422 C108.742186,3.774578 108.384117,3.89257812 107.960938,3.89257812 L106.178711,3.79492188 C105.950845,3.79492188 105.779948,3.80305981 105.666016,3.81933594 C105.893881,5.73991846 106.007812,7.7906792 106.007812,9.97167969 L106.007812,9.97167969 Z M126.540039,24.6933594 L126.686523,27.7695312 L126.686523,28.5263672 L126.564453,29.0634766 L126.588867,31.96875 C126.588867,34.8984521 126.173832,36.9736267 125.34375,38.1943359 C124.562496,39.3336646 123.349943,39.9033203 121.706055,39.9033203 C119.704092,39.9033203 118.182297,39.1790437 117.140625,37.7304688 C116.229162,36.4934834 115.561851,34.8333437 115.138672,32.75 C114.60156,30.2434771 114.170249,28.4694062 113.844727,27.4277344 C113.812174,27.3463538 113.629071,23.6191775 113.29541,16.2460938 C112.96175,8.87301001 112.794922,4.77962646 112.794922,3.96582031 C112.55078,3.68912622 112.428711,3.34733276 112.428711,2.94042969 C112.428711,2.53352661 112.571125,2.17545728 112.855957,1.86621094 C113.140789,1.5569646 113.478514,1.40234375 113.869141,1.40234375 C115.073574,1.40234375 115.675781,2.59048291 115.675781,4.96679688 L116.139648,22.3496094 C116.334962,22.7890647 116.50179,23.6761001 116.640137,25.0107422 C116.778484,26.3453843 116.847656,27.3829716 116.847656,28.1235352 C116.847656,28.8640988 116.965656,29.775548 117.20166,30.8579102 C117.437664,31.9402723 117.759113,33.0348252 118.166016,34.1416016 C118.572919,35.2483779 119.12223,36.1923789 119.813965,36.9736328 C120.5057,37.7548867 121.242184,38.1455078 122.023438,38.1455078 C123.292975,38.1455078 123.960286,36.9980583 124.025391,34.703125 C124.041667,34.4101548 124.049805,34.0602234 124.049805,33.6533203 L124.049805,11.2167969 C124.049805,10.2727817 123.87077,8.84457336 123.512695,6.93212891 C123.154621,5.01968445 122.975586,3.72575208 122.975586,3.05029297 C122.975586,2.37483386 123.142414,1.91097131 123.476074,1.65869141 C123.809735,1.4064115 124.188149,1.28027344 124.611328,1.28027344 L126.125,2.45214844 L126.125,3.28222656 L125.685547,6.33398438 C125.685547,8.27084302 125.807616,11.1069149 126.051758,14.8422852 C126.2959,18.5776554 126.426107,21.3486238 126.442383,23.1552734 L126.442383,23.2285156 L126.540039,24.6933594 Z M131.666992,15.0253906 L131.813477,9.55664062 C131.813477,8.01040894 131.740235,6.8995802 131.59375,6.22412109 C131.447265,5.54866199 131.264161,4.90576477 131.044434,4.29541016 C130.824706,3.68505554 130.714844,3.22119299 130.714844,2.90380859 C130.714844,2.58642419 130.779947,2.32194116 130.910156,2.11035156 C131.040365,1.89876196 131.235676,1.7319342 131.496094,1.60986328 C131.756512,1.48779236 132.008788,1.39013708 132.25293,1.31689453 C132.497072,1.24365198 132.806313,1.19075537 133.180664,1.15820312 C133.799157,1.12565088 134.246743,1.109375 134.523438,1.109375 L135.011719,1.109375 C136.378913,1.109375 137.835604,1.84178955 139.381836,3.30664062 C141.25359,5.08073804 142.392902,6.95246411 142.799805,8.921875 C143.043947,10.0774797 143.206705,11.3632742 143.288086,12.7792969 C143.369467,14.1953196 143.426432,15.1393206 143.458984,15.6113281 C143.556641,16.6855522 143.686848,17.4179668 143.849609,17.8085938 L143.849609,20.1279297 C143.670572,20.437176 143.581055,20.9417283 143.581055,21.6416016 C143.581055,24.1644006 143.003261,26.9231621 141.847656,29.9179688 C140.692052,32.9127754 139.259774,35.1913984 137.550781,36.7539062 C136.281244,37.909511 135.422691,38.5930979 134.975098,38.8046875 C134.527504,39.0162771 134.088056,39.1220703 133.656738,39.1220703 C133.225421,39.1220703 132.75749,38.9796564 132.25293,38.6948242 C131.74837,38.4099921 131.496094,37.9827502 131.496094,37.4130859 C132.228519,36.6481082 132.594727,34.6868647 132.594727,31.5292969 C132.594727,29.6738188 132.440106,26.9150574 132.130859,23.2529297 C131.821613,19.590802 131.666992,16.8483164 131.666992,15.0253906 L131.666992,15.0253906 Z M134.987305,31.4316406 L134.987305,36.2167969 C137.575208,34.3938711 139.389969,31.0003503 140.431641,26.0361328 C140.952477,23.4970576 141.212891,20.8685032 141.212891,18.1503906 C141.212891,8.79161987 138.901716,4.11230469 134.279297,4.11230469 L134.279297,4.16113281 C134.279297,7.25359619 134.393228,11.8311871 134.621094,17.894043 C134.848959,23.9568988 134.971029,28.4693862 134.987305,31.4316406 L134.987305,31.4316406 Z M153.444336,36.1923828 L154.469727,36.1679688 C155.820645,36.1679688 156.496094,36.4446587 156.496094,36.9980469 C156.626303,37.5514351 156.565268,37.9461251 156.312988,38.1821289 C156.060708,38.4181327 155.706708,38.5361328 155.250977,38.5361328 L148.976562,38.5361328 C148.016271,38.5361328 147.536133,38.1536497 147.536133,37.3886719 C147.536133,36.6236941 148.040685,36.2412109 149.049805,36.2412109 L150.587891,36.265625 C150.750652,36.265625 150.832031,35.4355552 150.832031,33.7753906 C150.832031,32.1152261 150.67741,28.7176364 150.368164,23.5825195 C150.058918,18.4474027 149.904297,14.5940884 149.904297,12.0224609 C149.904297,12.0224609 149.936849,10.3216316 150.001953,6.91992188 C150.001953,5.84569775 149.961263,4.91797266 149.879883,4.13671875 C149.440427,4.28320386 149.049806,4.35644531 148.708008,4.35644531 C147.926754,4.35644531 147.536133,3.95768628 147.536133,3.16015625 C147.536133,2.75325317 147.788409,2.39925281 148.292969,2.09814453 C148.797529,1.79703625 149.42415,1.58138086 150.172852,1.45117188 C151.572598,1.20703003 152.610185,1.08496094 153.285645,1.08496094 C153.961104,1.08496094 154.445311,1.21923694 154.738281,1.48779297 C155.031251,1.756349 155.177734,2.07372864 155.177734,2.43994141 C155.177734,2.80615417 155.067872,3.12353381 154.848145,3.39208984 C154.628417,3.66064587 154.347658,3.79492188 154.005859,3.79492188 L153.126953,3.77050781 C152.801431,3.77050781 152.561361,3.8396803 152.406738,3.97802734 C152.252115,4.11637439 152.174805,4.38899536 152.174805,4.79589844 C152.174805,8.05112305 152.386391,12.9257488 152.80957,19.4199219 C153.23275,25.914095 153.444336,30.7887207 153.444336,34.0439453 L153.444336,36.1923828 Z M166.981934,3.63623047 C166.501788,3.17236096 166.037925,2.94042969 165.590332,2.94042969 C165.142739,2.94042969 164.7806,3.05436084 164.503906,3.28222656 C164.227212,3.51009229 163.991212,3.85188574 163.795898,4.30761719 C163.600585,4.76334863 163.42155,5.24755603 163.258789,5.76025391 C163.096028,6.27295178 162.961752,6.89957312 162.855957,7.64013672 C162.750162,8.38070032 162.656576,9.05208032 162.575195,9.65429688 C162.493815,10.2565134 162.428711,10.9726521 162.379883,11.8027344 C162.331054,12.6328167 162.290365,13.3082656 162.257812,13.8291016 C162.22526,14.3499375 162.204915,14.9765588 162.196777,15.7089844 C162.188639,16.4414099 162.18457,16.9296863 162.18457,17.1738281 L162.18457,18.1992188 C162.18457,20.8847791 162.436846,23.9609202 162.941406,27.4277344 C163.950526,34.2474299 165.374665,37.6572266 167.213867,37.6572266 C167.864912,37.6572266 168.418292,37.0346742 168.874023,35.7895508 C169.329755,34.5444274 169.647135,32.986012 169.826172,31.1142578 C170.151694,27.9404138 170.314453,25.6414459 170.314453,24.2172852 C170.314453,22.7931244 170.310384,21.771813 170.302246,21.1533203 C170.294108,20.5348276 170.269694,19.6355853 170.229004,18.4555664 C170.188314,17.2755475 170.119141,16.1687877 170.021484,15.1352539 C169.923828,14.1017201 169.801759,12.9583396 169.655273,11.7050781 C169.508788,10.4518167 169.309409,9.33691895 169.057129,8.36035156 C168.804849,7.38378418 168.515952,6.46826599 168.19043,5.61376953 C167.864907,4.75927307 167.462079,4.10009998 166.981934,3.63623047 L166.981934,3.63623047 Z M172.584961,23.9121094 L172.145508,30.2353516 L172.145508,30.4550781 C171.933918,31.3828171 171.828125,32.3837837 171.828125,33.4580078 C171.828125,34.5322319 171.645021,35.5698192 171.278809,36.5708008 C170.912596,37.5717823 170.351078,38.4588177 169.594238,39.2319336 C168.837399,40.0050494 168.011398,40.3916016 167.116211,40.3916016 C166.221024,40.3916016 165.403161,40.0823599 164.662598,39.4638672 C163.922034,38.8453745 163.311689,38.0519254 162.831543,37.0834961 C162.351397,36.1150668 161.924156,34.9594794 161.549805,33.6166992 C161.175454,32.2739191 160.890626,30.9637108 160.695312,29.6860352 C160.499999,28.4083595 160.33724,27.0615305 160.207031,25.6455078 C160.027994,23.4807834 159.938477,21.7026437 159.938477,20.3110352 C159.938477,18.9194266 159.96289,17.7760461 160.011719,16.8808594 C160.076823,15.2369709 160.150065,13.7762108 160.231445,12.4985352 C160.312826,11.2208595 160.361654,10.2402378 160.37793,9.55664062 C160.394206,8.87304346 160.410482,8.29524976 160.426758,7.82324219 C160.443034,7.35123462 160.491862,6.76937195 160.573242,6.07763672 C160.654623,5.38590149 160.752278,4.79590088 160.866211,4.30761719 C160.980144,3.8193335 161.155109,3.30664331 161.391113,2.76953125 C161.627117,2.23241919 161.907876,1.79297046 162.233398,1.45117188 C162.9821,0.686194092 163.820308,0.303710938 164.748047,0.303710938 C165.675786,0.303710938 166.416338,0.393228271 166.969727,0.572265625 C167.523115,0.751302979 167.991046,0.983234253 168.373535,1.26806641 C168.756024,1.55289856 169.105955,1.92724377 169.42334,2.39111328 C169.740724,2.85498279 170.001138,3.30663843 170.20459,3.74609375 C170.408041,4.18554907 170.591145,4.71451514 170.753906,5.33300781 C170.965496,6.11426172 171.177082,7.22915942 171.388672,8.67773438 C172.186202,14.3743774 172.584961,19.4524517 172.584961,23.9121094 L172.584961,23.9121094 Z"></path>
                            </g>
                            <rect id="Rectangle-3" fill="#DD9490" x="177" y="424" width="511" height="27"></rect>
                            <rect id="Rectangle-5" fill="#F7E8C4" x="207" y="472" width="85" height="148"></rect>
                            <g id="Rectangle-2-Clipped" transform="translate(531.000000, 250.000000)">
                                <mask id="mask-8" fill="white">
                                    <use xlink:href="#path-7"></use>
                                </mask>
                                <g id="path-7"></g>
                                <g id="Rectangle-2" mask="url(#mask-8)" stroke="#4A577A" stroke-width="10" fill="#FAB6AB">
                                    <rect id="path-7" x="0" y="0" width="69" height="81"></rect>
                                </g>
                            </g>
                            <g id="Rectangle-2-Clipped" transform="translate(256.000000, 158.000000)">
                                <mask id="mask-10" fill="white">
                                    <use xlink:href="#path-9"></use>
                                </mask>
                                <g id="path-9"></g>
                                <g id="Rectangle-2" mask="url(#mask-10)" stroke="#4A577A" stroke-width="10" fill="#FAB6AB">
                                    <rect id="path-9" x="0" y="0" width="69" height="81"></rect>
                                </g>
                            </g>
                            <g id="Rectangle-2-Clipped" transform="translate(443.000000, 159.000000)">
                                <mask id="mask-12" fill="white">
                                    <use xlink:href="#path-11"></use>
                                </mask>
                                <g id="path-11"></g>
                                <g id="Rectangle-2" mask="url(#mask-12)" stroke="#4A577A" stroke-width="10" fill="#FAB6AB">
                                    <rect id="path-11" x="0" y="0" width="69" height="81"></rect>
                                </g>
                            </g>
                            <g id="Rectangle-2-Clipped" transform="translate(443.000000, 250.000000)">
                                <mask id="mask-14" fill="white">
                                    <use xlink:href="#path-13"></use>
                                </mask>
                                <g id="path-13"></g>
                                <g id="Rectangle-2" mask="url(#mask-14)" stroke="#4A577A" stroke-width="10" fill="#FAB6AB">
                                    <rect id="path-13" x="0" y="0" width="69" height="81"></rect>
                                </g>
                            </g>
                            <g id="Rectangle-2-Clipped" transform="translate(256.000000, 250.000000)">
                                <mask id="mask-16" fill="white">
                                    <use xlink:href="#path-15"></use>
                                </mask>
                                <g id="path-15"></g>
                                <g id="Rectangle-2" mask="url(#mask-16)" stroke="#4A577A" stroke-width="10" fill="#FAB6AB">
                                    <rect id="path-15" x="0" y="0" width="69" height="81"></rect>
                                </g>
                            </g>
                            <g id="Rectangle-2-Clipped" transform="translate(344.000000, 250.000000)">
                                <mask id="mask-18" fill="white">
                                    <use xlink:href="#path-17"></use>
                                </mask>
                                <g id="path-17"></g>
                                <g id="Rectangle-2" mask="url(#mask-18)" stroke="#4A577A" stroke-width="10" fill="#FAB6AB">
                                    <rect id="path-17" x="0" y="0" width="69" height="81"></rect>
                                </g>
                            </g>
                            <g id="Rectangle-2-Clipped" transform="translate(531.000000, 159.000000)">
                                <mask id="mask-20" fill="white">
                                    <use xlink:href="#path-19"></use>
                                </mask>
                                <g id="path-19"></g>
                                <g id="Rectangle-2" mask="url(#mask-20)" stroke="#4A577A" stroke-width="10" fill="#FAB6AB">
                                    <rect id="path-19" x="0" y="0" width="69" height="81"></rect>
                                </g>
                            </g>
                            <g id="Rectangle-2-Clipped" transform="translate(344.000000, 159.000000)">
                                <mask id="mask-22" fill="white">
                                    <use xlink:href="#path-21"></use>
                                </mask>
                                <g id="path-21"></g>
                                <g id="Rectangle-2" mask="url(#mask-22)" stroke="#4A577A" stroke-width="10" fill="#FAB6AB">
                                    <rect id="path-21" x="0" y="0" width="69" height="81"></rect>
                                </g>
                            </g>
                            <rect id="Rectangle-5" fill="#F7E8C4" x="326" y="496" width="105" height="123"></rect>
                            <rect id="Rectangle-5" fill="#F7E8C4" x="445" y="497" width="105" height="123"></rect>
                            <rect id="Rectangle-5" fill="#F7E8C4" x="581" y="471" width="79" height="148"></rect>
                            <rect id="Rectangle-7" fill="#616D96" x="326" y="575" width="105" height="11"></rect>
                            <rect id="Rectangle-7" fill="#616D96" x="432" y="575" width="118" height="11"></rect>
                            <rect id="Rectangle-9" fill="#4A577A" x="427" y="76" width="15" height="69"></rect>
                            <g id="Rectangle-10-Clipped" transform="translate(35.000000, 141.000000)">
                                <mask id="mask-24" fill="white">
                                    <use xlink:href="#path-23"></use>
                                </mask>
                                <g id="path-23"></g>
                                <g id="Rectangle-10" mask="url(#mask-24)" stroke="#4A577A" stroke-width="20" fill="#616D96">
                                    <rect id="path-23" x="0" y="0" width="156" height="582"></rect>
                                </g>
                            </g>
                            <ellipse id="Oval-2" fill="#F7E8C4" cx="112.5" cy="206.5" rx="39.5" ry="34.5"></ellipse>
                            <rect id="Rectangle-5" fill="#F7E8C4" x="73" y="207" width="79" height="123"></rect>
                            <polygon id="Rectangle-5" fill="#E68D9D" points="73 472 152 472 152 645 99.5424952 645 73 645"></polygon>
                            <rect id="Rectangle-5" fill="#F7E8C4" x="73" y="343" width="79" height="116"></rect>
                            <g id="Rectangle-10-Clipped" transform="translate(679.000000, 141.000000)">
                                <mask id="mask-26" fill="white">
                                    <use xlink:href="#path-25"></use>
                                </mask>
                                <g id="path-25"></g>
                                <g id="Rectangle-10" mask="url(#mask-26)" stroke="#4A577A" stroke-width="20" fill="#616D96">
                                    <rect id="path-25" x="0" y="0" width="156" height="582"></rect>
                                </g>
                            </g>
                            <ellipse id="Oval-2" fill="#F7E8C4" cx="756.5" cy="206.5" rx="39.5" ry="34.5"></ellipse>
                            <rect id="Rectangle-5" fill="#F7E8C4" x="717" y="207" width="79" height="123"></rect>
                            <polygon id="Rectangle-5" fill="#E68D9D" points="717 472 796 472 796 645 743.542495 645 717 645"></polygon>
                            <rect id="Rectangle-5" fill="#F7E8C4" x="717" y="343" width="79" height="116"></rect>
                            <rect id="Rectangle-11" fill="#616D96" x="571" y="78" width="276" height="63"></rect>
                            <rect id="Rectangle-12" fill="#C398B3" x="581" y="67" width="276" height="11"></rect>
                            <rect id="Rectangle-11" fill="#616D96" x="13" y="79" width="265" height="63"></rect>
                            <rect id="Rectangle-12" fill="#C398B3" x="0" y="72" width="280" height="11"></rect>
                        </g>
                        <g id="side-building" transform="translate(488.000000, 225.000000)">
                            <rect id="Rectangle-4" fill="#4E5975" x="6" y="0" width="273.15625" height="39"></rect>
                            <rect id="Rectangle" fill="#636A98" x="16" y="39" width="253" height="459"></rect>
                            <g id="round-window" transform="translate(168.000000, 49.000000)">
                                <ellipse id="Oval-2" stroke="#4A577A" stroke-width="5" fill="#F7E8C4" cx="41.5" cy="34.5" rx="39.5" ry="34.5"></ellipse>
                                <g id="Rectangle-5-Clipped" transform="translate(0.000000, 30.000000)">
                                    <mask id="mask-28" fill="white">
                                        <use xlink:href="#path-27"></use>
                                    </mask>
                                    <g id="path-27"></g>
                                    <g id="Rectangle-5" mask="url(#mask-28)" stroke="#4A577A" stroke-width="10" fill="#F7E8C4">
                                        <rect id="path-27" x="0" y="0" width="84" height="69"></rect>
                                    </g>
                                </g>
                                <ellipse id="Oval-2" fill="#F7E8C4" cx="27.5" cy="32.5" rx="22.5" ry="19.5"></ellipse>
                                <ellipse id="Oval-2" fill="#F7E8C4" cx="56.5" cy="34.5" rx="22.5" ry="19.5"></ellipse>
                            </g>
                            <rect id="Rectangle-4" fill="#4E5975" x="6" y="179" width="273.15625" height="39"></rect>
                            <g id="Rectangle-2-Clipped" transform="translate(38.000000, 322.000000)">
                                <mask id="mask-30" fill="white">
                                    <use xlink:href="#path-29"></use>
                                </mask>
                                <g id="path-29"></g>
                                <g id="Rectangle-2" mask="url(#mask-30)" stroke="#4A577A" stroke-width="10" fill="#EB8B93">
                                    <rect id="path-29" x="0" y="0" width="69" height="81"></rect>
                                </g>
                            </g>
                            <g id="Rectangle-2-Clipped" transform="translate(38.000000, 241.000000)">
                                <mask id="mask-32" fill="white">
                                    <use xlink:href="#path-31"></use>
                                </mask>
                                <g id="path-31"></g>
                                <g id="Rectangle-2" mask="url(#mask-32)" stroke="#4A577A" stroke-width="10" fill="#FAB6AB">
                                    <rect id="path-31" x="0" y="0" width="69" height="81"></rect>
                                </g>
                            </g>
                            <g id="Rectangle-2-Clipped" transform="translate(168.000000, 241.000000)">
                                <mask id="mask-34" fill="white">
                                    <use xlink:href="#path-33"></use>
                                </mask>
                                <g id="path-33"></g>
                                <g id="Rectangle-2" mask="url(#mask-34)" stroke="#4A577A" stroke-width="10" fill="#FAB6AB">
                                    <rect id="path-33" x="0" y="0" width="69" height="81"></rect>
                                </g>
                            </g>
                            <g id="Rectangle-2-Clipped" transform="translate(168.000000, 322.000000)">
                                <mask id="mask-36" fill="white">
                                    <use xlink:href="#path-35"></use>
                                </mask>
                                <g id="path-35"></g>
                                <g id="Rectangle-2" mask="url(#mask-36)" stroke="#4A577A" stroke-width="10" fill="#EB8B93">
                                    <rect id="path-35" x="0" y="0" width="69" height="81"></rect>
                                </g>
                            </g>
                            <g id="round-window" transform="translate(38.000000, 49.000000)">
                                <ellipse id="Oval-2" stroke="#4A577A" stroke-width="5" fill="#FAB6AB" cx="41.5" cy="34.5" rx="39.5" ry="34.5"></ellipse>
                                <g id="Rectangle-5-Clipped" transform="translate(0.000000, 30.000000)">
                                    <mask id="mask-38" fill="white">
                                        <use xlink:href="#path-37"></use>
                                    </mask>
                                    <g id="path-37"></g>
                                    <g id="Rectangle-5" mask="url(#mask-38)" stroke="#4A577A" stroke-width="10" fill="#FAB6AB">
                                        <rect id="path-37" x="0" y="0" width="84" height="69"></rect>
                                    </g>
                                </g>
                                <ellipse id="Oval-2" fill="#FAB6AB" cx="27.5" cy="32.5" rx="22.5" ry="19.5"></ellipse>
                                <ellipse id="Oval-2" fill="#FAB6AB" cx="56.5" cy="34.5" rx="22.5" ry="19.5"></ellipse>
                            </g>
                            <rect id="Rectangle-6" fill="#B47F98" x="0" y="0" width="284.15625" height="11"></rect>
                            <rect id="Rectangle-6" fill="#B47F98" x="0" y="173" width="284.15625" height="11"></rect>
                        </g>
                        <path d="M1803,423 L1864.85283,423 L1936.49572,423 L2320,423 L2320,723 L1803,723 L1803,423 L1803,423 Z" id="Rectangle-2" fill="#4A577A"></path>
                        <g id="Rectangle-Clipped" transform="translate(1827.000000, 435.000000)">
                            <mask id="mask-40" fill="white">
                                <use xlink:href="#path-39"></use>
                            </mask>
                            <g id="path-39"></g>
                            <g id="Rectangle" mask="url(#mask-40)" stroke="#626B9D" stroke-width="40" fill="#957290">
                                <rect id="path-39" x="0" y="0" width="245.199377" height="288.297872"></rect>
                            </g>
                        </g>
                        <g id="Rectangle-Clipped" transform="translate(2060.000000, 434.000000)">
                            <mask id="mask-42" fill="white">
                                <use xlink:href="#path-41"></use>
                            </mask>
                            <g id="path-41"></g>
                            <g id="Rectangle" mask="url(#mask-42)" stroke="#626B9D" stroke-width="40" fill="#957290">
                                <rect id="path-41" x="0.93311" y="0.702128" width="245.199377" height="288.297872"></rect>
                            </g>
                        </g>
                        <g id="side-building" transform="translate(1537.000000, 225.000000)">
                            <rect id="Rectangle-4" fill="#4E5975" x="6" y="0" width="273.15625" height="39"></rect>
                            <rect id="Rectangle" fill="#636A98" x="16" y="39" width="253" height="459"></rect>
                            <g id="round-window" transform="translate(168.000000, 49.000000)">
                                <ellipse id="Oval-2" stroke="#4A577A" stroke-width="5" fill="#F7E8C4" cx="41.5" cy="34.5" rx="39.5" ry="34.5"></ellipse>
                                <g id="Rectangle-5-Clipped" transform="translate(0.000000, 30.000000)">
                                    <mask id="mask-44" fill="white">
                                        <use xlink:href="#path-43"></use>
                                    </mask>
                                    <g id="path-43"></g>
                                    <g id="Rectangle-5" mask="url(#mask-44)" stroke="#4A577A" stroke-width="10" fill="#F7E8C4">
                                        <rect id="path-43" x="0" y="0" width="84" height="69"></rect>
                                    </g>
                                </g>
                                <ellipse id="Oval-2" fill="#F7E8C4" cx="27.5" cy="32.5" rx="22.5" ry="19.5"></ellipse>
                                <ellipse id="Oval-2" fill="#F7E8C4" cx="56.5" cy="34.5" rx="22.5" ry="19.5"></ellipse>
                            </g>
                            <rect id="Rectangle-4" fill="#4E5975" x="6" y="179" width="273.15625" height="39"></rect>
                            <g id="Rectangle-2-Clipped" transform="translate(38.000000, 322.000000)">
                                <mask id="mask-46" fill="white">
                                    <use xlink:href="#path-45"></use>
                                </mask>
                                <g id="path-45"></g>
                                <g id="Rectangle-2" mask="url(#mask-46)" stroke="#4A577A" stroke-width="10" fill="#EB8B93">
                                    <rect id="path-45" x="0" y="0" width="69" height="81"></rect>
                                </g>
                            </g>
                            <g id="Rectangle-2-Clipped" transform="translate(38.000000, 241.000000)">
                                <mask id="mask-48" fill="white">
                                    <use xlink:href="#path-47"></use>
                                </mask>
                                <g id="path-47"></g>
                                <g id="Rectangle-2" mask="url(#mask-48)" stroke="#4A577A" stroke-width="10" fill="#FAB6AB">
                                    <rect id="path-47" x="0" y="0" width="69" height="81"></rect>
                                </g>
                            </g>
                            <g id="Rectangle-2-Clipped" transform="translate(168.000000, 241.000000)">
                                <mask id="mask-50" fill="white">
                                    <use xlink:href="#path-49"></use>
                                </mask>
                                <g id="path-49"></g>
                                <g id="Rectangle-2" mask="url(#mask-50)" stroke="#4A577A" stroke-width="10" fill="#FAB6AB">
                                    <rect id="path-49" x="0" y="0" width="69" height="81"></rect>
                                </g>
                            </g>
                            <g id="Rectangle-2-Clipped" transform="translate(168.000000, 322.000000)">
                                <mask id="mask-52" fill="white">
                                    <use xlink:href="#path-51"></use>
                                </mask>
                                <g id="path-51"></g>
                                <g id="Rectangle-2" mask="url(#mask-52)" stroke="#4A577A" stroke-width="10" fill="#EB8B93">
                                    <rect id="path-51" x="0" y="0" width="69" height="81"></rect>
                                </g>
                            </g>
                            <g id="round-window" transform="translate(38.000000, 49.000000)">
                                <ellipse id="Oval-2" stroke="#4A577A" stroke-width="5" fill="#FAB6AB" cx="41.5" cy="34.5" rx="39.5" ry="34.5"></ellipse>
                                <g id="Rectangle-5-Clipped" transform="translate(0.000000, 30.000000)">
                                    <mask id="mask-54" fill="white">
                                        <use xlink:href="#path-53"></use>
                                    </mask>
                                    <g id="path-53"></g>
                                    <g id="Rectangle-5" mask="url(#mask-54)" stroke="#4A577A" stroke-width="10" fill="#FAB6AB">
                                        <rect id="path-53" x="0" y="0" width="84" height="69"></rect>
                                    </g>
                                </g>
                                <ellipse id="Oval-2" fill="#FAB6AB" cx="27.5" cy="32.5" rx="22.5" ry="19.5"></ellipse>
                                <ellipse id="Oval-2" fill="#FAB6AB" cx="56.5" cy="34.5" rx="22.5" ry="19.5"></ellipse>
                            </g>
                            <rect id="Rectangle-6" fill="#B47F98" x="0" y="0" width="284.15625" height="11"></rect>
                            <rect id="Rectangle-6" fill="#B47F98" x="0" y="173" width="284.15625" height="11"></rect>
                        </g>
                        <g id="attic" transform="translate(1974.000000, 60.000000)">
                            <g id="Rectangle-10-Clipped" transform="translate(190.000000, 39.000000)">
                                <mask id="mask-56" fill="white">
                                    <use xlink:href="#path-55"></use>
                                </mask>
                                <g id="path-55"></g>
                                <g id="Rectangle-10" mask="url(#mask-56)" stroke="#4A577A" stroke-width="20" fill="#616D96">
                                    <rect id="path-55" x="0" y="0" width="156" height="335"></rect>
                                </g>
                            </g>
                            <ellipse id="Oval-2" fill="#F7E8C4" cx="249.5" cy="98.193787" rx="39.5" ry="34.193787"></ellipse>
                            <rect id="Rectangle-5" fill="#F7E8C4" x="210" y="99" width="79" height="121.908284"></rect>
                            <rect id="Rectangle-5" fill="#F7E8C4" x="210" y="234" width="79" height="114.970414"></rect>
                            <g id="Rectangle-10-Clipped" transform="translate(34.000000, 39.000000)">
                                <mask id="mask-58" fill="white">
                                    <use xlink:href="#path-57"></use>
                                </mask>
                                <g id="path-57"></g>
                                <g id="Rectangle-10" mask="url(#mask-58)" stroke="#4A577A" stroke-width="20" fill="#616D96">
                                    <rect id="path-57" x="0" y="0" width="156" height="335"></rect>
                                </g>
                            </g>
                            <ellipse id="Oval-2" fill="#F7E8C4" cx="124.5" cy="97.5" rx="39.5" ry="34.5"></ellipse>
                            <rect id="Rectangle-5" fill="#F7E8C4" x="85" y="98" width="79" height="123"></rect>
                            <rect id="Rectangle-5" fill="#F7E8C4" x="85" y="234" width="79" height="116"></rect>
                            <rect id="Rectangle" fill="#616D96" x="176" y="49" width="28" height="315"></rect>
                            <rect id="Rectangle-4" fill="#636A98" x="0" y="0" width="380" height="39"></rect>
                            <rect id="Rectangle-5" fill="#4B587B" x="26" y="38" width="329" height="11"></rect>
                            <rect id="Rectangle-6" fill="#B47F98" x="0" y="0" width="380" height="10"></rect>
                        </g>
                        <g id="small-building" transform="translate(0.000000, 314.000000)">
                            <rect id="Rectangle" fill="#636A98" x="22.0315789" y="40.2750491" width="278.784211" height="369.724951"></rect>
                            <rect id="Rectangle-2" fill="#4B587B" x="227.942105" y="133.713163" width="44.0631579" height="65.2455796"></rect>
                            <rect id="Rectangle-2" fill="#4B587B" x="172.863158" y="60.4125737" width="44.0631579" height="65.2455796"></rect>
                            <rect id="Rectangle-2" fill="#4B587B" x="172.863158" y="133.713163" width="44.0631579" height="65.2455796"></rect>
                            <rect id="Rectangle-2" fill="#4B587B" x="227.942105" y="60.4125737" width="44.0631579" height="65.2455796"></rect>
                            <rect id="Rectangle-2" fill="#4B587B" x="172.863158" y="277.897839" width="44.0631579" height="48.3300589"></rect>
                            <rect id="Rectangle-2" fill="#4B587B" x="102.531579" y="133.713163" width="44.0631579" height="65.2455796"></rect>
                            <rect id="Rectangle-2" fill="#4B587B" x="49.9947368" y="60.4125737" width="44.0631579" height="65.2455796"></rect>
                            <rect id="Rectangle-2" fill="#4B587B" x="102.531579" y="236.817289" width="44.0631579" height="65.2455796"></rect>
                            <rect id="Rectangle-3" fill="#4B587B" x="34.7421053" y="219.901768" width="126.681579" height="190.098232"></rect>
                            <rect id="Rectangle-2" fill="#4B587B" x="49.9947368" y="133.713163" width="44.0631579" height="65.2455796"></rect>
                            <rect id="Rectangle-2" fill="#636A98" x="102.531579" y="227.956778" width="44.0631579" height="98.2711198"></rect>
                            <rect id="Rectangle-2" fill="#4B587B" x="227.942105" y="277.897839" width="44.0631579" height="48.3300589"></rect>
                            <rect id="Rectangle-2" fill="#4B587B" x="172.863158" y="221.51277" width="44.0631579" height="48.3300589"></rect>
                            <rect id="Rectangle-2" fill="#4B587B" x="227.942105" y="221.51277" width="44.0631579" height="48.3300589"></rect>
                            <rect id="Rectangle-2" fill="#636A98" x="46.6052632" y="227.956778" width="44.0631579" height="98.2711198"></rect>
                            <rect id="Rectangle-2" fill="#4B587B" x="102.531579" y="60.4125737" width="44.0631579" height="65.2455796"></rect>
                            <rect id="Rectangle-5" fill="#4B587B" x="22.0315789" y="12.8880157" width="278.784211" height="31.4145383"></rect>
                            <rect id="Rectangle-4" fill="#636A98" x="0" y="0" width="322" height="31.4145383"></rect>
                            <rect id="Rectangle-6" fill="#B47F98" x="0" y="0" width="322" height="8.05500982"></rect>
                        </g>
                    </g>
                </g>
            </g>
        </g>
    </g>
</svg>