<?xml version="1.0" encoding="utf-8"?>
<!-- Generator: Adobe Illustrator 18.0.0, SVG Export Plug-In . SVG Version: 6.00 Build 0)  -->
<!DOCTYPE svg PUBLIC "-//W3C//DTD SVG 1.1//EN" "http://www.w3.org/Graphics/SVG/1.1/DTD/svg11.dtd">
<svg version="1.1" id="Layer_1" xmlns="http://www.w3.org/2000/svg" xmlns:xlink="http://www.w3.org/1999/xlink" x="0px" y="0px"
	 viewBox="0 0 122.1 257.2" enable-background="new 0 0 122.1 257.2" xml:space="preserve">
<g>
	<g>
		<path fill="#202020" d="M61.5,25.7H81c0,0,7.4,0.3,8.7-4.6s1.9-8.7,7.7-8s12,0.6,12.4,4c0.3,3.4,5.6,72,4.6,76s-5.6,6.2-5.6,9.3
			c0,3.1,0,131.9,0,131.9s2.2,13.6-6.2,13.6S61.5,249,61.5,249V25.7z"/>
	</g>
	<g>
		<path fill="#202020" d="M61.9,25.7H42.5c0,0-7.4,0.3-8.7-4.6c-1.2-4.9-1.9-8.7-7.7-8s-12,0.6-12.4,4c-0.3,3.4-5.6,72-4.6,76
			c0.9,4,5.6,6.2,5.6,9.3c0,3.1,0,131.9,0,131.9s-2.2,13.6,6.2,13.6s41.1,1.2,41.1,1.2V25.7z"/>
	</g>
	<g>
		<path fill="#3F3F3F" d="M61.9,101.4C32.9,104.1,33.5,89,33.5,89S27.6,53.2,27,43.3c-0.6-9.9,9-8,9-8h26h26c0,0,9.6-1.9,9,8
			C96.2,53.2,90.3,89,90.3,89S91,104.1,61.9,101.4z"/>
	</g>
	<g>
		<path fill="#3F3F3F" d="M61.9,108.5c0,0,13.3-0.9,15.8-1.9c2.5-0.9,6.8-0.3,5.3,4c-1.5,4.3-3.5,13-3.5,13s-1.7,5.6-6.8,5.6
			c-5.1,0-24.3,0-24.3,0s-7.1,1.2-9-4.3S35,109.4,35,109.4s0.6-4.5,6.2-3.2C46.8,107.5,58.8,108.7,61.9,108.5z"/>
	</g>
	<g>
		<path fill="#202020" d="M14.8,110c0,0,1.9,30.9,1.5,34c-0.3,3.1-6.2-0.9-5.9-8.7c0.3-7.7,0-18.2,0-18.2S10.4,111.6,14.8,110z"/>
	</g>
	<g>
		<path fill="#FFFFFF" d="M29.6,191l1.4,6.1l0.3,1.7l0.3-1.7l1.2-6.1h2.4l1.3,6.1l0.3,1.7l0.3-1.6l1.4-6.2h2.3l-3,10.7h-2.1
			l-1.3-6.2l-0.4-2.1l-0.4,2.1l-1.3,6.2h-2.1l-3-10.7H29.6z"/>
		<path fill="#FFFFFF" d="M43.6,191h2.5l3.8,10.7h-2.4l-0.7-2.2h-3.9l-0.7,2.2h-2.3L43.6,191z M43.5,197.6h2.7l-1.3-4.2L43.5,197.6z
			"/>
		<path fill="#FFFFFF" d="M57.4,191.3c0.4,0.2,0.7,0.4,1,0.7c0.2,0.3,0.4,0.6,0.5,0.9s0.2,0.7,0.2,1.1c0,0.5-0.1,1-0.4,1.5
			c-0.3,0.5-0.7,0.8-1.3,1c0.5,0.2,0.8,0.5,1,0.8c0.2,0.4,0.3,0.9,0.3,1.7v0.7c0,0.5,0,0.8,0.1,1c0.1,0.3,0.2,0.5,0.4,0.6v0.3h-2.5
			c-0.1-0.2-0.1-0.4-0.1-0.6c-0.1-0.3-0.1-0.6-0.1-0.9l0-1c0-0.7-0.1-1.1-0.4-1.4c-0.2-0.2-0.6-0.3-1.3-0.3h-2.2v4.2h-2.2V191h5.1
			C56.4,191,57,191.1,57.4,191.3z M52.8,192.9v2.9h2.4c0.5,0,0.8-0.1,1.1-0.2c0.4-0.2,0.6-0.6,0.6-1.2c0-0.6-0.2-1.1-0.6-1.3
			c-0.2-0.1-0.6-0.2-1-0.2H52.8z"/>
		<path fill="#FFFFFF" d="M60.5,191h2.3l4.2,7.4V191h2.1v10.7h-2.2l-4.3-7.6v7.6h-2.1V191z"/>
		<path fill="#FFFFFF" d="M72.5,201.7h-2.2V191h2.2V201.7z"/>
		<path fill="#FFFFFF" d="M73.8,191h2.3l4.2,7.4V191h2.1v10.7h-2.2l-4.3-7.6v7.6h-2.1V191z"/>
		<path fill="#FFFFFF" d="M91,194.3c-0.2-0.7-0.6-1.2-1.2-1.5c-0.4-0.2-0.8-0.2-1.2-0.2c-0.9,0-1.6,0.3-2.1,1
			c-0.6,0.6-0.8,1.6-0.8,2.9c0,1.3,0.3,2.2,0.9,2.8c0.6,0.5,1.3,0.8,2,0.8c0.7,0,1.4-0.2,1.8-0.6s0.8-1,0.9-1.7h-2.5V196h4.4v5.7
			h-1.5l-0.2-1.3c-0.4,0.5-0.8,0.9-1.2,1.1c-0.6,0.4-1.3,0.5-2.2,0.5c-1.4,0-2.6-0.5-3.5-1.5c-0.9-1-1.4-2.3-1.4-4
			c0-1.7,0.5-3.1,1.4-4.2c1-1,2.2-1.6,3.8-1.6c1.4,0,2.4,0.3,3.3,1c0.8,0.7,1.3,1.5,1.4,2.6H91z"/>
	</g>
</g>
</svg>
