<?xml version="1.0" encoding="UTF-8" standalone="no"?>
<svg width="287px" height="278px" viewBox="0 0 287 278" version="1.1" xmlns="http://www.w3.org/2000/svg" xmlns:xlink="http://www.w3.org/1999/xlink">
    <!-- Generator: Sketch 39.1 (31720) - http://www.bohemiancoding.com/sketch -->
    <title>tv-set</title>
    <desc>Created with Sketch.</desc>
    <defs>
        <linearGradient x1="50%" y1="91.1526864%" x2="50%" y2="5.43105811%" id="linearGradient-1">
            <stop stop-color="#A3A3A3" offset="0%"></stop>
            <stop stop-color="#FFFFFF" offset="100%"></stop>
        </linearGradient>
        <rect id="path-2" x="22" y="104" width="212" height="138" rx="10"></rect>
        <mask id="mask-3" maskContentUnits="userSpaceOnUse" maskUnits="objectBoundingBox" x="0" y="0" width="212" height="138" fill="white">
            <use xlink:href="#path-2"></use>
        </mask>
    </defs>
    <g id="tv-set" stroke="none" stroke-width="1" fill="none" fill-rule="evenodd">
        <g transform="translate(0.000000, -1.000000)">
            <ellipse id="Oval" fill="#53473D" cx="62" cy="265" rx="12" ry="14"></ellipse>
            <path d="M222,278 C228.627417,278 234,271.731986 234,264 C234,256.268014 228.627417,250 222,250 C215.372583,250 210,256.268014 210,264 C210,271.731986 215.372583,278 222,278 Z" id="Oval" fill="#53473D"></path>
            <path d="M135.5,128 C165.047234,128 189,113.449254 189,95.5 C189,77.5507456 165.047234,63 135.5,63 C105.952766,63 82,77.5507456 82,95.5 C82,113.449254 105.952766,128 135.5,128 Z" id="Oval-2" fill="#53473D"></path>
            <rect id="Rectangle" fill="#53473D" x="0" y="85" width="287" height="180" rx="11"></rect>
            <ellipse id="Oval" stroke="#979797" fill="#D8D8D8" cx="259" cy="173" rx="12" ry="14"></ellipse>
            <use id="Rectangle-2" stroke="#979797" mask="url(#mask-3)" stroke-width="2" fill="url(#linearGradient-1)" xlink:href="#path-2"></use>
            <ellipse id="Oval" stroke="#979797" fill="#D8D8D8" cx="259" cy="128" rx="12" ry="14"></ellipse>
            <polygon id="Triangle" fill="#010101" transform="translate(187.031089, 36.391016) rotate(30.000000) translate(-187.031089, -36.391016) " points="187.031089 -3.60898385 190.531089 76.3910162 183.531089 76.3910162"></polygon>
            <polygon id="Triangle" fill="#010101" transform="translate(85.031089, 36.391016) rotate(-30.000000) translate(-85.031089, -36.391016) " points="85.0310889 -3.60898385 88.5310889 76.3910162 81.5310889 76.3910162"></polygon>
        </g>
    </g>
</svg>